# Blender 4.1.1
# www.blender.org
mtllib Grass2.mtl
o 平面.003
v -4.815693 -0.005586 2.114377
v -5.153920 0.924469 1.810062
v -5.407304 1.737799 1.883542
v -4.808594 -0.011865 2.108811
v -4.891698 0.937820 1.972291
v -4.716056 1.585289 2.148335
v -4.828824 -0.009463 2.100362
v -5.084103 0.838914 2.242256
v -5.633490 1.484550 2.270270
v -4.809344 -0.007789 2.108424
v -4.873860 0.679095 1.801826
v -4.585308 1.194635 1.704498
v -3.368734 -0.005659 1.813518
v -3.969777 1.318912 2.008928
v -3.861847 2.544929 2.444467
v -3.374009 -0.015138 1.796778
v -3.459081 1.413085 1.736636
v -2.846778 2.474295 1.578652
v -3.405437 -0.016380 1.821564
v -3.170391 1.275623 2.325274
v -3.432935 2.184135 3.213742
v -3.374358 -0.009041 1.797364
v -3.805413 0.986202 1.556466
v -3.609930 1.814226 0.952354
v -3.143422 -0.003945 4.987076
v -3.382293 1.091326 5.444763
v -3.006529 2.125996 5.607478
v -3.158068 -0.011866 4.980015
v -3.232989 1.195919 4.937639
v -2.928935 2.121545 4.400065
v -3.161860 -0.014595 5.016232
v -2.658052 1.079610 5.138904
v -2.224424 1.822523 5.844780
v -3.157819 -0.006725 4.980370
v -3.581578 0.824271 5.060366
v -3.845454 1.544591 4.510831
v -2.120690 -0.004945 3.297119
v -1.610926 1.367883 3.695720
v -1.324840 2.664752 3.269598
v -2.132726 -0.014873 3.313564
v -2.202011 1.498982 3.396266
v -2.795404 2.659174 2.899138
v -2.088951 -0.018294 3.326482
v -1.823076 1.353198 2.733423
v -0.854332 2.284376 2.359608
v -2.132233 -0.008430 3.313339
v -2.130083 1.033153 3.853861
v -2.867487 1.936013 4.054027
v -4.380762 -0.005499 3.465840
v -4.838275 1.329186 3.025399
v -5.170683 2.570355 3.346389
v -4.368170 -0.015073 3.452742
v -4.340970 1.431494 3.355823
v -3.889036 2.514160 3.841540
v -4.406044 -0.016797 3.436392
v -4.738091 1.292240 3.906853
v -5.666312 2.205368 4.112145
v -4.368814 -0.008901 3.452755
v -4.349404 0.996177 2.949604
v -3.696052 1.840420 2.835500
v -3.135710 -0.010646 3.253536
v -3.564556 2.033119 4.144351
v -3.119471 3.868528 4.569258
v -3.155545 -0.024843 3.241768
v -3.353210 2.115179 3.398404
v -2.987186 3.635821 2.752565
v -3.161350 -0.022827 3.295768
v -2.540178 1.901026 3.668862
v -2.001580 3.313004 4.856019
v -3.155599 -0.015681 3.243228
v -3.816684 1.505226 3.522087
v -4.232622 2.703428 2.831840
v -1.652952 -0.005586 2.182932
v -1.287336 0.924469 1.912137
v -1.308846 1.737798 1.649192
v -1.648913 -0.011865 2.190999
v -1.498569 0.937820 2.136768
v -1.706086 1.585289 2.273804
v -1.636601 -0.009463 2.172858
v -1.724775 0.838914 1.894422
v -1.642739 1.484550 1.350472
v -1.648383 -0.007789 2.190340
v -1.335078 0.679095 2.188221
v -1.297208 1.194635 2.490381
v -4.566116 -0.005586 5.318642
v -4.904343 0.924469 5.014327
v -5.157727 1.737798 5.087807
v -4.559017 -0.011865 5.313076
v -4.642121 0.937820 5.176556
v -4.466478 1.585289 5.352600
v -4.579247 -0.009463 5.304627
v -4.834526 0.838914 5.446521
v -5.383913 1.484550 5.474535
v -4.559767 -0.007789 5.312689
v -4.624283 0.679096 5.006090
v -4.335731 1.194635 4.908762
v -1.424562 -0.005586 4.618979
v -1.020624 0.924469 4.828356
v -0.793896 1.737798 4.693460
v -1.430032 -0.011865 4.626152
v -1.315238 0.937820 4.737357
v -1.529539 1.585289 4.611194
v -1.408326 -0.009463 4.629236
v -1.196985 0.838914 4.427652
v -0.672340 1.484550 4.262249
v -1.429208 -0.007789 4.626338
v -1.289593 0.679096 4.906823
v -1.544354 1.194636 5.073652
v 1.508183 -0.005586 1.389775
v 1.169958 0.924469 1.085460
v 0.916574 1.737798 1.158940
v 1.515283 -0.011865 1.384210
v 1.432178 0.937820 1.247689
v 1.607821 1.585289 1.423733
v 1.495053 -0.009463 1.375760
v 1.239774 0.838914 1.517655
v 0.690387 1.484550 1.545668
v 1.514533 -0.007789 1.383822
v 1.450017 0.679095 1.077224
v 1.738569 1.194635 0.979896
v 2.955144 -0.005659 1.088916
v 2.354101 1.318912 1.284326
v 2.462030 2.544929 1.719865
v 2.949869 -0.015138 1.072176
v 2.864796 1.413085 1.012035
v 3.477099 2.474295 0.854050
v 2.918441 -0.016380 1.096962
v 3.153487 1.275623 1.600672
v 2.890942 2.184135 2.489141
v 2.949520 -0.009040 1.072762
v 2.518465 0.986202 0.831864
v 2.713948 1.814226 0.227752
v 3.180455 -0.003945 4.262474
v 2.941585 1.091326 4.720161
v 3.317348 2.125996 4.882876
v 3.165809 -0.011867 4.255413
v 3.090888 1.195919 4.213037
v 3.394943 2.121545 3.675464
v 3.162017 -0.014596 4.291630
v 3.665824 1.079609 4.414302
v 4.099452 1.822524 5.120179
v 3.166058 -0.006726 4.255768
v 2.742299 0.824271 4.335764
v 2.478424 1.544591 3.786229
v 4.203187 -0.004945 2.572517
v 4.712950 1.367883 2.971118
v 4.999037 2.664752 2.544996
v 4.191151 -0.014874 2.588963
v 4.121866 1.498982 2.671664
v 3.528473 2.659174 2.174537
v 4.234927 -0.018294 2.601880
v 4.500801 1.353198 2.008821
v 5.469546 2.284377 1.635007
v 4.191644 -0.008430 2.588737
v 4.193794 1.033153 3.129260
v 3.456390 1.936013 3.329425
v 1.943116 -0.005499 2.741238
v 1.485601 1.329186 2.300798
v 1.153194 2.570354 2.621788
v 1.955707 -0.015073 2.728140
v 1.982908 1.431494 2.631221
v 2.434842 2.514161 3.116938
v 1.917833 -0.016797 2.711791
v 1.585786 1.292240 3.182251
v 0.657566 2.205368 3.387543
v 1.955063 -0.008901 2.728154
v 1.974473 0.996177 2.225002
v 2.627825 1.840420 2.110898
v 3.188167 -0.010646 2.528934
v 2.759321 2.033119 3.419749
v 3.204406 3.868528 3.844656
v 3.168332 -0.024843 2.517166
v 2.970668 2.115179 2.673802
v 3.336690 3.635821 2.027963
v 3.162527 -0.022827 2.571166
v 3.783699 1.901027 2.944260
v 4.322299 3.313003 4.131417
v 3.168277 -0.015681 2.518626
v 2.507194 1.505226 2.797486
v 2.091255 2.703428 2.107238
v 4.670926 -0.005586 1.458331
v 5.036541 0.924469 1.187536
v 5.015030 1.737798 0.924591
v 4.674963 -0.011865 1.466397
v 4.825307 0.937820 1.412166
v 4.617791 1.585289 1.549202
v 4.687276 -0.009463 1.448256
v 4.599102 0.838914 1.169820
v 4.681138 1.484550 0.625871
v 4.675495 -0.007789 1.465739
v 4.988799 0.679095 1.463619
v 5.026669 1.194636 1.765779
v 1.757761 -0.005585 4.594040
v 1.419535 0.924469 4.289725
v 1.166151 1.737799 4.363205
v 1.764861 -0.011865 4.588474
v 1.681756 0.937820 4.451954
v 1.857398 1.585289 4.627998
v 1.744630 -0.009463 4.580025
v 1.489352 0.838914 4.721919
v 0.939964 1.484550 4.749932
v 1.764110 -0.007789 4.588087
v 1.699594 0.679095 4.281488
v 1.988146 1.194635 4.184161
v 4.899315 -0.005586 3.894377
v 5.303253 0.924469 4.103754
v 5.529981 1.737798 3.968858
v 4.893846 -0.011865 3.901550
v 5.008640 0.937820 4.012755
v 4.794339 1.585289 3.886593
v 4.915552 -0.009463 3.904635
v 5.126892 0.838914 3.703051
v 5.651537 1.484550 3.537648
v 4.894669 -0.007789 3.901736
v 5.034284 0.679096 4.182221
v 4.779522 1.194635 4.349050
v 2.181974 -0.005586 -4.548690
v 1.843748 0.924469 -4.853004
v 1.590364 1.737799 -4.779525
v 2.189074 -0.011865 -4.554255
v 2.105970 0.937820 -4.690776
v 2.281612 1.585289 -4.514731
v 2.168844 -0.009463 -4.562704
v 1.913565 0.838914 -4.420811
v 1.364178 1.484550 -4.392797
v 2.188323 -0.007789 -4.554643
v 2.123808 0.679096 -4.861240
v 2.412360 1.194635 -4.958569
v 3.628934 -0.005659 -4.849548
v 3.027890 1.318912 -4.654139
v 3.135821 2.544929 -4.218600
v 3.623659 -0.015138 -4.866288
v 3.538587 1.413085 -4.926431
v 4.150889 2.474296 -5.084414
v 3.592230 -0.016380 -4.841502
v 3.827277 1.275623 -4.337792
v 3.564733 2.184135 -3.449324
v 3.623311 -0.009040 -4.865703
v 3.192255 0.986202 -5.106601
v 3.387739 1.814226 -5.710712
v 3.854246 -0.003945 -1.675991
v 3.615375 1.091326 -1.218303
v 3.991139 2.125996 -1.055588
v 3.839600 -0.011866 -1.683052
v 3.764678 1.195920 -1.725427
v 4.068734 2.121545 -2.263001
v 3.835808 -0.014595 -1.646835
v 4.339615 1.079610 -1.524163
v 4.773243 1.822524 -0.818286
v 3.839848 -0.006725 -1.682697
v 3.416090 0.824271 -1.602701
v 3.152214 1.544591 -2.152236
v 4.876978 -0.004945 -3.365948
v 5.386743 1.367883 -2.967347
v 5.672827 2.664753 -3.393469
v 4.864942 -0.014873 -3.349502
v 4.795657 1.498982 -3.266801
v 4.202263 2.659174 -3.763928
v 4.908717 -0.018294 -3.336585
v 5.174592 1.353198 -3.929643
v 6.143336 2.284377 -4.303458
v 4.865435 -0.008430 -3.349728
v 4.867584 1.033153 -2.809205
v 4.130181 1.936012 -2.609039
v 2.616906 -0.005499 -3.197226
v 2.159392 1.329186 -3.637667
v 1.826985 2.570355 -3.316677
v 2.629498 -0.015073 -3.210325
v 2.656699 1.431495 -3.307244
v 3.108632 2.514160 -2.821527
v 2.591624 -0.016797 -3.226674
v 2.259576 1.292240 -2.756214
v 1.331357 2.205369 -2.550922
v 2.628854 -0.008901 -3.210311
v 2.648264 0.996177 -3.713463
v 3.301616 1.840419 -3.827566
v 3.861958 -0.010646 -3.409530
v 3.433112 2.033119 -2.518715
v 3.878197 3.868528 -2.093808
v 3.842123 -0.024844 -3.421299
v 3.644458 2.115179 -3.264663
v 4.010481 3.635821 -3.910502
v 3.836318 -0.022827 -3.367299
v 4.457490 1.901027 -2.994204
v 4.996089 3.313004 -1.807048
v 3.842068 -0.015681 -3.419839
v 3.180985 1.505226 -3.140980
v 2.765047 2.703428 -3.831227
v 5.344716 -0.005586 -4.480134
v 5.710331 0.924469 -4.750929
v 5.688822 1.737799 -5.013874
v 5.348755 -0.011865 -4.472068
v 5.499099 0.937820 -4.526299
v 5.291583 1.585289 -4.389262
v 5.361067 -0.009463 -4.490210
v 5.272892 0.838914 -4.768644
v 5.354929 1.484550 -5.312594
v 5.349285 -0.007789 -4.472727
v 5.662590 0.679096 -4.474846
v 5.700459 1.194636 -4.172686
v 2.431551 -0.005586 -1.344425
v 2.093325 0.924469 -1.648740
v 1.839942 1.737799 -1.575260
v 2.438651 -0.011865 -1.349991
v 2.355546 0.937820 -1.486511
v 2.531189 1.585289 -1.310467
v 2.418421 -0.009463 -1.358440
v 2.163142 0.838915 -1.216546
v 1.613755 1.484550 -1.188532
v 2.437900 -0.007789 -1.350378
v 2.373385 0.679096 -1.656976
v 2.661937 1.194636 -1.754304
v 5.573105 -0.005586 -2.044088
v 5.977044 0.924469 -1.834711
v 6.203773 1.737799 -1.969607
v 5.567636 -0.011865 -2.036915
v 5.682429 0.937820 -1.925709
v 5.468128 1.585289 -2.051872
v 5.589343 -0.009463 -2.033830
v 5.800683 0.838914 -2.235414
v 6.325327 1.484550 -2.400817
v 5.568460 -0.007789 -2.036729
v 5.708075 0.679095 -1.756243
v 5.453315 1.194636 -1.589415
v -4.533457 -0.005586 -4.533229
v -4.871684 0.924469 -4.837544
v -5.125068 1.737798 -4.764064
v -4.526358 -0.011865 -4.538795
v -4.609462 0.937820 -4.675316
v -4.433820 1.585289 -4.499271
v -4.546588 -0.009464 -4.547244
v -4.801867 0.838914 -4.405351
v -5.351254 1.484550 -4.377337
v -4.527108 -0.007790 -4.539183
v -4.591623 0.679095 -4.845780
v -4.303072 1.194636 -4.943109
v -3.086498 -0.005659 -4.834088
v -3.687541 1.318912 -4.638679
v -3.579611 2.544929 -4.203139
v -3.091772 -0.015138 -4.850828
v -3.176844 1.413085 -4.910971
v -2.564543 2.474295 -5.068954
v -3.123201 -0.016380 -4.826042
v -2.888155 1.275623 -4.322332
v -3.150699 2.184135 -3.433864
v -3.092122 -0.009041 -4.850243
v -3.523177 0.986202 -5.091141
v -3.327693 1.814226 -5.695252
v -2.861186 -0.003945 -1.660531
v -3.100057 1.091326 -1.202843
v -2.724293 2.125996 -1.040128
v -2.875832 -0.011867 -1.667591
v -2.950754 1.195919 -1.709967
v -2.646699 2.121545 -2.247541
v -2.879624 -0.014596 -1.631375
v -2.375816 1.079609 -1.508703
v -1.942188 1.822523 -0.802826
v -2.875583 -0.006725 -1.667237
v -3.299342 0.824271 -1.587240
v -3.563217 1.544591 -2.136775
v -1.838454 -0.004945 -3.350487
v -1.328690 1.367883 -2.951887
v -1.042603 2.664752 -3.378008
v -1.850490 -0.014874 -3.334042
v -1.919775 1.498982 -3.251341
v -2.513168 2.659174 -3.748468
v -1.806715 -0.018294 -3.321125
v -1.540840 1.353198 -3.914183
v -0.572095 2.284377 -4.287998
v -1.849997 -0.008430 -3.334268
v -1.847847 1.033153 -2.793745
v -2.585251 1.936013 -2.593579
v -4.098525 -0.005499 -3.181766
v -4.556040 1.329186 -3.622207
v -4.888447 2.570355 -3.301217
v -4.085934 -0.015073 -3.194865
v -4.058733 1.431494 -3.291784
v -3.606799 2.514160 -2.806066
v -4.123808 -0.016797 -3.211214
v -4.455855 1.292240 -2.740754
v -5.384076 2.205368 -2.535462
v -4.086578 -0.008901 -3.194851
v -4.067168 0.996177 -3.698003
v -3.413816 1.840420 -3.812107
v -2.853474 -0.010646 -3.394070
v -3.282320 2.033119 -2.503255
v -2.837234 3.868528 -2.078348
v -2.873309 -0.024844 -3.405839
v -3.070974 2.115179 -3.249202
v -2.704950 3.635821 -3.895042
v -2.879114 -0.022827 -3.351838
v -2.257942 1.901027 -2.978745
v -1.719343 3.313003 -1.791588
v -2.873363 -0.015681 -3.404379
v -3.534447 1.505226 -3.125519
v -3.950386 2.703428 -3.815766
v -1.370716 -0.005586 -4.464674
v -1.005100 0.924469 -4.735469
v -1.026610 1.737798 -4.998414
v -1.366677 -0.011865 -4.456608
v -1.216333 0.937820 -4.510839
v -1.423850 1.585289 -4.373803
v -1.354365 -0.009463 -4.474749
v -1.442539 0.838914 -4.753184
v -1.360504 1.484550 -5.297133
v -1.366148 -0.007789 -4.457266
v -1.052842 0.679095 -4.459385
v -1.014972 1.194635 -4.157226
v -4.283880 -0.005586 -1.328965
v -4.622107 0.924469 -1.633280
v -4.875490 1.737798 -1.559799
v -4.276781 -0.011865 -1.334531
v -4.359885 0.937820 -1.471051
v -4.184243 1.585289 -1.295007
v -4.297011 -0.009463 -1.342980
v -4.552290 0.838914 -1.201085
v -5.101677 1.484550 -1.173072
v -4.277531 -0.007789 -1.334918
v -4.342047 0.679095 -1.641516
v -4.053494 1.194635 -1.738844
v -1.142326 -0.005586 -2.028628
v -0.738388 0.924469 -1.819251
v -0.511660 1.737799 -1.954147
v -1.147796 -0.011865 -2.021455
v -1.033002 0.937820 -1.910249
v -1.247303 1.585289 -2.036412
v -1.126090 -0.009463 -2.018370
v -0.914749 0.838914 -2.219954
v -0.390104 1.484550 -2.385357
v -1.146972 -0.007790 -2.021269
v -1.007357 0.679095 -1.740783
v -1.262118 1.194635 -1.573955
v -1.569234 -0.009970 -2.056148
v -2.149998 1.536635 -2.559746
v -2.580374 2.872784 -2.493350
v -1.559242 -0.020694 -2.063779
v -1.786771 1.523092 -2.303796
v -1.611363 2.540278 -2.054073
v -1.587411 -0.014260 -2.077604
v -2.020252 1.376226 -1.910926
v -2.835329 2.477120 -1.923833
v -1.560740 -0.014031 -2.064537
v -1.743568 1.110136 -2.547046
v -1.416560 1.911418 -2.692084
v 0.372654 -0.162709 -2.417322
v -0.578907 2.031938 -2.207864
v -0.544984 3.979837 -1.596543
v 0.365588 -0.176814 -2.442168
v 0.086044 2.135431 -2.585202
v 0.786508 3.781317 -2.819768
v 0.324629 -0.176121 -2.407179
v 0.527314 1.861436 -1.689363
v 0.122016 3.324151 -0.416563
v 0.364462 -0.166972 -2.441528
v -0.345610 1.492926 -2.858669
v -0.209795 2.825321 -3.772398
v 0.865297 -0.293518 2.308423
v 0.445561 1.482056 2.936580
v 0.847627 3.100881 3.165143
v 0.845935 -0.304388 2.297342
v 0.606003 1.651022 2.188805
v 0.881809 3.126146 1.376974
v 0.843247 -0.309592 2.350989
v 1.409658 1.392086 2.525635
v 1.955057 2.515911 3.574120
v 0.845714 -0.296147 2.297708
v 0.182989 1.087416 2.363101
v -0.287971 2.296167 1.506920
v 2.150589 -0.352632 -0.140508
v 2.710021 1.787780 0.434722
v 2.926294 3.859136 -0.225335
v 2.136378 -0.367831 -0.116462
v 1.877024 2.075705 -0.049371
v 0.913370 4.028317 -0.862217
v 2.196815 -0.378710 -0.094575
v 2.367440 1.820817 -1.006258
v 3.552521 3.224481 -1.535800
v 2.136308 -0.357499 -0.116987
v 2.053938 1.301636 0.650259
v 0.965450 2.832168 0.873094
v -0.900273 -0.104868 -0.023614
v -1.696191 2.111593 -0.750199
v -2.267114 4.137372 -0.335533
v -0.882917 -0.121262 -0.041993
v -1.014645 2.209148 -0.233624
v -0.495719 3.885700 0.477440
v -0.934984 -0.119218 -0.068452
v -1.504219 2.010748 0.565873
v -2.851990 3.579125 0.784686
v -0.884483 -0.111248 -0.042221
v -1.001090 1.522728 -0.822483
v -0.218012 2.813000 -0.982064
v 0.773972 -0.246073 -0.265060
v 0.015793 3.063976 0.962682
v 0.437113 5.955910 1.557376
v 0.748011 -0.266308 -0.283224
v 0.248675 3.197804 -0.135288
v 0.535025 5.628112 -1.124510
v 0.743115 -0.264248 -0.203450
v 1.389896 2.752100 0.321705
v 2.030610 4.925442 2.068247
v 0.746993 -0.251592 -0.281372
v -0.303051 2.263232 0.041758
v -1.042071 4.263680 -1.048657
v 2.718243 -0.368326 -1.767301
v 3.092702 1.097906 -2.179499
v 2.956467 2.419425 -2.598956
v 2.724897 -0.379171 -1.754871
v 2.818404 1.135531 -1.858889
v 2.472577 2.197178 -1.689750
v 2.740228 -0.376070 -1.781162
v 2.508845 1.009937 -2.228759
v 2.515102 2.059257 -3.053642
v 2.725116 -0.372643 -1.755956
v 3.071992 0.698613 -1.763995
v 3.083119 1.514492 -1.330649
v -1.041720 -0.147318 2.716688
v -1.622483 1.399287 2.213091
v -2.052860 2.735436 2.279485
v -1.031727 -0.158042 2.709058
v -1.259256 1.385744 2.469040
v -1.083848 2.402930 2.718763
v -1.059896 -0.151608 2.695233
v -1.492737 1.238878 2.861911
v -2.307814 2.339772 2.849003
v -1.033226 -0.151379 2.708299
v -1.216054 0.972788 2.225790
v -0.889045 1.774071 2.080752
v 3.171629 -0.477095 1.863538
v 3.626388 0.968451 2.166624
v 3.833924 2.257660 1.951992
v 3.165353 -0.486839 1.874081
v 3.220497 1.026223 2.013620
v 2.849916 2.097608 1.791528
v 3.194663 -0.485519 1.879863
v 3.373469 0.864152 1.564099
v 4.001557 1.850741 1.327503
v 3.166021 -0.480374 1.874267
v 3.294376 0.600798 2.275602
v 2.901176 1.454233 2.490684
vn 0.9450 0.3051 -0.1180
vn 0.7567 -0.0277 -0.6532
vn -0.2141 -0.2235 0.9509
vn 0.3426 -0.3559 -0.8695
vn 0.3429 0.2875 -0.8943
vn -0.1652 -0.0513 -0.9849
vn 0.7283 -0.3599 0.5832
vn -0.5368 -0.4109 -0.7369
vn -0.3927 0.2804 -0.8759
vn -0.8112 -0.0707 -0.5805
vn 0.9058 -0.4021 -0.1332
vn -0.8867 -0.4379 -0.1482
vn -0.9326 0.2804 0.2271
vn -0.7182 -0.0707 0.6923
vn 0.0335 -0.4021 -0.9150
vn -0.3068 -0.4379 0.8451
vn 0.9506 0.2859 -0.1211
vn 0.7899 -0.0558 -0.6107
vn -0.1614 -0.3698 0.9150
vn 0.3962 -0.4171 -0.8180
vn -0.3932 0.2968 -0.8702
vn -0.8306 -0.0361 -0.5556
vn 0.9528 -0.2909 -0.0863
vn -0.9189 -0.3800 -0.1059
vn -0.0727 0.3051 0.9496
vn 0.4893 -0.0277 0.8717
vn -0.8891 -0.2235 -0.3993
vn 0.7837 -0.3559 0.5090
vn 0.3426 -0.3559 -0.8694
vn -0.8849 0.3051 0.3520
vn -0.5679 -0.0277 0.8226
vn -0.0321 -0.2235 -0.9742
vn -0.1127 -0.3559 0.9277
vn -0.8891 -0.2235 -0.3994
vn 0.9413 0.3099 -0.1340
vn 0.7816 0.0183 -0.6235
vn -0.2872 -0.2016 0.9364
vn 0.3789 -0.3123 -0.8712
vn 0.4202 0.2650 -0.8678
vn -0.1456 -0.0786 -0.9862
vn 0.7773 -0.2764 0.5652
vn -0.5749 -0.4221 -0.7009
vn -0.3915 0.2233 -0.8927
vn -0.8402 -0.1323 -0.5258
vn 0.9398 -0.2951 -0.1725
vn -0.8987 -0.4255 -0.1063
vn -0.9503 0.1801 0.2539
vn -0.7497 -0.0975 0.6545
vn 0.0448 -0.3855 -0.9216
vn -0.3956 -0.4016 0.8260
vn 0.9457 0.2946 -0.1372
vn 0.8104 -0.0024 -0.5859
vn -0.2433 -0.3360 0.9099
vn 0.4309 -0.3636 -0.8259
vn -0.3918 0.2397 -0.8883
vn -0.8595 -0.1025 -0.5007
vn 0.9744 -0.1873 -0.1244
vn -0.9238 -0.3772 -0.0660
vn -0.0963 0.2921 0.9515
vn 0.5069 0.0279 0.8615
vn -0.9046 -0.2601 -0.3377
vn 0.8352 -0.2668 0.4809
vn -0.9057 0.2074 0.3699
vn -0.6159 -0.0501 0.7862
vn -0.0113 -0.2264 -0.9740
vn -0.1908 -0.3216 0.9275
vt 0.462853 0.523000
vt 0.311083 0.998491
vt 0.311083 0.001509
vt 0.308066 0.523000
vt 0.156296 0.998491
vt 0.156296 0.001509
vt 0.153279 0.523000
vt 0.001509 0.998491
vt 0.001509 0.001509
vt 0.613630 0.394601
vt 0.465870 0.791250
vt 0.465871 0.001509
s 0
usemtl マテリアル.017
f 2/1/1 3/2/1 1/3/1
f 5/4/2 6/5/2 4/6/2
f 8/7/3 9/8/3 7/9/3
f 11/10/4 12/11/4 10/12/4
f 14/1/5 15/2/5 13/3/5
f 17/4/6 18/5/6 16/6/6
f 20/7/7 21/8/7 19/9/7
f 23/10/8 24/11/8 22/12/8
f 26/1/9 27/2/9 25/3/9
f 29/4/10 30/5/10 28/6/10
f 32/7/11 33/8/11 31/9/11
f 35/10/12 36/11/12 34/12/12
f 38/1/13 39/2/13 37/3/13
f 41/4/14 42/5/14 40/6/14
f 44/7/15 45/8/15 43/9/15
f 47/10/16 48/11/16 46/12/16
f 50/1/17 51/2/17 49/3/17
f 53/4/18 54/5/18 52/6/18
f 56/7/19 57/8/19 55/9/19
f 59/10/20 60/11/20 58/12/20
f 62/1/21 63/2/21 61/3/21
f 65/4/22 66/5/22 64/6/22
f 68/7/23 69/8/23 67/9/23
f 71/10/24 72/11/24 70/12/24
f 74/1/25 75/2/25 73/3/25
f 77/4/26 78/5/26 76/6/26
f 80/7/27 81/8/27 79/9/27
f 83/10/28 84/11/28 82/12/28
f 86/1/1 87/2/1 85/3/1
f 89/4/2 90/5/2 88/6/2
f 92/7/3 93/8/3 91/9/3
f 95/10/29 96/11/29 94/12/29
f 98/1/30 99/2/30 97/3/30
f 101/4/31 102/5/31 100/6/31
f 104/7/32 105/8/32 103/9/32
f 107/10/33 108/11/33 106/12/33
f 110/1/1 111/2/1 109/3/1
f 113/4/2 114/5/2 112/6/2
f 116/7/3 117/8/3 115/9/3
f 119/10/29 120/11/29 118/12/29
f 122/1/5 123/2/5 121/3/5
f 125/4/6 126/5/6 124/6/6
f 128/7/7 129/8/7 127/9/7
f 131/10/8 132/11/8 130/12/8
f 134/1/9 135/2/9 133/3/9
f 137/4/10 138/5/10 136/6/10
f 140/7/11 141/8/11 139/9/11
f 143/10/12 144/11/12 142/12/12
f 146/1/13 147/2/13 145/3/13
f 149/4/14 150/5/14 148/6/14
f 152/7/15 153/8/15 151/9/15
f 155/10/16 156/11/16 154/12/16
f 158/1/17 159/2/17 157/3/17
f 161/4/18 162/5/18 160/6/18
f 164/7/19 165/8/19 163/9/19
f 167/10/20 168/11/20 166/12/20
f 170/1/21 171/2/21 169/3/21
f 173/4/22 174/5/22 172/6/22
f 176/7/23 177/8/23 175/9/23
f 179/10/24 180/11/24 178/12/24
f 182/1/25 183/2/25 181/3/25
f 185/4/26 186/5/26 184/6/26
f 188/7/34 189/8/34 187/9/34
f 191/10/28 192/11/28 190/12/28
f 194/1/1 195/2/1 193/3/1
f 197/4/2 198/5/2 196/6/2
f 200/7/3 201/8/3 199/9/3
f 203/10/29 204/11/29 202/12/29
f 206/1/30 207/2/30 205/3/30
f 209/4/31 210/5/31 208/6/31
f 212/7/32 213/8/32 211/9/32
f 215/10/33 216/11/33 214/12/33
f 218/1/1 219/2/1 217/3/1
f 221/4/2 222/5/2 220/6/2
f 224/7/3 225/8/3 223/9/3
f 227/10/4 228/11/4 226/12/4
f 230/1/5 231/2/5 229/3/5
f 233/4/6 234/5/6 232/6/6
f 236/7/7 237/8/7 235/9/7
f 239/10/8 240/11/8 238/12/8
f 242/1/9 243/2/9 241/3/9
f 245/4/10 246/5/10 244/6/10
f 248/7/11 249/8/11 247/9/11
f 251/10/12 252/11/12 250/12/12
f 254/1/13 255/2/13 253/3/13
f 257/4/14 258/5/14 256/6/14
f 260/7/15 261/8/15 259/9/15
f 263/10/16 264/11/16 262/12/16
f 266/1/17 267/2/17 265/3/17
f 269/4/18 270/5/18 268/6/18
f 272/7/19 273/8/19 271/9/19
f 275/10/20 276/11/20 274/12/20
f 278/1/21 279/2/21 277/3/21
f 281/4/22 282/5/22 280/6/22
f 284/7/23 285/8/23 283/9/23
f 287/10/24 288/11/24 286/12/24
f 290/1/25 291/2/25 289/3/25
f 293/4/26 294/5/26 292/6/26
f 296/7/27 297/8/27 295/9/27
f 299/10/28 300/11/28 298/12/28
f 302/1/1 303/2/1 301/3/1
f 305/4/2 306/5/2 304/6/2
f 308/7/3 309/8/3 307/9/3
f 311/10/29 312/11/29 310/12/29
f 314/1/30 315/2/30 313/3/30
f 317/4/31 318/5/31 316/6/31
f 320/7/32 321/8/32 319/9/32
f 323/10/33 324/11/33 322/12/33
f 326/1/1 327/2/1 325/3/1
f 329/4/2 330/5/2 328/6/2
f 332/7/3 333/8/3 331/9/3
f 335/10/4 336/11/4 334/12/4
f 338/1/5 339/2/5 337/3/5
f 341/4/6 342/5/6 340/6/6
f 344/7/7 345/8/7 343/9/7
f 347/10/8 348/11/8 346/12/8
f 350/1/9 351/2/9 349/3/9
f 353/4/10 354/5/10 352/6/10
f 356/7/11 357/8/11 355/9/11
f 359/10/12 360/11/12 358/12/12
f 362/1/13 363/2/13 361/3/13
f 365/4/14 366/5/14 364/6/14
f 368/7/15 369/8/15 367/9/15
f 371/10/16 372/11/16 370/12/16
f 374/1/17 375/2/17 373/3/17
f 377/4/18 378/5/18 376/6/18
f 380/7/19 381/8/19 379/9/19
f 383/10/20 384/11/20 382/12/20
f 386/1/21 387/2/21 385/3/21
f 389/4/22 390/5/22 388/6/22
f 392/7/23 393/8/23 391/9/23
f 395/10/24 396/11/24 394/12/24
f 398/1/25 399/2/25 397/3/25
f 401/4/26 402/5/26 400/6/26
f 404/7/27 405/8/27 403/9/27
f 407/10/28 408/11/28 406/12/28
f 410/1/1 411/2/1 409/3/1
f 413/4/2 414/5/2 412/6/2
f 416/7/3 417/8/3 415/9/3
f 419/10/29 420/11/29 418/12/29
f 422/1/30 423/2/30 421/3/30
f 425/4/31 426/5/31 424/6/31
f 428/7/32 429/8/32 427/9/32
f 431/10/33 432/11/33 430/12/33
f 434/1/35 435/2/35 433/3/35
f 437/4/36 438/5/36 436/6/36
f 440/7/37 441/8/37 439/9/37
f 443/10/38 444/11/38 442/12/38
f 446/1/39 447/2/39 445/3/39
f 449/4/40 450/5/40 448/6/40
f 452/7/41 453/8/41 451/9/41
f 455/10/42 456/11/42 454/12/42
f 458/1/43 459/2/43 457/3/43
f 461/4/44 462/5/44 460/6/44
f 464/7/45 465/8/45 463/9/45
f 467/10/46 468/11/46 466/12/46
f 470/1/47 471/2/47 469/3/47
f 473/4/48 474/5/48 472/6/48
f 476/7/49 477/8/49 475/9/49
f 479/10/50 480/11/50 478/12/50
f 482/1/51 483/2/51 481/3/51
f 485/4/52 486/5/52 484/6/52
f 488/7/53 489/8/53 487/9/53
f 491/10/54 492/11/54 490/12/54
f 494/1/55 495/2/55 493/3/55
f 497/4/56 498/5/56 496/6/56
f 500/7/57 501/8/57 499/9/57
f 503/10/58 504/11/58 502/12/58
f 506/1/59 507/2/59 505/3/59
f 509/4/60 510/5/60 508/6/60
f 512/7/61 513/8/61 511/9/61
f 515/10/62 516/11/62 514/12/62
f 518/1/35 519/2/35 517/3/35
f 521/4/36 522/5/36 520/6/36
f 524/7/37 525/8/37 523/9/37
f 527/10/38 528/11/38 526/12/38
f 530/1/63 531/2/63 529/3/63
f 533/4/64 534/5/64 532/6/64
f 536/7/65 537/8/65 535/9/65
f 539/10/66 540/11/66 538/12/66
