# Blender 4.1.1
# www.blender.org
mtllib Grass.mtl
o 平面.001
v 0.031200 -0.004945 0.020112
v -0.615535 1.367883 0.041932
v -0.561182 2.664752 0.552295
v 0.029866 -0.014873 -0.000223
v 0.029866 1.498982 -0.108112
v 0.803978 2.659174 -0.108112
v -0.011986 -0.018294 0.017987
v 0.165065 1.353198 0.643336
v -0.337462 2.284376 1.551999
v 0.029632 -0.008430 0.000266
v -0.319133 1.033153 -0.412689
v 0.117576 1.936012 -1.039678
vn 0.5691 0.2804 -0.7730
vn 0.1059 -0.0707 -0.9919
vn 0.5619 -0.4021 0.7229
vn -0.3075 -0.4379 -0.8448
vt 0.462853 0.523000
vt 0.311083 0.998491
vt 0.311083 0.001509
vt 0.308066 0.523000
vt 0.156296 0.998491
vt 0.156296 0.001509
vt 0.153279 0.523000
vt 0.001509 0.998491
vt 0.001509 0.001509
vt 0.613630 0.394601
vt 0.465870 0.791250
vt 0.465871 0.001509
s 0
usemtl マテリアル.001
f 2/1/1 3/2/1 1/3/1
f 5/4/2 6/5/2 4/6/2
f 8/7/3 9/8/3 7/9/3
f 11/10/4 12/11/4 10/12/4
