# Blender 4.2.2 LTS
# www.blender.org
mtllib Test_World.mtl
o Cube
v 5.790267 1.453032 -12.071955
v 5.790267 -1.453032 -12.071955
v 5.790267 1.453032 12.071955
v 5.790267 -1.453032 12.071955
v -5.790267 1.453032 -12.071955
v -5.790267 -1.453032 -12.071955
v -5.790267 1.453032 12.071955
v -5.790267 -1.453032 12.071955
v -5.790267 -1.453032 0.000000
v 5.790267 3.796178 0.000000
v -5.790267 3.796178 0.000000
v 5.790267 -1.453032 0.000000
v -5.790267 -1.453032 6.035977
v 5.790267 3.253866 6.035977
v -5.790267 3.253866 6.035977
v 5.790267 -1.453032 6.035977
v -5.790267 2.480234 -6.035977
v 5.790267 -1.453032 -6.035977
v -5.790267 -1.453032 -6.035977
v 5.790267 2.480234 -6.035977
v -5.790267 -1.453032 9.053967
v 5.790267 3.821751 9.053967
v -5.790267 3.821751 9.053967
v 5.790267 -1.453032 9.053967
v -5.790267 2.410322 3.017989
v 5.790267 -1.453032 3.017989
v -5.790267 -1.453032 3.017989
v 5.790267 2.410322 3.017989
v -5.790267 -1.453032 -3.017989
v 5.790267 1.800007 -3.017989
v -5.790267 1.800007 -3.017989
v 5.790267 -1.453032 -3.017989
v -5.790267 1.924494 -9.053967
v 5.790267 -1.453032 -9.053967
v -5.790267 -1.453032 -9.053967
v 5.790267 1.924494 -9.053967
vn -0.0000 0.7866 0.6174
vn -0.0000 -0.0000 1.0000
vn -1.0000 -0.0000 -0.0000
vn -0.0000 -1.0000 -0.0000
vn -0.0000 -0.0000 -1.0000
vn -0.0000 0.8341 -0.5517
vn -0.0000 0.9631 -0.2692
vn -0.0000 0.9835 -0.1811
vn -0.0000 0.9828 -0.1849
vn -0.0000 0.9088 0.4173
vn -0.0000 0.9755 0.2199
vn -0.0000 0.9880 -0.1543
vt 0.875000 0.718750
vt 0.625000 0.750000
vt 0.625000 0.718750
vt 0.375000 1.000000
vt 0.375000 0.750000
vt 0.375000 0.218750
vt 0.625000 0.250000
vt 0.375000 0.250000
vt 0.375000 0.718750
vt 0.125000 0.750000
vt 0.125000 0.718750
vt 0.375000 0.500000
vt 0.375000 0.593750
vt 0.125000 0.625000
vt 0.125000 0.593750
vt 0.625000 0.093750
vt 0.375000 0.125000
vt 0.375000 0.093750
vt 0.875000 0.593750
vt 0.625000 0.625000
vt 0.625000 0.593750
vt 0.375000 0.031250
vt 0.625000 0.062500
vt 0.375000 0.062500
vt 0.375000 0.656250
vt 0.125000 0.687500
vt 0.125000 0.656250
vt 0.875000 0.656250
vt 0.625000 0.687500
vt 0.625000 0.656250
vt 0.875000 0.531250
vt 0.625000 0.562500
vt 0.625000 0.531250
vt 0.375000 0.531250
vt 0.125000 0.562500
vt 0.125000 0.531250
vt 0.625000 0.156250
vt 0.375000 0.187500
vt 0.375000 0.156250
vt 0.625000 0.000000
vt 0.375000 0.000000
vt 0.375000 0.687500
vt 0.875000 0.687500
vt 0.875000 0.625000
vt 0.375000 0.625000
vt 0.875000 0.562500
vt 0.375000 0.562500
vt 0.125000 0.500000
vt 0.875000 0.500000
vt 0.625000 0.500000
vt 0.625000 0.218750
vt 0.875000 0.750000
vt 0.625000 1.000000
vt 0.625000 0.125000
vt 0.625000 0.031250
vt 0.625000 0.187500
s 0
usemtl Material
f 23/1/1 3/2/1 22/3/1
f 3/2/2 8/4/2 4/5/2
f 35/6/3 5/7/3 6/8/3
f 24/9/4 8/10/4 21/11/4
f 5/7/5 2/12/5 6/8/5
f 32/13/4 9/14/4 29/15/4
f 25/16/3 9/17/3 27/18/3
f 31/19/6 10/20/6 30/21/6
f 21/22/3 15/23/3 13/24/3
f 26/25/4 13/26/4 27/27/4
f 25/28/7 14/29/7 28/30/7
f 33/31/8 20/32/8 36/33/8
f 34/34/4 19/35/4 35/36/4
f 31/37/3 19/38/3 29/39/3
f 7/40/3 21/22/3 8/41/3
f 16/42/4 21/11/4 13/26/4
f 15/43/9 22/3/9 14/29/9
f 11/44/10 28/30/10 10/20/10
f 12/45/4 27/27/4 9/14/4
f 13/24/3 25/16/3 27/18/3
f 9/17/3 31/37/3 29/39/3
f 17/46/11 30/21/11 20/32/11
f 18/47/4 29/15/4 19/35/4
f 2/12/4 35/36/4 6/48/4
f 5/49/12 36/33/12 1/50/12
f 19/38/3 33/51/3 35/6/3
f 23/1/1 7/52/1 3/2/1
f 3/2/2 7/53/2 8/4/2
f 35/6/3 33/51/3 5/7/3
f 24/9/4 4/5/4 8/10/4
f 5/7/5 1/50/5 2/12/5
f 32/13/4 12/45/4 9/14/4
f 25/16/3 11/54/3 9/17/3
f 31/19/6 11/44/6 10/20/6
f 21/22/3 23/55/3 15/23/3
f 26/25/4 16/42/4 13/26/4
f 25/28/7 15/43/7 14/29/7
f 33/31/8 17/46/8 20/32/8
f 34/34/4 18/47/4 19/35/4
f 31/37/3 17/56/3 19/38/3
f 7/40/3 23/55/3 21/22/3
f 16/42/4 24/9/4 21/11/4
f 15/43/9 23/1/9 22/3/9
f 11/44/10 25/28/10 28/30/10
f 12/45/4 26/25/4 27/27/4
f 13/24/3 15/23/3 25/16/3
f 9/17/3 11/54/3 31/37/3
f 17/46/11 31/19/11 30/21/11
f 18/47/4 32/13/4 29/15/4
f 2/12/4 34/34/4 35/36/4
f 5/49/12 33/31/12 36/33/12
f 19/38/3 17/56/3 33/51/3
