{
	"asset":{
		"generator":"Khronos glTF Blender I/O v4.4.56",
		"version":"2.0"
	},
	"scene":0,
	"scenes":[
		{
			"name":"Scene",
			"nodes":[
				15
			]
		}
	],
	"nodes":[
		{
			"name":"\u30dc\u30fc\u30f3.001",
			"rotation":[
				-0.35323312878608704,
				-0.5496118664741516,
				-0.3970731198787689,
				0.6445820927619934
			],
			"scale":[
				1.0000001192092896,
				1,
				1.0000001192092896
			],
			"translation":[
				0,
				-1.33442223072052,
				0
			]
		},
		{
			"name":"\u30dc\u30fc\u30f3.002",
			"rotation":[
				-0.2730284333229065,
				0.7875156402587891,
				0.4368506669998169,
				0.33828410506248474
			],
			"scale":[
				1.0000001192092896,
				1.000000238418579,
				1
			],
			"translation":[
				0,
				-1.33442223072052,
				0
			]
		},
		{
			"name":"\u30dc\u30fc\u30f3.003",
			"rotation":[
				-0.034317877143621445,
				0.5053605437278748,
				0.8487624526023865,
				0.15177391469478607
			],
			"scale":[
				1,
				1.0000001192092896,
				1
			],
			"translation":[
				0,
				-1.33442223072052,
				0
			]
		},
		{
			"name":"\u30dc\u30fc\u30f3.004",
			"rotation":[
				-0.44699838757514954,
				0.3169662058353424,
				0.2750740051269531,
				0.7899741530418396
			],
			"scale":[
				1,
				1.0000001192092896,
				1
			],
			"translation":[
				0,
				-1.33442223072052,
				0
			]
		},
		{
			"name":"\u30dc\u30fc\u30f3.005",
			"rotation":[
				-0.8308121562004089,
				0.03620599955320358,
				0.210259810090065,
				0.5140340924263
			],
			"scale":[
				1,
				1.0000001192092896,
				1.0000001192092896
			],
			"translation":[
				0,
				-1.33442223072052,
				0
			]
		},
		{
			"name":"\u30dc\u30fc\u30f3.006",
			"rotation":[
				-0.35841867327690125,
				-0.0015654127346351743,
				0.933553159236908,
				0.003490942530333996
			],
			"scale":[
				1,
				0.9999999403953552,
				1
			],
			"translation":[
				0,
				-1.33442223072052,
				0
			]
		},
		{
			"name":"\u30dc\u30fc\u30f3.007",
			"rotation":[
				-0.4669712781906128,
				-0.4709484577178955,
				-0.7211175560951233,
				0.2003365308046341
			],
			"scale":[
				1.0000001192092896,
				1.0000003576278687,
				1.0000001192092896
			],
			"translation":[
				0,
				-1.33442223072052,
				0
			]
		},
		{
			"name":"\u30dc\u30fc\u30f3.008",
			"rotation":[
				-0.5157521963119507,
				-0.139005646109581,
				-0.08596359193325043,
				0.8410037755966187
			],
			"scale":[
				0.9999999403953552,
				1.0000001192092896,
				1
			],
			"translation":[
				0,
				-1.33442223072052,
				0
			]
		},
		{
			"name":"\u30dc\u30fc\u30f3.009",
			"rotation":[
				-0.009550994262099266,
				0.5963594317436218,
				0.00021909487259108573,
				0.8026607036590576
			],
			"scale":[
				1,
				0.9999998807907104,
				0.9999998807907104
			],
			"translation":[
				0,
				-1.33442223072052,
				0
			]
		},
		{
			"name":"\u30dc\u30fc\u30f3.010",
			"rotation":[
				-0.032933831214904785,
				-0.8227639198303223,
				-0.5243001580238342,
				0.21698911488056183
			],
			"translation":[
				0,
				-1.33442223072052,
				0
			]
		},
		{
			"name":"\u30dc\u30fc\u30f3.011",
			"rotation":[
				-0.8091163039207458,
				-0.3012591302394867,
				-0.2763872444629669,
				0.42211833596229553
			],
			"translation":[
				0,
				-1.33442223072052,
				0
			]
		},
		{
			"name":"\u30dc\u30fc\u30f3.012",
			"rotation":[
				-0.5203597545623779,
				0.3021789789199829,
				0.684118926525116,
				0.41218307614326477
			],
			"scale":[
				1.0000001192092896,
				1.0000001192092896,
				1
			],
			"translation":[
				0,
				-1.33442223072052,
				0
			]
		},
		{
			"children":[
				0,
				1,
				2,
				3,
				4,
				5,
				6,
				7,
				8,
				9,
				10,
				11
			],
			"name":"\u30dc\u30fc\u30f3",
			"rotation":[
				-2.980232594040899e-08,
				1.1920927533992653e-07,
				0,
				1
			],
			"scale":[
				1,
				0.9999999403953552,
				0.9999999403953552
			],
			"translation":[
				0,
				1.3344223499298096,
				0
			]
		},
		{
			"name":"neutral_bone",
			"rotation":[
				-0.7071067690849304,
				0,
				0,
				0.7071067690849304
			]
		},
		{
			"mesh":0,
			"name":"ICO\u7403",
			"skin":0
		},
		{
			"children":[
				14,
				12,
				13
			],
			"name":"\u30a2\u30fc\u30de\u30c1\u30e5\u30a2"
		}
	],
	"animations":[
		{
			"channels":[
				{
					"sampler":0,
					"target":{
						"node":12,
						"path":"translation"
					}
				},
				{
					"sampler":1,
					"target":{
						"node":12,
						"path":"rotation"
					}
				},
				{
					"sampler":2,
					"target":{
						"node":12,
						"path":"scale"
					}
				},
				{
					"sampler":3,
					"target":{
						"node":0,
						"path":"translation"
					}
				},
				{
					"sampler":4,
					"target":{
						"node":0,
						"path":"rotation"
					}
				},
				{
					"sampler":5,
					"target":{
						"node":0,
						"path":"scale"
					}
				},
				{
					"sampler":6,
					"target":{
						"node":1,
						"path":"translation"
					}
				},
				{
					"sampler":7,
					"target":{
						"node":1,
						"path":"rotation"
					}
				},
				{
					"sampler":8,
					"target":{
						"node":1,
						"path":"scale"
					}
				},
				{
					"sampler":9,
					"target":{
						"node":2,
						"path":"translation"
					}
				},
				{
					"sampler":10,
					"target":{
						"node":2,
						"path":"rotation"
					}
				},
				{
					"sampler":11,
					"target":{
						"node":2,
						"path":"scale"
					}
				},
				{
					"sampler":12,
					"target":{
						"node":3,
						"path":"translation"
					}
				},
				{
					"sampler":13,
					"target":{
						"node":3,
						"path":"rotation"
					}
				},
				{
					"sampler":14,
					"target":{
						"node":3,
						"path":"scale"
					}
				},
				{
					"sampler":15,
					"target":{
						"node":4,
						"path":"translation"
					}
				},
				{
					"sampler":16,
					"target":{
						"node":4,
						"path":"rotation"
					}
				},
				{
					"sampler":17,
					"target":{
						"node":4,
						"path":"scale"
					}
				},
				{
					"sampler":18,
					"target":{
						"node":5,
						"path":"translation"
					}
				},
				{
					"sampler":19,
					"target":{
						"node":5,
						"path":"rotation"
					}
				},
				{
					"sampler":20,
					"target":{
						"node":5,
						"path":"scale"
					}
				},
				{
					"sampler":21,
					"target":{
						"node":6,
						"path":"translation"
					}
				},
				{
					"sampler":22,
					"target":{
						"node":6,
						"path":"rotation"
					}
				},
				{
					"sampler":23,
					"target":{
						"node":6,
						"path":"scale"
					}
				},
				{
					"sampler":24,
					"target":{
						"node":7,
						"path":"translation"
					}
				},
				{
					"sampler":25,
					"target":{
						"node":7,
						"path":"rotation"
					}
				},
				{
					"sampler":26,
					"target":{
						"node":7,
						"path":"scale"
					}
				},
				{
					"sampler":27,
					"target":{
						"node":8,
						"path":"translation"
					}
				},
				{
					"sampler":28,
					"target":{
						"node":8,
						"path":"rotation"
					}
				},
				{
					"sampler":29,
					"target":{
						"node":8,
						"path":"scale"
					}
				},
				{
					"sampler":30,
					"target":{
						"node":9,
						"path":"translation"
					}
				},
				{
					"sampler":31,
					"target":{
						"node":9,
						"path":"rotation"
					}
				},
				{
					"sampler":32,
					"target":{
						"node":9,
						"path":"scale"
					}
				},
				{
					"sampler":33,
					"target":{
						"node":10,
						"path":"translation"
					}
				},
				{
					"sampler":34,
					"target":{
						"node":10,
						"path":"rotation"
					}
				},
				{
					"sampler":35,
					"target":{
						"node":10,
						"path":"scale"
					}
				},
				{
					"sampler":36,
					"target":{
						"node":11,
						"path":"translation"
					}
				},
				{
					"sampler":37,
					"target":{
						"node":11,
						"path":"rotation"
					}
				},
				{
					"sampler":38,
					"target":{
						"node":11,
						"path":"scale"
					}
				}
			],
			"name":"\u30a2\u30fc\u30de\u30c1\u30e5\u30a2\u30a2\u30af\u30b7\u30e7\u30f3",
			"samplers":[
				{
					"input":7,
					"interpolation":"STEP",
					"output":8
				},
				{
					"input":7,
					"interpolation":"STEP",
					"output":9
				},
				{
					"input":7,
					"interpolation":"STEP",
					"output":10
				},
				{
					"input":11,
					"interpolation":"LINEAR",
					"output":12
				},
				{
					"input":7,
					"interpolation":"STEP",
					"output":13
				},
				{
					"input":7,
					"interpolation":"STEP",
					"output":14
				},
				{
					"input":11,
					"interpolation":"LINEAR",
					"output":15
				},
				{
					"input":7,
					"interpolation":"STEP",
					"output":16
				},
				{
					"input":7,
					"interpolation":"STEP",
					"output":17
				},
				{
					"input":11,
					"interpolation":"LINEAR",
					"output":18
				},
				{
					"input":7,
					"interpolation":"STEP",
					"output":19
				},
				{
					"input":7,
					"interpolation":"STEP",
					"output":20
				},
				{
					"input":11,
					"interpolation":"LINEAR",
					"output":21
				},
				{
					"input":7,
					"interpolation":"STEP",
					"output":22
				},
				{
					"input":7,
					"interpolation":"STEP",
					"output":23
				},
				{
					"input":11,
					"interpolation":"LINEAR",
					"output":24
				},
				{
					"input":7,
					"interpolation":"STEP",
					"output":25
				},
				{
					"input":7,
					"interpolation":"STEP",
					"output":26
				},
				{
					"input":11,
					"interpolation":"LINEAR",
					"output":27
				},
				{
					"input":7,
					"interpolation":"STEP",
					"output":28
				},
				{
					"input":7,
					"interpolation":"STEP",
					"output":29
				},
				{
					"input":11,
					"interpolation":"LINEAR",
					"output":30
				},
				{
					"input":7,
					"interpolation":"STEP",
					"output":31
				},
				{
					"input":7,
					"interpolation":"STEP",
					"output":32
				},
				{
					"input":11,
					"interpolation":"LINEAR",
					"output":33
				},
				{
					"input":7,
					"interpolation":"STEP",
					"output":34
				},
				{
					"input":7,
					"interpolation":"STEP",
					"output":35
				},
				{
					"input":11,
					"interpolation":"LINEAR",
					"output":36
				},
				{
					"input":7,
					"interpolation":"STEP",
					"output":37
				},
				{
					"input":7,
					"interpolation":"STEP",
					"output":38
				},
				{
					"input":11,
					"interpolation":"LINEAR",
					"output":39
				},
				{
					"input":7,
					"interpolation":"STEP",
					"output":40
				},
				{
					"input":7,
					"interpolation":"STEP",
					"output":41
				},
				{
					"input":11,
					"interpolation":"LINEAR",
					"output":42
				},
				{
					"input":7,
					"interpolation":"STEP",
					"output":43
				},
				{
					"input":7,
					"interpolation":"STEP",
					"output":44
				},
				{
					"input":11,
					"interpolation":"LINEAR",
					"output":45
				},
				{
					"input":7,
					"interpolation":"STEP",
					"output":46
				},
				{
					"input":7,
					"interpolation":"STEP",
					"output":47
				}
			]
		},
		{
			"channels":[
				{
					"sampler":0,
					"target":{
						"node":12,
						"path":"translation"
					}
				},
				{
					"sampler":1,
					"target":{
						"node":12,
						"path":"rotation"
					}
				},
				{
					"sampler":2,
					"target":{
						"node":12,
						"path":"scale"
					}
				},
				{
					"sampler":3,
					"target":{
						"node":0,
						"path":"translation"
					}
				},
				{
					"sampler":4,
					"target":{
						"node":0,
						"path":"rotation"
					}
				},
				{
					"sampler":5,
					"target":{
						"node":0,
						"path":"scale"
					}
				},
				{
					"sampler":6,
					"target":{
						"node":1,
						"path":"translation"
					}
				},
				{
					"sampler":7,
					"target":{
						"node":1,
						"path":"rotation"
					}
				},
				{
					"sampler":8,
					"target":{
						"node":1,
						"path":"scale"
					}
				},
				{
					"sampler":9,
					"target":{
						"node":2,
						"path":"translation"
					}
				},
				{
					"sampler":10,
					"target":{
						"node":2,
						"path":"rotation"
					}
				},
				{
					"sampler":11,
					"target":{
						"node":2,
						"path":"scale"
					}
				},
				{
					"sampler":12,
					"target":{
						"node":3,
						"path":"translation"
					}
				},
				{
					"sampler":13,
					"target":{
						"node":3,
						"path":"rotation"
					}
				},
				{
					"sampler":14,
					"target":{
						"node":3,
						"path":"scale"
					}
				},
				{
					"sampler":15,
					"target":{
						"node":4,
						"path":"translation"
					}
				},
				{
					"sampler":16,
					"target":{
						"node":4,
						"path":"rotation"
					}
				},
				{
					"sampler":17,
					"target":{
						"node":4,
						"path":"scale"
					}
				},
				{
					"sampler":18,
					"target":{
						"node":5,
						"path":"translation"
					}
				},
				{
					"sampler":19,
					"target":{
						"node":5,
						"path":"rotation"
					}
				},
				{
					"sampler":20,
					"target":{
						"node":5,
						"path":"scale"
					}
				},
				{
					"sampler":21,
					"target":{
						"node":6,
						"path":"translation"
					}
				},
				{
					"sampler":22,
					"target":{
						"node":6,
						"path":"rotation"
					}
				},
				{
					"sampler":23,
					"target":{
						"node":6,
						"path":"scale"
					}
				},
				{
					"sampler":24,
					"target":{
						"node":7,
						"path":"translation"
					}
				},
				{
					"sampler":25,
					"target":{
						"node":7,
						"path":"rotation"
					}
				},
				{
					"sampler":26,
					"target":{
						"node":7,
						"path":"scale"
					}
				},
				{
					"sampler":27,
					"target":{
						"node":8,
						"path":"translation"
					}
				},
				{
					"sampler":28,
					"target":{
						"node":8,
						"path":"rotation"
					}
				},
				{
					"sampler":29,
					"target":{
						"node":8,
						"path":"scale"
					}
				},
				{
					"sampler":30,
					"target":{
						"node":9,
						"path":"translation"
					}
				},
				{
					"sampler":31,
					"target":{
						"node":9,
						"path":"rotation"
					}
				},
				{
					"sampler":32,
					"target":{
						"node":9,
						"path":"scale"
					}
				},
				{
					"sampler":33,
					"target":{
						"node":10,
						"path":"translation"
					}
				},
				{
					"sampler":34,
					"target":{
						"node":10,
						"path":"rotation"
					}
				},
				{
					"sampler":35,
					"target":{
						"node":10,
						"path":"scale"
					}
				},
				{
					"sampler":36,
					"target":{
						"node":11,
						"path":"translation"
					}
				},
				{
					"sampler":37,
					"target":{
						"node":11,
						"path":"rotation"
					}
				},
				{
					"sampler":38,
					"target":{
						"node":11,
						"path":"scale"
					}
				}
			],
			"name":"\u30a2\u30fc\u30de\u30c1\u30e5\u30a2\u30a2\u30af\u30b7\u30e7\u30f3.001",
			"samplers":[
				{
					"input":48,
					"interpolation":"LINEAR",
					"output":49
				},
				{
					"input":50,
					"interpolation":"STEP",
					"output":51
				},
				{
					"input":50,
					"interpolation":"STEP",
					"output":52
				},
				{
					"input":48,
					"interpolation":"LINEAR",
					"output":53
				},
				{
					"input":48,
					"interpolation":"LINEAR",
					"output":54
				},
				{
					"input":50,
					"interpolation":"STEP",
					"output":55
				},
				{
					"input":50,
					"interpolation":"STEP",
					"output":56
				},
				{
					"input":48,
					"interpolation":"LINEAR",
					"output":57
				},
				{
					"input":50,
					"interpolation":"STEP",
					"output":58
				},
				{
					"input":48,
					"interpolation":"LINEAR",
					"output":59
				},
				{
					"input":48,
					"interpolation":"LINEAR",
					"output":60
				},
				{
					"input":50,
					"interpolation":"STEP",
					"output":61
				},
				{
					"input":50,
					"interpolation":"STEP",
					"output":62
				},
				{
					"input":48,
					"interpolation":"LINEAR",
					"output":63
				},
				{
					"input":50,
					"interpolation":"STEP",
					"output":64
				},
				{
					"input":50,
					"interpolation":"STEP",
					"output":65
				},
				{
					"input":48,
					"interpolation":"LINEAR",
					"output":66
				},
				{
					"input":50,
					"interpolation":"STEP",
					"output":67
				},
				{
					"input":48,
					"interpolation":"LINEAR",
					"output":68
				},
				{
					"input":48,
					"interpolation":"LINEAR",
					"output":69
				},
				{
					"input":50,
					"interpolation":"STEP",
					"output":70
				},
				{
					"input":50,
					"interpolation":"STEP",
					"output":71
				},
				{
					"input":48,
					"interpolation":"LINEAR",
					"output":72
				},
				{
					"input":50,
					"interpolation":"STEP",
					"output":73
				},
				{
					"input":50,
					"interpolation":"STEP",
					"output":74
				},
				{
					"input":48,
					"interpolation":"LINEAR",
					"output":75
				},
				{
					"input":50,
					"interpolation":"STEP",
					"output":76
				},
				{
					"input":50,
					"interpolation":"STEP",
					"output":77
				},
				{
					"input":50,
					"interpolation":"STEP",
					"output":78
				},
				{
					"input":50,
					"interpolation":"STEP",
					"output":79
				},
				{
					"input":50,
					"interpolation":"STEP",
					"output":80
				},
				{
					"input":50,
					"interpolation":"STEP",
					"output":81
				},
				{
					"input":50,
					"interpolation":"STEP",
					"output":82
				},
				{
					"input":50,
					"interpolation":"STEP",
					"output":83
				},
				{
					"input":50,
					"interpolation":"STEP",
					"output":84
				},
				{
					"input":50,
					"interpolation":"STEP",
					"output":85
				},
				{
					"input":50,
					"interpolation":"STEP",
					"output":86
				},
				{
					"input":50,
					"interpolation":"STEP",
					"output":87
				},
				{
					"input":50,
					"interpolation":"STEP",
					"output":88
				}
			]
		}
	],
	"materials":[
		{
			"doubleSided":true,
			"name":"\u30de\u30c6\u30ea\u30a2\u30eb",
			"pbrMetallicRoughness":{
				"baseColorTexture":{
					"index":0
				},
				"metallicFactor":0,
				"roughnessFactor":0.5
			}
		}
	],
	"meshes":[
		{
			"name":"ICO\u7403",
			"primitives":[
				{
					"attributes":{
						"POSITION":0,
						"NORMAL":1,
						"TEXCOORD_0":2,
						"JOINTS_0":3,
						"WEIGHTS_0":4
					},
					"indices":5,
					"material":0
				}
			]
		}
	],
	"textures":[
		{
			"sampler":0,
			"source":0
		}
	],
	"images":[
		{
			"mimeType":"image/png",
			"name":"BirdToge",
			"uri":"BirdToge.png"
		}
	],
	"skins":[
		{
			"inverseBindMatrices":6,
			"joints":[
				12,
				0,
				1,
				2,
				3,
				4,
				5,
				6,
				7,
				8,
				9,
				10,
				11,
				13
			],
			"name":"\u30a2\u30fc\u30de\u30c1\u30e5\u30a2"
		}
	],
	"accessors":[
		{
			"bufferView":0,
			"componentType":5126,
			"count":240,
			"max":[
				0.9510578513145447,
				1,
				0.9999999403953552
			],
			"min":[
				-0.9510578513145447,
				-1,
				-0.9999999403953552
			],
			"type":"VEC3"
		},
		{
			"bufferView":1,
			"componentType":5126,
			"count":240,
			"type":"VEC3"
		},
		{
			"bufferView":2,
			"componentType":5126,
			"count":240,
			"type":"VEC2"
		},
		{
			"bufferView":3,
			"componentType":5121,
			"count":240,
			"type":"VEC4"
		},
		{
			"bufferView":4,
			"componentType":5126,
			"count":240,
			"type":"VEC4"
		},
		{
			"bufferView":5,
			"componentType":5123,
			"count":240,
			"type":"SCALAR"
		},
		{
			"bufferView":6,
			"componentType":5126,
			"count":14,
			"type":"MAT4"
		},
		{
			"bufferView":7,
			"componentType":5126,
			"count":2,
			"max":[
				0.8333333333333334
			],
			"min":[
				0
			],
			"type":"SCALAR"
		},
		{
			"bufferView":8,
			"componentType":5126,
			"count":2,
			"type":"VEC3"
		},
		{
			"bufferView":9,
			"componentType":5126,
			"count":2,
			"type":"VEC4"
		},
		{
			"bufferView":10,
			"componentType":5126,
			"count":2,
			"type":"VEC3"
		},
		{
			"bufferView":11,
			"componentType":5126,
			"count":51,
			"max":[
				0.8333333333333334
			],
			"min":[
				0
			],
			"type":"SCALAR"
		},
		{
			"bufferView":12,
			"componentType":5126,
			"count":51,
			"type":"VEC3"
		},
		{
			"bufferView":13,
			"componentType":5126,
			"count":2,
			"type":"VEC4"
		},
		{
			"bufferView":14,
			"componentType":5126,
			"count":2,
			"type":"VEC3"
		},
		{
			"bufferView":15,
			"componentType":5126,
			"count":51,
			"type":"VEC3"
		},
		{
			"bufferView":16,
			"componentType":5126,
			"count":2,
			"type":"VEC4"
		},
		{
			"bufferView":17,
			"componentType":5126,
			"count":2,
			"type":"VEC3"
		},
		{
			"bufferView":18,
			"componentType":5126,
			"count":51,
			"type":"VEC3"
		},
		{
			"bufferView":19,
			"componentType":5126,
			"count":2,
			"type":"VEC4"
		},
		{
			"bufferView":20,
			"componentType":5126,
			"count":2,
			"type":"VEC3"
		},
		{
			"bufferView":21,
			"componentType":5126,
			"count":51,
			"type":"VEC3"
		},
		{
			"bufferView":22,
			"componentType":5126,
			"count":2,
			"type":"VEC4"
		},
		{
			"bufferView":23,
			"componentType":5126,
			"count":2,
			"type":"VEC3"
		},
		{
			"bufferView":24,
			"componentType":5126,
			"count":51,
			"type":"VEC3"
		},
		{
			"bufferView":25,
			"componentType":5126,
			"count":2,
			"type":"VEC4"
		},
		{
			"bufferView":26,
			"componentType":5126,
			"count":2,
			"type":"VEC3"
		},
		{
			"bufferView":27,
			"componentType":5126,
			"count":51,
			"type":"VEC3"
		},
		{
			"bufferView":28,
			"componentType":5126,
			"count":2,
			"type":"VEC4"
		},
		{
			"bufferView":29,
			"componentType":5126,
			"count":2,
			"type":"VEC3"
		},
		{
			"bufferView":30,
			"componentType":5126,
			"count":51,
			"type":"VEC3"
		},
		{
			"bufferView":31,
			"componentType":5126,
			"count":2,
			"type":"VEC4"
		},
		{
			"bufferView":32,
			"componentType":5126,
			"count":2,
			"type":"VEC3"
		},
		{
			"bufferView":33,
			"componentType":5126,
			"count":51,
			"type":"VEC3"
		},
		{
			"bufferView":34,
			"componentType":5126,
			"count":2,
			"type":"VEC4"
		},
		{
			"bufferView":35,
			"componentType":5126,
			"count":2,
			"type":"VEC3"
		},
		{
			"bufferView":36,
			"componentType":5126,
			"count":51,
			"type":"VEC3"
		},
		{
			"bufferView":37,
			"componentType":5126,
			"count":2,
			"type":"VEC4"
		},
		{
			"bufferView":38,
			"componentType":5126,
			"count":2,
			"type":"VEC3"
		},
		{
			"bufferView":39,
			"componentType":5126,
			"count":51,
			"type":"VEC3"
		},
		{
			"bufferView":40,
			"componentType":5126,
			"count":2,
			"type":"VEC4"
		},
		{
			"bufferView":41,
			"componentType":5126,
			"count":2,
			"type":"VEC3"
		},
		{
			"bufferView":42,
			"componentType":5126,
			"count":51,
			"type":"VEC3"
		},
		{
			"bufferView":43,
			"componentType":5126,
			"count":2,
			"type":"VEC4"
		},
		{
			"bufferView":44,
			"componentType":5126,
			"count":2,
			"type":"VEC3"
		},
		{
			"bufferView":45,
			"componentType":5126,
			"count":51,
			"type":"VEC3"
		},
		{
			"bufferView":46,
			"componentType":5126,
			"count":2,
			"type":"VEC4"
		},
		{
			"bufferView":47,
			"componentType":5126,
			"count":2,
			"type":"VEC3"
		},
		{
			"bufferView":48,
			"componentType":5126,
			"count":101,
			"max":[
				1.6666666666666667
			],
			"min":[
				0
			],
			"type":"SCALAR"
		},
		{
			"bufferView":49,
			"componentType":5126,
			"count":101,
			"type":"VEC3"
		},
		{
			"bufferView":50,
			"componentType":5126,
			"count":2,
			"max":[
				1.6666666666666667
			],
			"min":[
				0
			],
			"type":"SCALAR"
		},
		{
			"bufferView":51,
			"componentType":5126,
			"count":2,
			"type":"VEC4"
		},
		{
			"bufferView":52,
			"componentType":5126,
			"count":2,
			"type":"VEC3"
		},
		{
			"bufferView":53,
			"componentType":5126,
			"count":101,
			"type":"VEC3"
		},
		{
			"bufferView":54,
			"componentType":5126,
			"count":101,
			"type":"VEC4"
		},
		{
			"bufferView":55,
			"componentType":5126,
			"count":2,
			"type":"VEC3"
		},
		{
			"bufferView":56,
			"componentType":5126,
			"count":2,
			"type":"VEC3"
		},
		{
			"bufferView":57,
			"componentType":5126,
			"count":101,
			"type":"VEC4"
		},
		{
			"bufferView":58,
			"componentType":5126,
			"count":2,
			"type":"VEC3"
		},
		{
			"bufferView":59,
			"componentType":5126,
			"count":101,
			"type":"VEC3"
		},
		{
			"bufferView":60,
			"componentType":5126,
			"count":101,
			"type":"VEC4"
		},
		{
			"bufferView":61,
			"componentType":5126,
			"count":2,
			"type":"VEC3"
		},
		{
			"bufferView":62,
			"componentType":5126,
			"count":2,
			"type":"VEC3"
		},
		{
			"bufferView":63,
			"componentType":5126,
			"count":101,
			"type":"VEC4"
		},
		{
			"bufferView":64,
			"componentType":5126,
			"count":2,
			"type":"VEC3"
		},
		{
			"bufferView":65,
			"componentType":5126,
			"count":2,
			"type":"VEC3"
		},
		{
			"bufferView":66,
			"componentType":5126,
			"count":101,
			"type":"VEC4"
		},
		{
			"bufferView":67,
			"componentType":5126,
			"count":2,
			"type":"VEC3"
		},
		{
			"bufferView":68,
			"componentType":5126,
			"count":101,
			"type":"VEC3"
		},
		{
			"bufferView":69,
			"componentType":5126,
			"count":101,
			"type":"VEC4"
		},
		{
			"bufferView":70,
			"componentType":5126,
			"count":2,
			"type":"VEC3"
		},
		{
			"bufferView":71,
			"componentType":5126,
			"count":2,
			"type":"VEC3"
		},
		{
			"bufferView":72,
			"componentType":5126,
			"count":101,
			"type":"VEC4"
		},
		{
			"bufferView":73,
			"componentType":5126,
			"count":2,
			"type":"VEC3"
		},
		{
			"bufferView":74,
			"componentType":5126,
			"count":2,
			"type":"VEC3"
		},
		{
			"bufferView":75,
			"componentType":5126,
			"count":101,
			"type":"VEC4"
		},
		{
			"bufferView":76,
			"componentType":5126,
			"count":2,
			"type":"VEC3"
		},
		{
			"bufferView":77,
			"componentType":5126,
			"count":2,
			"type":"VEC3"
		},
		{
			"bufferView":78,
			"componentType":5126,
			"count":2,
			"type":"VEC4"
		},
		{
			"bufferView":79,
			"componentType":5126,
			"count":2,
			"type":"VEC3"
		},
		{
			"bufferView":80,
			"componentType":5126,
			"count":2,
			"type":"VEC3"
		},
		{
			"bufferView":81,
			"componentType":5126,
			"count":2,
			"type":"VEC4"
		},
		{
			"bufferView":82,
			"componentType":5126,
			"count":2,
			"type":"VEC3"
		},
		{
			"bufferView":83,
			"componentType":5126,
			"count":2,
			"type":"VEC3"
		},
		{
			"bufferView":84,
			"componentType":5126,
			"count":2,
			"type":"VEC4"
		},
		{
			"bufferView":85,
			"componentType":5126,
			"count":2,
			"type":"VEC3"
		},
		{
			"bufferView":86,
			"componentType":5126,
			"count":2,
			"type":"VEC3"
		},
		{
			"bufferView":87,
			"componentType":5126,
			"count":2,
			"type":"VEC4"
		},
		{
			"bufferView":88,
			"componentType":5126,
			"count":2,
			"type":"VEC3"
		}
	],
	"bufferViews":[
		{
			"buffer":0,
			"byteLength":2880,
			"byteOffset":0,
			"target":34962
		},
		{
			"buffer":0,
			"byteLength":2880,
			"byteOffset":2880,
			"target":34962
		},
		{
			"buffer":0,
			"byteLength":1920,
			"byteOffset":5760,
			"target":34962
		},
		{
			"buffer":0,
			"byteLength":960,
			"byteOffset":7680,
			"target":34962
		},
		{
			"buffer":0,
			"byteLength":3840,
			"byteOffset":8640,
			"target":34962
		},
		{
			"buffer":0,
			"byteLength":480,
			"byteOffset":12480,
			"target":34963
		},
		{
			"buffer":0,
			"byteLength":896,
			"byteOffset":12960
		},
		{
			"buffer":0,
			"byteLength":8,
			"byteOffset":13856
		},
		{
			"buffer":0,
			"byteLength":24,
			"byteOffset":13864
		},
		{
			"buffer":0,
			"byteLength":32,
			"byteOffset":13888
		},
		{
			"buffer":0,
			"byteLength":24,
			"byteOffset":13920
		},
		{
			"buffer":0,
			"byteLength":204,
			"byteOffset":13944
		},
		{
			"buffer":0,
			"byteLength":612,
			"byteOffset":14148
		},
		{
			"buffer":0,
			"byteLength":32,
			"byteOffset":14760
		},
		{
			"buffer":0,
			"byteLength":24,
			"byteOffset":14792
		},
		{
			"buffer":0,
			"byteLength":612,
			"byteOffset":14816
		},
		{
			"buffer":0,
			"byteLength":32,
			"byteOffset":15428
		},
		{
			"buffer":0,
			"byteLength":24,
			"byteOffset":15460
		},
		{
			"buffer":0,
			"byteLength":612,
			"byteOffset":15484
		},
		{
			"buffer":0,
			"byteLength":32,
			"byteOffset":16096
		},
		{
			"buffer":0,
			"byteLength":24,
			"byteOffset":16128
		},
		{
			"buffer":0,
			"byteLength":612,
			"byteOffset":16152
		},
		{
			"buffer":0,
			"byteLength":32,
			"byteOffset":16764
		},
		{
			"buffer":0,
			"byteLength":24,
			"byteOffset":16796
		},
		{
			"buffer":0,
			"byteLength":612,
			"byteOffset":16820
		},
		{
			"buffer":0,
			"byteLength":32,
			"byteOffset":17432
		},
		{
			"buffer":0,
			"byteLength":24,
			"byteOffset":17464
		},
		{
			"buffer":0,
			"byteLength":612,
			"byteOffset":17488
		},
		{
			"buffer":0,
			"byteLength":32,
			"byteOffset":18100
		},
		{
			"buffer":0,
			"byteLength":24,
			"byteOffset":18132
		},
		{
			"buffer":0,
			"byteLength":612,
			"byteOffset":18156
		},
		{
			"buffer":0,
			"byteLength":32,
			"byteOffset":18768
		},
		{
			"buffer":0,
			"byteLength":24,
			"byteOffset":18800
		},
		{
			"buffer":0,
			"byteLength":612,
			"byteOffset":18824
		},
		{
			"buffer":0,
			"byteLength":32,
			"byteOffset":19436
		},
		{
			"buffer":0,
			"byteLength":24,
			"byteOffset":19468
		},
		{
			"buffer":0,
			"byteLength":612,
			"byteOffset":19492
		},
		{
			"buffer":0,
			"byteLength":32,
			"byteOffset":20104
		},
		{
			"buffer":0,
			"byteLength":24,
			"byteOffset":20136
		},
		{
			"buffer":0,
			"byteLength":612,
			"byteOffset":20160
		},
		{
			"buffer":0,
			"byteLength":32,
			"byteOffset":20772
		},
		{
			"buffer":0,
			"byteLength":24,
			"byteOffset":20804
		},
		{
			"buffer":0,
			"byteLength":612,
			"byteOffset":20828
		},
		{
			"buffer":0,
			"byteLength":32,
			"byteOffset":21440
		},
		{
			"buffer":0,
			"byteLength":24,
			"byteOffset":21472
		},
		{
			"buffer":0,
			"byteLength":612,
			"byteOffset":21496
		},
		{
			"buffer":0,
			"byteLength":32,
			"byteOffset":22108
		},
		{
			"buffer":0,
			"byteLength":24,
			"byteOffset":22140
		},
		{
			"buffer":0,
			"byteLength":404,
			"byteOffset":22164
		},
		{
			"buffer":0,
			"byteLength":1212,
			"byteOffset":22568
		},
		{
			"buffer":0,
			"byteLength":8,
			"byteOffset":23780
		},
		{
			"buffer":0,
			"byteLength":32,
			"byteOffset":23788
		},
		{
			"buffer":0,
			"byteLength":24,
			"byteOffset":23820
		},
		{
			"buffer":0,
			"byteLength":1212,
			"byteOffset":23844
		},
		{
			"buffer":0,
			"byteLength":1616,
			"byteOffset":25056
		},
		{
			"buffer":0,
			"byteLength":24,
			"byteOffset":26672
		},
		{
			"buffer":0,
			"byteLength":24,
			"byteOffset":26696
		},
		{
			"buffer":0,
			"byteLength":1616,
			"byteOffset":26720
		},
		{
			"buffer":0,
			"byteLength":24,
			"byteOffset":28336
		},
		{
			"buffer":0,
			"byteLength":1212,
			"byteOffset":28360
		},
		{
			"buffer":0,
			"byteLength":1616,
			"byteOffset":29572
		},
		{
			"buffer":0,
			"byteLength":24,
			"byteOffset":31188
		},
		{
			"buffer":0,
			"byteLength":24,
			"byteOffset":31212
		},
		{
			"buffer":0,
			"byteLength":1616,
			"byteOffset":31236
		},
		{
			"buffer":0,
			"byteLength":24,
			"byteOffset":32852
		},
		{
			"buffer":0,
			"byteLength":24,
			"byteOffset":32876
		},
		{
			"buffer":0,
			"byteLength":1616,
			"byteOffset":32900
		},
		{
			"buffer":0,
			"byteLength":24,
			"byteOffset":34516
		},
		{
			"buffer":0,
			"byteLength":1212,
			"byteOffset":34540
		},
		{
			"buffer":0,
			"byteLength":1616,
			"byteOffset":35752
		},
		{
			"buffer":0,
			"byteLength":24,
			"byteOffset":37368
		},
		{
			"buffer":0,
			"byteLength":24,
			"byteOffset":37392
		},
		{
			"buffer":0,
			"byteLength":1616,
			"byteOffset":37416
		},
		{
			"buffer":0,
			"byteLength":24,
			"byteOffset":39032
		},
		{
			"buffer":0,
			"byteLength":24,
			"byteOffset":39056
		},
		{
			"buffer":0,
			"byteLength":1616,
			"byteOffset":39080
		},
		{
			"buffer":0,
			"byteLength":24,
			"byteOffset":40696
		},
		{
			"buffer":0,
			"byteLength":24,
			"byteOffset":40720
		},
		{
			"buffer":0,
			"byteLength":32,
			"byteOffset":40744
		},
		{
			"buffer":0,
			"byteLength":24,
			"byteOffset":40776
		},
		{
			"buffer":0,
			"byteLength":24,
			"byteOffset":40800
		},
		{
			"buffer":0,
			"byteLength":32,
			"byteOffset":40824
		},
		{
			"buffer":0,
			"byteLength":24,
			"byteOffset":40856
		},
		{
			"buffer":0,
			"byteLength":24,
			"byteOffset":40880
		},
		{
			"buffer":0,
			"byteLength":32,
			"byteOffset":40904
		},
		{
			"buffer":0,
			"byteLength":24,
			"byteOffset":40936
		},
		{
			"buffer":0,
			"byteLength":24,
			"byteOffset":40960
		},
		{
			"buffer":0,
			"byteLength":32,
			"byteOffset":40984
		},
		{
			"buffer":0,
			"byteLength":24,
			"byteOffset":41016
		}
	],
	"samplers":[
		{
			"magFilter":9729,
			"minFilter":9987
		}
	],
	"buffers":[
		{
			"byteLength":41040,
			"uri":"BirdToge.bin"
		}
	]
}
