{
	"asset":{
		"generator":"Khronos glTF Blender I/O v4.2.57",
		"version":"2.0"
	},
	"scene":0,
	"scenes":[
		{
			"name":"Scene",
			"nodes":[
				13
			]
		}
	],
	"nodes":[
		{
			"name":"\u30dc\u30fc\u30f3.002",
			"rotation":[
				0.45725110173225403,
				0.01007779035717249,
				-0.3018339276313782,
				0.8364903926849365
			],
			"scale":[
				1,
				1,
				1.0000001192092896
			],
			"translation":[
				0.883998453617096,
				2.3535478115081787,
				0.8597654104232788
			]
		},
		{
			"name":"\u30dc\u30fc\u30f3.003",
			"rotation":[
				0.4303782284259796,
				0.07384569197893143,
				-0.7641888856887817,
				0.47469648718833923
			],
			"scale":[
				0.9999998807907104,
				0.9999998211860657,
				1
			],
			"translation":[
				1.1281410455703735,
				1.1708531379699707,
				0.23946647346019745
			]
		},
		{
			"name":"\u30dc\u30fc\u30f3.004",
			"rotation":[
				0.8338241577148438,
				-0.07673329859972,
				-0.15256205201148987,
				0.5249515771865845
			],
			"scale":[
				0.9999998807907104,
				0.9999999403953552,
				1
			],
			"translation":[
				-0.021693293005228043,
				1.0742096900939941,
				1.2187644243240356
			]
		},
		{
			"name":"\u30dc\u30fc\u30f3.005",
			"rotation":[
				0.5270484089851379,
				-0.2637878954410553,
				0.1521492451429367,
				0.7934018969535828
			],
			"scale":[
				0.9999999403953552,
				0.9999998807907104,
				1
			],
			"translation":[
				-0.588735818862915,
				2.363720178604126,
				1.0693697929382324
			]
		},
		{
			"name":"\u30dc\u30fc\u30f3.006",
			"rotation":[
				0.019789155572652817,
				0.22211287915706635,
				-0.5585721731185913,
				0.7989189028739929
			],
			"scale":[
				0.9999999403953552,
				0.9999999403953552,
				0.9999998807907104
			],
			"translation":[
				1.0021305084228516,
				2.4241466522216797,
				-0.5049440264701843
			]
		},
		{
			"name":"\u30dc\u30fc\u30f3.007",
			"rotation":[
				-0.4057060182094574,
				0.23114298284053802,
				-0.7565978765487671,
				0.457750141620636
			],
			"scale":[
				1,
				0.9999998807907104,
				0.9999999403953552
			],
			"translation":[
				0.7816136479377747,
				1.1548690795898438,
				-0.9490978717803955
			]
		},
		{
			"name":"\u30dc\u30fc\u30f3.008",
			"rotation":[
				-0.509584367275238,
				0.32078540325164795,
				-0.23363594710826874,
				0.7634361386299133
			],
			"scale":[
				1,
				1,
				1.0000001192092896
			],
			"translation":[
				-0.013820775784552097,
				2.4893131256103516,
				-1.1392639875411987
			]
		},
		{
			"name":"\u30dc\u30fc\u30f3.009",
			"rotation":[
				-0.6021533608436584,
				0.4501606523990631,
				0.6139451861381531,
				0.24049527943134308
			],
			"translation":[
				-0.9532474279403687,
				1.170910358428955,
				0.25080981850624084
			]
		},
		{
			"name":"\u30dc\u30fc\u30f3.010",
			"rotation":[
				-0.41119349002838135,
				0.4718855023384094,
				0.3542293906211853,
				0.6948133707046509
			],
			"scale":[
				0.9999999403953552,
				1,
				0.9999999403953552
			],
			"translation":[
				-1.2093346118927002,
				2.424375295639038,
				-0.4595784842967987
			]
		},
		{
			"name":"\u30dc\u30fc\u30f3.011",
			"rotation":[
				-0.6047046184539795,
				0.535136342048645,
				-0.5812410116195679,
				0.10060010850429535
			],
			"scale":[
				1,
				0.9999999403953552,
				0.9999999403953552
			],
			"translation":[
				-0.8628092408180237,
				1.0643720626831055,
				-0.9032756090164185
			]
		},
		{
			"children":[
				0,
				1,
				2,
				3,
				4,
				5,
				6,
				7,
				8,
				9
			],
			"name":"\u30dc\u30fc\u30f3",
			"rotation":[
				-0.5399186611175537,
				-0.45729121565818787,
				-0.46877267956733704,
				0.528795599937439
			],
			"translation":[
				-1.4630075693130493,
				0.04435129463672638,
				0.4602474272251129
			]
		},
		{
			"name":"\u30dc\u30fc\u30f3.001",
			"rotation":[
				-0.5661734938621521,
				0.660053014755249,
				0.3594426214694977,
				0.33849456906318665
			],
			"scale":[
				1,
				1.0000001192092896,
				1
			],
			"translation":[
				-1.4630075693130493,
				0.04435129463672638,
				0.4602474272251129
			]
		},
		{
			"mesh":0,
			"name":"\u7acb\u65b9\u4f53.005",
			"skin":0
		},
		{
			"children":[
				12,
				10,
				11
			],
			"name":"\u30a2\u30fc\u30de\u30c1\u30e5\u30a2.001"
		}
	],
	"animations":[
		{
			"channels":[
				{
					"sampler":0,
					"target":{
						"node":10,
						"path":"translation"
					}
				},
				{
					"sampler":1,
					"target":{
						"node":10,
						"path":"rotation"
					}
				},
				{
					"sampler":2,
					"target":{
						"node":10,
						"path":"scale"
					}
				},
				{
					"sampler":3,
					"target":{
						"node":0,
						"path":"translation"
					}
				},
				{
					"sampler":4,
					"target":{
						"node":0,
						"path":"rotation"
					}
				},
				{
					"sampler":5,
					"target":{
						"node":0,
						"path":"scale"
					}
				},
				{
					"sampler":6,
					"target":{
						"node":1,
						"path":"translation"
					}
				},
				{
					"sampler":7,
					"target":{
						"node":1,
						"path":"rotation"
					}
				},
				{
					"sampler":8,
					"target":{
						"node":1,
						"path":"scale"
					}
				},
				{
					"sampler":9,
					"target":{
						"node":2,
						"path":"translation"
					}
				},
				{
					"sampler":10,
					"target":{
						"node":2,
						"path":"rotation"
					}
				},
				{
					"sampler":11,
					"target":{
						"node":2,
						"path":"scale"
					}
				},
				{
					"sampler":12,
					"target":{
						"node":3,
						"path":"translation"
					}
				},
				{
					"sampler":13,
					"target":{
						"node":3,
						"path":"rotation"
					}
				},
				{
					"sampler":14,
					"target":{
						"node":3,
						"path":"scale"
					}
				},
				{
					"sampler":15,
					"target":{
						"node":4,
						"path":"translation"
					}
				},
				{
					"sampler":16,
					"target":{
						"node":4,
						"path":"rotation"
					}
				},
				{
					"sampler":17,
					"target":{
						"node":4,
						"path":"scale"
					}
				},
				{
					"sampler":18,
					"target":{
						"node":5,
						"path":"translation"
					}
				},
				{
					"sampler":19,
					"target":{
						"node":5,
						"path":"rotation"
					}
				},
				{
					"sampler":20,
					"target":{
						"node":5,
						"path":"scale"
					}
				},
				{
					"sampler":21,
					"target":{
						"node":6,
						"path":"translation"
					}
				},
				{
					"sampler":22,
					"target":{
						"node":6,
						"path":"rotation"
					}
				},
				{
					"sampler":23,
					"target":{
						"node":6,
						"path":"scale"
					}
				},
				{
					"sampler":24,
					"target":{
						"node":7,
						"path":"translation"
					}
				},
				{
					"sampler":25,
					"target":{
						"node":7,
						"path":"rotation"
					}
				},
				{
					"sampler":26,
					"target":{
						"node":7,
						"path":"scale"
					}
				},
				{
					"sampler":27,
					"target":{
						"node":8,
						"path":"translation"
					}
				},
				{
					"sampler":28,
					"target":{
						"node":8,
						"path":"rotation"
					}
				},
				{
					"sampler":29,
					"target":{
						"node":8,
						"path":"scale"
					}
				},
				{
					"sampler":30,
					"target":{
						"node":9,
						"path":"translation"
					}
				},
				{
					"sampler":31,
					"target":{
						"node":9,
						"path":"rotation"
					}
				},
				{
					"sampler":32,
					"target":{
						"node":9,
						"path":"scale"
					}
				},
				{
					"sampler":33,
					"target":{
						"node":11,
						"path":"translation"
					}
				},
				{
					"sampler":34,
					"target":{
						"node":11,
						"path":"rotation"
					}
				},
				{
					"sampler":35,
					"target":{
						"node":11,
						"path":"scale"
					}
				}
			],
			"name":"\u30a2\u30fc\u30de\u30c1\u30e5\u30a2.001\u30a2\u30af\u30b7\u30e7\u30f3.001",
			"samplers":[
				{
					"input":7,
					"interpolation":"LINEAR",
					"output":8
				},
				{
					"input":7,
					"interpolation":"LINEAR",
					"output":9
				},
				{
					"input":7,
					"interpolation":"LINEAR",
					"output":10
				},
				{
					"input":11,
					"interpolation":"STEP",
					"output":12
				},
				{
					"input":11,
					"interpolation":"STEP",
					"output":13
				},
				{
					"input":7,
					"interpolation":"LINEAR",
					"output":14
				},
				{
					"input":11,
					"interpolation":"STEP",
					"output":15
				},
				{
					"input":11,
					"interpolation":"STEP",
					"output":16
				},
				{
					"input":7,
					"interpolation":"LINEAR",
					"output":17
				},
				{
					"input":11,
					"interpolation":"STEP",
					"output":18
				},
				{
					"input":11,
					"interpolation":"STEP",
					"output":19
				},
				{
					"input":7,
					"interpolation":"LINEAR",
					"output":20
				},
				{
					"input":11,
					"interpolation":"STEP",
					"output":21
				},
				{
					"input":11,
					"interpolation":"STEP",
					"output":22
				},
				{
					"input":7,
					"interpolation":"LINEAR",
					"output":23
				},
				{
					"input":11,
					"interpolation":"STEP",
					"output":24
				},
				{
					"input":11,
					"interpolation":"STEP",
					"output":25
				},
				{
					"input":7,
					"interpolation":"LINEAR",
					"output":26
				},
				{
					"input":11,
					"interpolation":"STEP",
					"output":27
				},
				{
					"input":11,
					"interpolation":"STEP",
					"output":28
				},
				{
					"input":7,
					"interpolation":"LINEAR",
					"output":29
				},
				{
					"input":11,
					"interpolation":"STEP",
					"output":30
				},
				{
					"input":11,
					"interpolation":"STEP",
					"output":31
				},
				{
					"input":7,
					"interpolation":"LINEAR",
					"output":32
				},
				{
					"input":11,
					"interpolation":"STEP",
					"output":33
				},
				{
					"input":11,
					"interpolation":"STEP",
					"output":34
				},
				{
					"input":11,
					"interpolation":"STEP",
					"output":35
				},
				{
					"input":11,
					"interpolation":"STEP",
					"output":36
				},
				{
					"input":11,
					"interpolation":"STEP",
					"output":37
				},
				{
					"input":7,
					"interpolation":"LINEAR",
					"output":38
				},
				{
					"input":11,
					"interpolation":"STEP",
					"output":39
				},
				{
					"input":11,
					"interpolation":"STEP",
					"output":40
				},
				{
					"input":7,
					"interpolation":"LINEAR",
					"output":41
				},
				{
					"input":7,
					"interpolation":"LINEAR",
					"output":42
				},
				{
					"input":7,
					"interpolation":"LINEAR",
					"output":43
				},
				{
					"input":11,
					"interpolation":"STEP",
					"output":44
				}
			]
		}
	],
	"materials":[
		{
			"doubleSided":true,
			"name":"\u30de\u30c6\u30ea\u30a2\u30eb",
			"pbrMetallicRoughness":{
				"baseColorTexture":{
					"index":0
				},
				"metallicFactor":0,
				"roughnessFactor":0.5
			}
		}
	],
	"meshes":[
		{
			"name":"\u7acb\u65b9\u4f53.005",
			"primitives":[
				{
					"attributes":{
						"POSITION":0,
						"NORMAL":1,
						"TEXCOORD_0":2,
						"JOINTS_0":3,
						"WEIGHTS_0":4
					},
					"indices":5,
					"material":0
				}
			]
		}
	],
	"textures":[
		{
			"sampler":0,
			"source":0
		}
	],
	"images":[
		{
			"mimeType":"image/png",
			"name":"EatFish",
			"uri":"EatFish.png"
		}
	],
	"skins":[
		{
			"inverseBindMatrices":6,
			"joints":[
				10,
				0,
				1,
				2,
				3,
				4,
				5,
				6,
				7,
				8,
				9,
				11
			],
			"name":"\u30a2\u30fc\u30de\u30c1\u30e5\u30a2.001"
		}
	],
	"accessors":[
		{
			"bufferView":0,
			"componentType":5126,
			"count":204,
			"max":[
				2.114015579223633,
				2.0002644062042236,
				2.258457899093628
			],
			"min":[
				-4.173994541168213,
				-2.0886611938476562,
				-1.7815723419189453
			],
			"type":"VEC3"
		},
		{
			"bufferView":1,
			"componentType":5126,
			"count":204,
			"type":"VEC3"
		},
		{
			"bufferView":2,
			"componentType":5126,
			"count":204,
			"type":"VEC2"
		},
		{
			"bufferView":3,
			"componentType":5121,
			"count":204,
			"type":"VEC4"
		},
		{
			"bufferView":4,
			"componentType":5126,
			"count":204,
			"type":"VEC4"
		},
		{
			"bufferView":5,
			"componentType":5123,
			"count":216,
			"type":"SCALAR"
		},
		{
			"bufferView":6,
			"componentType":5126,
			"count":12,
			"type":"MAT4"
		},
		{
			"bufferView":7,
			"componentType":5126,
			"count":81,
			"max":[
				2.6666666666666665
			],
			"min":[
				0
			],
			"type":"SCALAR"
		},
		{
			"bufferView":8,
			"componentType":5126,
			"count":81,
			"type":"VEC3"
		},
		{
			"bufferView":9,
			"componentType":5126,
			"count":81,
			"type":"VEC4"
		},
		{
			"bufferView":10,
			"componentType":5126,
			"count":81,
			"type":"VEC3"
		},
		{
			"bufferView":11,
			"componentType":5126,
			"count":2,
			"max":[
				2.6666666666666665
			],
			"min":[
				0
			],
			"type":"SCALAR"
		},
		{
			"bufferView":12,
			"componentType":5126,
			"count":2,
			"type":"VEC3"
		},
		{
			"bufferView":13,
			"componentType":5126,
			"count":2,
			"type":"VEC4"
		},
		{
			"bufferView":14,
			"componentType":5126,
			"count":81,
			"type":"VEC3"
		},
		{
			"bufferView":15,
			"componentType":5126,
			"count":2,
			"type":"VEC3"
		},
		{
			"bufferView":16,
			"componentType":5126,
			"count":2,
			"type":"VEC4"
		},
		{
			"bufferView":17,
			"componentType":5126,
			"count":81,
			"type":"VEC3"
		},
		{
			"bufferView":18,
			"componentType":5126,
			"count":2,
			"type":"VEC3"
		},
		{
			"bufferView":19,
			"componentType":5126,
			"count":2,
			"type":"VEC4"
		},
		{
			"bufferView":20,
			"componentType":5126,
			"count":81,
			"type":"VEC3"
		},
		{
			"bufferView":21,
			"componentType":5126,
			"count":2,
			"type":"VEC3"
		},
		{
			"bufferView":22,
			"componentType":5126,
			"count":2,
			"type":"VEC4"
		},
		{
			"bufferView":23,
			"componentType":5126,
			"count":81,
			"type":"VEC3"
		},
		{
			"bufferView":24,
			"componentType":5126,
			"count":2,
			"type":"VEC3"
		},
		{
			"bufferView":25,
			"componentType":5126,
			"count":2,
			"type":"VEC4"
		},
		{
			"bufferView":26,
			"componentType":5126,
			"count":81,
			"type":"VEC3"
		},
		{
			"bufferView":27,
			"componentType":5126,
			"count":2,
			"type":"VEC3"
		},
		{
			"bufferView":28,
			"componentType":5126,
			"count":2,
			"type":"VEC4"
		},
		{
			"bufferView":29,
			"componentType":5126,
			"count":81,
			"type":"VEC3"
		},
		{
			"bufferView":30,
			"componentType":5126,
			"count":2,
			"type":"VEC3"
		},
		{
			"bufferView":31,
			"componentType":5126,
			"count":2,
			"type":"VEC4"
		},
		{
			"bufferView":32,
			"componentType":5126,
			"count":81,
			"type":"VEC3"
		},
		{
			"bufferView":33,
			"componentType":5126,
			"count":2,
			"type":"VEC3"
		},
		{
			"bufferView":34,
			"componentType":5126,
			"count":2,
			"type":"VEC4"
		},
		{
			"bufferView":35,
			"componentType":5126,
			"count":2,
			"type":"VEC3"
		},
		{
			"bufferView":36,
			"componentType":5126,
			"count":2,
			"type":"VEC3"
		},
		{
			"bufferView":37,
			"componentType":5126,
			"count":2,
			"type":"VEC4"
		},
		{
			"bufferView":38,
			"componentType":5126,
			"count":81,
			"type":"VEC3"
		},
		{
			"bufferView":39,
			"componentType":5126,
			"count":2,
			"type":"VEC3"
		},
		{
			"bufferView":40,
			"componentType":5126,
			"count":2,
			"type":"VEC4"
		},
		{
			"bufferView":41,
			"componentType":5126,
			"count":81,
			"type":"VEC3"
		},
		{
			"bufferView":42,
			"componentType":5126,
			"count":81,
			"type":"VEC3"
		},
		{
			"bufferView":43,
			"componentType":5126,
			"count":81,
			"type":"VEC4"
		},
		{
			"bufferView":44,
			"componentType":5126,
			"count":2,
			"type":"VEC3"
		}
	],
	"bufferViews":[
		{
			"buffer":0,
			"byteLength":2448,
			"byteOffset":0,
			"target":34962
		},
		{
			"buffer":0,
			"byteLength":2448,
			"byteOffset":2448,
			"target":34962
		},
		{
			"buffer":0,
			"byteLength":1632,
			"byteOffset":4896,
			"target":34962
		},
		{
			"buffer":0,
			"byteLength":816,
			"byteOffset":6528,
			"target":34962
		},
		{
			"buffer":0,
			"byteLength":3264,
			"byteOffset":7344,
			"target":34962
		},
		{
			"buffer":0,
			"byteLength":432,
			"byteOffset":10608,
			"target":34963
		},
		{
			"buffer":0,
			"byteLength":768,
			"byteOffset":11040
		},
		{
			"buffer":0,
			"byteLength":324,
			"byteOffset":11808
		},
		{
			"buffer":0,
			"byteLength":972,
			"byteOffset":12132
		},
		{
			"buffer":0,
			"byteLength":1296,
			"byteOffset":13104
		},
		{
			"buffer":0,
			"byteLength":972,
			"byteOffset":14400
		},
		{
			"buffer":0,
			"byteLength":8,
			"byteOffset":15372
		},
		{
			"buffer":0,
			"byteLength":24,
			"byteOffset":15380
		},
		{
			"buffer":0,
			"byteLength":32,
			"byteOffset":15404
		},
		{
			"buffer":0,
			"byteLength":972,
			"byteOffset":15436
		},
		{
			"buffer":0,
			"byteLength":24,
			"byteOffset":16408
		},
		{
			"buffer":0,
			"byteLength":32,
			"byteOffset":16432
		},
		{
			"buffer":0,
			"byteLength":972,
			"byteOffset":16464
		},
		{
			"buffer":0,
			"byteLength":24,
			"byteOffset":17436
		},
		{
			"buffer":0,
			"byteLength":32,
			"byteOffset":17460
		},
		{
			"buffer":0,
			"byteLength":972,
			"byteOffset":17492
		},
		{
			"buffer":0,
			"byteLength":24,
			"byteOffset":18464
		},
		{
			"buffer":0,
			"byteLength":32,
			"byteOffset":18488
		},
		{
			"buffer":0,
			"byteLength":972,
			"byteOffset":18520
		},
		{
			"buffer":0,
			"byteLength":24,
			"byteOffset":19492
		},
		{
			"buffer":0,
			"byteLength":32,
			"byteOffset":19516
		},
		{
			"buffer":0,
			"byteLength":972,
			"byteOffset":19548
		},
		{
			"buffer":0,
			"byteLength":24,
			"byteOffset":20520
		},
		{
			"buffer":0,
			"byteLength":32,
			"byteOffset":20544
		},
		{
			"buffer":0,
			"byteLength":972,
			"byteOffset":20576
		},
		{
			"buffer":0,
			"byteLength":24,
			"byteOffset":21548
		},
		{
			"buffer":0,
			"byteLength":32,
			"byteOffset":21572
		},
		{
			"buffer":0,
			"byteLength":972,
			"byteOffset":21604
		},
		{
			"buffer":0,
			"byteLength":24,
			"byteOffset":22576
		},
		{
			"buffer":0,
			"byteLength":32,
			"byteOffset":22600
		},
		{
			"buffer":0,
			"byteLength":24,
			"byteOffset":22632
		},
		{
			"buffer":0,
			"byteLength":24,
			"byteOffset":22656
		},
		{
			"buffer":0,
			"byteLength":32,
			"byteOffset":22680
		},
		{
			"buffer":0,
			"byteLength":972,
			"byteOffset":22712
		},
		{
			"buffer":0,
			"byteLength":24,
			"byteOffset":23684
		},
		{
			"buffer":0,
			"byteLength":32,
			"byteOffset":23708
		},
		{
			"buffer":0,
			"byteLength":972,
			"byteOffset":23740
		},
		{
			"buffer":0,
			"byteLength":972,
			"byteOffset":24712
		},
		{
			"buffer":0,
			"byteLength":1296,
			"byteOffset":25684
		},
		{
			"buffer":0,
			"byteLength":24,
			"byteOffset":26980
		}
	],
	"samplers":[
		{
			"magFilter":9729,
			"minFilter":9987
		}
	],
	"buffers":[
		{
			"byteLength":27004,
			"uri":"EatFish.bin"
		}
	]
}
