{
	"asset":{
		"generator":"Khronos glTF Blender I/O v4.2.57",
		"version":"2.0"
	},
	"scene":0,
	"scenes":[
		{
			"name":"Scene",
			"nodes":[
				13
			]
		}
	],
	"nodes":[
		{
			"name":"3",
			"rotation":[
				0.4572511315345764,
				0.010077763348817825,
				-0.3018339276313782,
				0.8364903330802917
			],
			"translation":[
				0.8839979767799377,
				2.3535473346710205,
				0.8597651720046997
			]
		},
		{
			"name":"4",
			"rotation":[
				0.43037834763526917,
				0.07384559512138367,
				-0.7641888856887817,
				0.47469642758369446
			],
			"scale":[
				1,
				1,
				0.9999999403953552
			],
			"translation":[
				1.1281402111053467,
				1.1708532571792603,
				0.23946642875671387
			]
		},
		{
			"name":"5",
			"rotation":[
				0.8338240385055542,
				-0.07673317939043045,
				-0.15256212651729584,
				0.524951696395874
			],
			"scale":[
				0.9999998807907104,
				1,
				1
			],
			"translation":[
				-0.02169286273419857,
				1.0742095708847046,
				1.218764305114746
			]
		},
		{
			"name":"6",
			"rotation":[
				0.5270485281944275,
				-0.26378777623176575,
				0.15214893221855164,
				0.7934018969535828
			],
			"scale":[
				1,
				0.9999999403953552,
				0.9999998807907104
			],
			"translation":[
				-0.5887351036071777,
				2.363720178604126,
				1.0693702697753906
			]
		},
		{
			"name":"7",
			"rotation":[
				0.019789043813943863,
				0.22211293876171112,
				-0.5585719347000122,
				0.7989190816879272
			],
			"scale":[
				0.9999999403953552,
				0.9999998807907104,
				0.9999999403953552
			],
			"translation":[
				1.0021291971206665,
				2.4241461753845215,
				-0.5049436688423157
			]
		},
		{
			"name":"8",
			"rotation":[
				-0.4057062566280365,
				0.23114322125911713,
				-0.7565977573394775,
				0.4577500820159912
			],
			"scale":[
				1.0000001192092896,
				0.9999998807907104,
				1
			],
			"translation":[
				0.7816125750541687,
				1.154868721961975,
				-0.949097752571106
			]
		},
		{
			"name":"9",
			"rotation":[
				-0.5095844268798828,
				0.3207854628562927,
				-0.2336357980966568,
				0.7634361386299133
			],
			"scale":[
				1,
				0.9999998807907104,
				0.9999999403953552
			],
			"translation":[
				-0.013821092434227467,
				2.4893131256103516,
				-1.1392637491226196
			]
		},
		{
			"name":"10",
			"rotation":[
				-0.6021533012390137,
				0.45016059279441833,
				0.6139453649520874,
				0.24049508571624756
			],
			"scale":[
				0.9999999403953552,
				1.0000001192092896,
				1
			],
			"translation":[
				-0.9532462954521179,
				1.1709098815917969,
				0.25080975890159607
			]
		},
		{
			"name":"11",
			"rotation":[
				-0.41119346022605896,
				0.4718855321407318,
				0.35422927141189575,
				0.6948134303092957
			],
			"scale":[
				0.9999999403953552,
				1,
				1
			],
			"translation":[
				-1.2093336582183838,
				2.424374580383301,
				-0.45957857370376587
			]
		},
		{
			"name":"12",
			"rotation":[
				-0.604704737663269,
				0.5351362228393555,
				-0.5812407732009888,
				0.1006002351641655
			],
			"scale":[
				1.0000001192092896,
				1.0000004768371582,
				1.000000238418579
			],
			"translation":[
				-0.8628087639808655,
				1.0643715858459473,
				-0.9032755494117737
			]
		},
		{
			"children":[
				0,
				1,
				2,
				3,
				4,
				5,
				6,
				7,
				8,
				9
			],
			"name":"1",
			"rotation":[
				-0.05030785873532295,
				-0.6972686052322388,
				-0.7132525444030762,
				0.05056123062968254
			],
			"scale":[
				1.0000009536743164,
				1,
				1
			],
			"translation":[
				-0.46024736762046814,
				0.04435129463672638,
				-1.4630075693130493
			]
		},
		{
			"name":"2",
			"rotation":[
				-0.6545094847679138,
				0.2273760586977005,
				-0.14618079364299774,
				0.7060797810554504
			],
			"scale":[
				1,
				0.9999999403953552,
				1
			],
			"translation":[
				-0.46024736762046814,
				0.04435129463672638,
				-1.4630075693130493
			]
		},
		{
			"mesh":0,
			"name":"\u7acb\u65b9\u4f53.005",
			"skin":0
		},
		{
			"children":[
				12,
				10,
				11
			],
			"name":"\u30a2\u30fc\u30de\u30c1\u30e5\u30a2.001"
		}
	],
	"animations":[
		{
			"channels":[
				{
					"sampler":0,
					"target":{
						"node":10,
						"path":"translation"
					}
				},
				{
					"sampler":1,
					"target":{
						"node":10,
						"path":"rotation"
					}
				},
				{
					"sampler":2,
					"target":{
						"node":10,
						"path":"scale"
					}
				},
				{
					"sampler":3,
					"target":{
						"node":0,
						"path":"translation"
					}
				},
				{
					"sampler":4,
					"target":{
						"node":0,
						"path":"rotation"
					}
				},
				{
					"sampler":5,
					"target":{
						"node":0,
						"path":"scale"
					}
				},
				{
					"sampler":6,
					"target":{
						"node":1,
						"path":"translation"
					}
				},
				{
					"sampler":7,
					"target":{
						"node":1,
						"path":"rotation"
					}
				},
				{
					"sampler":8,
					"target":{
						"node":1,
						"path":"scale"
					}
				},
				{
					"sampler":9,
					"target":{
						"node":2,
						"path":"translation"
					}
				},
				{
					"sampler":10,
					"target":{
						"node":2,
						"path":"rotation"
					}
				},
				{
					"sampler":11,
					"target":{
						"node":2,
						"path":"scale"
					}
				},
				{
					"sampler":12,
					"target":{
						"node":3,
						"path":"translation"
					}
				},
				{
					"sampler":13,
					"target":{
						"node":3,
						"path":"rotation"
					}
				},
				{
					"sampler":14,
					"target":{
						"node":3,
						"path":"scale"
					}
				},
				{
					"sampler":15,
					"target":{
						"node":4,
						"path":"translation"
					}
				},
				{
					"sampler":16,
					"target":{
						"node":4,
						"path":"rotation"
					}
				},
				{
					"sampler":17,
					"target":{
						"node":4,
						"path":"scale"
					}
				},
				{
					"sampler":18,
					"target":{
						"node":5,
						"path":"translation"
					}
				},
				{
					"sampler":19,
					"target":{
						"node":5,
						"path":"rotation"
					}
				},
				{
					"sampler":20,
					"target":{
						"node":5,
						"path":"scale"
					}
				},
				{
					"sampler":21,
					"target":{
						"node":6,
						"path":"translation"
					}
				},
				{
					"sampler":22,
					"target":{
						"node":6,
						"path":"rotation"
					}
				},
				{
					"sampler":23,
					"target":{
						"node":6,
						"path":"scale"
					}
				},
				{
					"sampler":24,
					"target":{
						"node":7,
						"path":"translation"
					}
				},
				{
					"sampler":25,
					"target":{
						"node":7,
						"path":"rotation"
					}
				},
				{
					"sampler":26,
					"target":{
						"node":7,
						"path":"scale"
					}
				},
				{
					"sampler":27,
					"target":{
						"node":8,
						"path":"translation"
					}
				},
				{
					"sampler":28,
					"target":{
						"node":8,
						"path":"rotation"
					}
				},
				{
					"sampler":29,
					"target":{
						"node":8,
						"path":"scale"
					}
				},
				{
					"sampler":30,
					"target":{
						"node":9,
						"path":"translation"
					}
				},
				{
					"sampler":31,
					"target":{
						"node":9,
						"path":"rotation"
					}
				},
				{
					"sampler":32,
					"target":{
						"node":9,
						"path":"scale"
					}
				},
				{
					"sampler":33,
					"target":{
						"node":11,
						"path":"translation"
					}
				},
				{
					"sampler":34,
					"target":{
						"node":11,
						"path":"rotation"
					}
				},
				{
					"sampler":35,
					"target":{
						"node":11,
						"path":"scale"
					}
				}
			],
			"name":"\u30a2\u30fc\u30de\u30c1\u30e5\u30a2.001\u30a2\u30af\u30b7\u30e7\u30f3.001",
			"samplers":[
				{
					"input":7,
					"interpolation":"LINEAR",
					"output":8
				},
				{
					"input":7,
					"interpolation":"LINEAR",
					"output":9
				},
				{
					"input":7,
					"interpolation":"LINEAR",
					"output":10
				},
				{
					"input":11,
					"interpolation":"STEP",
					"output":12
				},
				{
					"input":11,
					"interpolation":"STEP",
					"output":13
				},
				{
					"input":7,
					"interpolation":"LINEAR",
					"output":14
				},
				{
					"input":11,
					"interpolation":"STEP",
					"output":15
				},
				{
					"input":11,
					"interpolation":"STEP",
					"output":16
				},
				{
					"input":7,
					"interpolation":"LINEAR",
					"output":17
				},
				{
					"input":11,
					"interpolation":"STEP",
					"output":18
				},
				{
					"input":11,
					"interpolation":"STEP",
					"output":19
				},
				{
					"input":7,
					"interpolation":"LINEAR",
					"output":20
				},
				{
					"input":11,
					"interpolation":"STEP",
					"output":21
				},
				{
					"input":11,
					"interpolation":"STEP",
					"output":22
				},
				{
					"input":7,
					"interpolation":"LINEAR",
					"output":23
				},
				{
					"input":11,
					"interpolation":"STEP",
					"output":24
				},
				{
					"input":11,
					"interpolation":"STEP",
					"output":25
				},
				{
					"input":7,
					"interpolation":"LINEAR",
					"output":26
				},
				{
					"input":11,
					"interpolation":"STEP",
					"output":27
				},
				{
					"input":11,
					"interpolation":"STEP",
					"output":28
				},
				{
					"input":7,
					"interpolation":"LINEAR",
					"output":29
				},
				{
					"input":11,
					"interpolation":"STEP",
					"output":30
				},
				{
					"input":11,
					"interpolation":"STEP",
					"output":31
				},
				{
					"input":7,
					"interpolation":"LINEAR",
					"output":32
				},
				{
					"input":11,
					"interpolation":"STEP",
					"output":33
				},
				{
					"input":11,
					"interpolation":"STEP",
					"output":34
				},
				{
					"input":11,
					"interpolation":"STEP",
					"output":35
				},
				{
					"input":11,
					"interpolation":"STEP",
					"output":36
				},
				{
					"input":11,
					"interpolation":"STEP",
					"output":37
				},
				{
					"input":7,
					"interpolation":"LINEAR",
					"output":38
				},
				{
					"input":11,
					"interpolation":"STEP",
					"output":39
				},
				{
					"input":11,
					"interpolation":"STEP",
					"output":40
				},
				{
					"input":7,
					"interpolation":"LINEAR",
					"output":41
				},
				{
					"input":7,
					"interpolation":"LINEAR",
					"output":42
				},
				{
					"input":7,
					"interpolation":"LINEAR",
					"output":43
				},
				{
					"input":11,
					"interpolation":"STEP",
					"output":44
				}
			]
		}
	],
	"materials":[
		{
			"doubleSided":true,
			"name":"\u30de\u30c6\u30ea\u30a2\u30eb",
			"pbrMetallicRoughness":{
				"baseColorTexture":{
					"index":0
				},
				"metallicFactor":0,
				"roughnessFactor":0.5
			}
		}
	],
	"meshes":[
		{
			"name":"\u7acb\u65b9\u4f53.005",
			"primitives":[
				{
					"attributes":{
						"POSITION":0,
						"NORMAL":1,
						"TEXCOORD_0":2,
						"JOINTS_0":3,
						"WEIGHTS_0":4
					},
					"indices":5,
					"material":0
				}
			]
		}
	],
	"textures":[
		{
			"sampler":0,
			"source":0
		}
	],
	"images":[
		{
			"mimeType":"image/png",
			"name":"EatFish",
			"uri":"EatFish.png"
		}
	],
	"skins":[
		{
			"inverseBindMatrices":6,
			"joints":[
				10,
				0,
				1,
				2,
				3,
				4,
				5,
				6,
				7,
				8,
				9,
				11
			],
			"name":"\u30a2\u30fc\u30de\u30c1\u30e5\u30a2.001"
		}
	],
	"accessors":[
		{
			"bufferView":0,
			"componentType":5126,
			"count":204,
			"max":[
				1.7815728187561035,
				2.0002646446228027,
				2.114015579223633
			],
			"min":[
				-2.2584586143493652,
				-2.088660955429077,
				-4.173994541168213
			],
			"type":"VEC3"
		},
		{
			"bufferView":1,
			"componentType":5126,
			"count":204,
			"type":"VEC3"
		},
		{
			"bufferView":2,
			"componentType":5126,
			"count":204,
			"type":"VEC2"
		},
		{
			"bufferView":3,
			"componentType":5121,
			"count":204,
			"type":"VEC4"
		},
		{
			"bufferView":4,
			"componentType":5126,
			"count":204,
			"type":"VEC4"
		},
		{
			"bufferView":5,
			"componentType":5123,
			"count":216,
			"type":"SCALAR"
		},
		{
			"bufferView":6,
			"componentType":5126,
			"count":12,
			"type":"MAT4"
		},
		{
			"bufferView":7,
			"componentType":5126,
			"count":65,
			"max":[
				2.6666666666666665
			],
			"min":[
				0
			],
			"type":"SCALAR"
		},
		{
			"bufferView":8,
			"componentType":5126,
			"count":65,
			"type":"VEC3"
		},
		{
			"bufferView":9,
			"componentType":5126,
			"count":65,
			"type":"VEC4"
		},
		{
			"bufferView":10,
			"componentType":5126,
			"count":65,
			"type":"VEC3"
		},
		{
			"bufferView":11,
			"componentType":5126,
			"count":2,
			"max":[
				2.6666666666666665
			],
			"min":[
				0
			],
			"type":"SCALAR"
		},
		{
			"bufferView":12,
			"componentType":5126,
			"count":2,
			"type":"VEC3"
		},
		{
			"bufferView":13,
			"componentType":5126,
			"count":2,
			"type":"VEC4"
		},
		{
			"bufferView":14,
			"componentType":5126,
			"count":65,
			"type":"VEC3"
		},
		{
			"bufferView":15,
			"componentType":5126,
			"count":2,
			"type":"VEC3"
		},
		{
			"bufferView":16,
			"componentType":5126,
			"count":2,
			"type":"VEC4"
		},
		{
			"bufferView":17,
			"componentType":5126,
			"count":65,
			"type":"VEC3"
		},
		{
			"bufferView":18,
			"componentType":5126,
			"count":2,
			"type":"VEC3"
		},
		{
			"bufferView":19,
			"componentType":5126,
			"count":2,
			"type":"VEC4"
		},
		{
			"bufferView":20,
			"componentType":5126,
			"count":65,
			"type":"VEC3"
		},
		{
			"bufferView":21,
			"componentType":5126,
			"count":2,
			"type":"VEC3"
		},
		{
			"bufferView":22,
			"componentType":5126,
			"count":2,
			"type":"VEC4"
		},
		{
			"bufferView":23,
			"componentType":5126,
			"count":65,
			"type":"VEC3"
		},
		{
			"bufferView":24,
			"componentType":5126,
			"count":2,
			"type":"VEC3"
		},
		{
			"bufferView":25,
			"componentType":5126,
			"count":2,
			"type":"VEC4"
		},
		{
			"bufferView":26,
			"componentType":5126,
			"count":65,
			"type":"VEC3"
		},
		{
			"bufferView":27,
			"componentType":5126,
			"count":2,
			"type":"VEC3"
		},
		{
			"bufferView":28,
			"componentType":5126,
			"count":2,
			"type":"VEC4"
		},
		{
			"bufferView":29,
			"componentType":5126,
			"count":65,
			"type":"VEC3"
		},
		{
			"bufferView":30,
			"componentType":5126,
			"count":2,
			"type":"VEC3"
		},
		{
			"bufferView":31,
			"componentType":5126,
			"count":2,
			"type":"VEC4"
		},
		{
			"bufferView":32,
			"componentType":5126,
			"count":65,
			"type":"VEC3"
		},
		{
			"bufferView":33,
			"componentType":5126,
			"count":2,
			"type":"VEC3"
		},
		{
			"bufferView":34,
			"componentType":5126,
			"count":2,
			"type":"VEC4"
		},
		{
			"bufferView":35,
			"componentType":5126,
			"count":2,
			"type":"VEC3"
		},
		{
			"bufferView":36,
			"componentType":5126,
			"count":2,
			"type":"VEC3"
		},
		{
			"bufferView":37,
			"componentType":5126,
			"count":2,
			"type":"VEC4"
		},
		{
			"bufferView":38,
			"componentType":5126,
			"count":65,
			"type":"VEC3"
		},
		{
			"bufferView":39,
			"componentType":5126,
			"count":2,
			"type":"VEC3"
		},
		{
			"bufferView":40,
			"componentType":5126,
			"count":2,
			"type":"VEC4"
		},
		{
			"bufferView":41,
			"componentType":5126,
			"count":65,
			"type":"VEC3"
		},
		{
			"bufferView":42,
			"componentType":5126,
			"count":65,
			"type":"VEC3"
		},
		{
			"bufferView":43,
			"componentType":5126,
			"count":65,
			"type":"VEC4"
		},
		{
			"bufferView":44,
			"componentType":5126,
			"count":2,
			"type":"VEC3"
		}
	],
	"bufferViews":[
		{
			"buffer":0,
			"byteLength":2448,
			"byteOffset":0,
			"target":34962
		},
		{
			"buffer":0,
			"byteLength":2448,
			"byteOffset":2448,
			"target":34962
		},
		{
			"buffer":0,
			"byteLength":1632,
			"byteOffset":4896,
			"target":34962
		},
		{
			"buffer":0,
			"byteLength":816,
			"byteOffset":6528,
			"target":34962
		},
		{
			"buffer":0,
			"byteLength":3264,
			"byteOffset":7344,
			"target":34962
		},
		{
			"buffer":0,
			"byteLength":432,
			"byteOffset":10608,
			"target":34963
		},
		{
			"buffer":0,
			"byteLength":768,
			"byteOffset":11040
		},
		{
			"buffer":0,
			"byteLength":260,
			"byteOffset":11808
		},
		{
			"buffer":0,
			"byteLength":780,
			"byteOffset":12068
		},
		{
			"buffer":0,
			"byteLength":1040,
			"byteOffset":12848
		},
		{
			"buffer":0,
			"byteLength":780,
			"byteOffset":13888
		},
		{
			"buffer":0,
			"byteLength":8,
			"byteOffset":14668
		},
		{
			"buffer":0,
			"byteLength":24,
			"byteOffset":14676
		},
		{
			"buffer":0,
			"byteLength":32,
			"byteOffset":14700
		},
		{
			"buffer":0,
			"byteLength":780,
			"byteOffset":14732
		},
		{
			"buffer":0,
			"byteLength":24,
			"byteOffset":15512
		},
		{
			"buffer":0,
			"byteLength":32,
			"byteOffset":15536
		},
		{
			"buffer":0,
			"byteLength":780,
			"byteOffset":15568
		},
		{
			"buffer":0,
			"byteLength":24,
			"byteOffset":16348
		},
		{
			"buffer":0,
			"byteLength":32,
			"byteOffset":16372
		},
		{
			"buffer":0,
			"byteLength":780,
			"byteOffset":16404
		},
		{
			"buffer":0,
			"byteLength":24,
			"byteOffset":17184
		},
		{
			"buffer":0,
			"byteLength":32,
			"byteOffset":17208
		},
		{
			"buffer":0,
			"byteLength":780,
			"byteOffset":17240
		},
		{
			"buffer":0,
			"byteLength":24,
			"byteOffset":18020
		},
		{
			"buffer":0,
			"byteLength":32,
			"byteOffset":18044
		},
		{
			"buffer":0,
			"byteLength":780,
			"byteOffset":18076
		},
		{
			"buffer":0,
			"byteLength":24,
			"byteOffset":18856
		},
		{
			"buffer":0,
			"byteLength":32,
			"byteOffset":18880
		},
		{
			"buffer":0,
			"byteLength":780,
			"byteOffset":18912
		},
		{
			"buffer":0,
			"byteLength":24,
			"byteOffset":19692
		},
		{
			"buffer":0,
			"byteLength":32,
			"byteOffset":19716
		},
		{
			"buffer":0,
			"byteLength":780,
			"byteOffset":19748
		},
		{
			"buffer":0,
			"byteLength":24,
			"byteOffset":20528
		},
		{
			"buffer":0,
			"byteLength":32,
			"byteOffset":20552
		},
		{
			"buffer":0,
			"byteLength":24,
			"byteOffset":20584
		},
		{
			"buffer":0,
			"byteLength":24,
			"byteOffset":20608
		},
		{
			"buffer":0,
			"byteLength":32,
			"byteOffset":20632
		},
		{
			"buffer":0,
			"byteLength":780,
			"byteOffset":20664
		},
		{
			"buffer":0,
			"byteLength":24,
			"byteOffset":21444
		},
		{
			"buffer":0,
			"byteLength":32,
			"byteOffset":21468
		},
		{
			"buffer":0,
			"byteLength":780,
			"byteOffset":21500
		},
		{
			"buffer":0,
			"byteLength":780,
			"byteOffset":22280
		},
		{
			"buffer":0,
			"byteLength":1040,
			"byteOffset":23060
		},
		{
			"buffer":0,
			"byteLength":24,
			"byteOffset":24100
		}
	],
	"samplers":[
		{
			"magFilter":9729,
			"minFilter":9987
		}
	],
	"buffers":[
		{
			"byteLength":24124,
			"uri":"EatFish.bin"
		}
	]
}
