{
	"asset":{
		"generator":"Khronos glTF Blender I/O v4.2.57",
		"version":"2.0"
	},
	"scene":0,
	"scenes":[
		{
			"name":"Scene",
			"nodes":[
				6
			]
		}
	],
	"nodes":[
		{
			"name":"\u30dc\u30fc\u30f3",
			"rotation":[
				-0.3647593557834625,
				-0.04291148483753204,
				0.03918008506298065,
				0.9292868971824646
			],
			"scale":[
				1,
				0.9999999403953552,
				1
			],
			"translation":[
				0.007261232007294893,
				-0.127828910946846,
				0.11916456371545792
			]
		},
		{
			"name":"\u30dc\u30fc\u30f3.001",
			"rotation":[
				-0.3647593855857849,
				-0.04291149601340294,
				0.03918008133769035,
				0.9292868971824646
			],
			"translation":[
				0.8644636273384094,
				-0.0024802684783935547,
				0.25381261110305786
			]
		},
		{
			"name":"\u30dc\u30fc\u30f3.002",
			"rotation":[
				-0.3647593855857849,
				-0.04291147738695145,
				0.03918010741472244,
				0.9292868971824646
			],
			"translation":[
				1.8047595024108887,
				0.07491704821586609,
				0.41058802604675293
			]
		},
		{
			"name":"\u30dc\u30fc\u30f3.003",
			"rotation":[
				-0.3647593557834625,
				-0.04291147738695145,
				0.03918010741472244,
				0.9292868971824646
			],
			"scale":[
				1,
				0.9999999403953552,
				1
			],
			"translation":[
				2.781123161315918,
				0.25577259063720703,
				0.5582034587860107
			]
		},
		{
			"name":"\u30dc\u30fc\u30f3.004",
			"rotation":[
				-0.3647593855857849,
				-0.04291147738695145,
				0.03918010741472244,
				0.9292868971824646
			],
			"translation":[
				3.664320707321167,
				0.3540942668914795,
				0.7015897631645203
			]
		},
		{
			"mesh":0,
			"name":"Cube.004",
			"skin":0
		},
		{
			"children":[
				5,
				0,
				1,
				2,
				3,
				4
			],
			"name":"\u30a2\u30fc\u30de\u30c1\u30e5\u30a2"
		}
	],
	"animations":[
		{
			"channels":[
				{
					"sampler":0,
					"target":{
						"node":0,
						"path":"translation"
					}
				},
				{
					"sampler":1,
					"target":{
						"node":0,
						"path":"rotation"
					}
				},
				{
					"sampler":2,
					"target":{
						"node":0,
						"path":"scale"
					}
				},
				{
					"sampler":3,
					"target":{
						"node":1,
						"path":"translation"
					}
				},
				{
					"sampler":4,
					"target":{
						"node":1,
						"path":"rotation"
					}
				},
				{
					"sampler":5,
					"target":{
						"node":1,
						"path":"scale"
					}
				},
				{
					"sampler":6,
					"target":{
						"node":2,
						"path":"translation"
					}
				},
				{
					"sampler":7,
					"target":{
						"node":2,
						"path":"rotation"
					}
				},
				{
					"sampler":8,
					"target":{
						"node":2,
						"path":"scale"
					}
				},
				{
					"sampler":9,
					"target":{
						"node":3,
						"path":"translation"
					}
				},
				{
					"sampler":10,
					"target":{
						"node":3,
						"path":"rotation"
					}
				},
				{
					"sampler":11,
					"target":{
						"node":3,
						"path":"scale"
					}
				},
				{
					"sampler":12,
					"target":{
						"node":4,
						"path":"translation"
					}
				},
				{
					"sampler":13,
					"target":{
						"node":4,
						"path":"rotation"
					}
				},
				{
					"sampler":14,
					"target":{
						"node":4,
						"path":"scale"
					}
				}
			],
			"name":"\u30a2\u30fc\u30de\u30c1\u30e5\u30a2\u30a2\u30af\u30b7\u30e7\u30f3",
			"samplers":[
				{
					"input":7,
					"interpolation":"LINEAR",
					"output":8
				},
				{
					"input":7,
					"interpolation":"LINEAR",
					"output":9
				},
				{
					"input":7,
					"interpolation":"LINEAR",
					"output":10
				},
				{
					"input":7,
					"interpolation":"LINEAR",
					"output":11
				},
				{
					"input":7,
					"interpolation":"LINEAR",
					"output":12
				},
				{
					"input":7,
					"interpolation":"LINEAR",
					"output":13
				},
				{
					"input":7,
					"interpolation":"LINEAR",
					"output":14
				},
				{
					"input":7,
					"interpolation":"LINEAR",
					"output":15
				},
				{
					"input":7,
					"interpolation":"LINEAR",
					"output":16
				},
				{
					"input":7,
					"interpolation":"LINEAR",
					"output":17
				},
				{
					"input":7,
					"interpolation":"LINEAR",
					"output":18
				},
				{
					"input":7,
					"interpolation":"LINEAR",
					"output":19
				},
				{
					"input":7,
					"interpolation":"LINEAR",
					"output":20
				},
				{
					"input":7,
					"interpolation":"LINEAR",
					"output":21
				},
				{
					"input":7,
					"interpolation":"LINEAR",
					"output":22
				}
			]
		}
	],
	"materials":[
		{
			"doubleSided":true,
			"name":"Material",
			"pbrMetallicRoughness":{
				"baseColorTexture":{
					"index":0
				},
				"metallicFactor":0,
				"roughnessFactor":0.5
			}
		}
	],
	"meshes":[
		{
			"name":"Cube.004",
			"primitives":[
				{
					"attributes":{
						"POSITION":0,
						"NORMAL":1,
						"TEXCOORD_0":2,
						"JOINTS_0":3,
						"WEIGHTS_0":4
					},
					"indices":5,
					"material":0
				}
			]
		}
	],
	"textures":[
		{
			"sampler":0,
			"source":0
		}
	],
	"images":[
		{
			"mimeType":"image/png",
			"name":"EatEffect",
			"uri":"EatEffect.png"
		}
	],
	"skins":[
		{
			"inverseBindMatrices":6,
			"joints":[
				0,
				1,
				2,
				3,
				4
			],
			"name":"\u30a2\u30fc\u30de\u30c1\u30e5\u30a2"
		}
	],
	"accessors":[
		{
			"bufferView":0,
			"componentType":5126,
			"count":180,
			"max":[
				4.0428266525268555,
				1.3444372415542603,
				0.700334370136261
			],
			"min":[
				-0.42583757638931274,
				-0.13629503548145294,
				-0.8003253936767578
			],
			"type":"VEC3"
		},
		{
			"bufferView":1,
			"componentType":5126,
			"count":180,
			"type":"VEC3"
		},
		{
			"bufferView":2,
			"componentType":5126,
			"count":180,
			"type":"VEC2"
		},
		{
			"bufferView":3,
			"componentType":5121,
			"count":180,
			"type":"VEC4"
		},
		{
			"bufferView":4,
			"componentType":5126,
			"count":180,
			"type":"VEC4"
		},
		{
			"bufferView":5,
			"componentType":5123,
			"count":180,
			"type":"SCALAR"
		},
		{
			"bufferView":6,
			"componentType":5126,
			"count":5,
			"type":"MAT4"
		},
		{
			"bufferView":7,
			"componentType":5126,
			"count":41,
			"max":[
				0.3333333333333333
			],
			"min":[
				0
			],
			"type":"SCALAR"
		},
		{
			"bufferView":8,
			"componentType":5126,
			"count":41,
			"type":"VEC3"
		},
		{
			"bufferView":9,
			"componentType":5126,
			"count":41,
			"type":"VEC4"
		},
		{
			"bufferView":10,
			"componentType":5126,
			"count":41,
			"type":"VEC3"
		},
		{
			"bufferView":11,
			"componentType":5126,
			"count":41,
			"type":"VEC3"
		},
		{
			"bufferView":12,
			"componentType":5126,
			"count":41,
			"type":"VEC4"
		},
		{
			"bufferView":13,
			"componentType":5126,
			"count":41,
			"type":"VEC3"
		},
		{
			"bufferView":14,
			"componentType":5126,
			"count":41,
			"type":"VEC3"
		},
		{
			"bufferView":15,
			"componentType":5126,
			"count":41,
			"type":"VEC4"
		},
		{
			"bufferView":16,
			"componentType":5126,
			"count":41,
			"type":"VEC3"
		},
		{
			"bufferView":17,
			"componentType":5126,
			"count":41,
			"type":"VEC3"
		},
		{
			"bufferView":18,
			"componentType":5126,
			"count":41,
			"type":"VEC4"
		},
		{
			"bufferView":19,
			"componentType":5126,
			"count":41,
			"type":"VEC3"
		},
		{
			"bufferView":20,
			"componentType":5126,
			"count":41,
			"type":"VEC3"
		},
		{
			"bufferView":21,
			"componentType":5126,
			"count":41,
			"type":"VEC4"
		},
		{
			"bufferView":22,
			"componentType":5126,
			"count":41,
			"type":"VEC3"
		}
	],
	"bufferViews":[
		{
			"buffer":0,
			"byteLength":2160,
			"byteOffset":0,
			"target":34962
		},
		{
			"buffer":0,
			"byteLength":2160,
			"byteOffset":2160,
			"target":34962
		},
		{
			"buffer":0,
			"byteLength":1440,
			"byteOffset":4320,
			"target":34962
		},
		{
			"buffer":0,
			"byteLength":720,
			"byteOffset":5760,
			"target":34962
		},
		{
			"buffer":0,
			"byteLength":2880,
			"byteOffset":6480,
			"target":34962
		},
		{
			"buffer":0,
			"byteLength":360,
			"byteOffset":9360,
			"target":34963
		},
		{
			"buffer":0,
			"byteLength":320,
			"byteOffset":9720
		},
		{
			"buffer":0,
			"byteLength":164,
			"byteOffset":10040
		},
		{
			"buffer":0,
			"byteLength":492,
			"byteOffset":10204
		},
		{
			"buffer":0,
			"byteLength":656,
			"byteOffset":10696
		},
		{
			"buffer":0,
			"byteLength":492,
			"byteOffset":11352
		},
		{
			"buffer":0,
			"byteLength":492,
			"byteOffset":11844
		},
		{
			"buffer":0,
			"byteLength":656,
			"byteOffset":12336
		},
		{
			"buffer":0,
			"byteLength":492,
			"byteOffset":12992
		},
		{
			"buffer":0,
			"byteLength":492,
			"byteOffset":13484
		},
		{
			"buffer":0,
			"byteLength":656,
			"byteOffset":13976
		},
		{
			"buffer":0,
			"byteLength":492,
			"byteOffset":14632
		},
		{
			"buffer":0,
			"byteLength":492,
			"byteOffset":15124
		},
		{
			"buffer":0,
			"byteLength":656,
			"byteOffset":15616
		},
		{
			"buffer":0,
			"byteLength":492,
			"byteOffset":16272
		},
		{
			"buffer":0,
			"byteLength":492,
			"byteOffset":16764
		},
		{
			"buffer":0,
			"byteLength":656,
			"byteOffset":17256
		},
		{
			"buffer":0,
			"byteLength":492,
			"byteOffset":17912
		}
	],
	"samplers":[
		{
			"magFilter":9729,
			"minFilter":9987
		}
	],
	"buffers":[
		{
			"byteLength":18404,
			"uri":"EatEffect.bin"
		}
	]
}
