{
	"asset":{
		"generator":"Khronos glTF Blender I/O v4.2.57",
		"version":"2.0"
	},
	"scene":0,
	"scenes":[
		{
			"name":"Scene",
			"nodes":[
				3
			]
		}
	],
	"nodes":[
		{
			"name":"\u30dc\u30fc\u30f3.001",
			"rotation":[
				-4.297380939988216e-08,
				1.010922261457381e-07,
				-0.05785761773586273,
				0.9983248114585876
			],
			"translation":[
				-1.4210854715202004e-14,
				5.373900890350342,
				-2.402320831151883e-07
			]
		},
		{
			"children":[
				0
			],
			"name":"\u30dc\u30fc\u30f3",
			"rotation":[
				4.975195011525102e-08,
				6.240995276129979e-09,
				-0.12526151537895203,
				0.9921237826347351
			],
			"scale":[
				1,
				1,
				1.0000001192092896
			],
			"translation":[
				0,
				0,
				-3.6599056720733643
			]
		},
		{
			"mesh":0,
			"name":"\u7acb\u65b9\u4f53",
			"skin":0
		},
		{
			"children":[
				2,
				1
			],
			"name":"\u30a2\u30fc\u30de\u30c1\u30e5\u30a2"
		}
	],
	"animations":[
		{
			"channels":[
				{
					"sampler":0,
					"target":{
						"node":1,
						"path":"translation"
					}
				},
				{
					"sampler":1,
					"target":{
						"node":1,
						"path":"rotation"
					}
				},
				{
					"sampler":2,
					"target":{
						"node":1,
						"path":"scale"
					}
				},
				{
					"sampler":3,
					"target":{
						"node":0,
						"path":"translation"
					}
				},
				{
					"sampler":4,
					"target":{
						"node":0,
						"path":"rotation"
					}
				},
				{
					"sampler":5,
					"target":{
						"node":0,
						"path":"scale"
					}
				}
			],
			"name":"\u30a2\u30fc\u30de\u30c1\u30e5\u30a2\u30a2\u30af\u30b7\u30e7\u30f3",
			"samplers":[
				{
					"input":7,
					"interpolation":"STEP",
					"output":8
				},
				{
					"input":9,
					"interpolation":"LINEAR",
					"output":10
				},
				{
					"input":9,
					"interpolation":"LINEAR",
					"output":11
				},
				{
					"input":7,
					"interpolation":"LINEAR",
					"output":12
				},
				{
					"input":9,
					"interpolation":"LINEAR",
					"output":13
				},
				{
					"input":7,
					"interpolation":"LINEAR",
					"output":14
				}
			]
		}
	],
	"materials":[
		{
			"alphaMode":"BLEND",
			"doubleSided":true,
			"name":"\u30de\u30c6\u30ea\u30a2\u30eb",
			"pbrMetallicRoughness":{
				"baseColorTexture":{
					"index":0
				},
				"metallicFactor":0,
				"roughnessFactor":0.5
			}
		}
	],
	"meshes":[
		{
			"name":"\u7acb\u65b9\u4f53",
			"primitives":[
				{
					"attributes":{
						"POSITION":0,
						"NORMAL":1,
						"TEXCOORD_0":2,
						"JOINTS_0":3,
						"WEIGHTS_0":4
					},
					"indices":5,
					"material":0
				}
			]
		}
	],
	"textures":[
		{
			"sampler":0,
			"source":0
		}
	],
	"images":[
		{
			"mimeType":"image/png",
			"name":"Wing",
			"uri":"Wing.png"
		}
	],
	"skins":[
		{
			"inverseBindMatrices":6,
			"joints":[
				1,
				0
			],
			"name":"\u30a2\u30fc\u30de\u30c1\u30e5\u30a2"
		}
	],
	"accessors":[
		{
			"bufferView":0,
			"componentType":5126,
			"count":447,
			"max":[
				10.633715629577637,
				10.305215835571289,
				-1.9361788034439087
			],
			"min":[
				-1,
				-1,
				-3.975102424621582
			],
			"type":"VEC3"
		},
		{
			"bufferView":1,
			"componentType":5126,
			"count":447,
			"type":"VEC3"
		},
		{
			"bufferView":2,
			"componentType":5126,
			"count":447,
			"type":"VEC2"
		},
		{
			"bufferView":3,
			"componentType":5121,
			"count":447,
			"type":"VEC4"
		},
		{
			"bufferView":4,
			"componentType":5126,
			"count":447,
			"type":"VEC4"
		},
		{
			"bufferView":5,
			"componentType":5123,
			"count":663,
			"type":"SCALAR"
		},
		{
			"bufferView":6,
			"componentType":5126,
			"count":2,
			"type":"MAT4"
		},
		{
			"bufferView":7,
			"componentType":5126,
			"count":2,
			"max":[
				0.8333333333333334
			],
			"min":[
				0
			],
			"type":"SCALAR"
		},
		{
			"bufferView":8,
			"componentType":5126,
			"count":2,
			"type":"VEC3"
		},
		{
			"bufferView":9,
			"componentType":5126,
			"count":21,
			"max":[
				0.8333333333333334
			],
			"min":[
				0
			],
			"type":"SCALAR"
		},
		{
			"bufferView":10,
			"componentType":5126,
			"count":21,
			"type":"VEC4"
		},
		{
			"bufferView":11,
			"componentType":5126,
			"count":21,
			"type":"VEC3"
		},
		{
			"bufferView":12,
			"componentType":5126,
			"count":2,
			"type":"VEC3"
		},
		{
			"bufferView":13,
			"componentType":5126,
			"count":21,
			"type":"VEC4"
		},
		{
			"bufferView":14,
			"componentType":5126,
			"count":2,
			"type":"VEC3"
		}
	],
	"bufferViews":[
		{
			"buffer":0,
			"byteLength":5364,
			"byteOffset":0,
			"target":34962
		},
		{
			"buffer":0,
			"byteLength":5364,
			"byteOffset":5364,
			"target":34962
		},
		{
			"buffer":0,
			"byteLength":3576,
			"byteOffset":10728,
			"target":34962
		},
		{
			"buffer":0,
			"byteLength":1788,
			"byteOffset":14304,
			"target":34962
		},
		{
			"buffer":0,
			"byteLength":7152,
			"byteOffset":16092,
			"target":34962
		},
		{
			"buffer":0,
			"byteLength":1326,
			"byteOffset":23244,
			"target":34963
		},
		{
			"buffer":0,
			"byteLength":128,
			"byteOffset":24572
		},
		{
			"buffer":0,
			"byteLength":8,
			"byteOffset":24700
		},
		{
			"buffer":0,
			"byteLength":24,
			"byteOffset":24708
		},
		{
			"buffer":0,
			"byteLength":84,
			"byteOffset":24732
		},
		{
			"buffer":0,
			"byteLength":336,
			"byteOffset":24816
		},
		{
			"buffer":0,
			"byteLength":252,
			"byteOffset":25152
		},
		{
			"buffer":0,
			"byteLength":24,
			"byteOffset":25404
		},
		{
			"buffer":0,
			"byteLength":336,
			"byteOffset":25428
		},
		{
			"buffer":0,
			"byteLength":24,
			"byteOffset":25764
		}
	],
	"samplers":[
		{
			"magFilter":9729,
			"minFilter":9987
		}
	],
	"buffers":[
		{
			"byteLength":25788,
			"uri":"Wing.bin"
		}
	]
}
