{
	"asset":{
		"generator":"Khronos glTF Blender I/O v4.2.57",
		"version":"2.0"
	},
	"scene":0,
	"scenes":[
		{
			"name":"Scene",
			"nodes":[
				9
			]
		}
	],
	"nodes":[
		{
			"name":"\u30dc\u30fc\u30f3",
			"translation":[
				-6.133167266845703,
				1.373294472694397,
				0
			]
		},
		{
			"name":"\u30dc\u30fc\u30f3.001",
			"translation":[
				-26.673213958740234,
				-2.644073963165283,
				1.3490266799926758
			]
		},
		{
			"name":"\u30dc\u30fc\u30f3.002",
			"translation":[
				-43.0024299621582,
				-3.0461087226867676,
				1.924883246421814
			]
		},
		{
			"name":"\u30dc\u30fc\u30f3.003",
			"translation":[
				-67.42097473144531,
				-2.4832797050476074,
				2.579118490219116
			]
		},
		{
			"name":"\u30dc\u30fc\u30f3.004",
			"translation":[
				-88.00390625,
				-1.5184218883514404,
				3.0434045791625977
			]
		},
		{
			"name":"\u30dc\u30fc\u30f3.005",
			"translation":[
				22.941448211669922,
				-2.601231098175049,
				-0.19158810377120972
			]
		},
		{
			"name":"\u30dc\u30fc\u30f3.006",
			"translation":[
				48.15064239501953,
				-2.116532325744629,
				-1.0564675331115723
			]
		},
		{
			"name":"\u30dc\u30fc\u30f3.007",
			"translation":[
				71.20436096191406,
				-2.504634141921997,
				-1.6996047496795654
			]
		},
		{
			"mesh":0,
			"name":"\u7acb\u65b9\u4f53_cell.002",
			"skin":0
		},
		{
			"children":[
				8,
				0,
				1,
				2,
				3,
				4,
				5,
				6,
				7
			],
			"name":"\u30a2\u30fc\u30de\u30c1\u30e5\u30a2.001"
		}
	],
	"animations":[
		{
			"channels":[
				{
					"sampler":0,
					"target":{
						"node":0,
						"path":"translation"
					}
				},
				{
					"sampler":1,
					"target":{
						"node":0,
						"path":"rotation"
					}
				},
				{
					"sampler":2,
					"target":{
						"node":0,
						"path":"scale"
					}
				},
				{
					"sampler":3,
					"target":{
						"node":1,
						"path":"translation"
					}
				},
				{
					"sampler":4,
					"target":{
						"node":1,
						"path":"rotation"
					}
				},
				{
					"sampler":5,
					"target":{
						"node":1,
						"path":"scale"
					}
				},
				{
					"sampler":6,
					"target":{
						"node":2,
						"path":"translation"
					}
				},
				{
					"sampler":7,
					"target":{
						"node":2,
						"path":"rotation"
					}
				},
				{
					"sampler":8,
					"target":{
						"node":2,
						"path":"scale"
					}
				},
				{
					"sampler":9,
					"target":{
						"node":3,
						"path":"translation"
					}
				},
				{
					"sampler":10,
					"target":{
						"node":3,
						"path":"rotation"
					}
				},
				{
					"sampler":11,
					"target":{
						"node":3,
						"path":"scale"
					}
				},
				{
					"sampler":12,
					"target":{
						"node":4,
						"path":"translation"
					}
				},
				{
					"sampler":13,
					"target":{
						"node":4,
						"path":"rotation"
					}
				},
				{
					"sampler":14,
					"target":{
						"node":4,
						"path":"scale"
					}
				},
				{
					"sampler":15,
					"target":{
						"node":5,
						"path":"translation"
					}
				},
				{
					"sampler":16,
					"target":{
						"node":5,
						"path":"rotation"
					}
				},
				{
					"sampler":17,
					"target":{
						"node":5,
						"path":"scale"
					}
				},
				{
					"sampler":18,
					"target":{
						"node":6,
						"path":"translation"
					}
				},
				{
					"sampler":19,
					"target":{
						"node":6,
						"path":"rotation"
					}
				},
				{
					"sampler":20,
					"target":{
						"node":6,
						"path":"scale"
					}
				},
				{
					"sampler":21,
					"target":{
						"node":7,
						"path":"translation"
					}
				},
				{
					"sampler":22,
					"target":{
						"node":7,
						"path":"rotation"
					}
				},
				{
					"sampler":23,
					"target":{
						"node":7,
						"path":"scale"
					}
				}
			],
			"name":"\u30a2\u30fc\u30de\u30c1\u30e5\u30a2.001\u30a2\u30af\u30b7\u30e7\u30f3",
			"samplers":[
				{
					"input":7,
					"interpolation":"LINEAR",
					"output":8
				},
				{
					"input":7,
					"interpolation":"LINEAR",
					"output":9
				},
				{
					"input":7,
					"interpolation":"LINEAR",
					"output":10
				},
				{
					"input":7,
					"interpolation":"LINEAR",
					"output":11
				},
				{
					"input":7,
					"interpolation":"LINEAR",
					"output":12
				},
				{
					"input":7,
					"interpolation":"LINEAR",
					"output":13
				},
				{
					"input":7,
					"interpolation":"LINEAR",
					"output":14
				},
				{
					"input":7,
					"interpolation":"LINEAR",
					"output":15
				},
				{
					"input":7,
					"interpolation":"LINEAR",
					"output":16
				},
				{
					"input":7,
					"interpolation":"LINEAR",
					"output":17
				},
				{
					"input":7,
					"interpolation":"LINEAR",
					"output":18
				},
				{
					"input":7,
					"interpolation":"LINEAR",
					"output":19
				},
				{
					"input":7,
					"interpolation":"LINEAR",
					"output":20
				},
				{
					"input":7,
					"interpolation":"LINEAR",
					"output":21
				},
				{
					"input":7,
					"interpolation":"LINEAR",
					"output":22
				},
				{
					"input":7,
					"interpolation":"LINEAR",
					"output":23
				},
				{
					"input":7,
					"interpolation":"LINEAR",
					"output":24
				},
				{
					"input":7,
					"interpolation":"LINEAR",
					"output":25
				},
				{
					"input":7,
					"interpolation":"LINEAR",
					"output":26
				},
				{
					"input":7,
					"interpolation":"LINEAR",
					"output":27
				},
				{
					"input":7,
					"interpolation":"LINEAR",
					"output":28
				},
				{
					"input":7,
					"interpolation":"LINEAR",
					"output":29
				},
				{
					"input":7,
					"interpolation":"LINEAR",
					"output":30
				},
				{
					"input":7,
					"interpolation":"LINEAR",
					"output":31
				}
			]
		}
	],
	"materials":[
		{
			"doubleSided":true,
			"name":"\u30de\u30c6\u30ea\u30a2\u30eb.020",
			"pbrMetallicRoughness":{
				"baseColorTexture":{
					"index":0
				},
				"metallicFactor":0,
				"roughnessFactor":0.5
			}
		}
	],
	"meshes":[
		{
			"name":"\u7acb\u65b9\u4f53_cell.001",
			"primitives":[
				{
					"attributes":{
						"POSITION":0,
						"NORMAL":1,
						"TEXCOORD_0":2,
						"JOINTS_0":3,
						"WEIGHTS_0":4
					},
					"indices":5,
					"material":0
				}
			]
		}
	],
	"textures":[
		{
			"sampler":0,
			"source":0
		}
	],
	"images":[
		{
			"mimeType":"image/png",
			"name":"Driftwood2",
			"uri":"Driftwood2.png"
		}
	],
	"skins":[
		{
			"inverseBindMatrices":6,
			"joints":[
				0,
				1,
				2,
				3,
				4,
				5,
				6,
				7
			],
			"name":"\u30a2\u30fc\u30de\u30c1\u30e5\u30a2.001"
		}
	],
	"accessors":[
		{
			"bufferView":0,
			"componentType":5126,
			"count":1208,
			"max":[
				77.22140502929688,
				17.158239364624023,
				5.7717485427856445
			],
			"min":[
				-94.57777404785156,
				-5.723525524139404,
				-5.718564510345459
			],
			"type":"VEC3"
		},
		{
			"bufferView":1,
			"componentType":5126,
			"count":1208,
			"type":"VEC3"
		},
		{
			"bufferView":2,
			"componentType":5126,
			"count":1208,
			"type":"VEC2"
		},
		{
			"bufferView":3,
			"componentType":5121,
			"count":1208,
			"type":"VEC4"
		},
		{
			"bufferView":4,
			"componentType":5126,
			"count":1208,
			"type":"VEC4"
		},
		{
			"bufferView":5,
			"componentType":5123,
			"count":1722,
			"type":"SCALAR"
		},
		{
			"bufferView":6,
			"componentType":5126,
			"count":8,
			"type":"MAT4"
		},
		{
			"bufferView":7,
			"componentType":5126,
			"count":51,
			"max":[
				0.8333333333333334
			],
			"min":[
				0
			],
			"type":"SCALAR"
		},
		{
			"bufferView":8,
			"componentType":5126,
			"count":51,
			"type":"VEC3"
		},
		{
			"bufferView":9,
			"componentType":5126,
			"count":51,
			"type":"VEC4"
		},
		{
			"bufferView":10,
			"componentType":5126,
			"count":51,
			"type":"VEC3"
		},
		{
			"bufferView":11,
			"componentType":5126,
			"count":51,
			"type":"VEC3"
		},
		{
			"bufferView":12,
			"componentType":5126,
			"count":51,
			"type":"VEC4"
		},
		{
			"bufferView":13,
			"componentType":5126,
			"count":51,
			"type":"VEC3"
		},
		{
			"bufferView":14,
			"componentType":5126,
			"count":51,
			"type":"VEC3"
		},
		{
			"bufferView":15,
			"componentType":5126,
			"count":51,
			"type":"VEC4"
		},
		{
			"bufferView":16,
			"componentType":5126,
			"count":51,
			"type":"VEC3"
		},
		{
			"bufferView":17,
			"componentType":5126,
			"count":51,
			"type":"VEC3"
		},
		{
			"bufferView":18,
			"componentType":5126,
			"count":51,
			"type":"VEC4"
		},
		{
			"bufferView":19,
			"componentType":5126,
			"count":51,
			"type":"VEC3"
		},
		{
			"bufferView":20,
			"componentType":5126,
			"count":51,
			"type":"VEC3"
		},
		{
			"bufferView":21,
			"componentType":5126,
			"count":51,
			"type":"VEC4"
		},
		{
			"bufferView":22,
			"componentType":5126,
			"count":51,
			"type":"VEC3"
		},
		{
			"bufferView":23,
			"componentType":5126,
			"count":51,
			"type":"VEC3"
		},
		{
			"bufferView":24,
			"componentType":5126,
			"count":51,
			"type":"VEC4"
		},
		{
			"bufferView":25,
			"componentType":5126,
			"count":51,
			"type":"VEC3"
		},
		{
			"bufferView":26,
			"componentType":5126,
			"count":51,
			"type":"VEC3"
		},
		{
			"bufferView":27,
			"componentType":5126,
			"count":51,
			"type":"VEC4"
		},
		{
			"bufferView":28,
			"componentType":5126,
			"count":51,
			"type":"VEC3"
		},
		{
			"bufferView":29,
			"componentType":5126,
			"count":51,
			"type":"VEC3"
		},
		{
			"bufferView":30,
			"componentType":5126,
			"count":51,
			"type":"VEC4"
		},
		{
			"bufferView":31,
			"componentType":5126,
			"count":51,
			"type":"VEC3"
		}
	],
	"bufferViews":[
		{
			"buffer":0,
			"byteLength":14496,
			"byteOffset":0,
			"target":34962
		},
		{
			"buffer":0,
			"byteLength":14496,
			"byteOffset":14496,
			"target":34962
		},
		{
			"buffer":0,
			"byteLength":9664,
			"byteOffset":28992,
			"target":34962
		},
		{
			"buffer":0,
			"byteLength":4832,
			"byteOffset":38656,
			"target":34962
		},
		{
			"buffer":0,
			"byteLength":19328,
			"byteOffset":43488,
			"target":34962
		},
		{
			"buffer":0,
			"byteLength":3444,
			"byteOffset":62816,
			"target":34963
		},
		{
			"buffer":0,
			"byteLength":512,
			"byteOffset":66260
		},
		{
			"buffer":0,
			"byteLength":204,
			"byteOffset":66772
		},
		{
			"buffer":0,
			"byteLength":612,
			"byteOffset":66976
		},
		{
			"buffer":0,
			"byteLength":816,
			"byteOffset":67588
		},
		{
			"buffer":0,
			"byteLength":612,
			"byteOffset":68404
		},
		{
			"buffer":0,
			"byteLength":612,
			"byteOffset":69016
		},
		{
			"buffer":0,
			"byteLength":816,
			"byteOffset":69628
		},
		{
			"buffer":0,
			"byteLength":612,
			"byteOffset":70444
		},
		{
			"buffer":0,
			"byteLength":612,
			"byteOffset":71056
		},
		{
			"buffer":0,
			"byteLength":816,
			"byteOffset":71668
		},
		{
			"buffer":0,
			"byteLength":612,
			"byteOffset":72484
		},
		{
			"buffer":0,
			"byteLength":612,
			"byteOffset":73096
		},
		{
			"buffer":0,
			"byteLength":816,
			"byteOffset":73708
		},
		{
			"buffer":0,
			"byteLength":612,
			"byteOffset":74524
		},
		{
			"buffer":0,
			"byteLength":612,
			"byteOffset":75136
		},
		{
			"buffer":0,
			"byteLength":816,
			"byteOffset":75748
		},
		{
			"buffer":0,
			"byteLength":612,
			"byteOffset":76564
		},
		{
			"buffer":0,
			"byteLength":612,
			"byteOffset":77176
		},
		{
			"buffer":0,
			"byteLength":816,
			"byteOffset":77788
		},
		{
			"buffer":0,
			"byteLength":612,
			"byteOffset":78604
		},
		{
			"buffer":0,
			"byteLength":612,
			"byteOffset":79216
		},
		{
			"buffer":0,
			"byteLength":816,
			"byteOffset":79828
		},
		{
			"buffer":0,
			"byteLength":612,
			"byteOffset":80644
		},
		{
			"buffer":0,
			"byteLength":612,
			"byteOffset":81256
		},
		{
			"buffer":0,
			"byteLength":816,
			"byteOffset":81868
		},
		{
			"buffer":0,
			"byteLength":612,
			"byteOffset":82684
		}
	],
	"samplers":[
		{
			"magFilter":9729,
			"minFilter":9987
		}
	],
	"buffers":[
		{
			"byteLength":83296,
			"uri":"DriftWoodDestroy.bin"
		}
	]
}
