{
	"asset":{
		"generator":"Khronos glTF Blender I/O v4.2.57",
		"version":"2.0"
	},
	"scene":0,
	"scenes":[
		{
			"name":"Scene",
			"nodes":[
				8
			]
		}
	],
	"nodes":[
		{
			"name":"\u30dc\u30fc\u30f3.001",
			"rotation":[
				-1.862645149230957e-09,
				-1.8626449271863521e-09,
				1.210719347000122e-07,
				1
			],
			"scale":[
				0.9999999403953552,
				1,
				1
			],
			"translation":[
				-16.397172927856445,
				1.0359423160552979,
				0.17608237266540527
			]
		},
		{
			"name":"\u30dc\u30fc\u30f3.002",
			"rotation":[
				5.029141902923584e-08,
				1.1362136120851574e-07,
				1.210719347000122e-07,
				1
			],
			"scale":[
				0.9999999403953552,
				1,
				1
			],
			"translation":[
				-25.87438201904297,
				1.0359419584274292,
				0.17608225345611572
			]
		},
		{
			"name":"\u30dc\u30fc\u30f3.003",
			"rotation":[
				2.2724270820617676e-07,
				1.0244548320770264e-07,
				-4.7497451305389404e-07,
				1
			],
			"translation":[
				-34.25015640258789,
				1.0359418392181396,
				0.17608532309532166
			]
		},
		{
			"name":"\u30dc\u30fc\u30f3.004",
			"rotation":[
				2.1979214182010764e-07,
				-8.381903171539307e-09,
				-2.2910536756626243e-07,
				1
			],
			"scale":[
				1,
				0.9999999403953552,
				1
			],
			"translation":[
				-44.10274124145508,
				1.0359408855438232,
				0.17608150839805603
			]
		},
		{
			"name":"\u30dc\u30fc\u30f3.005",
			"rotation":[
				-2.309680127154934e-07,
				-7.450580596923828e-09,
				-4.731118679046631e-07,
				1
			],
			"scale":[
				1,
				1,
				0.9999999403953552
			],
			"translation":[
				-55.509342193603516,
				1.0359413623809814,
				0.17608675360679626
			]
		},
		{
			"name":"\u30dc\u30fc\u30f3.006",
			"rotation":[
				-1.4901161193847656e-08,
				-2.7939672797572257e-09,
				-4.440892098500626e-16,
				1
			],
			"scale":[
				0.9999999403953552,
				1,
				1
			],
			"translation":[
				-64.08245849609375,
				1.0359423160552979,
				0.1760915219783783
			]
		},
		{
			"children":[
				0,
				1,
				2,
				3,
				4,
				5
			],
			"name":"\u30dc\u30fc\u30f3",
			"rotation":[
				-0.010446269065141678,
				0.8124757409095764,
				-0.16499090194702148,
				0.5590636134147644
			],
			"scale":[
				0.9999999403953552,
				0.9999999403953552,
				0.9999999403953552
			],
			"translation":[
				-0.8680083751678467,
				-4.898692607879639,
				1.44981849193573
			]
		},
		{
			"mesh":0,
			"name":"\u5e73\u9762",
			"skin":0
		},
		{
			"children":[
				7,
				6
			],
			"name":"\u30a2\u30fc\u30de\u30c1\u30e5\u30a2"
		}
	],
	"animations":[
		{
			"channels":[
				{
					"sampler":0,
					"target":{
						"node":6,
						"path":"translation"
					}
				},
				{
					"sampler":1,
					"target":{
						"node":6,
						"path":"rotation"
					}
				},
				{
					"sampler":2,
					"target":{
						"node":6,
						"path":"scale"
					}
				},
				{
					"sampler":3,
					"target":{
						"node":0,
						"path":"translation"
					}
				},
				{
					"sampler":4,
					"target":{
						"node":0,
						"path":"rotation"
					}
				},
				{
					"sampler":5,
					"target":{
						"node":0,
						"path":"scale"
					}
				},
				{
					"sampler":6,
					"target":{
						"node":1,
						"path":"translation"
					}
				},
				{
					"sampler":7,
					"target":{
						"node":1,
						"path":"rotation"
					}
				},
				{
					"sampler":8,
					"target":{
						"node":1,
						"path":"scale"
					}
				},
				{
					"sampler":9,
					"target":{
						"node":2,
						"path":"translation"
					}
				},
				{
					"sampler":10,
					"target":{
						"node":2,
						"path":"rotation"
					}
				},
				{
					"sampler":11,
					"target":{
						"node":2,
						"path":"scale"
					}
				},
				{
					"sampler":12,
					"target":{
						"node":3,
						"path":"translation"
					}
				},
				{
					"sampler":13,
					"target":{
						"node":3,
						"path":"rotation"
					}
				},
				{
					"sampler":14,
					"target":{
						"node":3,
						"path":"scale"
					}
				},
				{
					"sampler":15,
					"target":{
						"node":4,
						"path":"translation"
					}
				},
				{
					"sampler":16,
					"target":{
						"node":4,
						"path":"rotation"
					}
				},
				{
					"sampler":17,
					"target":{
						"node":4,
						"path":"scale"
					}
				},
				{
					"sampler":18,
					"target":{
						"node":5,
						"path":"translation"
					}
				},
				{
					"sampler":19,
					"target":{
						"node":5,
						"path":"rotation"
					}
				},
				{
					"sampler":20,
					"target":{
						"node":5,
						"path":"scale"
					}
				}
			],
			"name":"\u30a2\u30fc\u30de\u30c1\u30e5\u30a2\u30a2\u30af\u30b7\u30e7\u30f3.001",
			"samplers":[
				{
					"input":7,
					"interpolation":"STEP",
					"output":8
				},
				{
					"input":7,
					"interpolation":"STEP",
					"output":9
				},
				{
					"input":7,
					"interpolation":"STEP",
					"output":10
				},
				{
					"input":11,
					"interpolation":"LINEAR",
					"output":12
				},
				{
					"input":11,
					"interpolation":"LINEAR",
					"output":13
				},
				{
					"input":11,
					"interpolation":"LINEAR",
					"output":14
				},
				{
					"input":11,
					"interpolation":"LINEAR",
					"output":15
				},
				{
					"input":11,
					"interpolation":"LINEAR",
					"output":16
				},
				{
					"input":11,
					"interpolation":"LINEAR",
					"output":17
				},
				{
					"input":11,
					"interpolation":"LINEAR",
					"output":18
				},
				{
					"input":11,
					"interpolation":"LINEAR",
					"output":19
				},
				{
					"input":11,
					"interpolation":"LINEAR",
					"output":20
				},
				{
					"input":11,
					"interpolation":"LINEAR",
					"output":21
				},
				{
					"input":11,
					"interpolation":"LINEAR",
					"output":22
				},
				{
					"input":11,
					"interpolation":"LINEAR",
					"output":23
				},
				{
					"input":11,
					"interpolation":"LINEAR",
					"output":24
				},
				{
					"input":11,
					"interpolation":"LINEAR",
					"output":25
				},
				{
					"input":11,
					"interpolation":"LINEAR",
					"output":26
				},
				{
					"input":11,
					"interpolation":"LINEAR",
					"output":27
				},
				{
					"input":11,
					"interpolation":"LINEAR",
					"output":28
				},
				{
					"input":11,
					"interpolation":"LINEAR",
					"output":29
				}
			]
		}
	],
	"materials":[
		{
			"alphaMode":"BLEND",
			"doubleSided":true,
			"name":"\u30de\u30c6\u30ea\u30a2\u30eb",
			"pbrMetallicRoughness":{
				"baseColorTexture":{
					"index":0
				},
				"metallicFactor":0,
				"roughnessFactor":0.5
			}
		}
	],
	"meshes":[
		{
			"name":"\u5e73\u9762",
			"primitives":[
				{
					"attributes":{
						"POSITION":0,
						"NORMAL":1,
						"TEXCOORD_0":2,
						"JOINTS_0":3,
						"WEIGHTS_0":4
					},
					"indices":5,
					"material":0
				}
			]
		}
	],
	"textures":[
		{
			"sampler":0,
			"source":0
		}
	],
	"images":[
		{
			"mimeType":"image/png",
			"name":"Effect1",
			"uri":"Effect1.png"
		}
	],
	"skins":[
		{
			"inverseBindMatrices":6,
			"joints":[
				6,
				0,
				1,
				2,
				3,
				4,
				5
			],
			"name":"\u30a2\u30fc\u30de\u30c1\u30e5\u30a2"
		}
	],
	"accessors":[
		{
			"bufferView":0,
			"componentType":5126,
			"count":18,
			"max":[
				24.65822982788086,
				15.732297897338867,
				62.79707717895508
			],
			"min":[
				3.859372138977051,
				-2.2076523303985596,
				12.559038162231445
			],
			"type":"VEC3"
		},
		{
			"bufferView":1,
			"componentType":5126,
			"count":18,
			"type":"VEC3"
		},
		{
			"bufferView":2,
			"componentType":5126,
			"count":18,
			"type":"VEC2"
		},
		{
			"bufferView":3,
			"componentType":5121,
			"count":18,
			"type":"VEC4"
		},
		{
			"bufferView":4,
			"componentType":5126,
			"count":18,
			"type":"VEC4"
		},
		{
			"bufferView":5,
			"componentType":5123,
			"count":18,
			"type":"SCALAR"
		},
		{
			"bufferView":6,
			"componentType":5126,
			"count":7,
			"type":"MAT4"
		},
		{
			"bufferView":7,
			"componentType":5126,
			"count":2,
			"max":[
				0.38333333333333336
			],
			"min":[
				0
			],
			"type":"SCALAR"
		},
		{
			"bufferView":8,
			"componentType":5126,
			"count":2,
			"type":"VEC3"
		},
		{
			"bufferView":9,
			"componentType":5126,
			"count":2,
			"type":"VEC4"
		},
		{
			"bufferView":10,
			"componentType":5126,
			"count":2,
			"type":"VEC3"
		},
		{
			"bufferView":11,
			"componentType":5126,
			"count":24,
			"max":[
				0.38333333333333336
			],
			"min":[
				0
			],
			"type":"SCALAR"
		},
		{
			"bufferView":12,
			"componentType":5126,
			"count":24,
			"type":"VEC3"
		},
		{
			"bufferView":13,
			"componentType":5126,
			"count":24,
			"type":"VEC4"
		},
		{
			"bufferView":14,
			"componentType":5126,
			"count":24,
			"type":"VEC3"
		},
		{
			"bufferView":15,
			"componentType":5126,
			"count":24,
			"type":"VEC3"
		},
		{
			"bufferView":16,
			"componentType":5126,
			"count":24,
			"type":"VEC4"
		},
		{
			"bufferView":17,
			"componentType":5126,
			"count":24,
			"type":"VEC3"
		},
		{
			"bufferView":18,
			"componentType":5126,
			"count":24,
			"type":"VEC3"
		},
		{
			"bufferView":19,
			"componentType":5126,
			"count":24,
			"type":"VEC4"
		},
		{
			"bufferView":20,
			"componentType":5126,
			"count":24,
			"type":"VEC3"
		},
		{
			"bufferView":21,
			"componentType":5126,
			"count":24,
			"type":"VEC3"
		},
		{
			"bufferView":22,
			"componentType":5126,
			"count":24,
			"type":"VEC4"
		},
		{
			"bufferView":23,
			"componentType":5126,
			"count":24,
			"type":"VEC3"
		},
		{
			"bufferView":24,
			"componentType":5126,
			"count":24,
			"type":"VEC3"
		},
		{
			"bufferView":25,
			"componentType":5126,
			"count":24,
			"type":"VEC4"
		},
		{
			"bufferView":26,
			"componentType":5126,
			"count":24,
			"type":"VEC3"
		},
		{
			"bufferView":27,
			"componentType":5126,
			"count":24,
			"type":"VEC3"
		},
		{
			"bufferView":28,
			"componentType":5126,
			"count":24,
			"type":"VEC4"
		},
		{
			"bufferView":29,
			"componentType":5126,
			"count":24,
			"type":"VEC3"
		}
	],
	"bufferViews":[
		{
			"buffer":0,
			"byteLength":216,
			"byteOffset":0,
			"target":34962
		},
		{
			"buffer":0,
			"byteLength":216,
			"byteOffset":216,
			"target":34962
		},
		{
			"buffer":0,
			"byteLength":144,
			"byteOffset":432,
			"target":34962
		},
		{
			"buffer":0,
			"byteLength":72,
			"byteOffset":576,
			"target":34962
		},
		{
			"buffer":0,
			"byteLength":288,
			"byteOffset":648,
			"target":34962
		},
		{
			"buffer":0,
			"byteLength":36,
			"byteOffset":936,
			"target":34963
		},
		{
			"buffer":0,
			"byteLength":448,
			"byteOffset":972
		},
		{
			"buffer":0,
			"byteLength":8,
			"byteOffset":1420
		},
		{
			"buffer":0,
			"byteLength":24,
			"byteOffset":1428
		},
		{
			"buffer":0,
			"byteLength":32,
			"byteOffset":1452
		},
		{
			"buffer":0,
			"byteLength":24,
			"byteOffset":1484
		},
		{
			"buffer":0,
			"byteLength":96,
			"byteOffset":1508
		},
		{
			"buffer":0,
			"byteLength":288,
			"byteOffset":1604
		},
		{
			"buffer":0,
			"byteLength":384,
			"byteOffset":1892
		},
		{
			"buffer":0,
			"byteLength":288,
			"byteOffset":2276
		},
		{
			"buffer":0,
			"byteLength":288,
			"byteOffset":2564
		},
		{
			"buffer":0,
			"byteLength":384,
			"byteOffset":2852
		},
		{
			"buffer":0,
			"byteLength":288,
			"byteOffset":3236
		},
		{
			"buffer":0,
			"byteLength":288,
			"byteOffset":3524
		},
		{
			"buffer":0,
			"byteLength":384,
			"byteOffset":3812
		},
		{
			"buffer":0,
			"byteLength":288,
			"byteOffset":4196
		},
		{
			"buffer":0,
			"byteLength":288,
			"byteOffset":4484
		},
		{
			"buffer":0,
			"byteLength":384,
			"byteOffset":4772
		},
		{
			"buffer":0,
			"byteLength":288,
			"byteOffset":5156
		},
		{
			"buffer":0,
			"byteLength":288,
			"byteOffset":5444
		},
		{
			"buffer":0,
			"byteLength":384,
			"byteOffset":5732
		},
		{
			"buffer":0,
			"byteLength":288,
			"byteOffset":6116
		},
		{
			"buffer":0,
			"byteLength":288,
			"byteOffset":6404
		},
		{
			"buffer":0,
			"byteLength":384,
			"byteOffset":6692
		},
		{
			"buffer":0,
			"byteLength":288,
			"byteOffset":7076
		}
	],
	"samplers":[
		{
			"magFilter":9729,
			"minFilter":9987
		}
	],
	"buffers":[
		{
			"byteLength":7364,
			"uri":"Effect1.bin"
		}
	]
}
