# Blender 4.2.0
# www.blender.org
mtllib Moai.mtl
o 立方体.001
v -2141.480713 359.723145 1499.249756
v -2138.306641 452.635223 1496.072876
v -2141.480713 359.723145 1460.895996
v -2138.306641 452.635223 1464.072876
v -2103.126953 359.723145 1499.249756
v -2106.306641 452.635223 1496.072876
v -2103.126953 359.723145 1460.895996
v -2106.306641 452.635223 1464.072876
v -2138.306641 392.635223 1496.072876
v -2138.306641 412.635223 1496.072876
v -2138.306641 429.231964 1464.072876
v -2131.340576 401.312042 1455.799072
v -2138.306641 392.635223 1464.072876
v -2106.306641 429.231964 1464.072876
v -2113.272705 401.312042 1455.799072
v -2106.306641 392.635223 1464.072876
v -2106.306641 412.635223 1496.072876
v -2106.306641 392.635223 1496.072876
v -2127.468262 429.231964 1464.072876
v -2122.339844 401.312042 1455.799072
v -2117.145020 429.231964 1464.072876
v -2133.148438 406.215393 1490.914551
v -2133.148438 406.215393 1469.231201
v -2111.464844 406.215393 1469.231201
v -2111.464844 406.215393 1490.914551
v -2122.306641 406.215393 1469.231201
v -2106.306641 402.635223 1472.072876
v -2106.306641 402.635223 1480.072876
v -2106.306641 406.533936 1488.072876
v -2138.306641 406.533936 1488.072876
v -2138.306641 402.635223 1480.072876
v -2138.306641 402.635223 1472.072876
v -2133.148438 406.215393 1485.493774
v -2133.148438 406.215393 1480.072876
v -2133.148438 406.215393 1474.651978
v -2111.464844 406.215393 1480.072876
v -2135.711426 418.931335 1460.453125
v -2108.901855 418.931335 1460.453125
v -2127.468262 424.804443 1462.004395
v -2127.468262 415.015930 1459.418823
v -2126.937500 409.142853 1457.867554
v -2117.145020 424.804443 1462.004395
v -2117.145020 415.015930 1459.418823
v -2117.725830 409.142853 1457.867554
v -2118.306641 433.471100 1461.425415
v -2118.306641 416.973633 1454.663452
v -2118.306641 423.968536 1457.818726
v -2126.406494 433.471100 1461.425415
v -2126.406494 416.973633 1454.663452
v -2126.406494 423.968536 1457.818726
v -2118.306641 414.323486 1452.449219
v -2126.406494 414.323486 1452.449219
v -2138.306641 441.762024 1456.003052
v -2106.306641 441.762024 1456.003052
v -2122.331543 441.762024 1456.003052
v -2138.306641 437.635223 1464.072876
v -2106.306641 437.635223 1464.072876
v -2126.937500 437.948669 1463.080078
v -2117.725830 437.948669 1463.080078
v -2234.387207 339.567383 1345.463379
v -2230.749023 432.479462 1348.095947
v -2196.514893 339.567383 1339.406128
v -2199.150635 432.479462 1343.042114
v -2228.329834 339.567383 1383.335815
v -2225.695068 432.479462 1379.694336
v -2190.457520 339.567383 1377.278564
v -2194.096680 432.479462 1374.640503
v -2230.749023 372.479462 1348.095947
v -2230.749023 392.479462 1348.095947
v -2199.150635 409.076202 1343.042114
v -2189.880371 381.156281 1348.614014
v -2199.150635 372.479462 1343.042114
v -2194.096680 409.076202 1374.640503
v -2187.026855 381.156281 1366.455200
v -2194.096680 372.479462 1374.640503
v -2225.695068 392.479462 1379.694336
v -2225.695068 372.479462 1379.694336
v -2197.438721 409.076202 1353.744385
v -2188.458984 381.156281 1357.501709
v -2195.808350 409.076202 1363.938110
v -2224.840820 386.059631 1352.374756
v -2203.429443 386.059631 1348.950317
v -2200.004883 386.059631 1370.361572
v -2221.416260 386.059631 1373.786011
v -2201.717285 386.059631 1359.656006
v -2201.996338 382.479462 1375.903931
v -2209.895996 382.479462 1377.167358
v -2217.795654 386.378174 1378.430908
v -2222.849365 386.378174 1346.832397
v -2214.949707 382.479462 1345.568970
v -2207.050049 382.479462 1344.305542
v -2219.487793 386.059631 1351.518677
v -2214.135010 386.059631 1350.662598
v -2208.782227 386.059631 1349.806396
v -2210.710693 386.059631 1372.073853
v -2195.166260 398.775574 1345.033081
v -2190.932373 398.775574 1371.506104
v -2195.396240 404.648682 1353.417725
v -2192.843262 394.860168 1353.009399
v -2191.227539 388.987091 1353.288574
v -2193.765869 404.648682 1363.611450
v -2191.212891 394.860168 1363.203125
v -2189.772705 388.987091 1362.384644
v -2193.377686 413.315338 1362.372925
v -2186.700439 396.817871 1361.305054
v -2189.816162 403.812775 1361.803345
v -2194.656982 413.315338 1354.374756
v -2187.979736 396.817871 1353.306763
v -2191.095459 403.812775 1353.805176
v -2184.514160 394.167725 1360.955322
v -2185.793457 394.167725 1352.957153
v -2191.182129 421.606262 1341.767578
v -2186.128174 421.606262 1373.365967
v -2188.659180 421.606262 1357.542114
v -2199.150635 417.479462 1343.042114
v -2194.096680 417.479462 1374.640503
v -2196.374756 417.792908 1354.111816
v -2194.919922 417.792908 1363.207764
v -2223.675537 363.846924 1447.510254
v -2219.187500 456.759003 1447.355347
v -2197.494629 363.846924 1419.482300
v -2197.343750 456.759003 1423.970459
v -2195.647705 363.846924 1473.691162
v -2195.802734 456.759003 1469.199097
v -2169.466797 363.846924 1445.663208
v -2173.958984 456.759003 1445.814331
v -2219.187500 396.759003 1447.355347
v -2219.187500 416.759003 1447.355347
v -2197.343750 433.355743 1423.970459
v -2186.605225 405.435822 1422.679321
v -2197.343750 396.759003 1423.970459
v -2173.958984 433.355743 1445.814331
v -2173.401611 405.435822 1435.012817
v -2173.958984 396.759003 1445.814331
v -2195.802734 416.759003 1469.199097
v -2195.802734 396.759003 1469.199097
v -2189.423340 433.355743 1431.369019
v -2180.027832 405.435822 1428.823364
v -2181.879395 433.355743 1438.415771
v -2211.896729 410.339172 1447.106934
v -2197.095215 410.339172 1431.261230
v -2181.249756 410.339172 1446.062744
v -2196.051270 410.339172 1461.908325
v -2189.172607 410.339172 1438.661987
v -2179.419922 406.759003 1451.660522
v -2184.880859 406.759003 1457.506714
v -2190.341797 410.657715 1463.352905
v -2213.726562 410.657715 1441.509033
v -2208.265625 406.759003 1435.662842
v -2202.804688 406.759003 1429.816650
v -2208.196533 410.339172 1443.145508
v -2204.496094 410.339172 1439.184082
v -2200.795654 410.339172 1435.222656
v -2188.650391 410.339172 1453.985474
v -2192.976318 423.055115 1423.096802
v -2173.384521 423.055115 1441.397461
v -2188.011475 428.928223 1429.857422
v -2186.246338 419.139709 1427.967896
v -2184.799561 413.266632 1427.196655
v -2180.467285 428.928223 1436.904297
v -2178.702393 419.139709 1435.014771
v -2178.067871 413.266632 1433.484619
v -2180.921143 437.594879 1435.688232
v -2176.305176 421.097412 1430.746704
v -2178.458984 428.092316 1433.052490
v -2186.840332 437.594879 1430.159058
v -2182.224365 421.097412 1425.217529
v -2184.378174 428.092316 1427.523315
v -2174.793701 418.447266 1429.128540
v -2180.712891 418.447266 1423.599487
v -2191.835205 445.885803 1418.073242
v -2168.450439 445.885803 1439.917114
v -2180.160889 445.885803 1428.978149
v -2197.343750 441.759003 1423.970459
v -2173.958984 441.759003 1445.814331
v -2188.357666 442.072449 1431.005859
v -2181.626221 442.072449 1437.293823
vn -0.0000 0.0961 0.9954
vn -0.0000 -0.9394 0.3429
vn 0.9521 0.1085 -0.2859
vn -0.0000 -0.7228 -0.6911
vn -0.0000 0.4233 -0.9060
vn -0.0000 0.3551 0.9348
vn -0.0000 -0.6264 0.7795
vn 0.9954 0.0962 -0.0000
vn 0.3578 -0.7425 0.5663
vn 0.5702 -0.8215 -0.0000
vn 0.9348 0.3551 -0.0000
vn -0.0000 0.3551 -0.9348
vn -0.9348 0.3551 -0.0000
vn -0.0616 -0.9981 -0.0000
vn -0.6548 -0.6773 0.3354
vn -0.5702 -0.8215 -0.0000
vn -0.5293 -0.7627 0.3717
vn -0.0000 -1.0000 -0.0000
vn -0.9954 0.0960 -0.0000
vn -0.0000 0.3466 -0.9380
vn -0.0000 -0.0000 1.0000
vn -0.0000 0.2554 -0.9668
vn -0.9156 -0.1263 -0.3817
vn -0.0000 1.0000 -0.0000
vn -0.0000 0.6412 -0.7674
vn 0.9731 0.1478 -0.1769
vn 0.9754 0.0906 -0.2009
vn -0.0000 -0.8803 -0.4744
vn -0.9637 0.0682 -0.2581
vn -0.9774 0.1357 -0.1624
vn -0.0000 0.0961 -0.9954
vn -0.9694 0.1039 -0.2224
vn -0.9881 -0.0509 -0.1455
vn -0.0000 0.3549 -0.9349
vn 0.9858 -0.0555 -0.1588
vn 0.9156 -0.1263 -0.3817
vn -0.0000 0.4112 -0.9116
vn -0.0000 0.5960 -0.8030
vn 0.0832 -0.1073 -0.9907
vn -0.0835 -0.1077 -0.9907
vn 0.9263 0.0189 -0.3762
vn 1.0000 -0.0000 -0.0000
vn -1.0000 -0.0000 -0.0000
vn -0.9373 0.0175 -0.3480
vn -0.0152 -0.8902 -0.4553
vn 0.0151 -0.8902 -0.4553
vn -0.0000 -0.0000 -1.0000
vn -0.9595 0.1000 -0.2634
vn -0.9793 0.0832 -0.1844
vn 0.0499 0.3199 -0.9461
vn -0.0499 0.3199 -0.9461
vn 0.9274 -0.1078 -0.3583
vn -0.9274 -0.1078 -0.3583
vn 0.0616 -0.9981 -0.0000
vn 0.9637 0.1130 -0.2419
vn 0.6548 -0.6773 0.3354
vn -0.3578 -0.7425 0.5663
vn 0.1614 -0.8871 0.4323
vn 0.9570 0.0741 -0.2804
vn -0.9829 0.0961 0.1572
vn -0.3386 -0.9394 0.0542
vn 0.4327 0.1085 0.8950
vn 0.6824 -0.7228 -0.1091
vn 0.8946 0.4233 -0.1431
vn -0.9231 0.3551 0.1476
vn -0.7698 -0.6264 0.1231
vn 0.1572 0.0962 0.9829
vn -0.5027 -0.7425 0.4428
vn 0.0900 -0.8215 0.5630
vn 0.1476 0.3551 0.9231
vn 0.9231 0.3551 -0.1476
vn -0.1476 0.3551 -0.9231
vn -0.0097 -0.9981 -0.0609
vn 0.0901 -0.8215 0.5630
vn -0.4346 -0.6773 -0.5936
vn -0.0901 -0.8215 -0.5630
vn -0.4506 -0.7627 -0.4640
vn -0.1572 0.0960 -0.9829
vn 0.9262 0.3466 -0.1481
vn -0.9875 -0.0000 0.1579
vn 0.9547 0.2554 -0.1527
vn 0.2323 -0.1263 -0.9644
vn 0.7578 0.6412 -0.1212
vn 0.3283 0.1478 0.9329
vn 0.3525 0.0906 0.9314
vn 0.4684 -0.8803 -0.0749
vn 0.1026 0.0682 -0.9924
vn 0.0060 0.1357 -0.9907
vn 0.9829 0.0961 -0.1572
vn 0.0665 0.1039 -0.9924
vn -0.0124 -0.0509 -0.9986
vn 0.9232 0.3549 -0.1477
vn 0.3125 -0.0555 0.9483
vn 0.5215 -0.1263 0.8439
vn 0.9001 0.4112 -0.1440
vn 0.7929 0.5960 -0.1268
vn 0.9914 -0.1073 -0.0743
vn 0.9650 -0.1077 -0.2389
vn 0.5178 0.0189 0.8553
vn 0.1579 -0.0000 0.9875
vn -0.1579 -0.0000 -0.9875
vn 0.1956 0.0175 -0.9805
vn 0.4471 -0.8902 -0.0869
vn 0.4519 -0.8902 -0.0569
vn 0.9875 -0.0000 -0.1579
vn 0.1085 0.1000 -0.9891
vn 0.0274 0.0832 -0.9962
vn 0.9421 0.3199 -0.1002
vn 0.9264 0.3199 -0.1987
vn 0.5002 -0.1078 0.8592
vn 0.1579 -0.0000 0.9874
vn 0.2073 -0.1078 -0.9723
vn -0.1579 -0.0000 -0.9874
vn 0.0097 -0.9981 0.0609
vn -0.0900 -0.8215 -0.5630
vn 0.3911 0.1130 0.9134
vn -0.2277 -0.6773 0.6996
vn -0.6157 -0.7425 -0.2639
vn -0.4014 -0.8872 0.2276
vn 0.4280 0.0741 0.9007
vn -0.6795 0.0961 0.7274
vn -0.2341 -0.9394 0.2506
vn 0.8909 0.1085 0.4410
vn 0.4717 -0.7228 -0.5050
vn 0.6185 0.4233 -0.6621
vn -0.6381 0.3551 0.6832
vn -0.5321 -0.6264 0.5697
vn 0.7274 0.0962 0.6795
vn -0.1251 -0.7425 0.6581
vn 0.4167 -0.8215 0.3892
vn 0.6832 0.3551 0.6381
vn 0.6381 0.3551 -0.6832
vn -0.6832 0.3551 -0.6381
vn -0.0450 -0.9981 -0.0421
vn -0.7075 -0.6773 -0.2019
vn -0.4167 -0.8215 -0.3892
vn -0.6405 -0.7627 -0.0897
vn -0.7274 0.0960 -0.6795
vn 0.6403 0.3466 -0.6855
vn -0.6826 -0.0000 0.7308
vn 0.6600 0.2554 -0.7065
vn -0.4086 -0.1263 -0.9039
vn 0.5238 0.6412 -0.5608
vn 0.8318 0.1478 0.5350
vn 0.8500 0.0906 0.5190
vn 0.3238 -0.8803 -0.3466
vn -0.5281 0.0682 -0.8464
vn -0.6034 0.1357 -0.7858
vn 0.6795 0.0961 -0.7274
vn -0.5566 0.1039 -0.8243
vn -0.6227 -0.0509 -0.7808
vn 0.6382 0.3549 -0.6832
vn 0.8287 -0.0555 0.5569
vn 0.9296 -0.1263 0.3461
vn 0.6222 0.4112 -0.6661
vn 0.5481 0.5960 -0.5868
vn 0.7371 -0.1073 -0.6672
vn 0.6152 -0.1077 -0.7810
vn 0.9338 0.0189 0.3574
vn 0.7308 -0.0000 0.6826
vn -0.7308 -0.0000 -0.6826
vn -0.4474 0.0175 -0.8941
vn 0.2997 -0.8902 -0.3431
vn 0.3218 -0.8902 -0.3224
vn 0.6826 -0.0000 -0.7308
vn -0.5214 0.1000 -0.8474
vn -0.5898 0.0832 -0.8033
vn 0.6823 0.3199 -0.6574
vn 0.6094 0.3199 -0.7255
vn 0.9223 -0.1078 0.3712
vn -0.4332 -0.1078 -0.8949
vn 0.0450 -0.9981 0.0421
vn 0.8694 0.1130 0.4811
vn 0.2496 -0.6773 0.6921
vn -0.6480 -0.7425 0.1696
vn -0.1772 -0.8871 0.4261
vn 0.8908 0.0741 0.4484
vt 0.677495 0.207309
vt 0.648111 0.273875
vt 0.648905 0.183652
vt 0.850474 0.217400
vt 0.966295 0.207721
vt 0.970308 0.302366
vt 0.554916 0.821641
vt 0.578832 0.835143
vt 0.558589 0.860344
vt 0.185769 0.932030
vt 0.142728 0.928091
vt 0.142728 0.867995
vt 0.778032 0.120253
vt 0.949451 0.121344
vt 0.275973 0.191670
vt 0.229368 0.154687
vt 0.233847 0.141701
vt 0.614086 0.138283
vt 0.611564 0.306869
vt 0.462268 0.160283
vt 0.347764 0.198520
vt 0.361026 0.161400
vt 0.765728 0.288525
vt 0.682706 0.242105
vt 0.716242 0.241502
vt 0.337484 0.149862
vt 0.804260 0.326988
vt 0.182821 0.149709
vt 0.188675 0.163006
vt 0.140002 0.193497
vt 0.754342 0.057474
vt 0.726367 0.096316
vt 0.700079 0.365416
vt 0.752221 0.167586
vt 0.689455 0.083088
vt 0.610591 0.075890
vt 0.656992 0.105369
vt 0.684141 0.042497
vt 0.777764 0.397016
vt 0.695043 0.412749
vt 0.610591 0.375956
vt 0.715274 0.209445
vt 0.354881 0.811378
vt 0.350943 0.793287
vt 0.419287 0.793287
vt 0.388269 0.119152
vt 0.440307 0.117506
vt 0.098342 0.081236
vt 0.163086 0.095022
vt 0.129635 0.165602
vt 0.365844 0.461018
vt 0.430567 0.492673
vt 0.415487 0.540845
vt 0.169658 0.120023
vt 0.444802 0.054267
vt 0.383058 0.053856
vt 0.318494 0.065093
vt 0.287813 0.159237
vt 0.248384 0.087770
vt 0.243759 0.112089
vt 0.354881 0.899757
vt 0.354881 0.881544
vt 0.414977 0.881544
vt 0.202349 0.043921
vt 0.554353 0.909267
vt 0.558903 0.891631
vt 0.587738 0.868797
vt 0.269585 0.828814
vt 0.323298 0.862986
vt 0.269585 0.897158
vt 0.611944 0.855095
vt 0.620858 0.821444
vt 0.640868 0.846589
vt 0.640609 0.877876
vt 0.645235 0.895493
vt 0.620774 0.801241
vt 0.644482 0.807880
vt 0.606803 0.875720
vt 0.354881 0.850255
vt 0.414977 0.811378
vt 0.592831 0.889507
vt 0.404089 0.399867
vt 0.365844 0.460928
vt 0.365844 0.366924
vt 0.414977 0.850255
vt 0.413589 0.038528
vt 0.440026 0.038152
vt 0.323298 0.744461
vt 0.323298 0.981881
vt 0.242497 0.900026
vt 0.262186 0.981883
vt 0.262186 0.744459
vt 0.242516 0.826321
vt 0.554353 0.803053
vt 0.578863 0.814940
vt 0.159985 0.546545
vt 0.191833 0.546545
vt 0.183071 0.589379
vt 0.106563 0.548498
vt 0.138411 0.548498
vt 0.115325 0.591332
vt 0.645235 0.789381
vt 0.237299 0.746077
vt 0.185769 0.863686
vt 0.414977 0.899757
vt 0.237299 0.980271
vt 0.425843 0.423616
vt 0.209675 0.546545
vt 0.266145 0.461617
vt 0.266145 0.504081
vt 0.436499 0.461018
vt 0.138411 0.378642
vt 0.032251 0.506034
vt 0.032251 0.463570
vt 0.088721 0.548498
vt 0.040529 0.421106
vt 0.053483 0.378642
vt 0.257867 0.419153
vt 0.244913 0.376689
vt 0.159985 0.376689
vt 0.387061 0.038161
vt 0.466747 0.184263
vt 0.485490 0.151868
s 0
usemtl マテリアル.001
f 1/1/1 18/2/1 9/3/1
f 26/4/2 20/5/2 15/6/2
f 45/7/3 42/8/3 47/9/3
f 41/10/4 52/11/4 51/12/4
f 23/13/2 12/14/2 26/4/2
f 11/15/5 19/16/5 39/17/5
f 22/18/6 18/2/6 25/19/6
f 10/20/7 25/21/7 17/22/7
f 16/23/8 5/24/8 7/25/8
f 29/26/9 17/22/9 25/21/9
f 26/4/2 15/6/2 24/27/2
f 42/28/5 21/29/5 14/30/5
f 32/31/10 23/13/10 35/32/10
f 16/23/11 24/27/11 36/33/11
f 13/34/12 23/13/12 26/4/12
f 34/35/13 35/32/13 13/34/13
f 22/18/14 30/36/14 33/37/14
f 33/37/10 31/38/10 34/35/10
f 31/38/10 35/32/10 34/35/10
f 24/27/15 15/6/15 27/39/15
f 36/33/16 27/39/16 28/40/16
f 36/33/17 28/40/17 29/41/17
f 5/24/18 3/42/18 7/25/18
f 1/1/19 13/34/19 3/42/19
f 48/43/20 58/44/20 59/45/20
f 10/20/21 6/46/21 2/47/21
f 15/48/22 44/49/22 38/50/22
f 32/51/23 37/52/23 12/53/23
f 43/54/22 42/28/22 38/50/22
f 4/55/24 6/46/24 8/56/24
f 12/57/22 37/58/22 41/59/22
f 37/58/22 39/17/22 40/60/22
f 52/61/25 49/62/25 46/63/25
f 20/64/22 44/49/22 15/48/22
f 51/65/26 46/66/26 43/67/26
f 47/9/27 43/67/27 46/66/27
f 58/68/28 55/69/28 59/70/28
f 20/64/22 41/59/22 44/49/22
f 40/71/29 39/72/29 50/73/29
f 40/71/30 49/74/30 52/75/30
f 12/57/22 41/59/22 20/64/22
f 16/23/31 3/42/31 13/34/31
f 39/72/32 19/76/32 48/77/32
f 26/4/2 12/14/2 20/5/2
f 41/78/33 40/71/33 52/75/33
f 50/79/34 48/43/34 45/80/34
f 44/81/35 51/65/35 43/67/35
f 37/58/22 40/60/22 41/59/22
f 44/49/22 43/54/22 38/50/22
f 38/82/36 27/83/36 15/84/36
f 49/62/37 50/79/37 47/85/37
f 55/86/38 53/87/38 4/55/38
f 53/88/28 55/69/28 58/68/28
f 59/70/28 55/69/28 54/89/28
f 21/90/39 59/70/39 57/91/39
f 56/92/40 58/68/40 19/93/40
f 45/7/41 59/94/41 21/95/41
f 8/96/42 57/97/42 54/98/42
f 56/99/43 4/100/43 53/101/43
f 19/76/44 58/102/44 48/77/44
f 56/92/45 53/88/45 58/68/45
f 57/91/46 59/70/46 54/89/46
f 11/103/47 56/92/47 19/93/47
f 50/73/48 39/72/48 48/77/48
f 49/74/49 40/71/49 50/73/49
f 44/104/4 41/10/4 51/12/4
f 51/105/25 52/61/25 46/63/25
f 46/63/37 49/62/37 47/85/37
f 47/85/34 50/79/34 45/80/34
f 45/80/20 48/43/20 59/45/20
f 14/106/47 21/90/47 57/91/47
f 38/50/50 42/28/50 14/30/50
f 37/58/51 11/15/51 39/17/51
f 14/107/52 27/83/52 38/82/52
f 14/108/42 28/109/42 27/110/42
f 32/51/53 11/111/53 37/52/53
f 2/112/43 4/100/43 56/99/43
f 32/113/43 31/114/43 11/115/43
f 31/114/43 30/116/43 11/115/43
f 30/116/43 10/117/43 11/115/43
f 10/117/43 2/112/43 11/115/43
f 29/118/42 28/109/42 14/108/42
f 17/119/42 29/118/42 14/108/42
f 6/120/42 17/119/42 14/108/42
f 6/120/42 14/108/42 57/97/42
f 11/115/43 2/112/43 56/99/43
f 8/96/42 6/120/42 57/97/42
f 54/121/38 55/86/38 8/56/38
f 8/56/38 55/86/38 4/55/38
f 36/33/54 29/41/54 25/19/54
f 36/33/16 24/27/16 27/39/16
f 1/1/1 5/24/1 18/2/1
f 45/7/55 21/95/55 42/8/55
f 22/18/6 9/3/6 18/2/6
f 10/20/7 22/122/7 25/21/7
f 16/23/8 18/2/8 5/24/8
f 32/31/56 12/14/56 23/13/56
f 36/33/11 25/19/11 18/2/11
f 18/2/11 16/23/11 36/33/11
f 26/4/12 24/27/12 16/23/12
f 16/23/12 13/34/12 26/4/12
f 35/32/13 23/13/13 13/34/13
f 13/34/13 9/3/13 34/35/13
f 9/3/13 22/18/13 33/37/13
f 9/3/13 33/37/13 34/35/13
f 22/122/57 10/20/57 30/123/57
f 33/37/58 30/36/58 31/38/58
f 31/38/10 32/31/10 35/32/10
f 5/24/18 1/1/18 3/42/18
f 1/1/19 9/3/19 13/34/19
f 10/20/21 17/22/21 6/46/21
f 4/55/24 2/47/24 6/46/24
f 47/9/59 42/8/59 43/67/59
f 16/23/31 7/25/31 3/42/31
f 60/1/60 77/2/60 68/3/60
f 85/4/61 79/5/61 74/6/61
f 104/7/62 101/8/62 106/9/62
f 100/10/63 111/11/63 110/12/63
f 82/13/61 71/14/61 85/4/61
f 70/15/64 78/16/64 98/17/64
f 81/18/65 77/2/65 84/19/65
f 69/20/66 84/21/66 76/22/66
f 75/23/67 64/24/67 66/25/67
f 88/26/68 76/22/68 84/21/68
f 85/4/61 74/6/61 83/27/61
f 101/28/64 80/29/64 73/30/64
f 91/31/69 82/13/69 94/32/69
f 75/23/70 83/27/70 95/33/70
f 72/34/71 82/13/71 85/4/71
f 93/35/72 94/32/72 72/34/72
f 81/18/73 89/36/73 92/37/73
f 92/37/74 90/38/74 93/35/74
f 90/38/69 94/32/69 93/35/69
f 83/27/75 74/6/75 86/39/75
f 95/33/76 86/39/76 87/40/76
f 95/33/77 87/40/77 88/41/77
f 64/24/18 62/42/18 66/25/18
f 60/1/78 72/34/78 62/42/78
f 107/43/79 117/44/79 118/45/79
f 69/20/80 65/46/80 61/47/80
f 74/48/81 103/49/81 97/50/81
f 91/51/82 96/52/82 71/53/82
f 102/54/81 101/28/81 97/50/81
f 63/55/24 65/46/24 67/56/24
f 71/57/81 96/58/81 100/59/81
f 96/58/81 98/17/81 99/60/81
f 111/61/83 108/62/83 105/63/83
f 79/64/81 103/49/81 74/48/81
f 110/65/84 105/66/84 102/67/84
f 106/9/85 102/67/85 105/66/85
f 117/68/86 114/69/86 118/70/86
f 79/64/81 100/59/81 103/49/81
f 99/71/87 98/72/87 109/73/87
f 99/71/88 108/74/88 111/75/88
f 71/57/81 100/59/81 79/64/81
f 75/23/89 62/42/89 72/34/89
f 98/72/90 78/76/90 107/77/90
f 85/4/61 71/14/61 79/5/61
f 100/78/91 99/71/91 111/75/91
f 109/79/92 107/43/92 104/80/92
f 103/81/93 110/65/93 102/67/93
f 96/58/81 99/60/81 100/59/81
f 103/49/81 102/54/81 97/50/81
f 97/82/94 86/83/94 74/84/94
f 108/62/95 109/79/95 106/85/95
f 114/86/96 112/87/96 63/55/96
f 112/88/86 114/69/86 117/68/86
f 118/70/86 114/69/86 113/89/86
f 80/90/97 118/70/97 116/91/97
f 115/92/98 117/68/98 78/93/98
f 104/7/99 118/94/99 80/95/99
f 67/96/100 116/97/100 113/98/100
f 115/99/101 63/100/101 112/101/101
f 78/76/102 117/102/102 107/77/102
f 115/92/103 112/88/103 117/68/103
f 116/91/104 118/70/104 113/89/104
f 70/103/105 115/92/105 78/93/105
f 109/73/106 98/72/106 107/77/106
f 108/74/107 99/71/107 109/73/107
f 103/104/63 100/10/63 110/12/63
f 110/105/83 111/61/83 105/63/83
f 105/63/95 108/62/95 106/85/95
f 106/85/92 109/79/92 104/80/92
f 104/80/79 107/43/79 118/45/79
f 73/106/105 80/90/105 116/91/105
f 97/50/108 101/28/108 73/30/108
f 96/58/109 70/15/109 98/17/109
f 73/107/110 86/83/110 97/82/110
f 73/108/111 87/109/111 86/110/111
f 91/51/112 70/111/112 96/52/112
f 61/112/101 63/100/101 115/99/101
f 91/113/101 90/114/101 70/115/101
f 90/114/113 89/116/113 70/115/113
f 89/116/101 69/117/101 70/115/101
f 69/117/101 61/112/101 70/115/101
f 88/118/111 87/109/111 73/108/111
f 76/119/111 88/118/111 73/108/111
f 65/120/111 76/119/111 73/108/111
f 65/120/111 73/108/111 116/97/111
f 70/115/101 61/112/101 115/99/101
f 67/96/111 65/120/111 116/97/111
f 113/121/96 114/86/96 67/56/96
f 67/56/96 114/86/96 63/55/96
f 95/33/114 88/41/114 84/19/114
f 95/33/115 83/27/115 86/39/115
f 60/1/60 64/24/60 77/2/60
f 104/7/116 80/95/116 101/8/116
f 81/18/65 68/3/65 77/2/65
f 69/20/66 81/122/66 84/21/66
f 75/23/67 77/2/67 64/24/67
f 91/31/117 71/14/117 82/13/117
f 95/33/70 84/19/70 77/2/70
f 77/2/70 75/23/70 95/33/70
f 85/4/71 83/27/71 75/23/71
f 75/23/71 72/34/71 85/4/71
f 94/32/72 82/13/72 72/34/72
f 72/34/72 68/3/72 93/35/72
f 68/3/72 81/18/72 92/37/72
f 68/3/72 92/37/72 93/35/72
f 81/122/118 69/20/118 89/123/118
f 92/37/119 89/36/119 90/38/119
f 90/38/69 91/31/69 94/32/69
f 64/24/18 60/1/18 62/42/18
f 60/1/78 68/3/78 72/34/78
f 69/20/80 76/22/80 65/46/80
f 63/55/24 61/47/24 65/46/24
f 106/9/120 101/8/120 102/67/120
f 75/23/89 66/25/89 62/42/89
f 119/1/121 136/2/121 127/3/121
f 144/4/122 138/5/122 133/6/122
f 163/7/123 160/8/123 165/9/123
f 159/10/124 170/11/124 169/12/124
f 141/13/122 130/14/122 144/4/122
f 129/15/125 137/16/125 157/17/125
f 140/18/126 136/2/126 143/19/126
f 128/20/127 143/21/127 135/22/127
f 134/23/128 123/24/128 125/25/128
f 147/26/129 135/22/129 143/21/129
f 144/4/122 133/6/122 142/27/122
f 160/28/125 139/29/125 132/30/125
f 150/31/130 141/13/130 153/32/130
f 134/23/131 142/27/131 154/33/131
f 131/34/132 141/13/132 144/4/132
f 152/35/133 153/32/133 131/34/133
f 140/18/134 148/36/134 151/37/134
f 151/37/130 149/38/130 152/35/130
f 149/38/130 153/32/130 152/35/130
f 142/27/135 133/6/135 145/39/135
f 154/33/136 145/39/136 146/40/136
f 154/33/137 146/40/137 147/41/137
f 123/24/18 121/42/18 125/25/18
f 119/1/138 131/34/138 121/42/138
f 166/43/139 176/44/139 177/45/139
f 128/20/140 124/46/140 120/47/140
f 133/48/141 162/49/141 156/50/141
f 150/51/142 155/52/142 130/53/142
f 161/54/141 160/28/141 156/50/141
f 122/55/24 124/46/24 126/56/24
f 130/57/141 155/58/141 159/59/141
f 155/58/141 157/17/141 158/60/141
f 170/61/143 167/62/143 164/63/143
f 138/64/141 162/49/141 133/48/141
f 169/65/144 164/66/144 161/67/144
f 165/9/145 161/67/145 164/66/145
f 176/68/146 173/69/146 177/70/146
f 138/64/141 159/59/141 162/49/141
f 158/71/147 157/72/147 168/73/147
f 158/71/148 167/74/148 170/75/148
f 130/57/141 159/59/141 138/64/141
f 134/23/149 121/42/149 131/34/149
f 157/72/150 137/76/150 166/77/150
f 144/4/122 130/14/122 138/5/122
f 159/78/151 158/71/151 170/75/151
f 168/79/152 166/43/152 163/80/152
f 162/81/153 169/65/153 161/67/153
f 155/58/141 158/60/141 159/59/141
f 162/49/141 161/54/141 156/50/141
f 156/82/154 145/83/154 133/84/154
f 167/62/155 168/79/155 165/85/155
f 173/86/156 171/87/156 122/55/156
f 171/88/146 173/69/146 176/68/146
f 177/70/146 173/69/146 172/89/146
f 139/90/157 177/70/157 175/91/157
f 174/92/158 176/68/158 137/93/158
f 163/7/159 177/94/159 139/95/159
f 126/96/160 175/97/160 172/98/160
f 174/99/161 122/100/161 171/101/161
f 137/76/162 176/102/162 166/77/162
f 174/92/163 171/88/163 176/68/163
f 175/91/164 177/70/164 172/89/164
f 129/103/165 174/92/165 137/93/165
f 168/73/166 157/72/166 166/77/166
f 167/74/167 158/71/167 168/73/167
f 162/104/124 159/10/124 169/12/124
f 169/105/143 170/61/143 164/63/143
f 164/63/155 167/62/155 165/85/155
f 165/85/152 168/79/152 163/80/152
f 163/80/139 166/43/139 177/45/139
f 132/106/165 139/90/165 175/91/165
f 156/50/168 160/28/168 132/30/168
f 155/58/169 129/15/169 157/17/169
f 132/107/170 145/83/170 156/82/170
f 132/108/160 146/109/160 145/110/160
f 150/51/171 129/111/171 155/52/171
f 120/112/161 122/100/161 174/99/161
f 150/113/161 149/114/161 129/115/161
f 149/114/161 148/116/161 129/115/161
f 148/116/161 128/117/161 129/115/161
f 128/117/161 120/112/161 129/115/161
f 147/118/160 146/109/160 132/108/160
f 135/119/160 147/118/160 132/108/160
f 124/120/160 135/119/160 132/108/160
f 124/120/160 132/108/160 175/97/160
f 129/115/161 120/112/161 174/99/161
f 126/96/160 124/120/160 175/97/160
f 172/121/156 173/86/156 126/56/156
f 126/56/156 173/86/156 122/55/156
f 154/33/172 147/41/172 143/19/172
f 154/33/136 142/27/136 145/39/136
f 119/1/121 123/24/121 136/2/121
f 163/7/173 139/95/173 160/8/173
f 140/18/126 127/3/126 136/2/126
f 128/20/127 140/122/127 143/21/127
f 134/23/128 136/2/128 123/24/128
f 150/31/174 130/14/174 141/13/174
f 154/33/131 143/19/131 136/2/131
f 136/2/131 134/23/131 154/33/131
f 144/4/132 142/27/132 134/23/132
f 134/23/132 131/34/132 144/4/132
f 153/32/133 141/13/133 131/34/133
f 131/34/133 127/3/133 152/35/133
f 127/3/133 140/18/133 151/37/133
f 127/3/133 151/37/133 152/35/133
f 140/122/175 128/20/175 148/123/175
f 151/37/176 148/36/176 149/38/176
f 149/38/130 150/31/130 153/32/130
f 123/24/18 119/1/18 121/42/18
f 119/1/138 127/3/138 131/34/138
f 128/20/140 135/22/140 124/46/140
f 122/55/24 120/47/24 124/46/24
f 165/9/177 160/8/177 161/67/177
f 134/23/149 125/25/149 121/42/149
