# Blender 4.2.3 LTS
# www.blender.org
mtllib ground.mtl
o 立方体
v -65977.375000 -0.898476 13.552389
v -65977.375000 0.898482 13.552389
v 65977.375000 -0.898476 13.552391
v 65977.375000 0.898482 13.552391
v -65977.375000 -0.898482 -13.552391
v -65977.375000 0.898476 -20.411104
v 65977.375000 -0.898482 -13.552389
v 65977.375000 0.898476 -20.411104
v -65977.375000 -179.118561 -24.106569
v 65977.375000 -179.118561 -24.106569
vn 1.0000 -0.0000 0.0001
vn -1.0000 -0.0000 -0.0003
vn -0.0000 1.0000 -0.0000
vn 1.0000 -0.0000 -0.0000
vn -1.0000 -0.0000 0.0003
vn -0.0000 0.0205 -0.9998
vt 0.625000 0.250000
vt 0.375000 0.250000
vt 0.375000 0.500000
vt 0.625000 0.750000
vt 0.375000 0.750000
vt 0.375000 1.000000
vt 0.875000 0.500000
vt 0.625000 0.500000
vt 0.625000 1.000000
vt 0.875000 0.750000
vt 0.123047 0.744141
vt 0.123047 0.994141
s 0
usemtl ground.001
f 4/1/1 3/2/1 7/3/1
f 6/4/2 5/5/2 1/6/2
f 4/7/3 8/8/3 6/4/3
f 4/1/4 7/3/4 8/8/4
f 6/4/5 1/6/5 2/9/5
f 4/7/3 6/4/3 2/10/3
f 8/11/6 9/12/6 6/12/6
f 8/11/6 10/11/6 9/12/6
