# Blender 4.2.2 LTS
# www.blender.org
mtllib ground.mtl
o 立方体
v -65977.375000 -0.898477 13.552389
v -65977.375000 0.898481 13.552389
v 65977.375000 -0.898477 13.552391
v 65977.375000 0.898481 13.552391
v -65977.375000 -0.898481 -13.552391
v -65977.375000 0.898477 -13.552391
v 65977.375000 -0.898481 -13.552389
v 65977.375000 0.898477 -13.552389
vn -0.0000 -0.0000 1.0000
vn 1.0000 -0.0000 -0.0001
vn -0.0000 -0.0000 -1.0000
vn -1.0000 -0.0000 -0.0001
vn -0.0000 -1.0000 -0.0000
vn -0.0000 1.0000 -0.0000
vn 1.0000 -0.0000 -0.0000
vn -1.0000 -0.0000 -0.0000
vt 0.625000 0.000000
vt 0.375000 0.000000
vt 0.375000 0.250000
vt 0.625000 0.250000
vt 0.375000 0.500000
vt 0.625000 0.500000
vt 0.375000 0.750000
vt 0.625000 0.750000
vt 0.375000 1.000000
vt 0.125000 0.500000
vt 0.125000 0.750000
vt 0.875000 0.500000
vt 0.625000 1.000000
vt 0.875000 0.750000
s 0
usemtl ground
f 2/1/1 1/2/1 3/3/1
f 4/4/2 3/3/2 7/5/2
f 8/6/3 7/5/3 5/7/3
f 6/8/4 5/7/4 1/9/4
f 7/5/5 3/10/5 1/11/5
f 4/12/6 8/6/6 6/8/6
f 2/1/1 3/3/1 4/4/1
f 4/4/7 7/5/7 8/6/7
f 8/6/3 5/7/3 6/8/3
f 6/8/8 1/9/8 2/13/8
f 7/5/5 1/11/5 5/7/5
f 4/12/6 6/8/6 2/14/6
