{
	"asset":{
		"generator":"Khronos glTF Blender I/O v4.2.57",
		"version":"2.0"
	},
	"scene":0,
	"scenes":[
		{
			"name":"Scene",
			"nodes":[
				0
			]
		}
	],
	"nodes":[
		{
			"mesh":0,
			"name":"\u5e73\u9762"
		}
	],
	"animations":[
		{
			"channels":[
				{
					"sampler":0,
					"target":{
						"node":0,
						"path":"translation"
					}
				},
				{
					"sampler":1,
					"target":{
						"node":0,
						"path":"rotation"
					}
				},
				{
					"sampler":2,
					"target":{
						"node":0,
						"path":"scale"
					}
				}
			],
			"name":"\u5e73\u9762\u30a2\u30af\u30b7\u30e7\u30f3",
			"samplers":[
				{
					"input":4,
					"interpolation":"LINEAR",
					"output":5
				},
				{
					"input":6,
					"interpolation":"STEP",
					"output":7
				},
				{
					"input":6,
					"interpolation":"STEP",
					"output":8
				}
			]
		}
	],
	"materials":[
		{
			"doubleSided":true,
			"name":"\u30de\u30c6\u30ea\u30a2\u30eb",
			"pbrMetallicRoughness":{
				"baseColorTexture":{
					"index":0
				},
				"metallicFactor":0,
				"roughnessFactor":0.5
			}
		}
	],
	"meshes":[
		{
			"name":"\u5e73\u9762",
			"primitives":[
				{
					"attributes":{
						"POSITION":0,
						"NORMAL":1,
						"TEXCOORD_0":2
					},
					"indices":3,
					"material":0
				}
			]
		}
	],
	"textures":[
		{
			"sampler":0,
			"source":0
		}
	],
	"images":[
		{
			"mimeType":"image/png",
			"name":"Effect1",
			"uri":"Effect1.png"
		}
	],
	"accessors":[
		{
			"bufferView":0,
			"componentType":5126,
			"count":3,
			"max":[
				0.5015350580215454,
				1.0327214002609253,
				3.201591027846007e-07
			],
			"min":[
				-0.4984649419784546,
				0.032721370458602905,
				6.850378042599914e-08
			],
			"type":"VEC3"
		},
		{
			"bufferView":1,
			"componentType":5126,
			"count":3,
			"type":"VEC3"
		},
		{
			"bufferView":2,
			"componentType":5126,
			"count":3,
			"type":"VEC2"
		},
		{
			"bufferView":3,
			"componentType":5123,
			"count":3,
			"type":"SCALAR"
		},
		{
			"bufferView":4,
			"componentType":5126,
			"count":21,
			"max":[
				0.8333333333333334
			],
			"min":[
				0
			],
			"type":"SCALAR"
		},
		{
			"bufferView":5,
			"componentType":5126,
			"count":21,
			"type":"VEC3"
		},
		{
			"bufferView":6,
			"componentType":5126,
			"count":2,
			"max":[
				0.8333333333333334
			],
			"min":[
				0
			],
			"type":"SCALAR"
		},
		{
			"bufferView":7,
			"componentType":5126,
			"count":2,
			"type":"VEC4"
		},
		{
			"bufferView":8,
			"componentType":5126,
			"count":2,
			"type":"VEC3"
		}
	],
	"bufferViews":[
		{
			"buffer":0,
			"byteLength":36,
			"byteOffset":0,
			"target":34962
		},
		{
			"buffer":0,
			"byteLength":36,
			"byteOffset":36,
			"target":34962
		},
		{
			"buffer":0,
			"byteLength":24,
			"byteOffset":72,
			"target":34962
		},
		{
			"buffer":0,
			"byteLength":6,
			"byteOffset":96,
			"target":34963
		},
		{
			"buffer":0,
			"byteLength":84,
			"byteOffset":104
		},
		{
			"buffer":0,
			"byteLength":252,
			"byteOffset":188
		},
		{
			"buffer":0,
			"byteLength":8,
			"byteOffset":440
		},
		{
			"buffer":0,
			"byteLength":32,
			"byteOffset":448
		},
		{
			"buffer":0,
			"byteLength":24,
			"byteOffset":480
		}
	],
	"samplers":[
		{
			"magFilter":9729,
			"minFilter":9987
		}
	],
	"buffers":[
		{
			"byteLength":504,
			"uri":"Effect1.bin"
		}
	]
}
