# Blender 4.2.0
# www.blender.org
mtllib TutorialGuide.mtl
o Cube.017
v 20.111254 14.666377 -0.291563
v 20.172567 14.080804 -0.291563
v 22.726858 14.940246 -0.291563
v 22.788172 14.354671 -0.291563
v 20.111254 14.666377 0.291562
v 20.172567 14.080804 0.291562
v 22.726858 14.940246 0.291562
v 22.788172 14.354671 0.291562
v -0.417299 5.530344 -0.291562
v -0.908330 5.205467 -0.291562
v 1.033838 3.337039 -0.291562
v 0.542807 3.012163 -0.291562
v -0.417299 5.530344 0.291563
v -0.908330 5.205467 0.291563
v 1.033838 3.337039 0.291562
v 0.542807 3.012163 0.291562
v 0.926005 2.986657 -0.291562
v 1.472792 2.768299 -0.291562
v 1.901353 5.429008 -0.291562
v 2.448140 5.210650 -0.291562
v 0.926005 2.986657 0.291562
v 1.472792 2.768299 0.291562
v 1.901353 5.429008 0.291562
v 2.448140 5.210650 0.291562
v 2.103095 5.915792 -0.291562
v 2.623989 5.641335 -0.291562
v 3.329017 8.242485 -0.291562
v 3.849911 7.968029 -0.291562
v 2.103095 5.915792 0.291562
v 2.623989 5.641335 0.291562
v 3.329017 8.242485 0.291562
v 3.849911 7.968029 0.291562
v 3.507945 8.622513 -0.291562
v 3.970383 8.258086 -0.291562
v 5.135743 10.688102 -0.291562
v 5.598181 10.323675 -0.291562
v 3.507945 8.622513 0.291562
v 3.970383 8.258086 0.291562
v 5.135743 10.688102 0.291562
v 5.598181 10.323675 0.291562
v 5.447948 11.114827 -0.291562
v 5.684515 10.575668 -0.291562
v 7.856225 12.171513 -0.291562
v 8.092792 11.632353 -0.291562
v 5.447948 11.114827 0.291562
v 5.684515 10.575668 0.291563
v 7.856225 12.171513 0.291562
v 8.092792 11.632353 0.291562
v 8.160215 12.327937 -0.291562
v 8.333576 11.765261 -0.291562
v 10.673532 13.102290 -0.291562
v 10.846893 12.539617 -0.291562
v 8.160215 12.327937 0.291562
v 8.333576 11.765261 0.291562
v 10.673532 13.102290 0.291562
v 10.846893 12.539617 0.291562
v -2.108815 8.086969 -0.291562
v -2.599846 7.762093 -0.291562
v -0.657679 5.893663 -0.291562
v -1.148710 5.568788 -0.291562
v -2.108815 8.086969 0.291563
v -2.599846 7.762093 0.291563
v -0.657679 5.893663 0.291562
v -1.148710 5.568788 0.291562
v -3.778306 10.610302 -0.291562
v -4.269336 10.285426 -0.291562
v -2.327171 8.417001 -0.291562
v -2.818202 8.092125 -0.291562
v -3.778306 10.610302 0.291563
v -4.269336 10.285426 0.291563
v -2.327171 8.417001 0.291563
v -2.818202 8.092125 0.291563
v -5.426904 13.102059 -0.291562
v -5.917934 12.777183 -0.291562
v -3.975769 10.908756 -0.291562
v -4.466800 10.583879 -0.291562
v -5.426904 13.102059 0.291563
v -5.917934 12.777183 0.291563
v -3.975769 10.908756 0.291563
v -4.466800 10.583879 0.291563
v -7.117241 15.656902 -0.291562
v -7.608272 15.332025 -0.291562
v -5.666107 13.463601 -0.291562
v -6.157138 13.138724 -0.291562
v -7.117241 15.656902 0.291563
v -7.608272 15.332025 0.291563
v -5.666107 13.463601 0.291563
v -6.157138 13.138724 0.291563
v -9.115129 17.970243 -0.279935
v -9.544373 17.567249 -0.279935
v -7.315054 16.052917 -0.279935
v -7.744299 15.649924 -0.279935
v -9.115129 17.970243 0.303190
v -9.544373 17.567249 0.303190
v -7.315054 16.052917 0.303190
v -7.744299 15.649924 0.303190
v -11.755823 19.703136 -0.279935
v -12.048051 19.192001 -0.279935
v -9.472719 18.397839 -0.279935
v -9.764946 17.886703 -0.279935
v -11.755823 19.703136 0.303190
v -12.048051 19.192001 0.303190
v -9.472719 18.397839 0.303190
v -9.764946 17.886703 0.303190
v -14.662331 20.857800 -0.279935
v -14.864454 20.304806 -0.279935
v -12.192257 19.954969 -0.279935
v -12.394381 19.401976 -0.279935
v -14.662331 20.857800 0.303190
v -14.864454 20.304806 0.303190
v -12.192257 19.954969 0.303190
v -12.394381 19.401976 0.303190
v -17.627048 21.770348 -0.279935
v -17.794725 21.205952 -0.279935
v -15.106057 21.021381 -0.279935
v -15.273734 20.456989 -0.279935
v -17.627048 21.770348 0.303190
v -17.794725 21.205952 0.303190
v -15.106057 21.021381 0.303190
v -15.273734 20.456989 0.303190
v 11.082606 13.227674 -0.291562
v 11.190322 12.648835 -0.291562
v 13.668123 13.708812 -0.291562
v 13.775839 13.129973 -0.291562
v 11.082606 13.227674 0.291562
v 11.190322 12.648835 0.291562
v 13.668123 13.708812 0.291562
v 13.775839 13.129973 0.291562
v 14.161820 13.800683 -0.291562
v 14.269536 13.221845 -0.291562
v 16.747335 14.281820 -0.291563
v 16.855051 13.702983 -0.291562
v 14.161820 13.800683 0.291562
v 14.269536 13.221845 0.291562
v 16.747335 14.281820 0.291562
v 16.855051 13.702983 0.291562
v 17.059637 14.346856 -0.291562
v 17.120951 13.761281 -0.291562
v 19.675240 14.620724 -0.291563
v 19.736553 14.035150 -0.291563
v 17.059637 14.346856 0.291562
v 17.120951 13.761281 0.291562
v 19.675240 14.620724 0.291562
v 19.736553 14.035150 0.291562
vn -0.1041 0.9946 -0.0000
vn 0.9946 0.1041 -0.0000
vn -0.0000 -0.0000 1.0000
vn 0.1041 -0.9946 -0.0000
vn -0.0000 -0.0000 -1.0000
vn -0.9946 -0.1041 -0.0000
vn 0.8340 0.5518 -0.0000
vn 0.5518 -0.8340 -0.0000
vn -0.8340 -0.5518 -0.0000
vn -0.5518 0.8340 -0.0000
vn -0.9287 0.3709 -0.0000
vn 0.3709 0.9287 -0.0000
vn 0.9287 -0.3709 -0.0000
vn -0.3709 -0.9287 -0.0000
vn -0.8847 0.4661 -0.0000
vn 0.4661 0.8847 -0.0000
vn 0.8847 -0.4661 -0.0000
vn -0.4661 -0.8847 -0.0000
vn -0.7854 0.6190 -0.0000
vn 0.6190 0.7854 -0.0000
vn 0.7854 -0.6190 -0.0000
vn -0.6190 -0.7854 -0.0000
vn -0.4018 0.9157 -0.0000
vn 0.9157 0.4018 -0.0000
vn 0.4018 -0.9157 -0.0000
vn -0.9157 -0.4018 -0.0000
vn -0.2944 0.9557 -0.0000
vn 0.9557 0.2944 -0.0000
vn 0.2944 -0.9557 -0.0000
vn -0.9557 -0.2944 -0.0000
vn 0.7290 0.6845 -0.0000
vn 0.6845 -0.7290 -0.0000
vn -0.7290 -0.6845 -0.0000
vn -0.6845 0.7290 -0.0000
vn 0.4963 0.8681 -0.0000
vn 0.8681 -0.4963 -0.0000
vn -0.4963 -0.8681 -0.0000
vn -0.8681 0.4963 -0.0000
vn 0.3433 0.9392 -0.0000
vn 0.9392 -0.3433 -0.0000
vn -0.3433 -0.9392 -0.0000
vn -0.9392 0.3433 -0.0000
vn 0.2848 0.9586 -0.0000
vn 0.9586 -0.2848 -0.0000
vn -0.2848 -0.9586 -0.0000
vn -0.9586 0.2848 -0.0000
vn -0.1829 0.9831 -0.0000
vn 0.9831 0.1829 -0.0000
vn 0.1829 -0.9831 -0.0000
vn -0.9831 -0.1829 -0.0000
vt 0.625000 0.500000
vt 0.875000 0.500000
vt 0.875000 0.750000
vt 0.625000 0.750000
vt 0.375000 0.750000
vt 0.625000 1.000000
vt 0.375000 1.000000
vt 0.375000 0.000000
vt 0.625000 0.000000
vt 0.625000 0.250000
vt 0.375000 0.250000
vt 0.125000 0.500000
vt 0.375000 0.500000
vt 0.125000 0.750000
s 0
usemtl Material
f 1/1/1 5/2/1 7/3/1 3/4/1
f 4/5/2 3/4/2 7/6/2 8/7/2
f 8/8/3 7/9/3 5/10/3 6/11/3
f 6/12/4 2/13/4 4/5/4 8/14/4
f 2/13/5 1/1/5 3/4/5 4/5/5
f 6/11/6 5/10/6 1/1/6 2/13/6
f 9/1/7 13/2/7 15/3/7 11/4/7
f 12/5/8 11/4/8 15/6/8 16/7/8
f 16/8/3 15/9/3 13/10/3 14/11/3
f 14/12/9 10/13/9 12/5/9 16/14/9
f 10/13/5 9/1/5 11/4/5 12/5/5
f 14/11/10 13/10/10 9/1/10 10/13/10
f 17/1/11 21/2/11 23/3/11 19/4/11
f 20/5/12 19/4/12 23/6/12 24/7/12
f 24/8/3 23/9/3 21/10/3 22/11/3
f 22/12/13 18/13/13 20/5/13 24/14/13
f 18/13/5 17/1/5 19/4/5 20/5/5
f 22/11/14 21/10/14 17/1/14 18/13/14
f 25/1/15 29/2/15 31/3/15 27/4/15
f 28/5/16 27/4/16 31/6/16 32/7/16
f 32/8/3 31/9/3 29/10/3 30/11/3
f 30/12/17 26/13/17 28/5/17 32/14/17
f 26/13/5 25/1/5 27/4/5 28/5/5
f 30/11/18 29/10/18 25/1/18 26/13/18
f 33/1/19 37/2/19 39/3/19 35/4/19
f 36/5/20 35/4/20 39/6/20 40/7/20
f 40/8/3 39/9/3 37/10/3 38/11/3
f 38/12/21 34/13/21 36/5/21 40/14/21
f 34/13/5 33/1/5 35/4/5 36/5/5
f 38/11/22 37/10/22 33/1/22 34/13/22
f 41/1/23 45/2/23 47/3/23 43/4/23
f 44/5/24 43/4/24 47/6/24 48/7/24
f 48/8/3 47/9/3 45/10/3 46/11/3
f 46/12/25 42/13/25 44/5/25 48/14/25
f 42/13/5 41/1/5 43/4/5 44/5/5
f 46/11/26 45/10/26 41/1/26 42/13/26
f 49/1/27 53/2/27 55/3/27 51/4/27
f 52/5/28 51/4/28 55/6/28 56/7/28
f 56/8/3 55/9/3 53/10/3 54/11/3
f 54/12/29 50/13/29 52/5/29 56/14/29
f 50/13/5 49/1/5 51/4/5 52/5/5
f 54/11/30 53/10/30 49/1/30 50/13/30
f 57/1/7 61/2/7 63/3/7 59/4/7
f 60/5/8 59/4/8 63/6/8 64/7/8
f 64/8/3 63/9/3 61/10/3 62/11/3
f 62/12/9 58/13/9 60/5/9 64/14/9
f 58/13/5 57/1/5 59/4/5 60/5/5
f 62/11/10 61/10/10 57/1/10 58/13/10
f 65/1/7 69/2/7 71/3/7 67/4/7
f 68/5/8 67/4/8 71/6/8 72/7/8
f 72/8/3 71/9/3 69/10/3 70/11/3
f 70/12/9 66/13/9 68/5/9 72/14/9
f 66/13/5 65/1/5 67/4/5 68/5/5
f 70/11/10 69/10/10 65/1/10 66/13/10
f 73/1/7 77/2/7 79/3/7 75/4/7
f 76/5/8 75/4/8 79/6/8 80/7/8
f 80/8/3 79/9/3 77/10/3 78/11/3
f 78/12/9 74/13/9 76/5/9 80/14/9
f 74/13/5 73/1/5 75/4/5 76/5/5
f 78/11/10 77/10/10 73/1/10 74/13/10
f 81/1/7 85/2/7 87/3/7 83/4/7
f 84/5/8 83/4/8 87/6/8 88/7/8
f 88/8/3 87/9/3 85/10/3 86/11/3
f 86/12/9 82/13/9 84/5/9 88/14/9
f 82/13/5 81/1/5 83/4/5 84/5/5
f 86/11/10 85/10/10 81/1/10 82/13/10
f 89/1/31 93/2/31 95/3/31 91/4/31
f 92/5/32 91/4/32 95/6/32 96/7/32
f 96/8/3 95/9/3 93/10/3 94/11/3
f 94/12/33 90/13/33 92/5/33 96/14/33
f 90/13/5 89/1/5 91/4/5 92/5/5
f 94/11/34 93/10/34 89/1/34 90/13/34
f 97/1/35 101/2/35 103/3/35 99/4/35
f 100/5/36 99/4/36 103/6/36 104/7/36
f 104/8/3 103/9/3 101/10/3 102/11/3
f 102/12/37 98/13/37 100/5/37 104/14/37
f 98/13/5 97/1/5 99/4/5 100/5/5
f 102/11/38 101/10/38 97/1/38 98/13/38
f 105/1/39 109/2/39 111/3/39 107/4/39
f 108/5/40 107/4/40 111/6/40 112/7/40
f 112/8/3 111/9/3 109/10/3 110/11/3
f 110/12/41 106/13/41 108/5/41 112/14/41
f 106/13/5 105/1/5 107/4/5 108/5/5
f 110/11/42 109/10/42 105/1/42 106/13/42
f 113/1/43 117/2/43 119/3/43 115/4/43
f 116/5/44 115/4/44 119/6/44 120/7/44
f 120/8/3 119/9/3 117/10/3 118/11/3
f 118/12/45 114/13/45 116/5/45 120/14/45
f 114/13/5 113/1/5 115/4/5 116/5/5
f 118/11/46 117/10/46 113/1/46 114/13/46
f 121/1/47 125/2/47 127/3/47 123/4/47
f 124/5/48 123/4/48 127/6/48 128/7/48
f 128/8/3 127/9/3 125/10/3 126/11/3
f 126/12/49 122/13/49 124/5/49 128/14/49
f 122/13/5 121/1/5 123/4/5 124/5/5
f 126/11/50 125/10/50 121/1/50 122/13/50
f 129/1/47 133/2/47 135/3/47 131/4/47
f 132/5/48 131/4/48 135/6/48 136/7/48
f 136/8/3 135/9/3 133/10/3 134/11/3
f 134/12/49 130/13/49 132/5/49 136/14/49
f 130/13/5 129/1/5 131/4/5 132/5/5
f 134/11/50 133/10/50 129/1/50 130/13/50
f 137/1/1 141/2/1 143/3/1 139/4/1
f 140/5/2 139/4/2 143/6/2 144/7/2
f 144/8/3 143/9/3 141/10/3 142/11/3
f 142/12/4 138/13/4 140/5/4 144/14/4
f 138/13/5 137/1/5 139/4/5 140/5/5
f 142/11/6 141/10/6 137/1/6 138/13/6
