# Blender 4.1.1
# www.blender.org
mtllib 1.mtl
o 1_2_3_4_5_6_7_8_9.001
v -0.187965 0.339466 -0.045800
v -0.133687 0.400184 -0.045800
v -0.144726 0.529899 -0.045800
v -0.248682 0.625575 -0.045800
v -0.227523 0.376265 -0.045800
v -0.185205 0.303588 -0.045800
v -0.217403 0.267709 -0.045800
v -0.196244 0.018399 -0.045800
v -0.108848 0.114075 -0.045800
v -0.119887 0.243790 -0.045800
v -0.187965 0.339466 0.045800
v -0.133687 0.400184 0.045800
v -0.144726 0.529899 0.045800
v -0.248682 0.625575 0.045800
v -0.227523 0.376265 0.045800
v -0.185205 0.303588 0.045800
v -0.217403 0.267709 0.045800
v -0.196244 0.018399 0.045800
v -0.108848 0.114075 0.045800
v -0.119887 0.243790 0.045800
v -0.185205 0.303588 0.045800
v -0.185205 0.303588 -0.045800
v -0.217403 0.267709 0.045800
v -0.217403 0.267709 -0.045800
v -0.196244 0.018399 0.045800
v -0.196244 0.018399 -0.045800
v -0.108848 0.114075 0.045800
v -0.108848 0.114075 -0.045800
v -0.119887 0.243790 0.045800
v -0.119887 0.243790 -0.045800
v -0.187965 0.339466 0.045800
v -0.187965 0.339466 -0.045800
v -0.133687 0.400184 0.045800
v -0.133687 0.400184 -0.045800
v -0.144726 0.529899 0.045800
v -0.144726 0.529899 -0.045800
v -0.248682 0.625575 0.045800
v -0.248682 0.625575 -0.045800
v -0.227523 0.376265 0.045800
v -0.227523 0.376265 -0.045800
vn -0.0000 -0.0000 -1.0000
vn -0.0000 -0.0000 1.0000
vn -0.9482 0.3178 -0.0000
vn -0.0490 0.9988 -0.0000
vn -0.3219 -0.9468 -0.0000
vn 0.9468 -0.3218 -0.0000
vn 0.8973 0.4414 -0.0000
vn 0.9485 -0.3167 -0.0000
vn 0.0460 -0.9989 -0.0000
vn 0.8979 0.4402 -0.0000
vn -0.4401 0.8979 -0.0000
vn -0.8991 -0.4378 -0.0000
vn -0.4401 0.8980 -0.0000
vt 1.000000 0.000000
vt 0.666667 0.000000
vt 0.555556 0.000000
vt 0.777778 0.000000
vt 0.888889 0.000000
vt 0.222222 0.000000
vt 0.444444 0.000000
vt 0.333333 0.000000
vt 0.111111 0.000000
vt 0.000000 0.000000
vt 0.200000 1.000000
vt 0.000000 1.000000
vt 0.400000 1.000000
vt 0.200000 0.000000
vt 0.600000 1.000000
vt 0.400000 0.000000
vt 0.800000 0.000000
vt 0.600000 0.000000
vt 1.000000 1.000000
vt 0.800000 1.000000
s 0
usemtl マテリアル
f 10/1/1 7/2/1 6/3/1
f 10/1/1 8/4/1 7/2/1
f 9/5/1 8/4/1 10/1/1
f 3/6/1 5/7/1 4/8/1
f 2/9/1 5/7/1 3/6/1
f 1/10/1 5/7/1 2/9/1
f 20/1/2 16/3/2 17/2/2
f 20/1/2 17/2/2 18/4/2
f 19/5/2 20/1/2 18/4/2
f 13/6/2 14/8/2 15/7/2
f 12/9/2 13/6/2 15/7/2
f 11/10/2 12/9/2 15/7/2
s 1
f 24/11/3 21/10/4 22/12/4
f 26/13/5 23/14/3 24/11/3
f 28/15/6 25/16/5 26/13/5
f 28/15/6 29/17/7 27/18/6
f 22/19/4 29/17/7 30/20/7
f 34/11/8 31/10/9 32/12/9
f 36/13/10 33/14/8 34/11/8
f 38/15/11 35/16/10 36/13/10
f 40/20/12 37/18/13 38/15/11
f 40/20/12 31/1/9 39/17/12
f 24/11/3 23/14/3 21/10/4
f 26/13/5 25/16/5 23/14/3
f 28/15/6 27/18/6 25/16/5
f 28/15/6 30/20/7 29/17/7
f 22/19/4 21/1/4 29/17/7
f 34/11/8 33/14/8 31/10/9
f 36/13/10 35/16/10 33/14/8
f 38/15/11 37/18/13 35/16/10
f 40/20/12 39/17/12 37/18/13
f 40/20/12 32/19/9 31/1/9
