# Blender 4.1.1
# www.blender.org
mtllib m.mtl
o テキスト
v 0.013485 0.334223 0.038438
v -0.023866 0.367709 0.038438
v -0.054132 0.334223 0.038438
v -0.042541 0.202208 0.038438
v -0.006478 0.168077 0.038438
v 0.025076 0.202208 0.038438
v -0.158456 0.450782 0.038438
v -0.085687 0.383165 0.038438
v 0.040532 0.383165 0.038438
v 0.101709 0.450782 0.038438
v 0.130688 0.263385 0.038438
v 0.115877 0.437902 0.038438
v 0.054699 0.370929 0.038438
v 0.062427 0.280129 0.038438
v 0.108149 0.237626 0.038438
v -0.088907 0.280129 0.038438
v -0.096635 0.370929 0.038438
v -0.169404 0.437902 0.038438
v -0.154592 0.263385 0.038438
v -0.126902 0.237626 0.038438
v 0.072086 0.170653 0.038438
v 0.081102 0.066973 0.038438
v 0.153871 0.000000 0.038438
v 0.137772 0.187396 0.038438
v 0.110081 0.212511 0.038438
v -0.147509 0.187396 0.038438
v -0.131409 0.000000 0.038438
v -0.070232 0.066973 0.038438
v -0.079248 0.170653 0.038438
v -0.124970 0.212511 0.038438
v 0.013485 0.334223 -0.049333
v -0.023866 0.367709 -0.049333
v -0.054133 0.334223 -0.049333
v -0.042541 0.202208 -0.049333
v -0.006478 0.168077 -0.049333
v 0.025076 0.202208 -0.049333
v -0.158456 0.450782 -0.049333
v -0.085687 0.383165 -0.049333
v 0.040532 0.383165 -0.049333
v 0.101709 0.450782 -0.049333
v 0.072086 0.170653 -0.049333
v 0.081102 0.066973 -0.049333
v 0.130688 0.263385 -0.049333
v 0.115877 0.437902 -0.049333
v 0.054699 0.370929 -0.049333
v 0.062427 0.280129 -0.049333
v 0.108149 0.237626 -0.049333
v -0.088907 0.280129 -0.049333
v -0.096635 0.370929 -0.049333
v -0.169404 0.437902 -0.049333
v -0.154592 0.263385 -0.049333
v -0.126902 0.237626 -0.049333
v 0.153871 -0.000000 -0.049333
v 0.137772 0.187396 -0.049333
v 0.110081 0.212511 -0.049333
v -0.147509 0.187396 -0.049333
v -0.131409 -0.000000 -0.049333
v -0.070232 0.066973 -0.049333
v -0.079248 0.170653 -0.049333
v -0.124970 0.212511 -0.049333
vn -0.0000 -0.0000 1.0000
vn -0.0000 -0.0000 -1.0000
vn -0.9962 -0.0875 -0.0000
vn -0.6808 -0.7324 -0.0000
vn 0.7455 -0.6665 -0.0000
vn -0.6874 -0.7263 -0.0000
vn -0.7383 0.6744 -0.0000
vn 0.9962 0.0875 -0.0000
vn 0.7343 -0.6789 -0.0000
vn -0.6807 -0.7326 -0.0000
vn -0.7442 0.6679 -0.0000
vn 0.6718 0.7407 -0.0000
vn 0.7415 -0.6709 -0.0000
vn -0.7405 0.6721 -0.0000
vn -0.9962 -0.0866 -0.0000
vn -0.0000 1.0000 -0.0000
vn -0.9963 -0.0856 -0.0000
vn 0.9964 0.0846 -0.0000
vn -0.7419 0.6705 -0.0000
vn 0.7383 -0.6744 -0.0000
vn -0.0000 -1.0000 -0.0000
vn -0.9964 -0.0846 -0.0000
vn 0.6753 0.7376 -0.0000
vn 0.7526 -0.6585 -0.0000
vn 0.9962 0.0866 -0.0000
vn -0.9964 -0.0848 -0.0000
vn 0.9964 0.0848 -0.0000
vn -0.6811 -0.7322 -0.0000
vn 0.6675 0.7446 -0.0000
vn 0.9963 0.0856 -0.0000
vn 0.6772 0.7358 -0.0000
vn -0.6772 -0.7358 -0.0000
vt 0.275862 0.000000
vt 0.310345 0.000000
vt 0.206897 0.000000
vt 0.241379 0.000000
vt 0.344828 0.000000
vt 0.379310 0.000000
vt 0.413793 0.000000
vt 0.551724 0.000000
vt 0.586207 0.000000
vt 0.620690 0.000000
vt 0.448276 0.000000
vt 0.517241 0.000000
vt 0.482759 0.000000
vt 0.655172 0.000000
vt 0.793103 0.000000
vt 0.827586 0.000000
vt 0.689655 0.000000
vt 0.758621 0.000000
vt 0.724138 0.000000
vt 0.965517 0.000000
vt 1.000000 0.000000
vt 0.862069 0.000000
vt 0.896552 0.000000
vt 0.931035 0.000000
vt 0.000000 0.000000
vt 0.034483 0.000000
vt 0.068966 0.000000
vt 0.172414 0.000000
vt 0.103448 0.000000
vt 0.137931 0.000000
s 0
usemtl マテリアル
f 9/1/1 10/2/1 7/3/1
f 9/1/1 7/3/1 8/4/1
f 11/5/1 12/6/1 13/7/1
f 17/8/1 18/9/1 19/10/1
f 11/5/1 13/7/1 14/11/1
f 16/12/1 17/8/1 19/10/1
f 11/5/1 14/11/1 15/13/1
f 20/14/1 16/12/1 19/10/1
f 24/15/1 25/16/1 21/17/1
f 23/18/1 24/15/1 21/17/1
f 23/18/1 21/17/1 22/19/1
f 29/20/1 30/21/1 26/22/1
f 29/20/1 26/22/1 27/23/1
f 28/24/1 29/20/1 27/23/1
f 1/25/1 2/26/1 3/27/1
f 6/28/1 1/25/1 3/27/1
f 6/28/1 3/27/1 4/29/1
f 5/30/1 6/28/1 4/29/1
f 39/1/2 37/3/2 40/2/2
f 39/1/2 38/4/2 37/3/2
f 43/5/2 45/7/2 44/6/2
f 49/8/2 51/10/2 50/9/2
f 43/5/2 46/11/2 45/7/2
f 48/12/2 51/10/2 49/8/2
f 43/5/2 47/13/2 46/11/2
f 52/14/2 51/10/2 48/12/2
f 54/15/2 41/17/2 55/16/2
f 53/18/2 41/17/2 54/15/2
f 53/18/2 42/19/2 41/17/2
f 59/20/2 56/22/2 60/21/2
f 59/20/2 57/23/2 56/22/2
f 58/24/2 57/23/2 59/20/2
f 31/25/2 33/27/2 32/26/2
f 36/28/2 33/27/2 31/25/2
f 36/28/2 34/29/2 33/27/2
f 35/30/2 34/29/2 36/28/2
f 4/29/3 3/27/3 33/27/3 34/29/3
f 15/13/4 14/11/4 46/11/4 47/13/4
f 16/12/5 20/14/5 52/14/5 48/12/5
f 5/30/6 4/29/6 34/29/6 35/30/6
f 13/7/7 12/6/7 44/6/7 45/7/7
f 1/25/8 6/28/8 36/28/8 31/25/8
f 6/28/9 5/30/9 35/30/9 36/28/9
f 8/4/10 7/3/10 37/3/10 38/4/10
f 26/22/11 30/21/11 60/21/11 56/22/11
f 25/16/12 24/15/12 54/15/12 55/16/12
f 10/2/13 9/1/13 39/1/13 40/2/13
f 21/17/14 25/16/14 55/16/14 41/17/14
f 22/19/15 21/17/15 41/17/15 42/19/15
f 7/3/16 10/2/16 40/2/16 37/3/16
f 27/23/17 26/22/17 56/22/17 57/23/17
f 12/6/18 11/5/18 43/5/18 44/6/18
f 3/27/19 2/26/19 32/26/19 33/27/19
f 28/24/20 27/23/20 57/23/20 58/24/20
f 9/1/21 8/4/21 38/4/21 39/1/21
f 19/10/22 18/9/22 50/9/22 51/10/22
f 30/21/23 29/20/23 59/20/23 60/21/23
f 11/5/24 15/13/24 47/13/24 43/5/24
f 29/20/25 28/24/25 58/24/25 59/20/25
f 14/11/26 13/7/26 45/7/26 46/11/26
f 17/8/27 16/12/27 48/12/27 49/8/27
f 20/14/28 19/10/28 51/10/28 52/14/28
f 2/26/29 1/25/29 31/25/29 32/26/29
f 24/15/30 23/18/30 53/18/30 54/15/30
f 18/9/31 17/8/31 49/8/31 50/9/31
f 23/18/32 22/19/32 42/19/32 53/18/32
