{
	"asset":{
		"generator":"Khronos glTF Blender I/O v4.2.57",
		"version":"2.0"
	},
	"scene":0,
	"scenes":[
		{
			"name":"Scene",
			"nodes":[
				7
			]
		}
	],
	"nodes":[
		{
			"name":"\u30dc\u30fc\u30f3.001",
			"rotation":[
				-0.028072794899344444,
				-1.7143091213256412e-07,
				1.2857317699399573e-07,
				0.9996058940887451
			],
			"translation":[
				4.768538475036621,
				0.1434991955757141,
				0.09330102801322937
			]
		},
		{
			"name":"\u30dc\u30fc\u30f3.002",
			"rotation":[
				-0.028072820976376534,
				-4.658448560235229e-08,
				-1.295048690508338e-07,
				0.9996058940887451
			],
			"scale":[
				1,
				1.0000001192092896,
				1
			],
			"translation":[
				7.532678604125977,
				0.09915518760681152,
				0.09330075979232788
			]
		},
		{
			"name":"\u30dc\u30fc\u30f3.003",
			"rotation":[
				-1.3224780559539795e-07,
				3.520399332046509e-07,
				2.6635825634002686e-07,
				1
			],
			"translation":[
				11.527244567871094,
				-0.019094645977020264,
				-0.007898926734924316
			]
		},
		{
			"name":"\u30dc\u30fc\u30f3.004",
			"rotation":[
				9.313224857976365e-09,
				3.6694109439849854e-07,
				2.6635825634002686e-07,
				1
			],
			"scale":[
				1,
				1.0000001192092896,
				1
			],
			"translation":[
				14.047439575195312,
				0.0991629958152771,
				-0.007899284362792969
			]
		},
		{
			"name":"\u30dc\u30fc\u30f3.005",
			"rotation":[
				-9.313230187046884e-10,
				4.470348358154297e-07,
				5.243346095085144e-07,
				1
			],
			"scale":[
				1,
				1.0000001192092896,
				1
			],
			"translation":[
				16.948135375976562,
				0.010470390319824219,
				-0.00789952278137207
			]
		},
		{
			"children":[
				0,
				1,
				2,
				3,
				4
			],
			"name":"\u30dc\u30fc\u30f3",
			"rotation":[
				-0.2110341340303421,
				-0.06523791700601578,
				0.5835551619529724,
				0.7814550399780273
			]
		},
		{
			"mesh":0,
			"name":"\u5e73\u9762",
			"skin":0
		},
		{
			"children":[
				6,
				5
			],
			"name":"\u30a2\u30fc\u30de\u30c1\u30e5\u30a2"
		}
	],
	"animations":[
		{
			"channels":[
				{
					"sampler":0,
					"target":{
						"node":5,
						"path":"translation"
					}
				},
				{
					"sampler":1,
					"target":{
						"node":5,
						"path":"rotation"
					}
				},
				{
					"sampler":2,
					"target":{
						"node":5,
						"path":"scale"
					}
				},
				{
					"sampler":3,
					"target":{
						"node":0,
						"path":"translation"
					}
				},
				{
					"sampler":4,
					"target":{
						"node":0,
						"path":"rotation"
					}
				},
				{
					"sampler":5,
					"target":{
						"node":0,
						"path":"scale"
					}
				},
				{
					"sampler":6,
					"target":{
						"node":1,
						"path":"translation"
					}
				},
				{
					"sampler":7,
					"target":{
						"node":1,
						"path":"rotation"
					}
				},
				{
					"sampler":8,
					"target":{
						"node":1,
						"path":"scale"
					}
				},
				{
					"sampler":9,
					"target":{
						"node":2,
						"path":"translation"
					}
				},
				{
					"sampler":10,
					"target":{
						"node":2,
						"path":"rotation"
					}
				},
				{
					"sampler":11,
					"target":{
						"node":2,
						"path":"scale"
					}
				},
				{
					"sampler":12,
					"target":{
						"node":3,
						"path":"translation"
					}
				},
				{
					"sampler":13,
					"target":{
						"node":3,
						"path":"rotation"
					}
				},
				{
					"sampler":14,
					"target":{
						"node":3,
						"path":"scale"
					}
				},
				{
					"sampler":15,
					"target":{
						"node":4,
						"path":"translation"
					}
				},
				{
					"sampler":16,
					"target":{
						"node":4,
						"path":"rotation"
					}
				},
				{
					"sampler":17,
					"target":{
						"node":4,
						"path":"scale"
					}
				}
			],
			"name":"\u30a2\u30fc\u30de\u30c1\u30e5\u30a2\u30a2\u30af\u30b7\u30e7\u30f3",
			"samplers":[
				{
					"input":7,
					"interpolation":"LINEAR",
					"output":8
				},
				{
					"input":7,
					"interpolation":"LINEAR",
					"output":9
				},
				{
					"input":10,
					"interpolation":"STEP",
					"output":11
				},
				{
					"input":7,
					"interpolation":"LINEAR",
					"output":12
				},
				{
					"input":7,
					"interpolation":"LINEAR",
					"output":13
				},
				{
					"input":7,
					"interpolation":"LINEAR",
					"output":14
				},
				{
					"input":7,
					"interpolation":"LINEAR",
					"output":15
				},
				{
					"input":7,
					"interpolation":"LINEAR",
					"output":16
				},
				{
					"input":7,
					"interpolation":"LINEAR",
					"output":17
				},
				{
					"input":7,
					"interpolation":"LINEAR",
					"output":18
				},
				{
					"input":7,
					"interpolation":"LINEAR",
					"output":19
				},
				{
					"input":7,
					"interpolation":"LINEAR",
					"output":20
				},
				{
					"input":7,
					"interpolation":"LINEAR",
					"output":21
				},
				{
					"input":7,
					"interpolation":"LINEAR",
					"output":22
				},
				{
					"input":7,
					"interpolation":"LINEAR",
					"output":23
				},
				{
					"input":7,
					"interpolation":"LINEAR",
					"output":24
				},
				{
					"input":7,
					"interpolation":"LINEAR",
					"output":25
				},
				{
					"input":7,
					"interpolation":"LINEAR",
					"output":26
				}
			]
		}
	],
	"materials":[
		{
			"alphaMode":"BLEND",
			"doubleSided":true,
			"name":"\u30de\u30c6\u30ea\u30a2\u30eb",
			"pbrMetallicRoughness":{
				"baseColorTexture":{
					"index":0
				},
				"metallicFactor":0,
				"roughnessFactor":0.5
			}
		}
	],
	"meshes":[
		{
			"name":"\u5e73\u9762",
			"primitives":[
				{
					"attributes":{
						"POSITION":0,
						"NORMAL":1,
						"TEXCOORD_0":2,
						"JOINTS_0":3,
						"WEIGHTS_0":4
					},
					"indices":5,
					"material":0
				}
			]
		}
	],
	"textures":[
		{
			"sampler":0,
			"source":0
		}
	],
	"images":[
		{
			"mimeType":"image/png",
			"name":"JumpEffect",
			"uri":"JumpEffect.png"
		}
	],
	"skins":[
		{
			"inverseBindMatrices":6,
			"joints":[
				5,
				0,
				1,
				2,
				3,
				4
			],
			"name":"\u30a2\u30fc\u30de\u30c1\u30e5\u30a2"
		}
	],
	"accessors":[
		{
			"bufferView":0,
			"componentType":5126,
			"count":15,
			"max":[
				5.646033763885498,
				16.714550018310547,
				-0.5446967482566833
			],
			"min":[
				-0.6149089932441711,
				3.5326576232910156,
				-3.331738233566284
			],
			"type":"VEC3"
		},
		{
			"bufferView":1,
			"componentType":5126,
			"count":15,
			"type":"VEC3"
		},
		{
			"bufferView":2,
			"componentType":5126,
			"count":15,
			"type":"VEC2"
		},
		{
			"bufferView":3,
			"componentType":5121,
			"count":15,
			"type":"VEC4"
		},
		{
			"bufferView":4,
			"componentType":5126,
			"count":15,
			"type":"VEC4"
		},
		{
			"bufferView":5,
			"componentType":5123,
			"count":15,
			"type":"SCALAR"
		},
		{
			"bufferView":6,
			"componentType":5126,
			"count":6,
			"type":"MAT4"
		},
		{
			"bufferView":7,
			"componentType":5126,
			"count":41,
			"max":[
				0.6666666666666666
			],
			"min":[
				0
			],
			"type":"SCALAR"
		},
		{
			"bufferView":8,
			"componentType":5126,
			"count":41,
			"type":"VEC3"
		},
		{
			"bufferView":9,
			"componentType":5126,
			"count":41,
			"type":"VEC4"
		},
		{
			"bufferView":10,
			"componentType":5126,
			"count":2,
			"max":[
				0.6666666666666666
			],
			"min":[
				0
			],
			"type":"SCALAR"
		},
		{
			"bufferView":11,
			"componentType":5126,
			"count":2,
			"type":"VEC3"
		},
		{
			"bufferView":12,
			"componentType":5126,
			"count":41,
			"type":"VEC3"
		},
		{
			"bufferView":13,
			"componentType":5126,
			"count":41,
			"type":"VEC4"
		},
		{
			"bufferView":14,
			"componentType":5126,
			"count":41,
			"type":"VEC3"
		},
		{
			"bufferView":15,
			"componentType":5126,
			"count":41,
			"type":"VEC3"
		},
		{
			"bufferView":16,
			"componentType":5126,
			"count":41,
			"type":"VEC4"
		},
		{
			"bufferView":17,
			"componentType":5126,
			"count":41,
			"type":"VEC3"
		},
		{
			"bufferView":18,
			"componentType":5126,
			"count":41,
			"type":"VEC3"
		},
		{
			"bufferView":19,
			"componentType":5126,
			"count":41,
			"type":"VEC4"
		},
		{
			"bufferView":20,
			"componentType":5126,
			"count":41,
			"type":"VEC3"
		},
		{
			"bufferView":21,
			"componentType":5126,
			"count":41,
			"type":"VEC3"
		},
		{
			"bufferView":22,
			"componentType":5126,
			"count":41,
			"type":"VEC4"
		},
		{
			"bufferView":23,
			"componentType":5126,
			"count":41,
			"type":"VEC3"
		},
		{
			"bufferView":24,
			"componentType":5126,
			"count":41,
			"type":"VEC3"
		},
		{
			"bufferView":25,
			"componentType":5126,
			"count":41,
			"type":"VEC4"
		},
		{
			"bufferView":26,
			"componentType":5126,
			"count":41,
			"type":"VEC3"
		}
	],
	"bufferViews":[
		{
			"buffer":0,
			"byteLength":180,
			"byteOffset":0,
			"target":34962
		},
		{
			"buffer":0,
			"byteLength":180,
			"byteOffset":180,
			"target":34962
		},
		{
			"buffer":0,
			"byteLength":120,
			"byteOffset":360,
			"target":34962
		},
		{
			"buffer":0,
			"byteLength":60,
			"byteOffset":480,
			"target":34962
		},
		{
			"buffer":0,
			"byteLength":240,
			"byteOffset":540,
			"target":34962
		},
		{
			"buffer":0,
			"byteLength":30,
			"byteOffset":780,
			"target":34963
		},
		{
			"buffer":0,
			"byteLength":384,
			"byteOffset":812
		},
		{
			"buffer":0,
			"byteLength":164,
			"byteOffset":1196
		},
		{
			"buffer":0,
			"byteLength":492,
			"byteOffset":1360
		},
		{
			"buffer":0,
			"byteLength":656,
			"byteOffset":1852
		},
		{
			"buffer":0,
			"byteLength":8,
			"byteOffset":2508
		},
		{
			"buffer":0,
			"byteLength":24,
			"byteOffset":2516
		},
		{
			"buffer":0,
			"byteLength":492,
			"byteOffset":2540
		},
		{
			"buffer":0,
			"byteLength":656,
			"byteOffset":3032
		},
		{
			"buffer":0,
			"byteLength":492,
			"byteOffset":3688
		},
		{
			"buffer":0,
			"byteLength":492,
			"byteOffset":4180
		},
		{
			"buffer":0,
			"byteLength":656,
			"byteOffset":4672
		},
		{
			"buffer":0,
			"byteLength":492,
			"byteOffset":5328
		},
		{
			"buffer":0,
			"byteLength":492,
			"byteOffset":5820
		},
		{
			"buffer":0,
			"byteLength":656,
			"byteOffset":6312
		},
		{
			"buffer":0,
			"byteLength":492,
			"byteOffset":6968
		},
		{
			"buffer":0,
			"byteLength":492,
			"byteOffset":7460
		},
		{
			"buffer":0,
			"byteLength":656,
			"byteOffset":7952
		},
		{
			"buffer":0,
			"byteLength":492,
			"byteOffset":8608
		},
		{
			"buffer":0,
			"byteLength":492,
			"byteOffset":9100
		},
		{
			"buffer":0,
			"byteLength":656,
			"byteOffset":9592
		},
		{
			"buffer":0,
			"byteLength":492,
			"byteOffset":10248
		}
	],
	"samplers":[
		{
			"magFilter":9729,
			"minFilter":9987
		}
	],
	"buffers":[
		{
			"byteLength":10740,
			"uri":"JumpEffect.bin"
		}
	]
}
