{
	"asset":{
		"generator":"Khronos glTF Blender I/O v4.2.57",
		"version":"2.0"
	},
	"scene":0,
	"scenes":[
		{
			"name":"Scene",
			"nodes":[
				7
			]
		}
	],
	"nodes":[
		{
			"name":"\u30dc\u30fc\u30f3.001",
			"rotation":[
				-0.028072765097022057,
				9.31690169458932e-10,
				-2.3292245909800613e-09,
				0.9996059536933899
			],
			"scale":[
				1,
				0.9999999403953552,
				0.9999999403953552
			],
			"translation":[
				4.768537521362305,
				0.1434992402791977,
				0.09330083429813385
			]
		},
		{
			"name":"\u30dc\u30fc\u30f3.002",
			"rotation":[
				-0.028072791174054146,
				9.31689725369722e-10,
				-2.7950690650868637e-09,
				0.9996058940887451
			],
			"translation":[
				7.532678127288818,
				0.09915580600500107,
				0.09330089390277863
			]
		},
		{
			"name":"\u30dc\u30fc\u30f3.003",
			"rotation":[
				5.960464477539063e-08,
				1.862645149230957e-09,
				2.668239176273346e-07,
				1
			],
			"scale":[
				0.9999999403953552,
				1,
				1
			],
			"translation":[
				11.527243614196777,
				-0.019094347953796387,
				-0.00789940357208252
			]
		},
		{
			"name":"\u30dc\u30fc\u30f3.004",
			"rotation":[
				2.3283067918100642e-08,
				2.7939681679356454e-09,
				1.6298147276216923e-09,
				1
			],
			"scale":[
				1,
				0.9999998807907104,
				0.9999999403953552
			],
			"translation":[
				14.047438621520996,
				0.09916381537914276,
				-0.007899224758148193
			]
		},
		{
			"name":"\u30dc\u30fc\u30f3.005",
			"rotation":[
				-7.450581485102248e-09,
				1.1734665861240501e-07,
				-8.149073416063857e-09,
				1
			],
			"scale":[
				0.9999999403953552,
				1,
				0.9999999403953552
			],
			"translation":[
				16.94813346862793,
				0.010470196604728699,
				-0.007899641990661621
			]
		},
		{
			"children":[
				0,
				1,
				2,
				3,
				4
			],
			"name":"\u30dc\u30fc\u30f3",
			"rotation":[
				-0.1871919482946396,
				0.04875801131129265,
				-0.15068016946315765,
				0.9694727063179016
			]
		},
		{
			"mesh":0,
			"name":"\u5e73\u9762",
			"skin":0
		},
		{
			"children":[
				6,
				5
			],
			"name":"\u30a2\u30fc\u30de\u30c1\u30e5\u30a2"
		}
	],
	"animations":[
		{
			"channels":[
				{
					"sampler":0,
					"target":{
						"node":5,
						"path":"translation"
					}
				},
				{
					"sampler":1,
					"target":{
						"node":5,
						"path":"rotation"
					}
				},
				{
					"sampler":2,
					"target":{
						"node":5,
						"path":"scale"
					}
				},
				{
					"sampler":3,
					"target":{
						"node":0,
						"path":"translation"
					}
				},
				{
					"sampler":4,
					"target":{
						"node":0,
						"path":"rotation"
					}
				},
				{
					"sampler":5,
					"target":{
						"node":0,
						"path":"scale"
					}
				},
				{
					"sampler":6,
					"target":{
						"node":1,
						"path":"translation"
					}
				},
				{
					"sampler":7,
					"target":{
						"node":1,
						"path":"rotation"
					}
				},
				{
					"sampler":8,
					"target":{
						"node":1,
						"path":"scale"
					}
				},
				{
					"sampler":9,
					"target":{
						"node":2,
						"path":"translation"
					}
				},
				{
					"sampler":10,
					"target":{
						"node":2,
						"path":"rotation"
					}
				},
				{
					"sampler":11,
					"target":{
						"node":2,
						"path":"scale"
					}
				},
				{
					"sampler":12,
					"target":{
						"node":3,
						"path":"translation"
					}
				},
				{
					"sampler":13,
					"target":{
						"node":3,
						"path":"rotation"
					}
				},
				{
					"sampler":14,
					"target":{
						"node":3,
						"path":"scale"
					}
				},
				{
					"sampler":15,
					"target":{
						"node":4,
						"path":"translation"
					}
				},
				{
					"sampler":16,
					"target":{
						"node":4,
						"path":"rotation"
					}
				},
				{
					"sampler":17,
					"target":{
						"node":4,
						"path":"scale"
					}
				}
			],
			"name":"\u30a2\u30fc\u30de\u30c1\u30e5\u30a2\u30a2\u30af\u30b7\u30e7\u30f3",
			"samplers":[
				{
					"input":7,
					"interpolation":"LINEAR",
					"output":8
				},
				{
					"input":7,
					"interpolation":"LINEAR",
					"output":9
				},
				{
					"input":10,
					"interpolation":"STEP",
					"output":11
				},
				{
					"input":7,
					"interpolation":"LINEAR",
					"output":12
				},
				{
					"input":7,
					"interpolation":"LINEAR",
					"output":13
				},
				{
					"input":7,
					"interpolation":"LINEAR",
					"output":14
				},
				{
					"input":7,
					"interpolation":"LINEAR",
					"output":15
				},
				{
					"input":7,
					"interpolation":"LINEAR",
					"output":16
				},
				{
					"input":7,
					"interpolation":"LINEAR",
					"output":17
				},
				{
					"input":7,
					"interpolation":"LINEAR",
					"output":18
				},
				{
					"input":7,
					"interpolation":"LINEAR",
					"output":19
				},
				{
					"input":7,
					"interpolation":"LINEAR",
					"output":20
				},
				{
					"input":7,
					"interpolation":"LINEAR",
					"output":21
				},
				{
					"input":7,
					"interpolation":"LINEAR",
					"output":22
				},
				{
					"input":7,
					"interpolation":"LINEAR",
					"output":23
				},
				{
					"input":7,
					"interpolation":"LINEAR",
					"output":24
				},
				{
					"input":7,
					"interpolation":"LINEAR",
					"output":25
				},
				{
					"input":7,
					"interpolation":"LINEAR",
					"output":26
				}
			]
		}
	],
	"materials":[
		{
			"alphaMode":"BLEND",
			"doubleSided":true,
			"name":"\u30de\u30c6\u30ea\u30a2\u30eb",
			"pbrMetallicRoughness":{
				"baseColorTexture":{
					"index":0
				},
				"metallicFactor":0,
				"roughnessFactor":0.5
			}
		}
	],
	"meshes":[
		{
			"name":"\u5e73\u9762",
			"primitives":[
				{
					"attributes":{
						"POSITION":0,
						"NORMAL":1,
						"TEXCOORD_0":2,
						"JOINTS_0":3,
						"WEIGHTS_0":4
					},
					"indices":5,
					"material":0
				}
			]
		}
	],
	"textures":[
		{
			"sampler":0,
			"source":0
		}
	],
	"images":[
		{
			"mimeType":"image/png",
			"name":"JumpEffect",
			"uri":"JumpEffect.png"
		}
	],
	"skins":[
		{
			"inverseBindMatrices":6,
			"joints":[
				5,
				0,
				1,
				2,
				3,
				4
			],
			"name":"\u30a2\u30fc\u30de\u30c1\u30e5\u30a2"
		}
	],
	"accessors":[
		{
			"bufferView":0,
			"componentType":5126,
			"count":15,
			"max":[
				16.892230987548828,
				0.6149086952209473,
				-0.14534422755241394
			],
			"min":[
				3.57144832611084,
				-5.646035671234131,
				-1.4818673133850098
			],
			"type":"VEC3"
		},
		{
			"bufferView":1,
			"componentType":5126,
			"count":15,
			"type":"VEC3"
		},
		{
			"bufferView":2,
			"componentType":5126,
			"count":15,
			"type":"VEC2"
		},
		{
			"bufferView":3,
			"componentType":5121,
			"count":15,
			"type":"VEC4"
		},
		{
			"bufferView":4,
			"componentType":5126,
			"count":15,
			"type":"VEC4"
		},
		{
			"bufferView":5,
			"componentType":5123,
			"count":15,
			"type":"SCALAR"
		},
		{
			"bufferView":6,
			"componentType":5126,
			"count":6,
			"type":"MAT4"
		},
		{
			"bufferView":7,
			"componentType":5126,
			"count":41,
			"max":[
				0.6666666666666666
			],
			"min":[
				0
			],
			"type":"SCALAR"
		},
		{
			"bufferView":8,
			"componentType":5126,
			"count":41,
			"type":"VEC3"
		},
		{
			"bufferView":9,
			"componentType":5126,
			"count":41,
			"type":"VEC4"
		},
		{
			"bufferView":10,
			"componentType":5126,
			"count":2,
			"max":[
				0.6666666666666666
			],
			"min":[
				0
			],
			"type":"SCALAR"
		},
		{
			"bufferView":11,
			"componentType":5126,
			"count":2,
			"type":"VEC3"
		},
		{
			"bufferView":12,
			"componentType":5126,
			"count":41,
			"type":"VEC3"
		},
		{
			"bufferView":13,
			"componentType":5126,
			"count":41,
			"type":"VEC4"
		},
		{
			"bufferView":14,
			"componentType":5126,
			"count":41,
			"type":"VEC3"
		},
		{
			"bufferView":15,
			"componentType":5126,
			"count":41,
			"type":"VEC3"
		},
		{
			"bufferView":16,
			"componentType":5126,
			"count":41,
			"type":"VEC4"
		},
		{
			"bufferView":17,
			"componentType":5126,
			"count":41,
			"type":"VEC3"
		},
		{
			"bufferView":18,
			"componentType":5126,
			"count":41,
			"type":"VEC3"
		},
		{
			"bufferView":19,
			"componentType":5126,
			"count":41,
			"type":"VEC4"
		},
		{
			"bufferView":20,
			"componentType":5126,
			"count":41,
			"type":"VEC3"
		},
		{
			"bufferView":21,
			"componentType":5126,
			"count":41,
			"type":"VEC3"
		},
		{
			"bufferView":22,
			"componentType":5126,
			"count":41,
			"type":"VEC4"
		},
		{
			"bufferView":23,
			"componentType":5126,
			"count":41,
			"type":"VEC3"
		},
		{
			"bufferView":24,
			"componentType":5126,
			"count":41,
			"type":"VEC3"
		},
		{
			"bufferView":25,
			"componentType":5126,
			"count":41,
			"type":"VEC4"
		},
		{
			"bufferView":26,
			"componentType":5126,
			"count":41,
			"type":"VEC3"
		}
	],
	"bufferViews":[
		{
			"buffer":0,
			"byteLength":180,
			"byteOffset":0,
			"target":34962
		},
		{
			"buffer":0,
			"byteLength":180,
			"byteOffset":180,
			"target":34962
		},
		{
			"buffer":0,
			"byteLength":120,
			"byteOffset":360,
			"target":34962
		},
		{
			"buffer":0,
			"byteLength":60,
			"byteOffset":480,
			"target":34962
		},
		{
			"buffer":0,
			"byteLength":240,
			"byteOffset":540,
			"target":34962
		},
		{
			"buffer":0,
			"byteLength":30,
			"byteOffset":780,
			"target":34963
		},
		{
			"buffer":0,
			"byteLength":384,
			"byteOffset":812
		},
		{
			"buffer":0,
			"byteLength":164,
			"byteOffset":1196
		},
		{
			"buffer":0,
			"byteLength":492,
			"byteOffset":1360
		},
		{
			"buffer":0,
			"byteLength":656,
			"byteOffset":1852
		},
		{
			"buffer":0,
			"byteLength":8,
			"byteOffset":2508
		},
		{
			"buffer":0,
			"byteLength":24,
			"byteOffset":2516
		},
		{
			"buffer":0,
			"byteLength":492,
			"byteOffset":2540
		},
		{
			"buffer":0,
			"byteLength":656,
			"byteOffset":3032
		},
		{
			"buffer":0,
			"byteLength":492,
			"byteOffset":3688
		},
		{
			"buffer":0,
			"byteLength":492,
			"byteOffset":4180
		},
		{
			"buffer":0,
			"byteLength":656,
			"byteOffset":4672
		},
		{
			"buffer":0,
			"byteLength":492,
			"byteOffset":5328
		},
		{
			"buffer":0,
			"byteLength":492,
			"byteOffset":5820
		},
		{
			"buffer":0,
			"byteLength":656,
			"byteOffset":6312
		},
		{
			"buffer":0,
			"byteLength":492,
			"byteOffset":6968
		},
		{
			"buffer":0,
			"byteLength":492,
			"byteOffset":7460
		},
		{
			"buffer":0,
			"byteLength":656,
			"byteOffset":7952
		},
		{
			"buffer":0,
			"byteLength":492,
			"byteOffset":8608
		},
		{
			"buffer":0,
			"byteLength":492,
			"byteOffset":9100
		},
		{
			"buffer":0,
			"byteLength":656,
			"byteOffset":9592
		},
		{
			"buffer":0,
			"byteLength":492,
			"byteOffset":10248
		}
	],
	"samplers":[
		{
			"magFilter":9729,
			"minFilter":9987
		}
	],
	"buffers":[
		{
			"byteLength":10740,
			"uri":"JumpEffect.bin"
		}
	]
}
