{
	"asset":{
		"generator":"Khronos glTF Blender I/O v4.2.70",
		"version":"2.0"
	},
	"scene":0,
	"scenes":[
		{
			"name":"Scene",
			"nodes":[
				7
			]
		}
	],
	"nodes":[
		{
			"name":"\u30dc\u30fc\u30f3.001",
			"rotation":[
				-0.028072761371731758,
				0,
				0,
				0.9996058940887451
			],
			"scale":[
				1,
				1,
				0.9999999403953552
			],
			"translation":[
				4.768537998199463,
				0.14349931478500366,
				0.09330093115568161
			]
		},
		{
			"name":"\u30dc\u30fc\u30f3.002",
			"rotation":[
				-0.028072761371731758,
				0,
				0,
				0.9996058940887451
			],
			"scale":[
				1,
				1,
				0.9999999403953552
			],
			"translation":[
				7.532678604125977,
				0.0991557240486145,
				0.09330093115568161
			]
		},
		{
			"name":"\u30dc\u30fc\u30f3.003",
			"translation":[
				11.527243614196777,
				-0.019094347953796387,
				-0.007899291813373566
			]
		},
		{
			"name":"\u30dc\u30fc\u30f3.004",
			"translation":[
				14.047438621520996,
				0.09916329383850098,
				-0.007899291813373566
			]
		},
		{
			"name":"\u30dc\u30fc\u30f3.005",
			"rotation":[
				0,
				1.1920928955078125e-07,
				0,
				1
			],
			"translation":[
				16.94813346862793,
				0.01047062873840332,
				-0.007899291813373566
			]
		},
		{
			"children":[
				0,
				1,
				2,
				3,
				4
			],
			"name":"\u30dc\u30fc\u30f3"
		},
		{
			"mesh":0,
			"name":"\u5e73\u9762",
			"skin":0
		},
		{
			"children":[
				6,
				5
			],
			"name":"\u30a2\u30fc\u30de\u30c1\u30e5\u30a2"
		}
	],
	"animations":[
		{
			"channels":[
				{
					"sampler":0,
					"target":{
						"node":5,
						"path":"translation"
					}
				},
				{
					"sampler":1,
					"target":{
						"node":5,
						"path":"rotation"
					}
				},
				{
					"sampler":2,
					"target":{
						"node":5,
						"path":"scale"
					}
				},
				{
					"sampler":3,
					"target":{
						"node":0,
						"path":"translation"
					}
				},
				{
					"sampler":4,
					"target":{
						"node":0,
						"path":"rotation"
					}
				},
				{
					"sampler":5,
					"target":{
						"node":0,
						"path":"scale"
					}
				},
				{
					"sampler":6,
					"target":{
						"node":1,
						"path":"translation"
					}
				},
				{
					"sampler":7,
					"target":{
						"node":1,
						"path":"rotation"
					}
				},
				{
					"sampler":8,
					"target":{
						"node":1,
						"path":"scale"
					}
				},
				{
					"sampler":9,
					"target":{
						"node":2,
						"path":"translation"
					}
				},
				{
					"sampler":10,
					"target":{
						"node":2,
						"path":"rotation"
					}
				},
				{
					"sampler":11,
					"target":{
						"node":2,
						"path":"scale"
					}
				},
				{
					"sampler":12,
					"target":{
						"node":3,
						"path":"translation"
					}
				},
				{
					"sampler":13,
					"target":{
						"node":3,
						"path":"rotation"
					}
				},
				{
					"sampler":14,
					"target":{
						"node":3,
						"path":"scale"
					}
				},
				{
					"sampler":15,
					"target":{
						"node":4,
						"path":"translation"
					}
				},
				{
					"sampler":16,
					"target":{
						"node":4,
						"path":"rotation"
					}
				},
				{
					"sampler":17,
					"target":{
						"node":4,
						"path":"scale"
					}
				}
			],
			"name":"\u30a2\u30fc\u30de\u30c1\u30e5\u30a2\u30a2\u30af\u30b7\u30e7\u30f3",
			"samplers":[
				{
					"input":7,
					"interpolation":"STEP",
					"output":8
				},
				{
					"input":9,
					"interpolation":"LINEAR",
					"output":10
				},
				{
					"input":7,
					"interpolation":"LINEAR",
					"output":11
				},
				{
					"input":9,
					"interpolation":"LINEAR",
					"output":12
				},
				{
					"input":9,
					"interpolation":"LINEAR",
					"output":13
				},
				{
					"input":9,
					"interpolation":"LINEAR",
					"output":14
				},
				{
					"input":9,
					"interpolation":"LINEAR",
					"output":15
				},
				{
					"input":9,
					"interpolation":"LINEAR",
					"output":16
				},
				{
					"input":9,
					"interpolation":"LINEAR",
					"output":17
				},
				{
					"input":9,
					"interpolation":"LINEAR",
					"output":18
				},
				{
					"input":9,
					"interpolation":"LINEAR",
					"output":19
				},
				{
					"input":9,
					"interpolation":"LINEAR",
					"output":20
				},
				{
					"input":9,
					"interpolation":"LINEAR",
					"output":21
				},
				{
					"input":9,
					"interpolation":"LINEAR",
					"output":22
				},
				{
					"input":9,
					"interpolation":"LINEAR",
					"output":23
				},
				{
					"input":9,
					"interpolation":"LINEAR",
					"output":24
				},
				{
					"input":9,
					"interpolation":"LINEAR",
					"output":25
				},
				{
					"input":9,
					"interpolation":"LINEAR",
					"output":26
				}
			]
		}
	],
	"materials":[
		{
			"alphaMode":"BLEND",
			"doubleSided":true,
			"name":"\u30de\u30c6\u30ea\u30a2\u30eb",
			"pbrMetallicRoughness":{
				"baseColorTexture":{
					"index":0
				},
				"metallicFactor":0,
				"roughnessFactor":0.5
			}
		}
	],
	"meshes":[
		{
			"name":"\u5e73\u9762",
			"primitives":[
				{
					"attributes":{
						"POSITION":0,
						"NORMAL":1,
						"TEXCOORD_0":2,
						"JOINTS_0":3,
						"WEIGHTS_0":4
					},
					"indices":5,
					"material":0
				}
			]
		}
	],
	"textures":[
		{
			"sampler":0,
			"source":0
		}
	],
	"images":[
		{
			"mimeType":"image/png",
			"name":"JumpEffect",
			"uri":"JumpEffect.png"
		}
	],
	"skins":[
		{
			"inverseBindMatrices":6,
			"joints":[
				5,
				0,
				1,
				2,
				3,
				4
			],
			"name":"\u30a2\u30fc\u30de\u30c1\u30e5\u30a2"
		}
	],
	"accessors":[
		{
			"bufferView":0,
			"componentType":5126,
			"count":15,
			"max":[
				17.82170867919922,
				2.3626270294189453,
				0.0064724525436758995
			],
			"min":[
				3.7585067749023438,
				-0.14589816331863403,
				-0.004592873156070709
			],
			"type":"VEC3"
		},
		{
			"bufferView":1,
			"componentType":5126,
			"count":15,
			"type":"VEC3"
		},
		{
			"bufferView":2,
			"componentType":5126,
			"count":15,
			"type":"VEC2"
		},
		{
			"bufferView":3,
			"componentType":5121,
			"count":15,
			"type":"VEC4"
		},
		{
			"bufferView":4,
			"componentType":5126,
			"count":15,
			"type":"VEC4"
		},
		{
			"bufferView":5,
			"componentType":5123,
			"count":15,
			"type":"SCALAR"
		},
		{
			"bufferView":6,
			"componentType":5126,
			"count":6,
			"type":"MAT4"
		},
		{
			"bufferView":7,
			"componentType":5126,
			"count":2,
			"max":[
				1.3333333333333333
			],
			"min":[
				0
			],
			"type":"SCALAR"
		},
		{
			"bufferView":8,
			"componentType":5126,
			"count":2,
			"type":"VEC3"
		},
		{
			"bufferView":9,
			"componentType":5126,
			"count":81,
			"max":[
				1.3333333333333333
			],
			"min":[
				0
			],
			"type":"SCALAR"
		},
		{
			"bufferView":10,
			"componentType":5126,
			"count":81,
			"type":"VEC4"
		},
		{
			"bufferView":11,
			"componentType":5126,
			"count":2,
			"type":"VEC3"
		},
		{
			"bufferView":12,
			"componentType":5126,
			"count":81,
			"type":"VEC3"
		},
		{
			"bufferView":13,
			"componentType":5126,
			"count":81,
			"type":"VEC4"
		},
		{
			"bufferView":14,
			"componentType":5126,
			"count":81,
			"type":"VEC3"
		},
		{
			"bufferView":15,
			"componentType":5126,
			"count":81,
			"type":"VEC3"
		},
		{
			"bufferView":16,
			"componentType":5126,
			"count":81,
			"type":"VEC4"
		},
		{
			"bufferView":17,
			"componentType":5126,
			"count":81,
			"type":"VEC3"
		},
		{
			"bufferView":18,
			"componentType":5126,
			"count":81,
			"type":"VEC3"
		},
		{
			"bufferView":19,
			"componentType":5126,
			"count":81,
			"type":"VEC4"
		},
		{
			"bufferView":20,
			"componentType":5126,
			"count":81,
			"type":"VEC3"
		},
		{
			"bufferView":21,
			"componentType":5126,
			"count":81,
			"type":"VEC3"
		},
		{
			"bufferView":22,
			"componentType":5126,
			"count":81,
			"type":"VEC4"
		},
		{
			"bufferView":23,
			"componentType":5126,
			"count":81,
			"type":"VEC3"
		},
		{
			"bufferView":24,
			"componentType":5126,
			"count":81,
			"type":"VEC3"
		},
		{
			"bufferView":25,
			"componentType":5126,
			"count":81,
			"type":"VEC4"
		},
		{
			"bufferView":26,
			"componentType":5126,
			"count":81,
			"type":"VEC3"
		}
	],
	"bufferViews":[
		{
			"buffer":0,
			"byteLength":180,
			"byteOffset":0,
			"target":34962
		},
		{
			"buffer":0,
			"byteLength":180,
			"byteOffset":180,
			"target":34962
		},
		{
			"buffer":0,
			"byteLength":120,
			"byteOffset":360,
			"target":34962
		},
		{
			"buffer":0,
			"byteLength":60,
			"byteOffset":480,
			"target":34962
		},
		{
			"buffer":0,
			"byteLength":240,
			"byteOffset":540,
			"target":34962
		},
		{
			"buffer":0,
			"byteLength":30,
			"byteOffset":780,
			"target":34963
		},
		{
			"buffer":0,
			"byteLength":384,
			"byteOffset":812
		},
		{
			"buffer":0,
			"byteLength":8,
			"byteOffset":1196
		},
		{
			"buffer":0,
			"byteLength":24,
			"byteOffset":1204
		},
		{
			"buffer":0,
			"byteLength":324,
			"byteOffset":1228
		},
		{
			"buffer":0,
			"byteLength":1296,
			"byteOffset":1552
		},
		{
			"buffer":0,
			"byteLength":24,
			"byteOffset":2848
		},
		{
			"buffer":0,
			"byteLength":972,
			"byteOffset":2872
		},
		{
			"buffer":0,
			"byteLength":1296,
			"byteOffset":3844
		},
		{
			"buffer":0,
			"byteLength":972,
			"byteOffset":5140
		},
		{
			"buffer":0,
			"byteLength":972,
			"byteOffset":6112
		},
		{
			"buffer":0,
			"byteLength":1296,
			"byteOffset":7084
		},
		{
			"buffer":0,
			"byteLength":972,
			"byteOffset":8380
		},
		{
			"buffer":0,
			"byteLength":972,
			"byteOffset":9352
		},
		{
			"buffer":0,
			"byteLength":1296,
			"byteOffset":10324
		},
		{
			"buffer":0,
			"byteLength":972,
			"byteOffset":11620
		},
		{
			"buffer":0,
			"byteLength":972,
			"byteOffset":12592
		},
		{
			"buffer":0,
			"byteLength":1296,
			"byteOffset":13564
		},
		{
			"buffer":0,
			"byteLength":972,
			"byteOffset":14860
		},
		{
			"buffer":0,
			"byteLength":972,
			"byteOffset":15832
		},
		{
			"buffer":0,
			"byteLength":1296,
			"byteOffset":16804
		},
		{
			"buffer":0,
			"byteLength":972,
			"byteOffset":18100
		}
	],
	"samplers":[
		{
			"magFilter":9729,
			"minFilter":9987
		}
	],
	"buffers":[
		{
			"byteLength":19072,
			"uri":"JumpEffect.bin"
		}
	]
}
