# Blender 4.2.0
# www.blender.org
mtllib Nico.mtl
o 円柱
v -6127.861816 366.946960 1426.348389
v -6125.888672 369.411743 1417.582520
v -6135.172363 362.331909 1423.405396
v -6133.199219 364.796722 1414.639404
v -6141.343262 356.342194 1420.332275
v -6139.370117 358.806976 1411.566284
v -6146.137207 349.207947 1417.247192
v -6144.164551 351.672729 1408.481201
v -6149.371094 341.203339 1414.268677
v -6147.397949 343.668121 1405.502686
v -6150.919434 332.635986 1411.511108
v -6148.946289 335.100769 1402.745239
v -6150.723145 323.835114 1409.080688
v -6148.750000 326.299896 1400.314697
v -6148.790039 315.138947 1407.070679
v -6146.816895 317.603729 1398.304688
v -6145.193848 306.881683 1405.558228
v -6143.220703 309.346466 1396.792358
v -6140.073242 299.380615 1404.601562
v -6138.100586 301.845428 1395.835693
v -6133.625000 292.924072 1404.237549
v -6131.651855 295.388855 1395.471680
v -6126.096680 287.760071 1404.479980
v -6124.123535 290.224884 1395.714111
v -6117.777832 284.087158 1405.319702
v -6115.804688 286.551941 1396.553711
v -6108.987793 282.046417 1406.724243
v -6107.014648 284.511230 1397.958374
v -6100.064453 281.716309 1408.639893
v -6098.091797 284.181122 1399.873901
v -6091.351074 283.109528 1410.992798
v -6089.378418 285.574310 1402.226929
v -6083.182617 286.172485 1413.692627
v -6081.209473 288.637268 1404.926758
v -6075.872070 290.787506 1416.635742
v -6073.898926 293.252319 1407.869751
v -6069.701172 296.777252 1419.708862
v -6067.728027 299.242035 1410.942871
v -6064.906738 303.911499 1422.793945
v -6062.934082 306.376282 1414.027954
v -6061.673340 311.916107 1425.772461
v -6059.700195 314.380890 1417.006470
v -6060.125000 320.483459 1428.529907
v -6058.151855 322.948242 1419.764038
v -6060.321289 329.284332 1430.960449
v -6058.348145 331.749115 1422.194458
v -6062.254395 337.980499 1432.970459
v -6060.281250 340.445282 1424.204468
v -6065.850586 346.237762 1434.482788
v -6063.877441 348.702545 1425.716919
v -6070.970703 353.738800 1435.439453
v -6068.998047 356.203613 1426.673584
v -6077.419434 360.195374 1435.803467
v -6075.446289 362.660156 1427.037598
v -6084.947754 365.359344 1435.561035
v -6082.974609 367.824158 1426.795166
v -6093.266602 369.032288 1434.721436
v -6091.293457 371.497070 1425.955444
v -6102.056641 371.072998 1433.316772
v -6100.083496 373.537811 1424.550903
v -6110.979492 371.403107 1431.401245
v -6109.006836 373.867920 1422.635254
v -6119.692871 370.009918 1429.048218
v -6117.720215 372.474701 1420.282349
vn -0.5607 0.8214 0.1048
vn -0.7061 0.7070 0.0399
vn -0.8244 0.5654 -0.0265
vn -0.9109 0.4022 -0.0919
vn -0.9625 0.2235 -0.1539
vn -0.9771 0.0361 -0.2098
vn -0.9541 -0.1525 -0.2577
vn -0.8945 -0.3354 -0.2957
vn -0.8005 -0.5053 -0.3223
vn -0.6757 -0.6559 -0.3365
vn -0.5250 -0.7812 -0.3378
vn -0.3541 -0.8765 -0.3262
vn -0.1696 -0.9381 -0.3019
vn 0.0215 -0.9637 -0.2661
vn 0.2117 -0.9522 -0.2201
vn 0.3938 -0.9042 -0.1656
vn 0.5607 -0.8214 -0.1047
vn 0.7061 -0.7070 -0.0399
vn 0.8244 -0.5654 0.0265
vn 0.9109 -0.4022 0.0919
vn 0.9625 -0.2235 0.1539
vn 0.9771 -0.0361 0.2098
vn 0.9541 0.1525 0.2577
vn 0.8945 0.3354 0.2957
vn 0.8005 0.5053 0.3222
vn 0.6757 0.6559 0.3365
vn 0.5250 0.7812 0.3378
vn 0.3541 0.8765 0.3262
vn 0.1696 0.9381 0.3019
vn -0.0215 0.9637 0.2661
vn 0.2118 0.2645 -0.9408
vn -0.2117 0.9522 0.2201
vn -0.3938 0.9042 0.1656
vn -0.2118 -0.2645 0.9408
vt 0.594141 0.701953
vt 0.594141 0.973828
vt 0.577148 0.973828
vt 0.577148 0.701953
vt 0.560156 0.973828
vt 0.560156 0.701953
vt 0.543164 0.973828
vt 0.543164 0.701953
vt 0.526172 0.973828
vt 0.526172 0.701953
vt 0.509180 0.973828
vt 0.509180 0.701953
vt 0.492188 0.973828
vt 0.492188 0.701953
vt 0.475195 0.973828
vt 0.475195 0.701953
vt 0.458203 0.973828
vt 0.458203 0.701953
vt 0.441211 0.973828
vt 0.441211 0.701953
vt 0.424219 0.973828
vt 0.424219 0.701953
vt 0.407227 0.973828
vt 0.407227 0.701953
vt 0.390234 0.973828
vt 0.390234 0.701953
vt 0.373242 0.973828
vt 0.373242 0.701953
vt 0.356250 0.973828
vt 0.356250 0.701953
vt 0.339258 0.973828
vt 0.339258 0.701953
vt 0.322266 0.973828
vt 0.322266 0.701953
vt 0.305273 0.973828
vt 0.305273 0.701953
vt 0.288281 0.973828
vt 0.288281 0.701953
vt 0.271289 0.973828
vt 0.271289 0.701953
vt 0.254297 0.973828
vt 0.254297 0.701953
vt 0.237305 0.973828
vt 0.237305 0.701953
vt 0.220313 0.973828
vt 0.220313 0.701953
vt 0.203320 0.973828
vt 0.203320 0.701953
vt 0.186328 0.973828
vt 0.186328 0.701953
vt 0.169336 0.973828
vt 0.169336 0.701953
vt 0.152344 0.973828
vt 0.152344 0.701953
vt 0.135352 0.973828
vt 0.135352 0.701953
vt 0.118359 0.973828
vt 0.118359 0.701953
vt 0.101367 0.973828
vt 0.101367 0.701953
vt 0.084375 0.973828
vt 0.084375 0.701953
vt 0.433103 0.643720
vt 0.373047 0.649635
vt 0.312991 0.643720
vt 0.255242 0.626203
vt 0.202021 0.597755
vt 0.155372 0.559472
vt 0.117088 0.512823
vt 0.088641 0.459602
vt 0.071123 0.401853
vt 0.065208 0.341797
vt 0.071123 0.281741
vt 0.088641 0.223992
vt 0.117088 0.170771
vt 0.155372 0.124122
vt 0.202021 0.085838
vt 0.255242 0.057391
vt 0.312991 0.039873
vt 0.373047 0.033958
vt 0.433103 0.039873
vt 0.490852 0.057391
vt 0.544073 0.085838
vt 0.590722 0.124122
vt 0.629005 0.170771
vt 0.657453 0.223992
vt 0.674970 0.281741
vt 0.680885 0.341797
vt 0.674970 0.401853
vt 0.657453 0.459602
vt 0.629005 0.512823
vt 0.590722 0.559472
vt 0.544073 0.597755
vt 0.490852 0.626203
vt 0.067383 0.973828
vt 0.067383 0.701953
vt 0.050391 0.973828
vt 0.050391 0.701953
vt 0.787109 0.856609
vt 0.811337 0.854223
vt 0.834634 0.847156
vt 0.856104 0.835680
vt 0.874923 0.820236
vt 0.890367 0.801417
vt 0.901843 0.779946
vt 0.908910 0.756650
vt 0.911297 0.732422
vt 0.908910 0.708194
vt 0.901843 0.684897
vt 0.890367 0.663427
vt 0.874923 0.644608
vt 0.856104 0.629164
vt 0.834634 0.617688
vt 0.811337 0.610621
vt 0.787109 0.608235
vt 0.762882 0.610621
vt 0.739585 0.617688
vt 0.718115 0.629164
vt 0.699296 0.644608
vt 0.683851 0.663427
vt 0.672375 0.684897
vt 0.665308 0.708194
vt 0.662922 0.732422
vt 0.665308 0.756650
vt 0.672375 0.779946
vt 0.683851 0.801417
vt 0.699296 0.820236
vt 0.718115 0.835680
vt 0.739585 0.847156
vt 0.762882 0.854223
s 0
usemtl マテリアル.001
f 1/1/1 2/2/1 4/3/1 3/4/1
f 3/4/2 4/3/2 6/5/2 5/6/2
f 5/6/3 6/5/3 8/7/3 7/8/3
f 7/8/4 8/7/4 10/9/4 9/10/4
f 9/10/5 10/9/5 12/11/5 11/12/5
f 11/12/6 12/11/6 14/13/6 13/14/6
f 13/14/7 14/13/7 16/15/7 15/16/7
f 15/16/8 16/15/8 18/17/8 17/18/8
f 17/18/9 18/17/9 20/19/9 19/20/9
f 19/20/10 20/19/10 22/21/10 21/22/10
f 21/22/11 22/21/11 24/23/11 23/24/11
f 23/24/12 24/23/12 26/25/12 25/26/12
f 25/26/13 26/25/13 28/27/13 27/28/13
f 27/28/14 28/27/14 30/29/14 29/30/14
f 29/30/15 30/29/15 32/31/15 31/32/15
f 31/32/16 32/31/16 34/33/16 33/34/16
f 33/34/17 34/33/17 36/35/17 35/36/17
f 35/36/18 36/35/18 38/37/18 37/38/18
f 37/38/19 38/37/19 40/39/19 39/40/19
f 39/40/20 40/39/20 42/41/20 41/42/20
f 41/42/21 42/41/21 44/43/21 43/44/21
f 43/44/22 44/43/22 46/45/22 45/46/22
f 45/46/23 46/45/23 48/47/23 47/48/23
f 47/48/24 48/47/24 50/49/24 49/50/24
f 49/50/25 50/49/25 52/51/25 51/52/25
f 51/52/26 52/51/26 54/53/26 53/54/26
f 53/54/27 54/53/27 56/55/27 55/56/27
f 55/56/28 56/55/28 58/57/28 57/58/28
f 57/58/29 58/57/29 60/59/29 59/60/29
f 59/60/30 60/59/30 62/61/30 61/62/30
f 4/63/31 2/64/31 64/65/31 62/66/31 60/67/31 58/68/31 56/69/31 54/70/31 52/71/31 50/72/31 48/73/31 46/74/31 44/75/31 42/76/31 40/77/31 38/78/31 36/79/31 34/80/31 32/81/31 30/82/31 28/83/31 26/84/31 24/85/31 22/86/31 20/87/31 18/88/31 16/89/31 14/90/31 12/91/31 10/92/31 8/93/31 6/94/31
f 61/62/32 62/61/32 64/95/32 63/96/32
f 63/96/33 64/95/33 2/97/33 1/98/33
f 1/99/34 3/100/34 5/101/34 7/102/34 9/103/34 11/104/34 13/105/34 15/106/34 17/107/34 19/108/34 21/109/34 23/110/34 25/111/34 27/112/34 29/113/34 31/114/34 33/115/34 35/116/34 37/117/34 39/118/34 41/119/34 43/120/34 45/121/34 47/122/34 49/123/34 51/124/34 53/125/34 55/126/34 57/127/34 59/128/34 61/129/34 63/130/34
