{
	"asset":{
		"generator":"Khronos glTF Blender I/O v4.4.55",
		"version":"2.0"
	},
	"scene":0,
	"scenes":[
		{
			"name":"Scene",
			"nodes":[
				3
			]
		}
	],
	"nodes":[
		{
			"name":"1",
			"rotation":[
				-0.05030840262770653,
				-0.6972686648368835,
				-0.7132525444030762,
				0.0505615770816803
			],
			"scale":[
				1.000015139579773,
				1,
				1.0000003576278687
			],
			"translation":[
				-0.46024736762046814,
				0.04435129463672638,
				-1.4630075693130493
			]
		},
		{
			"name":"2",
			"rotation":[
				-0.6545094847679138,
				0.22737610340118408,
				-0.14618082344532013,
				0.7060797810554504
			],
			"scale":[
				1,
				0.9999999403953552,
				1
			],
			"translation":[
				-0.46024736762046814,
				0.04435129463672638,
				-1.4630075693130493
			]
		},
		{
			"mesh":0,
			"name":"\u7acb\u65b9\u4f53.005",
			"skin":0
		},
		{
			"children":[
				2,
				0,
				1
			],
			"name":"\u30a2\u30fc\u30de\u30c1\u30e5\u30a2.001"
		}
	],
	"animations":[
		{
			"channels":[
				{
					"sampler":0,
					"target":{
						"node":0,
						"path":"translation"
					}
				},
				{
					"sampler":1,
					"target":{
						"node":0,
						"path":"rotation"
					}
				},
				{
					"sampler":2,
					"target":{
						"node":0,
						"path":"scale"
					}
				},
				{
					"sampler":3,
					"target":{
						"node":1,
						"path":"translation"
					}
				},
				{
					"sampler":4,
					"target":{
						"node":1,
						"path":"rotation"
					}
				},
				{
					"sampler":5,
					"target":{
						"node":1,
						"path":"scale"
					}
				}
			],
			"name":"\u30a2\u30fc\u30de\u30c1\u30e5\u30a2.001\u30a2\u30af\u30b7\u30e7\u30f3.001",
			"samplers":[
				{
					"input":7,
					"interpolation":"LINEAR",
					"output":8
				},
				{
					"input":7,
					"interpolation":"LINEAR",
					"output":9
				},
				{
					"input":7,
					"interpolation":"LINEAR",
					"output":10
				},
				{
					"input":7,
					"interpolation":"LINEAR",
					"output":11
				},
				{
					"input":7,
					"interpolation":"LINEAR",
					"output":12
				},
				{
					"input":13,
					"interpolation":"STEP",
					"output":14
				}
			]
		}
	],
	"materials":[
		{
			"doubleSided":true,
			"name":"\u30de\u30c6\u30ea\u30a2\u30eb",
			"pbrMetallicRoughness":{
				"baseColorTexture":{
					"index":0
				},
				"metallicFactor":0,
				"roughnessFactor":0.5
			}
		}
	],
	"meshes":[
		{
			"name":"\u7acb\u65b9\u4f53.005",
			"primitives":[
				{
					"attributes":{
						"POSITION":0,
						"NORMAL":1,
						"TEXCOORD_0":2,
						"JOINTS_0":3,
						"WEIGHTS_0":4
					},
					"indices":5,
					"material":0
				}
			]
		}
	],
	"textures":[
		{
			"sampler":0,
			"source":0
		}
	],
	"images":[
		{
			"mimeType":"image/png",
			"name":"EatFish",
			"uri":"EatFish.png"
		}
	],
	"skins":[
		{
			"inverseBindMatrices":6,
			"joints":[
				0,
				1
			],
			"name":"\u30a2\u30fc\u30de\u30c1\u30e5\u30a2.001"
		}
	],
	"accessors":[
		{
			"bufferView":0,
			"componentType":5126,
			"count":84,
			"max":[
				1.485711693763733,
				1.6975518465042114,
				2.1140153408050537
			],
			"min":[
				-2.013047695159912,
				-1.704674482345581,
				-4.173995018005371
			],
			"type":"VEC3"
		},
		{
			"bufferView":1,
			"componentType":5126,
			"count":84,
			"type":"VEC3"
		},
		{
			"bufferView":2,
			"componentType":5126,
			"count":84,
			"type":"VEC2"
		},
		{
			"bufferView":3,
			"componentType":5121,
			"count":84,
			"type":"VEC4"
		},
		{
			"bufferView":4,
			"componentType":5126,
			"count":84,
			"type":"VEC4"
		},
		{
			"bufferView":5,
			"componentType":5123,
			"count":96,
			"type":"SCALAR"
		},
		{
			"bufferView":6,
			"componentType":5126,
			"count":2,
			"type":"MAT4"
		},
		{
			"bufferView":7,
			"componentType":5126,
			"count":65,
			"max":[
				2.6666666666666665
			],
			"min":[
				0
			],
			"type":"SCALAR"
		},
		{
			"bufferView":8,
			"componentType":5126,
			"count":65,
			"type":"VEC3"
		},
		{
			"bufferView":9,
			"componentType":5126,
			"count":65,
			"type":"VEC4"
		},
		{
			"bufferView":10,
			"componentType":5126,
			"count":65,
			"type":"VEC3"
		},
		{
			"bufferView":11,
			"componentType":5126,
			"count":65,
			"type":"VEC3"
		},
		{
			"bufferView":12,
			"componentType":5126,
			"count":65,
			"type":"VEC4"
		},
		{
			"bufferView":13,
			"componentType":5126,
			"count":2,
			"max":[
				2.6666666666666665
			],
			"min":[
				0
			],
			"type":"SCALAR"
		},
		{
			"bufferView":14,
			"componentType":5126,
			"count":2,
			"type":"VEC3"
		}
	],
	"bufferViews":[
		{
			"buffer":0,
			"byteLength":1008,
			"byteOffset":0,
			"target":34962
		},
		{
			"buffer":0,
			"byteLength":1008,
			"byteOffset":1008,
			"target":34962
		},
		{
			"buffer":0,
			"byteLength":672,
			"byteOffset":2016,
			"target":34962
		},
		{
			"buffer":0,
			"byteLength":336,
			"byteOffset":2688,
			"target":34962
		},
		{
			"buffer":0,
			"byteLength":1344,
			"byteOffset":3024,
			"target":34962
		},
		{
			"buffer":0,
			"byteLength":192,
			"byteOffset":4368,
			"target":34963
		},
		{
			"buffer":0,
			"byteLength":128,
			"byteOffset":4560
		},
		{
			"buffer":0,
			"byteLength":260,
			"byteOffset":4688
		},
		{
			"buffer":0,
			"byteLength":780,
			"byteOffset":4948
		},
		{
			"buffer":0,
			"byteLength":1040,
			"byteOffset":5728
		},
		{
			"buffer":0,
			"byteLength":780,
			"byteOffset":6768
		},
		{
			"buffer":0,
			"byteLength":780,
			"byteOffset":7548
		},
		{
			"buffer":0,
			"byteLength":1040,
			"byteOffset":8328
		},
		{
			"buffer":0,
			"byteLength":8,
			"byteOffset":9368
		},
		{
			"buffer":0,
			"byteLength":24,
			"byteOffset":9376
		}
	],
	"samplers":[
		{
			"magFilter":9729,
			"minFilter":9987
		}
	],
	"buffers":[
		{
			"byteLength":9400,
			"uri":"EatFish_new.bin"
		}
	]
}
