{
	"asset":{
		"generator":"Khronos glTF Blender I/O v4.2.70",
		"version":"2.0"
	},
	"scene":0,
	"scenes":[
		{
			"name":"Scene",
			"nodes":[
				3
			]
		}
	],
	"nodes":[
		{
			"name":"body",
			"rotation":[
				0.002034662989899516,
				2.981680680136378e-08,
				6.066726981890369e-11,
				0.9999979734420776
			],
			"scale":[
				1,
				0.9999999403953552,
				0.9999999403953552
			],
			"translation":[
				0,
				4.079479694366455,
				0
			]
		},
		{
			"children":[
				0
			],
			"name":"head",
			"rotation":[
				-0.6998599171638489,
				0,
				0,
				0.7142801284790039
			],
			"translation":[
				0,
				-0.037332773208618164,
				1.9071812629699707
			]
		},
		{
			"mesh":0,
			"name":"Cube",
			"skin":0
		},
		{
			"children":[
				2,
				1
			],
			"name":"ama"
		}
	],
	"animations":[
		{
			"channels":[
				{
					"sampler":0,
					"target":{
						"node":1,
						"path":"translation"
					}
				},
				{
					"sampler":1,
					"target":{
						"node":1,
						"path":"rotation"
					}
				},
				{
					"sampler":2,
					"target":{
						"node":1,
						"path":"scale"
					}
				},
				{
					"sampler":3,
					"target":{
						"node":0,
						"path":"translation"
					}
				},
				{
					"sampler":4,
					"target":{
						"node":0,
						"path":"rotation"
					}
				},
				{
					"sampler":5,
					"target":{
						"node":0,
						"path":"scale"
					}
				}
			],
			"name":"\u30a2\u30fc\u30de\u30c1\u30e5\u30a2\u30a2\u30af\u30b7\u30e7\u30f3",
			"samplers":[
				{
					"input":8,
					"interpolation":"LINEAR",
					"output":9
				},
				{
					"input":8,
					"interpolation":"LINEAR",
					"output":10
				},
				{
					"input":11,
					"interpolation":"STEP",
					"output":12
				},
				{
					"input":11,
					"interpolation":"STEP",
					"output":13
				},
				{
					"input":8,
					"interpolation":"LINEAR",
					"output":14
				},
				{
					"input":11,
					"interpolation":"STEP",
					"output":15
				}
			]
		}
	],
	"materials":[
		{
			"doubleSided":true,
			"name":"Material.001",
			"pbrMetallicRoughness":{
				"baseColorTexture":{
					"index":0
				},
				"metallicFactor":0,
				"roughnessFactor":0.5
			}
		}
	],
	"meshes":[
		{
			"name":"Cube.001",
			"primitives":[
				{
					"attributes":{
						"POSITION":0,
						"NORMAL":1,
						"TEXCOORD_0":2,
						"TEXCOORD_1":3,
						"JOINTS_0":4,
						"WEIGHTS_0":5
					},
					"indices":6,
					"material":0
				}
			]
		}
	],
	"textures":[
		{
			"sampler":0,
			"source":0
		}
	],
	"images":[
		{
			"mimeType":"image/png",
			"name":"FishTex",
			"uri":"FishTex.png"
		}
	],
	"skins":[
		{
			"inverseBindMatrices":7,
			"joints":[
				1,
				0
			],
			"name":"ama"
		}
	],
	"accessors":[
		{
			"bufferView":0,
			"componentType":5126,
			"count":40,
			"max":[
				1,
				1.000000238418579,
				2.1688780784606934
			],
			"min":[
				-1,
				-0.9999999403953552,
				-4.125100135803223
			],
			"type":"VEC3"
		},
		{
			"bufferView":1,
			"componentType":5126,
			"count":40,
			"type":"VEC3"
		},
		{
			"bufferView":2,
			"componentType":5126,
			"count":40,
			"type":"VEC2"
		},
		{
			"bufferView":3,
			"componentType":5126,
			"count":40,
			"type":"VEC2"
		},
		{
			"bufferView":4,
			"componentType":5121,
			"count":40,
			"type":"VEC4"
		},
		{
			"bufferView":5,
			"componentType":5126,
			"count":40,
			"type":"VEC4"
		},
		{
			"bufferView":6,
			"componentType":5123,
			"count":42,
			"type":"SCALAR"
		},
		{
			"bufferView":7,
			"componentType":5126,
			"count":2,
			"type":"MAT4"
		},
		{
			"bufferView":8,
			"componentType":5126,
			"count":33,
			"max":[
				1.3333333333333333
			],
			"min":[
				0
			],
			"type":"SCALAR"
		},
		{
			"bufferView":9,
			"componentType":5126,
			"count":33,
			"type":"VEC3"
		},
		{
			"bufferView":10,
			"componentType":5126,
			"count":33,
			"type":"VEC4"
		},
		{
			"bufferView":11,
			"componentType":5126,
			"count":2,
			"max":[
				1.3333333333333333
			],
			"min":[
				0
			],
			"type":"SCALAR"
		},
		{
			"bufferView":12,
			"componentType":5126,
			"count":2,
			"type":"VEC3"
		},
		{
			"bufferView":13,
			"componentType":5126,
			"count":2,
			"type":"VEC3"
		},
		{
			"bufferView":14,
			"componentType":5126,
			"count":33,
			"type":"VEC4"
		},
		{
			"bufferView":15,
			"componentType":5126,
			"count":2,
			"type":"VEC3"
		}
	],
	"bufferViews":[
		{
			"buffer":0,
			"byteLength":480,
			"byteOffset":0,
			"target":34962
		},
		{
			"buffer":0,
			"byteLength":480,
			"byteOffset":480,
			"target":34962
		},
		{
			"buffer":0,
			"byteLength":320,
			"byteOffset":960,
			"target":34962
		},
		{
			"buffer":0,
			"byteLength":320,
			"byteOffset":1280,
			"target":34962
		},
		{
			"buffer":0,
			"byteLength":160,
			"byteOffset":1600,
			"target":34962
		},
		{
			"buffer":0,
			"byteLength":640,
			"byteOffset":1760,
			"target":34962
		},
		{
			"buffer":0,
			"byteLength":84,
			"byteOffset":2400,
			"target":34963
		},
		{
			"buffer":0,
			"byteLength":128,
			"byteOffset":2484
		},
		{
			"buffer":0,
			"byteLength":132,
			"byteOffset":2612
		},
		{
			"buffer":0,
			"byteLength":396,
			"byteOffset":2744
		},
		{
			"buffer":0,
			"byteLength":528,
			"byteOffset":3140
		},
		{
			"buffer":0,
			"byteLength":8,
			"byteOffset":3668
		},
		{
			"buffer":0,
			"byteLength":24,
			"byteOffset":3676
		},
		{
			"buffer":0,
			"byteLength":24,
			"byteOffset":3700
		},
		{
			"buffer":0,
			"byteLength":528,
			"byteOffset":3724
		},
		{
			"buffer":0,
			"byteLength":24,
			"byteOffset":4252
		}
	],
	"samplers":[
		{
			"magFilter":9729,
			"minFilter":9987
		}
	],
	"buffers":[
		{
			"byteLength":4276,
			"uri":"Fish.bin"
		}
	]
}
