{
	"asset":{
		"generator":"Khronos glTF Blender I/O v4.2.57",
		"version":"2.0"
	},
	"scene":0,
	"scenes":[
		{
			"name":"Scene",
			"nodes":[
				3
			]
		}
	],
	"nodes":[
		{
			"name":"\u30dc\u30fc\u30f3",
			"rotation":[
				0.49192363023757935,
				0.4808908998966217,
				0.5184049606323242,
				0.50794917345047
			],
			"scale":[
				1.000002384185791,
				1.0000001192092896,
				1.0000003576278687
			],
			"translation":[
				0.15952041745185852,
				0.021238362416625023,
				-1.4096925258636475
			]
		},
		{
			"name":"\u30dc\u30fc\u30f3.001",
			"rotation":[
				-0.492879182100296,
				-0.5247673392295837,
				0.49983394145965576,
				0.4815136790275574
			],
			"scale":[
				1,
				0.9999998807907104,
				0.9999998807907104
			],
			"translation":[
				0.15952041745185852,
				0.021238362416625023,
				-1.4096925258636475
			]
		},
		{
			"mesh":0,
			"name":"Cube",
			"skin":0
		},
		{
			"children":[
				2,
				0,
				1
			],
			"name":"\u30a2\u30fc\u30de\u30c1\u30e5\u30a2"
		}
	],
	"animations":[
		{
			"channels":[
				{
					"sampler":0,
					"target":{
						"node":0,
						"path":"translation"
					}
				},
				{
					"sampler":1,
					"target":{
						"node":0,
						"path":"rotation"
					}
				},
				{
					"sampler":2,
					"target":{
						"node":0,
						"path":"scale"
					}
				},
				{
					"sampler":3,
					"target":{
						"node":1,
						"path":"translation"
					}
				},
				{
					"sampler":4,
					"target":{
						"node":1,
						"path":"rotation"
					}
				},
				{
					"sampler":5,
					"target":{
						"node":1,
						"path":"scale"
					}
				}
			],
			"name":"\u30a2\u30fc\u30de\u30c1\u30e5\u30a2\u30a2\u30af\u30b7\u30e7\u30f3",
			"samplers":[
				{
					"input":7,
					"interpolation":"STEP",
					"output":8
				},
				{
					"input":9,
					"interpolation":"LINEAR",
					"output":10
				},
				{
					"input":7,
					"interpolation":"STEP",
					"output":11
				},
				{
					"input":7,
					"interpolation":"STEP",
					"output":12
				},
				{
					"input":9,
					"interpolation":"LINEAR",
					"output":13
				},
				{
					"input":7,
					"interpolation":"STEP",
					"output":14
				}
			]
		}
	],
	"materials":[
		{
			"doubleSided":true,
			"name":"Material",
			"pbrMetallicRoughness":{
				"baseColorTexture":{
					"index":0
				},
				"metallicFactor":0,
				"roughnessFactor":0.5
			}
		}
	],
	"meshes":[
		{
			"name":"Cube",
			"primitives":[
				{
					"attributes":{
						"POSITION":0,
						"NORMAL":1,
						"TEXCOORD_0":2,
						"JOINTS_0":3,
						"WEIGHTS_0":4
					},
					"indices":5,
					"material":0
				}
			]
		}
	],
	"textures":[
		{
			"sampler":0,
			"source":0
		}
	],
	"images":[
		{
			"mimeType":"image/png",
			"name":"Fish",
			"uri":"Fish.png"
		}
	],
	"skins":[
		{
			"inverseBindMatrices":6,
			"joints":[
				0,
				1
			],
			"name":"\u30a2\u30fc\u30de\u30c1\u30e5\u30a2"
		}
	],
	"accessors":[
		{
			"bufferView":0,
			"componentType":5126,
			"count":784,
			"max":[
				1.0914461612701416,
				2.4971747398376465,
				2.134728193283081
			],
			"min":[
				-0.9576954245567322,
				-2.26145339012146,
				-3.0553460121154785
			],
			"type":"VEC3"
		},
		{
			"bufferView":1,
			"componentType":5126,
			"count":784,
			"type":"VEC3"
		},
		{
			"bufferView":2,
			"componentType":5126,
			"count":784,
			"type":"VEC2"
		},
		{
			"bufferView":3,
			"componentType":5121,
			"count":784,
			"type":"VEC4"
		},
		{
			"bufferView":4,
			"componentType":5126,
			"count":784,
			"type":"VEC4"
		},
		{
			"bufferView":5,
			"componentType":5123,
			"count":804,
			"type":"SCALAR"
		},
		{
			"bufferView":6,
			"componentType":5126,
			"count":2,
			"type":"MAT4"
		},
		{
			"bufferView":7,
			"componentType":5126,
			"count":2,
			"max":[
				1
			],
			"min":[
				0.03333333333333333
			],
			"type":"SCALAR"
		},
		{
			"bufferView":8,
			"componentType":5126,
			"count":2,
			"type":"VEC3"
		},
		{
			"bufferView":9,
			"componentType":5126,
			"count":30,
			"max":[
				1
			],
			"min":[
				0.03333333333333333
			],
			"type":"SCALAR"
		},
		{
			"bufferView":10,
			"componentType":5126,
			"count":30,
			"type":"VEC4"
		},
		{
			"bufferView":11,
			"componentType":5126,
			"count":2,
			"type":"VEC3"
		},
		{
			"bufferView":12,
			"componentType":5126,
			"count":2,
			"type":"VEC3"
		},
		{
			"bufferView":13,
			"componentType":5126,
			"count":30,
			"type":"VEC4"
		},
		{
			"bufferView":14,
			"componentType":5126,
			"count":2,
			"type":"VEC3"
		}
	],
	"bufferViews":[
		{
			"buffer":0,
			"byteLength":9408,
			"byteOffset":0,
			"target":34962
		},
		{
			"buffer":0,
			"byteLength":9408,
			"byteOffset":9408,
			"target":34962
		},
		{
			"buffer":0,
			"byteLength":6272,
			"byteOffset":18816,
			"target":34962
		},
		{
			"buffer":0,
			"byteLength":3136,
			"byteOffset":25088,
			"target":34962
		},
		{
			"buffer":0,
			"byteLength":12544,
			"byteOffset":28224,
			"target":34962
		},
		{
			"buffer":0,
			"byteLength":1608,
			"byteOffset":40768,
			"target":34963
		},
		{
			"buffer":0,
			"byteLength":128,
			"byteOffset":42376
		},
		{
			"buffer":0,
			"byteLength":8,
			"byteOffset":42504
		},
		{
			"buffer":0,
			"byteLength":24,
			"byteOffset":42512
		},
		{
			"buffer":0,
			"byteLength":120,
			"byteOffset":42536
		},
		{
			"buffer":0,
			"byteLength":480,
			"byteOffset":42656
		},
		{
			"buffer":0,
			"byteLength":24,
			"byteOffset":43136
		},
		{
			"buffer":0,
			"byteLength":24,
			"byteOffset":43160
		},
		{
			"buffer":0,
			"byteLength":480,
			"byteOffset":43184
		},
		{
			"buffer":0,
			"byteLength":24,
			"byteOffset":43664
		}
	],
	"samplers":[
		{
			"magFilter":9729,
			"minFilter":9987
		}
	],
	"buffers":[
		{
			"byteLength":43688,
			"uri":"Fish.bin"
		}
	]
}
