{
	"asset":{
		"generator":"Khronos glTF Blender I/O v4.2.57",
		"version":"2.0"
	},
	"scene":0,
	"scenes":[
		{
			"name":"Scene",
			"nodes":[
				10
			]
		}
	],
	"nodes":[
		{
			"name":"\u30dc\u30fc\u30f3",
			"rotation":[
				0.3735746443271637,
				0.6003684997558594,
				-0.39302703738212585,
				0.5878175497055054
			],
			"scale":[
				0.9999998807907104,
				0.9999998807907104,
				1
			],
			"translation":[
				-0.06795956194400787,
				0.32664304971694946,
				2.970606871599557e-09
			]
		},
		{
			"name":"\u30dc\u30fc\u30f3.002",
			"rotation":[
				0.0015304562402889132,
				-4.258092667441815e-05,
				0.029665494337677956,
				0.999558687210083
			],
			"scale":[
				1.0000001192092896,
				1.0000001192092896,
				1
			],
			"translation":[
				-3.932655090466142e-09,
				0.9423606395721436,
				-4.372850526124239e-09
			]
		},
		{
			"children":[
				1
			],
			"name":"\u30dc\u30fc\u30f3.001",
			"rotation":[
				-0.5203782320022583,
				0.4794287085533142,
				0.4903983175754547,
				0.5087869167327881
			],
			"scale":[
				0.9999998807907104,
				0.9999999403953552,
				1
			],
			"translation":[
				-0.06795956194400787,
				0.32664304971694946,
				2.970606871599557e-09
			]
		},
		{
			"name":"\u30dc\u30fc\u30f3.005",
			"rotation":[
				-3.7613432368743815e-09,
				3.6985738915973343e-09,
				-1.3948311394784696e-09,
				1
			],
			"scale":[
				1,
				0.9999999403953552,
				1
			],
			"translation":[
				-4.937078301736619e-09,
				1.2876147031784058,
				7.009930413914844e-10
			]
		},
		{
			"children":[
				3
			],
			"name":"\u30dc\u30fc\u30f3.004",
			"rotation":[
				5.355360599423875e-10,
				-5.109086487209424e-10,
				4.190966684802788e-09,
				1
			],
			"scale":[
				1,
				0.9999999403953552,
				1
			],
			"translation":[
				-3.803734216489829e-09,
				1.636521816253662,
				3.107970769633539e-09
			]
		},
		{
			"children":[
				4
			],
			"name":"\u30dc\u30fc\u30f3.003",
			"rotation":[
				-0.007858497090637684,
				0.7067018151283264,
				0.7074243426322937,
				0.007847254164516926
			],
			"scale":[
				0.9999999403953552,
				0.9999999403953552,
				1
			],
			"translation":[
				-0.06795956194400787,
				0.32664304971694946,
				2.970606871599557e-09
			]
		},
		{
			"name":"\u30dc\u30fc\u30f3.008",
			"rotation":[
				-3.7196592472810153e-09,
				-5.593057572639282e-09,
				-9.149874191649587e-10,
				1
			],
			"translation":[
				2.467844595344104e-09,
				1.2547821998596191,
				5.68707037018612e-09
			]
		},
		{
			"children":[
				6
			],
			"name":"\u30dc\u30fc\u30f3.007",
			"rotation":[
				1.858925458009253e-09,
				3.7240717176700855e-09,
				-3.4152430883338525e-10,
				1
			],
			"translation":[
				-6.458269474762801e-09,
				1.694391131401062,
				1.6526882973266765e-08
			]
		},
		{
			"children":[
				7
			],
			"name":"\u30dc\u30fc\u30f3.006",
			"rotation":[
				-0.7195724844932556,
				-0.0006969968671910465,
				-0.000722210097592324,
				0.6944165825843811
			],
			"translation":[
				-0.06795956194400787,
				0.32664304971694946,
				2.970606871599557e-09
			]
		},
		{
			"mesh":0,
			"name":"\u7acb\u65b9\u4f53",
			"skin":0
		},
		{
			"children":[
				9,
				0,
				2,
				5,
				8
			],
			"name":"\u30a2\u30fc\u30de\u30c1\u30e5\u30a2"
		}
	],
	"animations":[
		{
			"channels":[
				{
					"sampler":0,
					"target":{
						"node":0,
						"path":"translation"
					}
				},
				{
					"sampler":1,
					"target":{
						"node":0,
						"path":"rotation"
					}
				},
				{
					"sampler":2,
					"target":{
						"node":0,
						"path":"scale"
					}
				},
				{
					"sampler":3,
					"target":{
						"node":2,
						"path":"translation"
					}
				},
				{
					"sampler":4,
					"target":{
						"node":2,
						"path":"rotation"
					}
				},
				{
					"sampler":5,
					"target":{
						"node":2,
						"path":"scale"
					}
				},
				{
					"sampler":6,
					"target":{
						"node":1,
						"path":"translation"
					}
				},
				{
					"sampler":7,
					"target":{
						"node":1,
						"path":"rotation"
					}
				},
				{
					"sampler":8,
					"target":{
						"node":1,
						"path":"scale"
					}
				},
				{
					"sampler":9,
					"target":{
						"node":5,
						"path":"translation"
					}
				},
				{
					"sampler":10,
					"target":{
						"node":5,
						"path":"rotation"
					}
				},
				{
					"sampler":11,
					"target":{
						"node":5,
						"path":"scale"
					}
				},
				{
					"sampler":12,
					"target":{
						"node":4,
						"path":"translation"
					}
				},
				{
					"sampler":13,
					"target":{
						"node":4,
						"path":"rotation"
					}
				},
				{
					"sampler":14,
					"target":{
						"node":4,
						"path":"scale"
					}
				},
				{
					"sampler":15,
					"target":{
						"node":3,
						"path":"translation"
					}
				},
				{
					"sampler":16,
					"target":{
						"node":3,
						"path":"rotation"
					}
				},
				{
					"sampler":17,
					"target":{
						"node":3,
						"path":"scale"
					}
				},
				{
					"sampler":18,
					"target":{
						"node":8,
						"path":"translation"
					}
				},
				{
					"sampler":19,
					"target":{
						"node":8,
						"path":"rotation"
					}
				},
				{
					"sampler":20,
					"target":{
						"node":8,
						"path":"scale"
					}
				},
				{
					"sampler":21,
					"target":{
						"node":7,
						"path":"translation"
					}
				},
				{
					"sampler":22,
					"target":{
						"node":7,
						"path":"rotation"
					}
				},
				{
					"sampler":23,
					"target":{
						"node":7,
						"path":"scale"
					}
				},
				{
					"sampler":24,
					"target":{
						"node":6,
						"path":"translation"
					}
				},
				{
					"sampler":25,
					"target":{
						"node":6,
						"path":"rotation"
					}
				},
				{
					"sampler":26,
					"target":{
						"node":6,
						"path":"scale"
					}
				}
			],
			"name":"\u30a2\u30fc\u30de\u30c1\u30e5\u30a2\u30a2\u30af\u30b7\u30e7\u30f3",
			"samplers":[
				{
					"input":7,
					"interpolation":"LINEAR",
					"output":8
				},
				{
					"input":7,
					"interpolation":"LINEAR",
					"output":9
				},
				{
					"input":10,
					"interpolation":"STEP",
					"output":11
				},
				{
					"input":7,
					"interpolation":"LINEAR",
					"output":12
				},
				{
					"input":7,
					"interpolation":"LINEAR",
					"output":13
				},
				{
					"input":10,
					"interpolation":"STEP",
					"output":14
				},
				{
					"input":10,
					"interpolation":"STEP",
					"output":15
				},
				{
					"input":7,
					"interpolation":"LINEAR",
					"output":16
				},
				{
					"input":10,
					"interpolation":"STEP",
					"output":17
				},
				{
					"input":7,
					"interpolation":"LINEAR",
					"output":18
				},
				{
					"input":7,
					"interpolation":"LINEAR",
					"output":19
				},
				{
					"input":10,
					"interpolation":"STEP",
					"output":20
				},
				{
					"input":10,
					"interpolation":"STEP",
					"output":21
				},
				{
					"input":7,
					"interpolation":"LINEAR",
					"output":22
				},
				{
					"input":10,
					"interpolation":"STEP",
					"output":23
				},
				{
					"input":10,
					"interpolation":"STEP",
					"output":24
				},
				{
					"input":7,
					"interpolation":"LINEAR",
					"output":25
				},
				{
					"input":10,
					"interpolation":"STEP",
					"output":26
				},
				{
					"input":7,
					"interpolation":"LINEAR",
					"output":27
				},
				{
					"input":7,
					"interpolation":"LINEAR",
					"output":28
				},
				{
					"input":10,
					"interpolation":"STEP",
					"output":29
				},
				{
					"input":10,
					"interpolation":"STEP",
					"output":30
				},
				{
					"input":7,
					"interpolation":"LINEAR",
					"output":31
				},
				{
					"input":10,
					"interpolation":"STEP",
					"output":32
				},
				{
					"input":10,
					"interpolation":"STEP",
					"output":33
				},
				{
					"input":7,
					"interpolation":"LINEAR",
					"output":34
				},
				{
					"input":10,
					"interpolation":"STEP",
					"output":35
				}
			]
		}
	],
	"materials":[
		{
			"doubleSided":true,
			"name":"\u30de\u30c6\u30ea\u30a2\u30eb",
			"pbrMetallicRoughness":{
				"baseColorTexture":{
					"index":0
				},
				"metallicFactor":0,
				"roughnessFactor":0.5
			}
		}
	],
	"meshes":[
		{
			"name":"\u7acb\u65b9\u4f53",
			"primitives":[
				{
					"attributes":{
						"POSITION":0,
						"NORMAL":1,
						"TEXCOORD_0":2,
						"JOINTS_0":3,
						"WEIGHTS_0":4
					},
					"indices":5,
					"material":0
				}
			]
		}
	],
	"textures":[
		{
			"sampler":0,
			"source":0
		}
	],
	"images":[
		{
			"mimeType":"image/png",
			"name":"Bird",
			"uri":"Bird.png"
		}
	],
	"skins":[
		{
			"inverseBindMatrices":6,
			"joints":[
				0,
				2,
				1,
				5,
				4,
				3,
				8,
				7,
				6
			],
			"name":"\u30a2\u30fc\u30de\u30c1\u30e5\u30a2"
		}
	],
	"accessors":[
		{
			"bufferView":0,
			"componentType":5126,
			"count":795,
			"max":[
				1.902038812637329,
				1.3264694213867188,
				4.153260707855225
			],
			"min":[
				-2.1839637756347656,
				-1.0011779069900513,
				-4.153260707855225
			],
			"type":"VEC3"
		},
		{
			"bufferView":1,
			"componentType":5126,
			"count":795,
			"type":"VEC3"
		},
		{
			"bufferView":2,
			"componentType":5126,
			"count":795,
			"type":"VEC2"
		},
		{
			"bufferView":3,
			"componentType":5121,
			"count":795,
			"type":"VEC4"
		},
		{
			"bufferView":4,
			"componentType":5126,
			"count":795,
			"type":"VEC4"
		},
		{
			"bufferView":5,
			"componentType":5123,
			"count":975,
			"type":"SCALAR"
		},
		{
			"bufferView":6,
			"componentType":5126,
			"count":9,
			"type":"MAT4"
		},
		{
			"bufferView":7,
			"componentType":5126,
			"count":101,
			"max":[
				1.6666666666666667
			],
			"min":[
				0
			],
			"type":"SCALAR"
		},
		{
			"bufferView":8,
			"componentType":5126,
			"count":101,
			"type":"VEC3"
		},
		{
			"bufferView":9,
			"componentType":5126,
			"count":101,
			"type":"VEC4"
		},
		{
			"bufferView":10,
			"componentType":5126,
			"count":2,
			"max":[
				1.6666666666666667
			],
			"min":[
				0
			],
			"type":"SCALAR"
		},
		{
			"bufferView":11,
			"componentType":5126,
			"count":2,
			"type":"VEC3"
		},
		{
			"bufferView":12,
			"componentType":5126,
			"count":101,
			"type":"VEC3"
		},
		{
			"bufferView":13,
			"componentType":5126,
			"count":101,
			"type":"VEC4"
		},
		{
			"bufferView":14,
			"componentType":5126,
			"count":2,
			"type":"VEC3"
		},
		{
			"bufferView":15,
			"componentType":5126,
			"count":2,
			"type":"VEC3"
		},
		{
			"bufferView":16,
			"componentType":5126,
			"count":101,
			"type":"VEC4"
		},
		{
			"bufferView":17,
			"componentType":5126,
			"count":2,
			"type":"VEC3"
		},
		{
			"bufferView":18,
			"componentType":5126,
			"count":101,
			"type":"VEC3"
		},
		{
			"bufferView":19,
			"componentType":5126,
			"count":101,
			"type":"VEC4"
		},
		{
			"bufferView":20,
			"componentType":5126,
			"count":2,
			"type":"VEC3"
		},
		{
			"bufferView":21,
			"componentType":5126,
			"count":2,
			"type":"VEC3"
		},
		{
			"bufferView":22,
			"componentType":5126,
			"count":101,
			"type":"VEC4"
		},
		{
			"bufferView":23,
			"componentType":5126,
			"count":2,
			"type":"VEC3"
		},
		{
			"bufferView":24,
			"componentType":5126,
			"count":2,
			"type":"VEC3"
		},
		{
			"bufferView":25,
			"componentType":5126,
			"count":101,
			"type":"VEC4"
		},
		{
			"bufferView":26,
			"componentType":5126,
			"count":2,
			"type":"VEC3"
		},
		{
			"bufferView":27,
			"componentType":5126,
			"count":101,
			"type":"VEC3"
		},
		{
			"bufferView":28,
			"componentType":5126,
			"count":101,
			"type":"VEC4"
		},
		{
			"bufferView":29,
			"componentType":5126,
			"count":2,
			"type":"VEC3"
		},
		{
			"bufferView":30,
			"componentType":5126,
			"count":2,
			"type":"VEC3"
		},
		{
			"bufferView":31,
			"componentType":5126,
			"count":101,
			"type":"VEC4"
		},
		{
			"bufferView":32,
			"componentType":5126,
			"count":2,
			"type":"VEC3"
		},
		{
			"bufferView":33,
			"componentType":5126,
			"count":2,
			"type":"VEC3"
		},
		{
			"bufferView":34,
			"componentType":5126,
			"count":101,
			"type":"VEC4"
		},
		{
			"bufferView":35,
			"componentType":5126,
			"count":2,
			"type":"VEC3"
		}
	],
	"bufferViews":[
		{
			"buffer":0,
			"byteLength":9540,
			"byteOffset":0,
			"target":34962
		},
		{
			"buffer":0,
			"byteLength":9540,
			"byteOffset":9540,
			"target":34962
		},
		{
			"buffer":0,
			"byteLength":6360,
			"byteOffset":19080,
			"target":34962
		},
		{
			"buffer":0,
			"byteLength":3180,
			"byteOffset":25440,
			"target":34962
		},
		{
			"buffer":0,
			"byteLength":12720,
			"byteOffset":28620,
			"target":34962
		},
		{
			"buffer":0,
			"byteLength":1950,
			"byteOffset":41340,
			"target":34963
		},
		{
			"buffer":0,
			"byteLength":576,
			"byteOffset":43292
		},
		{
			"buffer":0,
			"byteLength":404,
			"byteOffset":43868
		},
		{
			"buffer":0,
			"byteLength":1212,
			"byteOffset":44272
		},
		{
			"buffer":0,
			"byteLength":1616,
			"byteOffset":45484
		},
		{
			"buffer":0,
			"byteLength":8,
			"byteOffset":47100
		},
		{
			"buffer":0,
			"byteLength":24,
			"byteOffset":47108
		},
		{
			"buffer":0,
			"byteLength":1212,
			"byteOffset":47132
		},
		{
			"buffer":0,
			"byteLength":1616,
			"byteOffset":48344
		},
		{
			"buffer":0,
			"byteLength":24,
			"byteOffset":49960
		},
		{
			"buffer":0,
			"byteLength":24,
			"byteOffset":49984
		},
		{
			"buffer":0,
			"byteLength":1616,
			"byteOffset":50008
		},
		{
			"buffer":0,
			"byteLength":24,
			"byteOffset":51624
		},
		{
			"buffer":0,
			"byteLength":1212,
			"byteOffset":51648
		},
		{
			"buffer":0,
			"byteLength":1616,
			"byteOffset":52860
		},
		{
			"buffer":0,
			"byteLength":24,
			"byteOffset":54476
		},
		{
			"buffer":0,
			"byteLength":24,
			"byteOffset":54500
		},
		{
			"buffer":0,
			"byteLength":1616,
			"byteOffset":54524
		},
		{
			"buffer":0,
			"byteLength":24,
			"byteOffset":56140
		},
		{
			"buffer":0,
			"byteLength":24,
			"byteOffset":56164
		},
		{
			"buffer":0,
			"byteLength":1616,
			"byteOffset":56188
		},
		{
			"buffer":0,
			"byteLength":24,
			"byteOffset":57804
		},
		{
			"buffer":0,
			"byteLength":1212,
			"byteOffset":57828
		},
		{
			"buffer":0,
			"byteLength":1616,
			"byteOffset":59040
		},
		{
			"buffer":0,
			"byteLength":24,
			"byteOffset":60656
		},
		{
			"buffer":0,
			"byteLength":24,
			"byteOffset":60680
		},
		{
			"buffer":0,
			"byteLength":1616,
			"byteOffset":60704
		},
		{
			"buffer":0,
			"byteLength":24,
			"byteOffset":62320
		},
		{
			"buffer":0,
			"byteLength":24,
			"byteOffset":62344
		},
		{
			"buffer":0,
			"byteLength":1616,
			"byteOffset":62368
		},
		{
			"buffer":0,
			"byteLength":24,
			"byteOffset":63984
		}
	],
	"samplers":[
		{
			"magFilter":9729,
			"minFilter":9987
		}
	],
	"buffers":[
		{
			"byteLength":64008,
			"uri":"Bird.bin"
		}
	]
}
