# Blender 4.2.0
# www.blender.org
mtllib UFOSmoke.mtl
o 平面
v -4299.987793 368.230499 1171.256592
v -3993.839600 368.230499 1171.256592
v -4299.987793 268.230499 1171.256592
v -3993.839600 268.230499 1171.256592
v -4299.987793 471.052246 1171.256592
v -3993.839600 471.052246 1171.256592
v -4299.987793 563.861938 1171.256592
v -3993.839600 563.861938 1171.256592
vn -0.0000 -0.0000 -1.0000
vt 1.000000 0.333383
vt 0.000000 0.314500
vt 0.000000 0.000000
vt 1.000000 0.000000
vt 1.000000 0.686113
vt 0.000000 0.667230
vt 1.000000 1.000000
vt 0.000000 1.000000
s 0
usemtl マテリアル
f 1/1/1 2/2/1 4/3/1 3/4/1
f 2/2/1 1/1/1 5/5/1 6/6/1
f 6/6/1 5/5/1 7/7/1 8/8/1
