{
	"asset":{
		"generator":"Khronos glTF Blender I/O v4.2.57",
		"version":"2.0"
	},
	"scene":0,
	"scenes":[
		{
			"name":"Scene",
			"nodes":[
				7
			]
		}
	],
	"nodes":[
		{
			"name":"\u30dc\u30fc\u30f3",
			"rotation":[
				0.012775857001543045,
				-4.142216525337972e-08,
				-0.013955799862742424,
				0.9998210072517395
			],
			"translation":[
				0.28467464447021484,
				0,
				-5.360202789306641
			]
		},
		{
			"name":"\u30dc\u30fc\u30f3.001",
			"rotation":[
				-0.19122351706027985,
				-1.9506618542664e-08,
				-0.07403399050235748,
				0.9787505269050598
			],
			"translation":[
				0.02620782144367695,
				2.5745553970336914,
				0.18761272728443146
			]
		},
		{
			"name":"\u30dc\u30fc\u30f3.002",
			"rotation":[
				0.012775970622897148,
				-8.304081688947917e-08,
				-0.013955961912870407,
				0.9998210072517395
			],
			"scale":[
				0.9999998807907104,
				1,
				1
			],
			"translation":[
				4.403526306152344,
				-0.7376377582550049,
				-0.09041160345077515
			]
		},
		{
			"name":"\u30dc\u30fc\u30f3.003",
			"rotation":[
				0.012775971554219723,
				-4.367084116552178e-08,
				-0.013955800794064999,
				0.9998210072517395
			],
			"translation":[
				-0.39818549156188965,
				-0.792515218257904,
				2.976149320602417
			]
		},
		{
			"name":"\u30dc\u30fc\u30f3.004",
			"rotation":[
				0.01277594082057476,
				-6.417815967552087e-08,
				-0.013955819420516491,
				0.9998210072517395
			],
			"scale":[
				1,
				0.9999999403953552,
				0.9999999403953552
			],
			"translation":[
				-2.785600185394287,
				-0.9875856041908264,
				-1.1198118925094604
			]
		},
		{
			"name":"\u30dc\u30fc\u30f3.005",
			"rotation":[
				0.012775973416864872,
				-4.2739351613363397e-08,
				-0.01395579893141985,
				0.9998210072517395
			],
			"translation":[
				-0.014174461364746094,
				-2.0695714950561523,
				-0.5356549024581909
			]
		},
		{
			"mesh":0,
			"name":"Cube_cell.005",
			"skin":0
		},
		{
			"children":[
				6,
				0,
				1,
				2,
				3,
				4,
				5
			],
			"name":"\u30a2\u30fc\u30de\u30c1\u30e5\u30a2"
		}
	],
	"animations":[
		{
			"channels":[
				{
					"sampler":0,
					"target":{
						"node":0,
						"path":"translation"
					}
				},
				{
					"sampler":1,
					"target":{
						"node":0,
						"path":"rotation"
					}
				},
				{
					"sampler":2,
					"target":{
						"node":0,
						"path":"scale"
					}
				},
				{
					"sampler":3,
					"target":{
						"node":1,
						"path":"translation"
					}
				},
				{
					"sampler":4,
					"target":{
						"node":1,
						"path":"rotation"
					}
				},
				{
					"sampler":5,
					"target":{
						"node":1,
						"path":"scale"
					}
				},
				{
					"sampler":6,
					"target":{
						"node":2,
						"path":"translation"
					}
				},
				{
					"sampler":7,
					"target":{
						"node":2,
						"path":"rotation"
					}
				},
				{
					"sampler":8,
					"target":{
						"node":2,
						"path":"scale"
					}
				},
				{
					"sampler":9,
					"target":{
						"node":3,
						"path":"translation"
					}
				},
				{
					"sampler":10,
					"target":{
						"node":3,
						"path":"rotation"
					}
				},
				{
					"sampler":11,
					"target":{
						"node":3,
						"path":"scale"
					}
				},
				{
					"sampler":12,
					"target":{
						"node":4,
						"path":"translation"
					}
				},
				{
					"sampler":13,
					"target":{
						"node":4,
						"path":"rotation"
					}
				},
				{
					"sampler":14,
					"target":{
						"node":4,
						"path":"scale"
					}
				},
				{
					"sampler":15,
					"target":{
						"node":5,
						"path":"translation"
					}
				},
				{
					"sampler":16,
					"target":{
						"node":5,
						"path":"rotation"
					}
				},
				{
					"sampler":17,
					"target":{
						"node":5,
						"path":"scale"
					}
				}
			],
			"name":"\u30a2\u30fc\u30de\u30c1\u30e5\u30a2\u30a2\u30af\u30b7\u30e7\u30f3.001",
			"samplers":[
				{
					"input":7,
					"interpolation":"LINEAR",
					"output":8
				},
				{
					"input":7,
					"interpolation":"LINEAR",
					"output":9
				},
				{
					"input":7,
					"interpolation":"LINEAR",
					"output":10
				},
				{
					"input":7,
					"interpolation":"LINEAR",
					"output":11
				},
				{
					"input":7,
					"interpolation":"LINEAR",
					"output":12
				},
				{
					"input":7,
					"interpolation":"LINEAR",
					"output":13
				},
				{
					"input":7,
					"interpolation":"LINEAR",
					"output":14
				},
				{
					"input":7,
					"interpolation":"LINEAR",
					"output":15
				},
				{
					"input":7,
					"interpolation":"LINEAR",
					"output":16
				},
				{
					"input":7,
					"interpolation":"LINEAR",
					"output":17
				},
				{
					"input":7,
					"interpolation":"LINEAR",
					"output":18
				},
				{
					"input":7,
					"interpolation":"LINEAR",
					"output":19
				},
				{
					"input":7,
					"interpolation":"LINEAR",
					"output":20
				},
				{
					"input":7,
					"interpolation":"LINEAR",
					"output":21
				},
				{
					"input":7,
					"interpolation":"LINEAR",
					"output":22
				},
				{
					"input":7,
					"interpolation":"LINEAR",
					"output":23
				},
				{
					"input":7,
					"interpolation":"LINEAR",
					"output":24
				},
				{
					"input":7,
					"interpolation":"LINEAR",
					"output":25
				}
			]
		}
	],
	"materials":[
		{
			"doubleSided":true,
			"name":"Material",
			"pbrMetallicRoughness":{
				"baseColorTexture":{
					"index":0
				},
				"metallicFactor":0,
				"roughnessFactor":0.5
			}
		}
	],
	"meshes":[
		{
			"name":"Cube_cell.004",
			"primitives":[
				{
					"attributes":{
						"POSITION":0,
						"NORMAL":1,
						"TEXCOORD_0":2,
						"JOINTS_0":3,
						"WEIGHTS_0":4
					},
					"indices":5,
					"material":0
				}
			]
		}
	],
	"textures":[
		{
			"sampler":0,
			"source":0
		}
	],
	"images":[
		{
			"mimeType":"image/png",
			"name":"Fish",
			"uri":"Fish.png"
		}
	],
	"skins":[
		{
			"inverseBindMatrices":6,
			"joints":[
				0,
				1,
				2,
				3,
				4,
				5
			],
			"name":"\u30a2\u30fc\u30de\u30c1\u30e5\u30a2"
		}
	],
	"accessors":[
		{
			"bufferView":0,
			"componentType":5126,
			"count":1408,
			"max":[
				5.0603461265563965,
				4.693761825561523,
				3.6744699478149414
			],
			"min":[
				-3.678386688232422,
				-2.261453628540039,
				-6.981359958648682
			],
			"type":"VEC3"
		},
		{
			"bufferView":1,
			"componentType":5126,
			"count":1408,
			"type":"VEC3"
		},
		{
			"bufferView":2,
			"componentType":5126,
			"count":1408,
			"type":"VEC2"
		},
		{
			"bufferView":3,
			"componentType":5121,
			"count":1408,
			"type":"VEC4"
		},
		{
			"bufferView":4,
			"componentType":5126,
			"count":1408,
			"type":"VEC4"
		},
		{
			"bufferView":5,
			"componentType":5123,
			"count":2016,
			"type":"SCALAR"
		},
		{
			"bufferView":6,
			"componentType":5126,
			"count":6,
			"type":"MAT4"
		},
		{
			"bufferView":7,
			"componentType":5126,
			"count":61,
			"max":[
				1
			],
			"min":[
				0
			],
			"type":"SCALAR"
		},
		{
			"bufferView":8,
			"componentType":5126,
			"count":61,
			"type":"VEC3"
		},
		{
			"bufferView":9,
			"componentType":5126,
			"count":61,
			"type":"VEC4"
		},
		{
			"bufferView":10,
			"componentType":5126,
			"count":61,
			"type":"VEC3"
		},
		{
			"bufferView":11,
			"componentType":5126,
			"count":61,
			"type":"VEC3"
		},
		{
			"bufferView":12,
			"componentType":5126,
			"count":61,
			"type":"VEC4"
		},
		{
			"bufferView":13,
			"componentType":5126,
			"count":61,
			"type":"VEC3"
		},
		{
			"bufferView":14,
			"componentType":5126,
			"count":61,
			"type":"VEC3"
		},
		{
			"bufferView":15,
			"componentType":5126,
			"count":61,
			"type":"VEC4"
		},
		{
			"bufferView":16,
			"componentType":5126,
			"count":61,
			"type":"VEC3"
		},
		{
			"bufferView":17,
			"componentType":5126,
			"count":61,
			"type":"VEC3"
		},
		{
			"bufferView":18,
			"componentType":5126,
			"count":61,
			"type":"VEC4"
		},
		{
			"bufferView":19,
			"componentType":5126,
			"count":61,
			"type":"VEC3"
		},
		{
			"bufferView":20,
			"componentType":5126,
			"count":61,
			"type":"VEC3"
		},
		{
			"bufferView":21,
			"componentType":5126,
			"count":61,
			"type":"VEC4"
		},
		{
			"bufferView":22,
			"componentType":5126,
			"count":61,
			"type":"VEC3"
		},
		{
			"bufferView":23,
			"componentType":5126,
			"count":61,
			"type":"VEC3"
		},
		{
			"bufferView":24,
			"componentType":5126,
			"count":61,
			"type":"VEC4"
		},
		{
			"bufferView":25,
			"componentType":5126,
			"count":61,
			"type":"VEC3"
		}
	],
	"bufferViews":[
		{
			"buffer":0,
			"byteLength":16896,
			"byteOffset":0,
			"target":34962
		},
		{
			"buffer":0,
			"byteLength":16896,
			"byteOffset":16896,
			"target":34962
		},
		{
			"buffer":0,
			"byteLength":11264,
			"byteOffset":33792,
			"target":34962
		},
		{
			"buffer":0,
			"byteLength":5632,
			"byteOffset":45056,
			"target":34962
		},
		{
			"buffer":0,
			"byteLength":22528,
			"byteOffset":50688,
			"target":34962
		},
		{
			"buffer":0,
			"byteLength":4032,
			"byteOffset":73216,
			"target":34963
		},
		{
			"buffer":0,
			"byteLength":384,
			"byteOffset":77248
		},
		{
			"buffer":0,
			"byteLength":244,
			"byteOffset":77632
		},
		{
			"buffer":0,
			"byteLength":732,
			"byteOffset":77876
		},
		{
			"buffer":0,
			"byteLength":976,
			"byteOffset":78608
		},
		{
			"buffer":0,
			"byteLength":732,
			"byteOffset":79584
		},
		{
			"buffer":0,
			"byteLength":732,
			"byteOffset":80316
		},
		{
			"buffer":0,
			"byteLength":976,
			"byteOffset":81048
		},
		{
			"buffer":0,
			"byteLength":732,
			"byteOffset":82024
		},
		{
			"buffer":0,
			"byteLength":732,
			"byteOffset":82756
		},
		{
			"buffer":0,
			"byteLength":976,
			"byteOffset":83488
		},
		{
			"buffer":0,
			"byteLength":732,
			"byteOffset":84464
		},
		{
			"buffer":0,
			"byteLength":732,
			"byteOffset":85196
		},
		{
			"buffer":0,
			"byteLength":976,
			"byteOffset":85928
		},
		{
			"buffer":0,
			"byteLength":732,
			"byteOffset":86904
		},
		{
			"buffer":0,
			"byteLength":732,
			"byteOffset":87636
		},
		{
			"buffer":0,
			"byteLength":976,
			"byteOffset":88368
		},
		{
			"buffer":0,
			"byteLength":732,
			"byteOffset":89344
		},
		{
			"buffer":0,
			"byteLength":732,
			"byteOffset":90076
		},
		{
			"buffer":0,
			"byteLength":976,
			"byteOffset":90808
		},
		{
			"buffer":0,
			"byteLength":732,
			"byteOffset":91784
		}
	],
	"samplers":[
		{
			"magFilter":9729,
			"minFilter":9987
		}
	],
	"buffers":[
		{
			"byteLength":92516,
			"uri":"FishDestroy.bin"
		}
	]
}
