# Blender 4.2.0
# www.blender.org
mtllib Player_Tail.mtl
o 立方体
v -1.000000 -0.416073 -1.000000
v -1.000000 -1.000000 -0.416073
v -1.000000 1.000000 -0.416073
v -1.000000 0.416073 -1.000000
v 1.725878 -1.067363 -0.152739
v 2.443564 -0.345763 -0.367098
v 3.466327 0.682579 -0.367098
v 4.184014 1.404180 -0.152739
v -1.000000 -1.000000 0.416073
v -1.000000 -0.416073 1.000000
v -1.000000 0.416073 1.000000
v -1.000000 1.000000 0.416073
v 2.443564 -0.345763 0.367098
v 1.725878 -1.067363 0.152740
v 4.184014 1.404180 0.152740
v 3.466327 0.682579 0.367098
v 0.302373 -0.301209 -0.473938
v 0.302373 -0.724663 -0.196994
v -1.000000 -1.291041 -0.536626
v -1.000000 -0.536626 -1.291041
v -1.000000 0.536626 -1.291041
v -1.000000 1.291041 -0.536626
v 0.302373 0.724663 -0.196994
v 0.302373 0.301209 -0.473938
v -1.000000 -0.536626 1.291041
v -1.000000 -1.291041 0.536626
v 0.302373 -0.724663 0.196994
v 0.302373 -0.301209 0.473938
v 0.302373 0.301209 0.473938
v 0.302373 0.724663 0.196994
v -1.000000 1.291041 0.536626
v -1.000000 0.536626 1.291041
vn -0.0036 -0.3926 0.9197
vn -1.0000 -0.0000 -0.0000
vn -0.2341 -0.9722 -0.0000
vn 0.0419 -0.0263 0.9988
vn -0.0036 -0.3923 -0.9198
vn -0.0037 -0.3923 -0.9198
vn -0.1724 0.9850 -0.0000
vn 0.5315 -0.0000 0.8471
vn 0.3988 0.9170 -0.0000
vn 0.5315 -0.0000 -0.8471
vn 0.4151 -0.4980 -0.7614
vn 0.4962 0.6139 -0.6139
vn 0.4962 -0.6139 0.6139
vn 0.4151 0.4980 0.7614
vn 0.3988 -0.9170 -0.0000
vn 0.0419 -0.0263 -0.9988
vn -0.0434 0.4170 0.9079
vn -0.0432 0.4166 -0.9081
vn -0.0432 0.4165 0.9081
vn -0.0037 -0.3922 0.9199
vn -0.0434 0.4169 -0.9079
vn -0.0433 0.4169 -0.9079
vn -0.0036 -0.3925 -0.9198
vn 0.4962 -0.6139 -0.6139
vn 0.4151 0.4980 -0.7614
vn 0.4151 -0.4980 0.7614
vn 0.4962 0.6139 0.6139
vt 0.723215 0.726473
vt 0.723215 0.950097
vt 0.670501 0.947741
vt 0.105716 0.723700
vt 0.220481 0.688640
vt 0.205959 0.723700
vt 0.035375 0.794041
vt 0.091194 0.688640
vt 0.768777 0.853079
vt 0.925767 0.853079
vt 0.776178 0.884065
vt 0.515847 0.695306
vt 0.842925 0.635312
vt 0.861568 0.695306
vt 0.311360 0.779519
vt 0.276300 0.794041
vt 0.537004 0.726473
vt 0.600005 0.814765
vt 0.537004 0.953933
vt 0.421121 0.366820
vt 0.833696 0.366820
vt 0.423937 0.398552
vt 0.134848 0.275584
vt 0.337765 0.333147
vt 0.150864 0.346363
vt 0.063667 0.197152
vt 0.232261 0.104123
vt 0.103110 0.223548
vt 0.147947 0.652734
vt 0.000316 0.502091
vt 0.070131 0.482290
vt 0.246583 0.570340
vt 0.120384 0.447799
vt 0.124815 0.032217
vt 0.003460 0.187656
vt 0.000316 0.000316
vt 0.312605 0.459182
vt 0.144621 0.406994
vt 0.035375 0.894283
vt 0.000316 0.779519
vt 0.105716 0.964625
vt 0.000316 0.908806
vt 0.646707 0.543825
vt 0.780330 0.472957
vt 0.992428 0.543825
vt 0.487527 0.299316
vt 0.895364 0.248531
vt 0.909688 0.299316
vt 0.311360 0.908806
vt 0.276300 0.894283
vt 0.386941 0.222594
vt 0.480987 0.168557
vt 0.809102 0.222594
vt 0.205959 0.964625
vt 0.091194 0.999684
vt 0.220481 0.999684
vt 0.647979 0.164105
vt 0.553933 0.110068
vt 0.976094 0.110068
vt 0.549861 0.534186
vt 0.416238 0.463317
vt 0.761959 0.463317
vt 0.432441 0.818672
vt 0.495442 0.730379
vt 0.495442 0.957840
vt 0.974465 0.361390
vt 0.566628 0.310605
vt 0.988789 0.310605
vt 0.701323 0.640625
vt 0.374246 0.580630
vt 0.719967 0.580630
vt 0.618130 0.944009
vt 0.669955 0.726473
vt 0.669955 0.953933
vt 0.777876 0.912649
vt 0.930640 0.912649
vt 0.929399 0.953718
vt 0.550027 0.401052
vt 0.961013 0.401052
vt 0.960552 0.442137
vt 0.309231 0.207048
vt 0.023566 0.688009
s 0
usemtl マテリアル.001
f 13/1/1 28/2/1 27/3/1
f 2/4/2 26/5/2 9/6/2
f 1/7/2 19/8/2 2/4/2
f 14/9/3 18/10/3 5/11/3
f 16/12/4 29/13/4 28/14/4
f 9/6/2 25/15/2 10/16/2
f 6/17/5 5/18/6 18/19/6
f 8/20/7 30/21/7 15/22/7
f 29/23/8 25/24/8 28/25/8
f 23/26/9 31/27/9 30/28/9
f 20/29/10 24/30/10 17/31/10
f 19/32/11 17/31/11 18/33/11
f 22/34/12 24/35/12 21/36/12
f 26/37/13 28/25/13 25/24/13
f 31/27/14 29/23/14 30/28/14
f 27/38/15 19/32/15 18/33/15
f 4/39/2 20/40/2 1/7/2
f 3/41/2 21/42/2 4/39/2
f 7/43/16 6/44/16 17/45/16
f 15/46/17 30/47/17 29/48/17
f 10/16/2 32/49/2 11/50/2
f 8/51/18 7/52/18 24/53/18
f 12/54/2 22/55/2 3/41/2
f 11/50/2 31/56/2 12/54/2
f 16/57/19 15/58/19 29/59/19
f 13/60/4 16/61/4 28/62/4
f 14/63/20 13/64/20 27/65/20
f 23/66/21 8/67/22 24/68/22
f 24/69/16 7/70/16 17/71/16
f 17/72/23 6/73/23 18/74/23
f 2/4/2 19/8/2 26/5/2
f 1/7/2 20/40/2 19/8/2
f 14/75/3 27/76/3 18/77/3
f 9/6/2 26/5/2 25/15/2
f 8/78/7 23/79/7 30/80/7
f 29/23/8 32/81/8 25/24/8
f 23/26/9 22/34/9 31/27/9
f 20/29/10 21/82/10 24/30/10
f 19/32/24 20/29/24 17/31/24
f 22/34/25 23/26/25 24/35/25
f 26/37/26 27/38/26 28/25/26
f 31/27/27 32/81/27 29/23/27
f 27/38/15 26/37/15 19/32/15
f 4/39/2 21/42/2 20/40/2
f 3/41/2 22/55/2 21/42/2
f 10/16/2 25/15/2 32/49/2
f 12/54/2 31/56/2 22/55/2
f 11/50/2 32/49/2 31/56/2
