# Blender 4.2.0
# www.blender.org
mtllib Player_Torso.mtl
o 立方体
v -1.000000 -0.416073 -1.000000
v -1.000000 -1.000000 -0.416073
v -1.000000 1.000000 -0.416073
v -1.000000 0.416073 -1.000000
v 1.000000 -1.000000 -0.416073
v 1.000000 -0.416073 -1.000000
v 1.000000 0.416073 -1.000000
v 1.000000 1.000000 -0.416073
v -1.000000 -1.000000 0.416073
v -1.000000 -0.416073 1.000000
v -1.000000 0.416073 1.000000
v -1.000000 1.000000 0.416073
v 1.000000 -0.416073 1.000000
v 1.000000 -1.000000 0.416073
v 1.000000 1.000000 0.416073
v 1.000000 0.416073 1.000000
v 1.000000 -0.536626 -1.291041
v 1.000000 -1.291041 -0.536626
v -1.000000 -1.291041 -0.536626
v -1.000000 -0.536626 -1.291041
v -1.000000 0.536626 -1.291041
v -1.000000 1.291041 -0.536626
v 1.000000 1.291041 -0.536626
v 1.000000 0.536626 -1.291041
v -1.000000 -0.536626 1.291041
v -1.000000 -1.291041 0.536626
v 1.000000 -1.291041 0.536626
v 1.000000 -0.536626 1.291041
v 1.000000 0.536626 1.291041
v 1.000000 1.291041 0.536626
v -1.000000 1.291041 0.536626
v -1.000000 0.536626 1.291041
vn 1.0000 -0.0000 -0.0000
vn -1.0000 -0.0000 -0.0000
vn -0.0000 -0.0000 1.0000
vn -0.0000 1.0000 -0.0000
vn -0.0000 -0.0000 -1.0000
vn -0.0000 -0.7071 -0.7071
vn -0.0000 0.7071 -0.7071
vn -0.0000 -0.7071 0.7071
vn -0.0000 0.7071 0.7071
vn -0.0000 -1.0000 -0.0000
vt 0.101700 0.229405
vt 0.136926 0.264630
vt 0.129653 0.282187
vt 0.084143 0.236677
vt 0.101700 0.335082
vt 0.101700 0.385282
vt 0.084143 0.392554
vt 0.084143 0.327810
vt 0.136926 0.420508
vt 0.129653 0.438065
vt 0.101700 0.179205
vt 0.084143 0.171933
vt 0.187125 0.264630
vt 0.194398 0.282187
vt 0.136926 0.299857
vt 0.129653 0.282300
vt 0.136926 0.143979
vt 0.129653 0.126422
vt 0.222351 0.229405
vt 0.222351 0.179205
vt 0.239908 0.171933
vt 0.239908 0.236677
vt 0.311311 0.869803
vt 0.230741 0.965822
vt 0.051811 0.815681
vt 0.132380 0.719662
vt 0.793297 0.295395
vt 0.712728 0.391413
vt 0.533797 0.241273
vt 0.614366 0.145254
vt 0.373135 0.432742
vt 0.453704 0.336724
vt 0.632635 0.486864
vt 0.552065 0.582883
vt 0.471973 0.678334
vt 0.293042 0.528193
vt 0.212473 0.624212
vt 0.391403 0.774352
vt 0.694459 0.049803
vt 0.873390 0.199944
vt 0.187125 0.420508
vt 0.194398 0.438065
vt 0.222351 0.385282
vt 0.239908 0.392554
vt 0.187125 0.143979
vt 0.194398 0.126422
vt 0.187125 0.299857
vt 0.194398 0.282300
vt 0.222351 0.335082
vt 0.239908 0.327810
s 0
usemtl マテリアル
f 14/1/1 13/2/1 28/3/1 27/4/1
f 9/5/2 2/6/2 19/7/2 26/8/2
f 2/6/2 1/9/2 20/10/2 19/7/2
f 5/11/1 14/1/1 27/4/1 18/12/1
f 13/2/1 16/13/1 29/14/1 28/3/1
f 10/15/2 9/5/2 26/8/2 25/16/2
f 6/17/1 5/11/1 18/12/1 17/18/1
f 15/19/1 8/20/1 23/21/1 30/22/1
f 28/23/3 29/24/3 32/25/3 25/26/3
f 30/27/4 23/28/4 22/29/4 31/30/4
f 20/31/5 21/32/5 24/33/5 17/34/5
f 18/35/6 19/36/6 20/31/6 17/34/6
f 22/29/7 23/28/7 24/33/7 21/32/7
f 26/37/8 27/38/8 28/23/8 25/26/8
f 30/27/9 31/30/9 32/39/9 29/40/9
f 18/35/10 27/38/10 26/37/10 19/36/10
f 1/9/2 4/41/2 21/42/2 20/10/2
f 4/41/2 3/43/2 22/44/2 21/42/2
f 7/45/1 6/17/1 17/18/1 24/46/1
f 16/13/1 15/19/1 30/22/1 29/14/1
f 11/47/2 10/15/2 25/16/2 32/48/2
f 8/20/1 7/45/1 24/46/1 23/21/1
f 3/43/2 12/49/2 31/50/2 22/44/2
f 12/49/2 11/47/2 32/48/2 31/50/2
