# Blender 4.2.0
# www.blender.org
mtllib Player.mtl
o 立方体
v -1.000000 -0.432404 -7.802302
v -0.416073 -1.016331 -7.802302
v -0.416073 0.983669 -7.802302
v -1.000000 0.399742 -7.802302
v -0.152739 -1.083694 -10.528180
v -0.367098 -0.362094 -11.245867
v -0.367098 0.666248 -12.268629
v -0.152739 1.387849 -12.986317
v 0.416073 -1.016331 -7.802302
v 1.000000 -0.432404 -7.802302
v 1.000000 0.399742 -7.802302
v 0.416073 0.983669 -7.802302
v 0.367098 -0.362094 -11.245867
v 0.152739 -1.083694 -10.528180
v 0.152739 1.387849 -12.986317
v 0.367098 0.666248 -12.268629
v -0.473938 -0.317540 -9.104675
v -0.196994 -0.740994 -9.104675
v -0.536626 -1.307372 -7.802302
v -1.291041 -0.552957 -7.802302
v -1.291041 0.520295 -7.802302
v -0.536626 1.274710 -7.802302
v -0.196994 0.708332 -9.104675
v -0.473938 0.284878 -9.104675
v 1.291041 -0.552957 -7.802302
v 0.536626 -1.307372 -7.802302
v 0.196994 -0.740994 -9.104675
v 0.473938 -0.317540 -9.104675
v 0.473938 0.284878 -9.104675
v 0.196994 0.708332 -9.104675
v 0.536626 1.274710 -7.802302
v 1.291041 0.520295 -7.802302
v 1.291040 0.507388 1.718554
v 0.523719 1.274709 1.718554
v 0.523719 1.274709 -0.281446
v 1.291040 0.507388 -0.281446
v -1.291040 -0.540050 1.718554
v -0.523719 -1.307371 1.718554
v -0.523719 -1.307371 -0.281446
v -1.291040 -0.540050 -0.281446
v 0.403166 0.983669 -0.281446
v 1.000000 0.386835 -0.281446
v 1.000000 -0.419497 -0.281446
v 0.403166 -1.016331 -0.281446
v 1.000000 0.386835 1.718554
v 0.403166 0.983669 1.718554
v 0.403166 -1.016331 1.718554
v 1.000000 -0.419497 1.718554
v -1.000000 0.386835 -0.281446
v -0.403166 0.983669 -0.281446
v -0.403166 -1.016331 -0.281446
v -1.000000 -0.419497 -0.281446
v -0.403166 0.983669 1.718554
v -1.000000 0.386835 1.718554
v -1.000000 -0.419497 1.718554
v -0.403166 -1.016331 1.718554
v -1.291040 0.507388 1.718554
v -0.523719 1.274709 1.718554
v -0.523719 1.274709 -0.281446
v -1.291040 0.507388 -0.281446
v 1.291040 -0.540050 1.718554
v 0.523719 -1.307371 1.718554
v 0.523719 -1.307371 -0.281446
v 1.291040 -0.540050 -0.281446
v -1.291040 0.507388 2.124923
v -0.523719 1.274709 2.124923
v 0.523719 1.274709 2.124923
v 1.291040 0.507388 2.124923
v -0.523719 -1.307371 2.124923
v -1.291040 -0.540050 2.124923
v -1.000000 0.386835 2.124923
v -0.403166 -1.016331 2.124923
v -1.000000 -0.419497 2.124923
v -0.403166 0.983669 2.124923
v 0.403166 0.983669 2.124923
v 1.000000 0.386835 2.124923
v 0.523719 -1.307371 2.124923
v 0.403166 -1.016331 2.124923
v 1.000000 -0.419497 2.124923
v 1.291040 -0.540050 2.124923
v -1.000000 -0.399742 -0.698403
v -0.416073 -0.983669 -0.698403
v -0.416073 1.016331 -0.698403
v -1.000000 0.432404 -0.698403
v -0.416073 -0.983669 -2.698403
v -1.000000 -0.399742 -2.698403
v -1.000000 0.432404 -2.698403
v -0.416073 1.016331 -2.698403
v 0.416073 -0.983669 -0.698403
v 1.000000 -0.399742 -0.698403
v 1.000000 0.432404 -0.698403
v 0.416073 1.016331 -0.698403
v 1.000000 -0.399742 -2.698403
v 0.416073 -0.983669 -2.698403
v 0.416073 1.016331 -2.698403
v 1.000000 0.432404 -2.698403
v -1.291041 -0.520295 -2.698403
v -0.536626 -1.274710 -2.698403
v -0.536626 -1.274710 -0.698403
v -1.291041 -0.520295 -0.698403
v -1.291041 0.552957 -0.698403
v -0.536626 1.307372 -0.698403
v -0.536626 1.307372 -2.698403
v -1.291041 0.552957 -2.698403
v 1.291041 -0.520295 -0.698403
v 0.536626 -1.274710 -0.698403
v 0.536626 -1.274710 -2.698403
v 1.291041 -0.520295 -2.698403
v 1.291041 0.552957 -2.698403
v 0.536626 1.307372 -2.698403
v 0.536626 1.307372 -0.698403
v 1.291041 0.552957 -0.698403
v -1.000000 -0.399742 -3.148024
v -0.416073 -0.983669 -3.148024
v -0.416073 1.016331 -3.148024
v -1.000000 0.432404 -3.148024
v -0.416073 -0.983669 -5.148024
v -1.000000 -0.399742 -5.148024
v -1.000000 0.432404 -5.148024
v -0.416073 1.016331 -5.148024
v 0.416073 -0.983669 -3.148024
v 1.000000 -0.399742 -3.148024
v 1.000000 0.432404 -3.148024
v 0.416073 1.016331 -3.148024
v 1.000000 -0.399742 -5.148024
v 0.416073 -0.983669 -5.148024
v 0.416073 1.016331 -5.148024
v 1.000000 0.432404 -5.148024
v -1.291041 -0.520295 -5.148024
v -0.536626 -1.274710 -5.148024
v -0.536626 -1.274710 -3.148024
v -1.291041 -0.520295 -3.148024
v -1.291041 0.552957 -3.148024
v -0.536626 1.307372 -3.148024
v -0.536626 1.307372 -5.148024
v -1.291041 0.552957 -5.148024
v 1.291041 -0.520295 -3.148024
v 0.536626 -1.274710 -3.148024
v 0.536626 -1.274710 -5.148024
v 1.291041 -0.520295 -5.148024
v 1.291041 0.552957 -5.148024
v 0.536626 1.307372 -5.148024
v 0.536626 1.307372 -3.148024
v 1.291041 0.552957 -3.148024
v -1.000000 -0.399742 -5.499659
v -0.416073 -0.983669 -5.499659
v -0.416073 1.016331 -5.499659
v -1.000000 0.432404 -5.499659
v -0.416073 -0.983669 -7.499659
v -1.000000 -0.399742 -7.499659
v -1.000000 0.432404 -7.499659
v -0.416073 1.016331 -7.499659
v 0.416073 -0.983669 -5.499659
v 1.000000 -0.399742 -5.499659
v 1.000000 0.432404 -5.499659
v 0.416073 1.016331 -5.499659
v 1.000000 -0.399742 -7.499659
v 0.416073 -0.983669 -7.499659
v 0.416073 1.016331 -7.499659
v 1.000000 0.432404 -7.499659
v -1.291041 -0.520295 -7.499659
v -0.536626 -1.274710 -7.499659
v -0.536626 -1.274710 -5.499659
v -1.291041 -0.520295 -5.499659
v -1.291041 0.552957 -5.499659
v -0.536626 1.307372 -5.499659
v -0.536626 1.307372 -7.499659
v -1.291041 0.552957 -7.499659
v 1.291041 -0.520295 -5.499659
v 0.536626 -1.274710 -5.499659
v 0.536626 -1.274710 -7.499659
v 1.291041 -0.520295 -7.499659
v 1.291041 0.552957 -7.499659
v 0.536626 1.307372 -7.499659
v 0.536626 1.307372 -5.499659
v 1.291041 0.552957 -5.499659
vn 0.9197 -0.3926 0.0036
vn -0.0000 -0.0000 1.0000
vn -0.0000 -0.9722 0.2341
vn 0.9988 -0.0263 -0.0419
vn -0.9198 -0.3923 0.0036
vn -0.9198 -0.3923 0.0037
vn -0.0000 0.9850 0.1724
vn 0.8471 -0.0000 -0.5315
vn -0.0000 0.9170 -0.3988
vn -0.8471 -0.0000 -0.5315
vn -0.7614 -0.4980 -0.4151
vn -0.6139 0.6139 -0.4962
vn 0.6139 -0.6139 -0.4962
vn 0.7614 0.4980 -0.4151
vn -0.0000 -0.9170 -0.3988
vn -0.9988 -0.0263 -0.0419
vn 0.9079 0.4170 0.0434
vn -0.9081 0.4166 0.0432
vn -0.9081 0.4165 0.0432
vn 0.9081 0.4165 0.0432
vn 0.9199 -0.3922 0.0037
vn -0.9079 0.4169 0.0434
vn -0.9079 0.4169 0.0433
vn -0.9197 -0.3925 0.0036
vn -0.6139 -0.6139 -0.4962
vn -0.7614 0.4980 -0.4151
vn 0.7614 -0.4980 -0.4151
vn 0.6139 0.6139 -0.4962
vn -0.0000 -0.0000 -1.0000
vn -0.7071 0.7071 -0.0000
vn -0.0000 -1.0000 -0.0000
vn -0.7071 -0.7071 -0.0000
vn -1.0000 -0.0000 -0.0000
vn -0.0000 1.0000 -0.0000
vn 1.0000 -0.0000 -0.0000
vn 0.7071 0.7071 -0.0000
vn 0.7071 -0.7071 -0.0000
vt 0.723215 0.726473
vt 0.723215 0.950097
vt 0.670501 0.947741
vt 0.105716 0.723700
vt 0.220481 0.688640
vt 0.205959 0.723700
vt 0.035375 0.794041
vt 0.091194 0.688640
vt 0.768777 0.853079
vt 0.925767 0.853079
vt 0.776178 0.884065
vt 0.515847 0.695306
vt 0.842925 0.635312
vt 0.861568 0.695306
vt 0.311360 0.779519
vt 0.276300 0.794041
vt 0.537004 0.726473
vt 0.600005 0.814765
vt 0.537004 0.953933
vt 0.421121 0.366820
vt 0.833696 0.366820
vt 0.423937 0.398552
vt 0.134848 0.275584
vt 0.337765 0.333147
vt 0.150864 0.346363
vt 0.063667 0.197152
vt 0.232261 0.104123
vt 0.103110 0.223548
vt 0.147947 0.652734
vt 0.000316 0.502091
vt 0.070131 0.482290
vt 0.246583 0.570340
vt 0.120384 0.447799
vt 0.124815 0.032217
vt 0.003460 0.187656
vt 0.000316 0.000316
vt 0.312605 0.459182
vt 0.144621 0.406994
vt 0.035375 0.894283
vt 0.000316 0.779519
vt 0.105716 0.964625
vt 0.000316 0.908806
vt 0.646707 0.543825
vt 0.780330 0.472957
vt 0.992428 0.543825
vt 0.487527 0.299316
vt 0.895364 0.248531
vt 0.909688 0.299316
vt 0.311360 0.908806
vt 0.276300 0.894283
vt 0.386941 0.222594
vt 0.480987 0.168557
vt 0.809102 0.222594
vt 0.205959 0.964625
vt 0.091194 0.999684
vt 0.220481 0.999684
vt 0.647979 0.164105
vt 0.553933 0.110068
vt 0.976094 0.110068
vt 0.549861 0.534186
vt 0.416238 0.463317
vt 0.761959 0.463317
vt 0.432441 0.818672
vt 0.495442 0.730379
vt 0.495442 0.957840
vt 0.974465 0.361390
vt 0.566628 0.310605
vt 0.988789 0.310605
vt 0.701323 0.640625
vt 0.374246 0.580630
vt 0.719967 0.580630
vt 0.618130 0.944009
vt 0.669955 0.726473
vt 0.669955 0.953933
vt 0.777876 0.912649
vt 0.930640 0.912649
vt 0.929399 0.953718
vt 0.550027 0.401052
vt 0.961013 0.401052
vt 0.960552 0.442137
vt 0.309231 0.207048
vt 0.023566 0.688009
vt 0.892414 0.285041
vt 0.892414 0.145691
vt 0.942711 0.124857
vt 0.942711 0.305874
vt 0.961123 0.793297
vt 0.961123 0.857444
vt 0.930239 0.857444
vt 0.930239 0.793297
vt 0.563286 0.366366
vt 0.724248 0.366366
vt 0.724248 0.673709
vt 0.563286 0.673709
vt 0.892414 0.473630
vt 0.892414 0.334281
vt 0.942711 0.313447
vt 0.942711 0.494464
vt 0.853728 0.792834
vt 0.853728 0.710363
vt 0.884611 0.710363
vt 0.884611 0.792834
vt 0.681272 0.942428
vt 0.681272 0.862824
vt 0.712156 0.862824
vt 0.712156 0.942428
vt 0.841063 0.291559
vt 0.841063 0.145691
vt 0.891360 0.124857
vt 0.891360 0.312393
vt 0.853728 0.875767
vt 0.853728 0.793297
vt 0.884611 0.793297
vt 0.884611 0.875767
vt 0.000527 0.860612
vt 0.000527 0.714744
vt 0.050824 0.693911
vt 0.050824 0.881446
vt 0.542994 0.675270
vt 0.380398 0.675270
vt 0.380398 0.364806
vt 0.542994 0.364806
vt 0.357816 0.669337
vt 0.201434 0.669337
vt 0.201434 0.370739
vt 0.357816 0.370739
vt 0.580494 0.027638
vt 0.733114 0.027638
vt 0.733114 0.319054
vt 0.580494 0.319054
vt 0.177358 0.020255
vt 0.177358 0.326437
vt 0.011231 0.326437
vt 0.011231 0.020255
vt 0.367502 0.017391
vt 0.367502 0.329301
vt 0.198267 0.329301
vt 0.198267 0.017391
vt 0.390130 0.323267
vt 0.390130 0.023425
vt 0.552818 0.023425
vt 0.552818 0.323267
vt 0.171540 0.377670
vt 0.171540 0.662405
vt 0.017049 0.662405
vt 0.017049 0.377670
vt 0.102175 0.714744
vt 0.102176 0.860612
vt 0.051878 0.881446
vt 0.051878 0.693911
vt 0.921297 0.021361
vt 0.921297 0.160710
vt 0.871000 0.181544
vt 0.871000 0.000527
vt 0.869946 0.021361
vt 0.869946 0.167229
vt 0.819649 0.188063
vt 0.819649 0.000527
vt 0.250419 0.739352
vt 0.250419 0.878702
vt 0.200122 0.899536
vt 0.200122 0.718518
vt 0.774849 0.862824
vt 0.774849 0.942428
vt 0.743966 0.942428
vt 0.743966 0.862824
vt 0.806196 0.862824
vt 0.806196 0.942428
vt 0.775313 0.942428
vt 0.775313 0.862824
vt 0.921691 0.640836
vt 0.921691 0.704983
vt 0.890808 0.704983
vt 0.890808 0.640836
vt 0.890344 0.557902
vt 0.890344 0.640373
vt 0.859461 0.640373
vt 0.859461 0.557902
vt 0.597875 0.871986
vt 0.597875 0.936132
vt 0.575756 0.945294
vt 0.575756 0.862824
vt 0.938540 0.719525
vt 0.938540 0.780805
vt 0.916422 0.789967
vt 0.916422 0.710363
vt 0.635644 0.871986
vt 0.635644 0.936132
vt 0.613526 0.945294
vt 0.613526 0.862824
vt 0.851361 0.871986
vt 0.851361 0.933266
vt 0.829242 0.942428
vt 0.829242 0.862824
vt 0.636108 0.936132
vt 0.636108 0.871986
vt 0.658227 0.862824
vt 0.658227 0.945294
vt 0.853728 0.946673
vt 0.853728 0.885393
vt 0.875847 0.876231
vt 0.875847 0.955835
vt 0.658690 0.936132
vt 0.658690 0.871986
vt 0.680809 0.862824
vt 0.680809 0.945294
vt 0.885075 0.946673
vt 0.885075 0.885393
vt 0.907193 0.876231
vt 0.907193 0.955835
vt 0.939004 0.771643
vt 0.939004 0.710363
vt 0.969887 0.710363
vt 0.969887 0.771643
vt 0.712619 0.942428
vt 0.712619 0.862824
vt 0.743503 0.862824
vt 0.743503 0.942428
vt 0.922155 0.704983
vt 0.922155 0.640836
vt 0.953038 0.640836
vt 0.953038 0.704983
vt 0.935972 0.619182
vt 0.935972 0.557902
vt 0.966856 0.557902
vt 0.966856 0.619182
vt 0.915958 0.710363
vt 0.915958 0.792833
vt 0.885075 0.792834
vt 0.885075 0.710363
vt 0.961123 0.857907
vt 0.961123 0.919187
vt 0.930239 0.919187
vt 0.930239 0.857907
vt 0.890344 0.640836
vt 0.890344 0.704983
vt 0.859461 0.704983
vt 0.859461 0.640836
vt 0.961123 0.919651
vt 0.961123 0.980931
vt 0.930239 0.980931
vt 0.930239 0.919651
vt 0.101700 0.229405
vt 0.136926 0.264630
vt 0.129653 0.282187
vt 0.084143 0.236677
vt 0.101700 0.335082
vt 0.101700 0.385282
vt 0.084143 0.392554
vt 0.084143 0.327810
vt 0.136926 0.420508
vt 0.129653 0.438065
vt 0.101700 0.179205
vt 0.084143 0.171933
vt 0.187125 0.264630
vt 0.194398 0.282187
vt 0.136926 0.299857
vt 0.129653 0.282300
vt 0.136926 0.143979
vt 0.129653 0.126422
vt 0.222351 0.229405
vt 0.222351 0.179205
vt 0.239908 0.171933
vt 0.239908 0.236677
vt 0.311311 0.869803
vt 0.230741 0.965822
vt 0.051811 0.815681
vt 0.132380 0.719662
vt 0.793297 0.295395
vt 0.712728 0.391413
vt 0.533797 0.241273
vt 0.614366 0.145254
vt 0.373135 0.432742
vt 0.453704 0.336724
vt 0.632635 0.486864
vt 0.552065 0.582883
vt 0.471973 0.678334
vt 0.293042 0.528193
vt 0.212473 0.624212
vt 0.391403 0.774352
vt 0.694459 0.049803
vt 0.873390 0.199944
vt 0.187125 0.420508
vt 0.194398 0.438065
vt 0.222351 0.385282
vt 0.239908 0.392554
vt 0.187125 0.143979
vt 0.194398 0.126422
vt 0.187125 0.299857
vt 0.194398 0.282300
vt 0.222351 0.335082
vt 0.239908 0.327810
s 0
usemtl マテリアル.001
f 13/1/1 28/2/1 27/3/1
f 2/4/2 26/5/2 9/6/2
f 1/7/2 19/8/2 2/4/2
f 14/9/3 18/10/3 5/11/3
f 16/12/4 29/13/4 28/14/4
f 9/6/2 25/15/2 10/16/2
f 6/17/5 5/18/6 18/19/6
f 8/20/7 30/21/7 15/22/7
f 29/23/8 25/24/8 28/25/8
f 23/26/9 31/27/9 30/28/9
f 20/29/10 24/30/10 17/31/10
f 19/32/11 17/31/11 18/33/11
f 22/34/12 24/35/12 21/36/12
f 26/37/13 28/25/13 25/24/13
f 31/27/14 29/23/14 30/28/14
f 27/38/15 19/32/15 18/33/15
f 4/39/2 20/40/2 1/7/2
f 3/41/2 21/42/2 4/39/2
f 7/43/16 6/44/16 17/45/16
f 15/46/17 30/47/17 29/48/17
f 10/16/2 32/49/2 11/50/2
f 8/51/18 7/52/19 24/53/19
f 12/54/2 22/55/2 3/41/2
f 11/50/2 31/56/2 12/54/2
f 16/57/20 15/58/20 29/59/20
f 13/60/4 16/61/4 28/62/4
f 14/63/21 13/64/21 27/65/21
f 23/66/22 8/67/23 24/68/23
f 24/69/16 7/70/16 17/71/16
f 17/72/24 6/73/24 18/74/24
f 2/4/2 19/8/2 26/5/2
f 1/7/2 20/40/2 19/8/2
f 14/75/3 27/76/3 18/77/3
f 9/6/2 26/5/2 25/15/2
f 8/78/7 23/79/7 30/80/7
f 29/23/8 32/81/8 25/24/8
f 23/26/9 22/34/9 31/27/9
f 20/29/10 21/82/10 24/30/10
f 19/32/25 20/29/25 17/31/25
f 22/34/26 23/26/26 24/35/26
f 26/37/27 27/38/27 28/25/27
f 31/27/28 32/81/28 29/23/28
f 27/38/15 26/37/15 19/32/15
f 4/39/2 21/42/2 20/40/2
f 3/41/2 22/55/2 21/42/2
f 10/16/2 25/15/2 32/49/2
f 12/54/2 31/56/2 22/55/2
f 11/50/2 32/49/2 31/56/2
usemtl Material.001
f 49/83/29 52/84/29 40/85/29 60/86/29
f 48/87/30 47/88/30 78/89/30 79/90/30
f 39/91/31 63/92/31 62/93/31 38/94/31
f 51/95/29 44/96/29 63/97/29 39/98/29
f 37/99/32 38/100/32 69/101/32 70/102/32
f 38/103/31 62/104/31 77/105/31 69/106/31
f 52/107/29 51/108/29 39/109/29 40/110/29
f 58/111/30 57/112/30 65/113/30 66/114/30
f 44/115/29 43/116/29 64/117/29 63/118/29
f 37/119/33 57/120/33 60/121/33 40/122/33
f 35/123/34 59/124/34 58/125/34 34/126/34
f 64/127/35 36/128/35 33/129/35 61/130/35
f 39/131/32 38/132/32 37/133/32 40/134/32
f 35/135/36 34/136/36 33/137/36 36/138/36
f 58/139/30 59/140/30 60/141/30 57/142/30
f 62/143/37 63/144/37 64/145/37 61/146/37
f 50/147/29 49/148/29 60/149/29 59/150/29
f 41/151/29 50/152/29 59/153/29 35/154/29
f 42/155/29 41/156/29 35/157/29 36/158/29
f 43/159/29 42/160/29 36/161/29 64/162/29
f 34/163/34 58/164/34 66/165/34 67/166/34
f 61/167/35 33/168/35 68/169/35 80/170/35
f 56/171/36 55/172/36 73/173/36 72/174/36
f 62/175/37 61/176/37 80/177/37 77/178/37
f 72/179/2 73/180/2 70/181/2 69/182/2
f 73/183/2 71/184/2 65/185/2 70/186/2
f 71/187/2 74/188/2 66/189/2 65/190/2
f 78/191/2 72/192/2 69/193/2 77/194/2
f 79/195/2 78/196/2 77/197/2 80/198/2
f 76/199/2 79/200/2 80/201/2 68/202/2
f 75/203/2 76/204/2 68/205/2 67/206/2
f 74/207/2 75/208/2 67/209/2 66/210/2
f 45/211/33 48/212/33 79/213/33 76/214/33
f 57/215/33 37/216/33 70/217/33 65/218/33
f 46/219/32 45/220/32 76/221/32 75/222/32
f 53/223/31 46/224/31 75/225/31 74/226/31
f 33/227/36 34/228/36 67/229/36 68/230/36
f 47/231/34 56/232/34 72/233/34 78/234/34
f 54/235/37 53/236/37 74/237/37 71/238/37
f 55/239/35 54/240/35 71/241/35 73/242/35
usemtl マテリアル
f 94/243/29 93/244/29 108/245/29 107/246/29
f 89/247/2 82/248/2 99/249/2 106/250/2
f 82/248/2 81/251/2 100/252/2 99/249/2
f 85/253/29 94/243/29 107/246/29 98/254/29
f 93/244/29 96/255/29 109/256/29 108/245/29
f 90/257/2 89/247/2 106/250/2 105/258/2
f 86/259/29 85/253/29 98/254/29 97/260/29
f 95/261/29 88/262/29 103/263/29 110/264/29
f 108/265/35 109/266/35 112/267/35 105/268/35
f 110/269/34 103/270/34 102/271/34 111/272/34
f 100/273/33 101/274/33 104/275/33 97/276/33
f 98/277/32 99/278/32 100/273/32 97/276/32
f 102/271/30 103/270/30 104/275/30 101/274/30
f 106/279/37 107/280/37 108/265/37 105/268/37
f 110/269/36 111/272/36 112/281/36 109/282/36
f 98/277/31 107/280/31 106/279/31 99/278/31
f 81/251/2 84/283/2 101/284/2 100/252/2
f 84/283/2 83/285/2 102/286/2 101/284/2
f 87/287/29 86/259/29 97/260/29 104/288/29
f 96/255/29 95/261/29 110/264/29 109/256/29
f 91/289/2 90/257/2 105/258/2 112/290/2
f 88/262/29 87/287/29 104/288/29 103/263/29
f 83/285/2 92/291/2 111/292/2 102/286/2
f 92/291/2 91/289/2 112/290/2 111/292/2
f 126/243/29 125/244/29 140/245/29 139/246/29
f 121/247/2 114/248/2 131/249/2 138/250/2
f 114/248/2 113/251/2 132/252/2 131/249/2
f 117/253/29 126/243/29 139/246/29 130/254/29
f 125/244/29 128/255/29 141/256/29 140/245/29
f 122/257/2 121/247/2 138/250/2 137/258/2
f 118/259/29 117/253/29 130/254/29 129/260/29
f 127/261/29 120/262/29 135/263/29 142/264/29
f 140/265/35 141/266/35 144/267/35 137/268/35
f 142/269/34 135/270/34 134/271/34 143/272/34
f 132/273/33 133/274/33 136/275/33 129/276/33
f 130/277/32 131/278/32 132/273/32 129/276/32
f 134/271/30 135/270/30 136/275/30 133/274/30
f 138/279/37 139/280/37 140/265/37 137/268/37
f 142/269/36 143/272/36 144/281/36 141/282/36
f 130/277/31 139/280/31 138/279/31 131/278/31
f 113/251/2 116/283/2 133/284/2 132/252/2
f 116/283/2 115/285/2 134/286/2 133/284/2
f 119/287/29 118/259/29 129/260/29 136/288/29
f 128/255/29 127/261/29 142/264/29 141/256/29
f 123/289/2 122/257/2 137/258/2 144/290/2
f 120/262/29 119/287/29 136/288/29 135/263/29
f 115/285/2 124/291/2 143/292/2 134/286/2
f 124/291/2 123/289/2 144/290/2 143/292/2
f 158/243/29 157/244/29 172/245/29 171/246/29
f 153/247/2 146/248/2 163/249/2 170/250/2
f 146/248/2 145/251/2 164/252/2 163/249/2
f 149/253/29 158/243/29 171/246/29 162/254/29
f 157/244/29 160/255/29 173/256/29 172/245/29
f 154/257/2 153/247/2 170/250/2 169/258/2
f 150/259/29 149/253/29 162/254/29 161/260/29
f 159/261/29 152/262/29 167/263/29 174/264/29
f 172/265/35 173/266/35 176/267/35 169/268/35
f 174/269/34 167/270/34 166/271/34 175/272/34
f 164/273/33 165/274/33 168/275/33 161/276/33
f 162/277/32 163/278/32 164/273/32 161/276/32
f 166/271/30 167/270/30 168/275/30 165/274/30
f 170/279/37 171/280/37 172/265/37 169/268/37
f 174/269/36 175/272/36 176/281/36 173/282/36
f 162/277/31 171/280/31 170/279/31 163/278/31
f 145/251/2 148/283/2 165/284/2 164/252/2
f 148/283/2 147/285/2 166/286/2 165/284/2
f 151/287/29 150/259/29 161/260/29 168/288/29
f 160/255/29 159/261/29 174/264/29 173/256/29
f 155/289/2 154/257/2 169/258/2 176/290/2
f 152/262/29 151/287/29 168/288/29 167/263/29
f 147/285/2 156/291/2 175/292/2 166/286/2
f 156/291/2 155/289/2 176/290/2 175/292/2
