{
	"asset":{
		"generator":"Khronos glTF Blender I/O v4.2.57",
		"version":"2.0"
	},
	"scene":0,
	"scenes":[
		{
			"name":"Scene",
			"nodes":[
				4
			]
		}
	],
	"nodes":[
		{
			"name":"\u5186\u67f1"
		},
		{
			"name":"\u30dc\u30fc\u30f3"
		},
		{
			"name":"\u30dc\u30fc\u30f3.001",
			"rotation":[
				-2.980232594040899e-08,
				0,
				0,
				1
			],
			"scale":[
				1,
				0.9999999403953552,
				0.9999999403953552
			],
			"translation":[
				0,
				2.79648756980896,
				0
			]
		},
		{
			"mesh":0,
			"name":"\u5186\u67f1.002",
			"skin":0
		},
		{
			"children":[
				0,
				3,
				1,
				2
			],
			"name":"\u30a2\u30fc\u30de\u30c1\u30e5\u30a2"
		}
	],
	"animations":[
		{
			"channels":[
				{
					"sampler":0,
					"target":{
						"node":1,
						"path":"translation"
					}
				},
				{
					"sampler":1,
					"target":{
						"node":1,
						"path":"rotation"
					}
				},
				{
					"sampler":2,
					"target":{
						"node":1,
						"path":"scale"
					}
				},
				{
					"sampler":3,
					"target":{
						"node":2,
						"path":"translation"
					}
				},
				{
					"sampler":4,
					"target":{
						"node":2,
						"path":"rotation"
					}
				},
				{
					"sampler":5,
					"target":{
						"node":2,
						"path":"scale"
					}
				}
			],
			"name":"\u30a2\u30fc\u30de\u30c1\u30e5\u30a2\u30a2\u30af\u30b7\u30e7\u30f3.001",
			"samplers":[
				{
					"input":7,
					"interpolation":"LINEAR",
					"output":8
				},
				{
					"input":7,
					"interpolation":"LINEAR",
					"output":9
				},
				{
					"input":7,
					"interpolation":"LINEAR",
					"output":10
				},
				{
					"input":7,
					"interpolation":"LINEAR",
					"output":11
				},
				{
					"input":7,
					"interpolation":"LINEAR",
					"output":12
				},
				{
					"input":7,
					"interpolation":"LINEAR",
					"output":13
				}
			]
		}
	],
	"materials":[
		{
			"alphaMode":"BLEND",
			"doubleSided":true,
			"name":"\u30de\u30c6\u30ea\u30a2\u30eb",
			"pbrMetallicRoughness":{
				"baseColorTexture":{
					"index":0
				},
				"metallicFactor":0,
				"roughnessFactor":0.5
			}
		}
	],
	"meshes":[
		{
			"name":"\u5186\u67f1.002",
			"primitives":[
				{
					"attributes":{
						"POSITION":0,
						"NORMAL":1,
						"TEXCOORD_0":2,
						"JOINTS_0":3,
						"WEIGHTS_0":4
					},
					"indices":5,
					"material":0
				}
			]
		}
	],
	"textures":[
		{
			"sampler":0,
			"source":0
		}
	],
	"images":[
		{
			"mimeType":"image/png",
			"name":"FishWeakening",
			"uri":"FishWeakening.png"
		}
	],
	"skins":[
		{
			"inverseBindMatrices":6,
			"joints":[
				1,
				2
			],
			"name":"\u30a2\u30fc\u30de\u30c1\u30e5\u30a2"
		}
	],
	"accessors":[
		{
			"bufferView":0,
			"componentType":5126,
			"count":384,
			"max":[
				6.280712127685547,
				8.230260848999023,
				5.224499702453613
			],
			"min":[
				-5.321017265319824,
				-3.4030983448028564,
				-5.842676162719727
			],
			"type":"VEC3"
		},
		{
			"bufferView":1,
			"componentType":5126,
			"count":384,
			"type":"VEC3"
		},
		{
			"bufferView":2,
			"componentType":5126,
			"count":384,
			"type":"VEC2"
		},
		{
			"bufferView":3,
			"componentType":5121,
			"count":384,
			"type":"VEC4"
		},
		{
			"bufferView":4,
			"componentType":5126,
			"count":384,
			"type":"VEC4"
		},
		{
			"bufferView":5,
			"componentType":5123,
			"count":384,
			"type":"SCALAR"
		},
		{
			"bufferView":6,
			"componentType":5126,
			"count":2,
			"type":"MAT4"
		},
		{
			"bufferView":7,
			"componentType":5126,
			"count":58,
			"max":[
				1.14
			],
			"min":[
				0
			],
			"type":"SCALAR"
		},
		{
			"bufferView":8,
			"componentType":5126,
			"count":58,
			"type":"VEC3"
		},
		{
			"bufferView":9,
			"componentType":5126,
			"count":58,
			"type":"VEC4"
		},
		{
			"bufferView":10,
			"componentType":5126,
			"count":58,
			"type":"VEC3"
		},
		{
			"bufferView":11,
			"componentType":5126,
			"count":58,
			"type":"VEC3"
		},
		{
			"bufferView":12,
			"componentType":5126,
			"count":58,
			"type":"VEC4"
		},
		{
			"bufferView":13,
			"componentType":5126,
			"count":58,
			"type":"VEC3"
		}
	],
	"bufferViews":[
		{
			"buffer":0,
			"byteLength":4608,
			"byteOffset":0,
			"target":34962
		},
		{
			"buffer":0,
			"byteLength":4608,
			"byteOffset":4608,
			"target":34962
		},
		{
			"buffer":0,
			"byteLength":3072,
			"byteOffset":9216,
			"target":34962
		},
		{
			"buffer":0,
			"byteLength":1536,
			"byteOffset":12288,
			"target":34962
		},
		{
			"buffer":0,
			"byteLength":6144,
			"byteOffset":13824,
			"target":34962
		},
		{
			"buffer":0,
			"byteLength":768,
			"byteOffset":19968,
			"target":34963
		},
		{
			"buffer":0,
			"byteLength":128,
			"byteOffset":20736
		},
		{
			"buffer":0,
			"byteLength":232,
			"byteOffset":20864
		},
		{
			"buffer":0,
			"byteLength":696,
			"byteOffset":21096
		},
		{
			"buffer":0,
			"byteLength":928,
			"byteOffset":21792
		},
		{
			"buffer":0,
			"byteLength":696,
			"byteOffset":22720
		},
		{
			"buffer":0,
			"byteLength":696,
			"byteOffset":23416
		},
		{
			"buffer":0,
			"byteLength":928,
			"byteOffset":24112
		},
		{
			"buffer":0,
			"byteLength":696,
			"byteOffset":25040
		}
	],
	"samplers":[
		{
			"magFilter":9729,
			"minFilter":9987
		}
	],
	"buffers":[
		{
			"byteLength":25736,
			"uri":"FishWeakening.bin"
		}
	]
}
