# Blender 4.2.0
# www.blender.org
mtllib DebugBackGround.mtl
o 立方体.005
v -4100.000000 42.617523 5020.000000
v -4100.000000 82.617523 5020.000000
v -8002.325195 42.617523 5020.000000
v -8002.325195 82.617523 5020.000000
v -4100.000000 42.617523 4980.000000
v -4100.000000 82.617523 4980.000000
v -8002.325195 42.617523 4980.000000
v -8002.325195 82.617523 4980.000000
v -4002.325439 18.612480 4999.999512
v -4002.325684 18.612480 -0.000004
v -7904.650391 18.612480 4999.999512
v -7904.650879 18.612480 0.000166
v -4100.000000 42.617523 1020.000000
v -4100.000000 82.617523 1020.000000
v -8002.325195 42.617523 1020.000183
v -8002.325195 82.617523 1020.000183
v -4100.000000 42.617523 980.000000
v -4100.000000 82.617523 980.000000
v -8002.325195 42.617523 980.000183
v -8002.325195 82.617523 980.000183
v -4100.000000 42.617523 2020.000000
v -4100.000000 82.617523 2020.000000
v -8002.325195 42.617523 2020.000122
v -8002.325195 82.617523 2020.000122
v -4100.000000 42.617523 1980.000000
v -4100.000000 82.617523 1980.000000
v -8002.325195 42.617523 1980.000122
v -8002.325195 82.617523 1980.000122
v -4100.000000 42.617523 3019.999756
v -4100.000000 82.617523 3019.999756
v -8002.325195 42.617523 3020.000000
v -8002.325195 82.617523 3020.000000
v -4100.000000 42.617523 2979.999756
v -4100.000000 82.617523 2979.999756
v -8002.325195 42.617523 2980.000000
v -8002.325195 82.617523 2980.000000
v -4100.000000 42.617523 4019.999756
v -4100.000000 82.617523 4019.999756
v -8002.325195 42.617523 4020.000000
v -8002.325195 82.617523 4020.000000
v -4100.000000 42.617523 3979.999756
v -4100.000000 82.617523 3979.999756
v -8002.325195 42.617523 3980.000000
v -8002.325195 82.617523 3980.000000
vn -0.0000 -0.0000 1.0000
vn -1.0000 -0.0000 -0.0000
vn -0.0000 -0.0000 -1.0000
vn 1.0000 -0.0000 -0.0000
vn -0.0000 -1.0000 -0.0000
vn -0.0000 1.0000 -0.0000
vt 0.375000 0.000000
vt 0.625000 0.000000
vt 0.625000 0.250000
vt 0.375000 0.250000
vt 0.625000 0.500000
vt 0.375000 0.500000
vt 0.625000 0.750000
vt 0.375000 0.750000
vt 0.625000 1.000000
vt 0.375000 1.000000
vt 0.125000 0.500000
vt 0.125000 0.750000
vt 0.875000 0.500000
vt 0.875000 0.750000
vt 0.000000 0.000000
vt 1.000000 0.000000
vt 1.000000 1.000000
vt 0.000000 1.000000
s 0
usemtl マテリアル.001
f 1/1/1 2/2/1 4/3/1 3/4/1
f 3/4/2 4/3/2 8/5/2 7/6/2
f 7/6/3 8/5/3 6/7/3 5/8/3
f 5/8/4 6/7/4 2/9/4 1/10/4
f 3/11/5 7/6/5 5/8/5 1/12/5
f 8/5/6 4/13/6 2/14/6 6/7/6
f 9/15/6 10/16/6 12/17/6 11/18/6
f 13/1/1 14/2/1 16/3/1 15/4/1
f 15/4/2 16/3/2 20/5/2 19/6/2
f 19/6/3 20/5/3 18/7/3 17/8/3
f 17/8/4 18/7/4 14/9/4 13/10/4
f 15/11/5 19/6/5 17/8/5 13/12/5
f 20/5/6 16/13/6 14/14/6 18/7/6
f 21/1/1 22/2/1 24/3/1 23/4/1
f 23/4/2 24/3/2 28/5/2 27/6/2
f 27/6/3 28/5/3 26/7/3 25/8/3
f 25/8/4 26/7/4 22/9/4 21/10/4
f 23/11/5 27/6/5 25/8/5 21/12/5
f 28/5/6 24/13/6 22/14/6 26/7/6
f 29/1/1 30/2/1 32/3/1 31/4/1
f 31/4/2 32/3/2 36/5/2 35/6/2
f 35/6/3 36/5/3 34/7/3 33/8/3
f 33/8/4 34/7/4 30/9/4 29/10/4
f 31/11/5 35/6/5 33/8/5 29/12/5
f 36/5/6 32/13/6 30/14/6 34/7/6
f 37/1/1 38/2/1 40/3/1 39/4/1
f 39/4/2 40/3/2 44/5/2 43/6/2
f 43/6/3 44/5/3 42/7/3 41/8/3
f 41/8/4 42/7/4 38/9/4 37/10/4
f 39/11/5 43/6/5 41/8/5 37/12/5
f 44/5/6 40/13/6 38/14/6 42/7/6
