{
	"asset":{
		"generator":"Khronos glTF Blender I/O v4.2.57",
		"version":"2.0"
	},
	"scene":0,
	"scenes":[
		{
			"name":"Scene",
			"nodes":[
				2
			]
		}
	],
	"nodes":[
		{
			"name":"\u30dc\u30fc\u30f3",
			"rotation":[
				0,
				0.0004263669834472239,
				0,
				0.9999998807907104
			],
			"translation":[
				0.3590049743652344,
				-0.5025787353515625,
				0.24483108520507812
			]
		},
		{
			"mesh":0,
			"name":"\u5e73\u9762",
			"skin":0
		},
		{
			"children":[
				1,
				0
			],
			"name":"\u30a2\u30fc\u30de\u30c1\u30e5\u30a2"
		}
	],
	"animations":[
		{
			"channels":[
				{
					"sampler":0,
					"target":{
						"node":0,
						"path":"translation"
					}
				},
				{
					"sampler":1,
					"target":{
						"node":0,
						"path":"rotation"
					}
				},
				{
					"sampler":2,
					"target":{
						"node":0,
						"path":"scale"
					}
				}
			],
			"name":"\u30a2\u30fc\u30de\u30c1\u30e5\u30a2\u30a2\u30af\u30b7\u30e7\u30f3",
			"samplers":[
				{
					"input":7,
					"interpolation":"STEP",
					"output":8
				},
				{
					"input":7,
					"interpolation":"STEP",
					"output":9
				},
				{
					"input":10,
					"interpolation":"LINEAR",
					"output":11
				}
			]
		}
	],
	"materials":[
		{
			"alphaMode":"BLEND",
			"doubleSided":true,
			"name":"\u30de\u30c6\u30ea\u30a2\u30eb",
			"pbrMetallicRoughness":{
				"baseColorTexture":{
					"index":0
				},
				"metallicFactor":0,
				"roughnessFactor":0.5
			}
		}
	],
	"meshes":[
		{
			"name":"\u5e73\u9762",
			"primitives":[
				{
					"attributes":{
						"POSITION":0,
						"NORMAL":1,
						"TEXCOORD_0":2,
						"JOINTS_0":3,
						"WEIGHTS_0":4
					},
					"indices":5,
					"material":0
				}
			]
		}
	],
	"textures":[
		{
			"sampler":0,
			"source":0
		}
	],
	"images":[
		{
			"mimeType":"image/png",
			"name":"evaluation2",
			"uri":"evaluation2.png"
		}
	],
	"skins":[
		{
			"inverseBindMatrices":6,
			"joints":[
				0
			],
			"name":"\u30a2\u30fc\u30de\u30c1\u30e5\u30a2"
		}
	],
	"accessors":[
		{
			"bufferView":0,
			"componentType":5126,
			"count":4,
			"max":[
				90.75321960449219,
				23.43429183959961,
				0.289703369140625
			],
			"min":[
				-89.5234146118164,
				-24.4394474029541,
				0.19996261596679688
			],
			"type":"VEC3"
		},
		{
			"bufferView":1,
			"componentType":5126,
			"count":4,
			"type":"VEC3"
		},
		{
			"bufferView":2,
			"componentType":5126,
			"count":4,
			"type":"VEC2"
		},
		{
			"bufferView":3,
			"componentType":5121,
			"count":4,
			"type":"VEC4"
		},
		{
			"bufferView":4,
			"componentType":5126,
			"count":4,
			"type":"VEC4"
		},
		{
			"bufferView":5,
			"componentType":5123,
			"count":6,
			"type":"SCALAR"
		},
		{
			"bufferView":6,
			"componentType":5126,
			"count":1,
			"type":"MAT4"
		},
		{
			"bufferView":7,
			"componentType":5126,
			"count":2,
			"max":[
				1.6666666666666667
			],
			"min":[
				0.23333333333333334
			],
			"type":"SCALAR"
		},
		{
			"bufferView":8,
			"componentType":5126,
			"count":2,
			"type":"VEC3"
		},
		{
			"bufferView":9,
			"componentType":5126,
			"count":2,
			"type":"VEC4"
		},
		{
			"bufferView":10,
			"componentType":5126,
			"count":87,
			"max":[
				1.6666666666666667
			],
			"min":[
				0.23333333333333334
			],
			"type":"SCALAR"
		},
		{
			"bufferView":11,
			"componentType":5126,
			"count":87,
			"type":"VEC3"
		}
	],
	"bufferViews":[
		{
			"buffer":0,
			"byteLength":48,
			"byteOffset":0,
			"target":34962
		},
		{
			"buffer":0,
			"byteLength":48,
			"byteOffset":48,
			"target":34962
		},
		{
			"buffer":0,
			"byteLength":32,
			"byteOffset":96,
			"target":34962
		},
		{
			"buffer":0,
			"byteLength":16,
			"byteOffset":128,
			"target":34962
		},
		{
			"buffer":0,
			"byteLength":64,
			"byteOffset":144,
			"target":34962
		},
		{
			"buffer":0,
			"byteLength":12,
			"byteOffset":208,
			"target":34963
		},
		{
			"buffer":0,
			"byteLength":64,
			"byteOffset":220
		},
		{
			"buffer":0,
			"byteLength":8,
			"byteOffset":284
		},
		{
			"buffer":0,
			"byteLength":24,
			"byteOffset":292
		},
		{
			"buffer":0,
			"byteLength":32,
			"byteOffset":316
		},
		{
			"buffer":0,
			"byteLength":348,
			"byteOffset":348
		},
		{
			"buffer":0,
			"byteLength":1044,
			"byteOffset":696
		}
	],
	"samplers":[
		{
			"magFilter":9729,
			"minFilter":9987
		}
	],
	"buffers":[
		{
			"byteLength":1740,
			"uri":"evaluationGood.bin"
		}
	]
}
